<svg width="203" height="80" viewBox="0 0 203 80" fill="none" xmlns="http://www.w3.org/2000/svg">
<rect width="202.722" height="80" rx="8" fill="white"/>
<g clip-path="url(#clip0_5223_8017)">
<path d="M55.3115 52.596C56.8718 46.5565 55.9683 40.1583 52.7932 34.762C49.6308 29.3571 44.4423 25.3759 38.3323 23.666C37.028 25.3026 36.0222 27.1482 35.3594 29.121C37.8884 29.6387 40.277 30.6755 42.3682 32.1631C44.4595 33.6509 46.206 35.5557 47.493 37.7527C47.9188 38.4786 48.2929 39.2323 48.6127 40.0088C50.2355 43.9547 50.3779 48.3373 49.0147 52.3766C44.7688 51.5037 40.9764 49.1815 38.3125 45.8234C36.1244 46.4356 33.8593 46.7436 31.584 46.7383C33.73 50.388 36.8164 53.4204 40.5338 55.5318C44.2511 57.6432 48.4691 58.7595 52.7648 58.7688C53.9012 56.8371 54.7588 54.7602 55.3129 52.5974" fill="#3B438B"/>
<path d="M55.3652 16.9317C54.813 14.7656 53.9554 12.6857 52.8175 10.752C49.0985 10.75 45.428 11.5789 42.0843 13.1757C38.7407 14.7726 35.8118 17.0954 33.5198 19.9681C31.2278 22.8407 29.633 26.1877 28.8564 29.755C28.0797 33.3222 28.1416 37.0163 29.0374 40.5566C31.1359 40.8505 33.2705 40.7847 35.3461 40.3622C34.5444 37.9539 34.2693 35.4068 34.5391 32.8871C34.8087 30.3674 35.6172 27.9318 36.9115 25.7394C38.2059 23.547 39.957 21.6468 42.0506 20.1632C44.1443 18.6795 46.5334 17.6455 49.0622 17.1288C50.4109 21.1732 50.2555 25.5554 48.6234 29.498C50.2559 31.0535 51.6593 32.8245 52.7933 34.76C55.9719 29.3677 56.8949 22.9764 55.3681 16.9303" fill="#F1BC47"/>
<path d="M47.4905 37.7436C46.8611 36.6715 46.1212 35.6657 45.2824 34.7419C43.5578 36.629 41.4468 38.1379 39.0871 39.1702C36.7272 40.2023 34.172 40.7346 31.5883 40.7319C29.0046 40.7293 26.4506 40.1919 24.093 39.155C21.7355 38.118 19.6276 36.6048 17.907 34.7141C20.8069 31.5454 24.7549 29.4835 29.0539 28.8925C29.608 26.7292 30.4654 24.6519 31.6018 22.7197C27.3048 22.7168 23.0827 23.8238 19.3602 25.9293C15.6378 28.0348 12.5462 31.0646 10.3965 34.7141C12.2552 37.8737 14.8232 40.5765 17.9057 42.6176C20.9882 44.6586 24.5041 45.9841 28.1868 46.4935C31.8694 47.003 35.6219 46.6829 39.1596 45.5578C42.6974 44.4326 45.9273 42.5318 48.6045 39.9996C48.2865 39.2234 47.9143 38.4696 47.4905 37.7436Z" fill="#44C2D8"/>
<path d="M74.5753 30.9426C76.0703 30.3252 77.7945 30.0166 79.748 30.0166V36.6808C78.9289 36.6198 78.3777 36.5888 78.0946 36.5878C75.9843 36.5878 74.3328 37.1668 73.1399 38.3248C71.947 39.4827 71.3486 41.2201 71.3448 43.5368V55.3034H63.9707V30.386H71.0093V33.675C71.9126 32.4534 73.1485 31.506 74.5753 30.9412" fill="#3B438B"/>
<path d="M109.69 30.3858V55.3102H102.653V52.4376C100.827 54.5989 98.1822 55.6795 94.719 55.6795C92.3259 55.6795 90.1611 55.1543 88.2248 54.1037C86.2986 53.064 84.7168 51.5042 83.667 49.6095C82.5647 47.6657 82.0137 45.4114 82.0137 42.8466C82.0137 40.2817 82.5647 38.027 83.667 36.0824C84.7171 34.1882 86.2988 32.6289 88.2248 31.5895C90.1611 30.5399 92.3259 30.0146 94.719 30.0137C97.9614 30.0137 100.496 31.0175 102.323 33.0251V30.3871L109.69 30.3858ZM100.623 47.8795C101.85 46.6291 102.463 44.9537 102.463 42.8535C102.463 40.7534 101.85 39.078 100.623 37.8275C99.3962 36.577 97.8533 35.9518 95.9943 35.9518C94.1071 35.9518 92.55 36.577 91.3232 37.8275C90.0965 39.078 89.4831 40.7534 89.4831 42.8535C89.4831 44.9537 90.0965 46.6291 91.3232 47.8795C92.55 49.13 94.1071 49.7552 95.9943 49.7552C97.8515 49.7552 99.3943 49.13 100.623 47.8795Z" fill="#3B438B"/>
<path d="M156.612 32.7704C158.485 34.6086 159.422 37.365 159.422 41.0396V55.3095H152.054V42.1517C152.054 40.1756 151.638 38.7011 150.803 37.7283C149.969 36.7555 148.781 36.2692 147.238 36.2692C145.505 36.2692 144.137 36.8175 143.133 37.9144C142.129 39.0111 141.625 40.6402 141.62 42.8015V55.3095H134.252V42.1517C134.252 38.23 132.648 36.2692 129.44 36.2692C127.741 36.2692 126.387 36.8175 125.377 37.9144C124.368 39.0111 123.864 40.6402 123.866 42.8015V55.3095H116.498V30.3851H123.536V33.2577C124.487 32.2028 125.676 31.3783 127.006 30.8488C128.439 30.2813 129.973 29.9982 131.518 30.0158C133.199 29.9914 134.865 30.3481 136.383 31.0584C137.81 31.7358 139.019 32.7859 139.878 34.0935C140.923 32.791 142.278 31.7574 143.821 31.0821C145.462 30.3616 147.242 29.9983 149.04 30.0172C152.22 30.0172 154.747 30.9358 156.62 32.7731" fill="#3B438B"/>
<path d="M192.107 30.3853V55.3097H185.076V52.4371C183.245 54.5985 180.598 55.6791 177.135 55.6791C174.742 55.6791 172.578 55.1538 170.641 54.1033C168.714 53.0636 167.133 51.5038 166.083 49.6091C164.981 47.6653 164.43 45.411 164.43 42.8461C164.43 40.2813 164.981 38.0266 166.083 36.0819C167.133 34.1886 168.713 32.6299 170.638 31.5904C172.575 30.5408 174.739 30.0155 177.132 30.0146C180.375 30.0146 182.909 31.0184 184.736 33.0261V30.3881L192.107 30.3853ZM183.039 47.8791C184.265 46.6286 184.879 44.9533 184.879 42.8531C184.879 40.7529 184.265 39.0776 183.039 37.8271C181.812 36.5766 180.269 35.9514 178.41 35.9514C176.523 35.9514 174.967 36.5766 173.739 37.8271C172.512 39.0776 171.9 40.7529 171.9 42.8531C171.9 44.9533 172.512 46.6286 173.739 47.8791C174.967 49.1296 176.523 49.7548 178.41 49.7548C180.267 49.7548 181.81 49.1296 183.039 47.8791Z" fill="#3B438B"/>
<path d="M73.2771 14.0605V22.6143H71.7624V21.2593C71.4197 21.726 70.9605 22.0984 70.4288 22.3409C69.8721 22.5922 69.2652 22.7188 68.6522 22.7115C67.8609 22.7214 67.0806 22.53 66.3872 22.1561C65.7257 21.798 65.1811 21.2637 64.8159 20.6151C64.4428 19.9108 64.248 19.1289 64.248 18.3353C64.248 17.5418 64.4428 16.7598 64.8159 16.0556C65.184 15.4126 65.7282 14.8835 66.3872 14.5284C67.0807 14.1547 67.861 13.9633 68.6522 13.973C69.247 13.9667 69.8363 14.085 70.3807 14.3201C70.9011 14.5466 71.3542 14.8992 71.6973 15.3447V14.0535L73.2771 14.0605ZM70.2802 20.9761C70.7271 20.7262 71.0924 20.3569 71.3335 19.9112C71.5824 19.4225 71.712 18.8837 71.712 18.3374C71.712 17.7911 71.5824 17.2523 71.3335 16.7637C71.0935 16.3193 70.7278 15.9524 70.2802 15.7071C69.8186 15.4635 69.3024 15.3359 68.7782 15.3359C68.254 15.3359 67.7379 15.4635 67.2762 15.7071C66.8308 15.9558 66.4658 16.3224 66.2229 16.7651C65.9687 17.2522 65.8362 17.7916 65.8362 18.3388C65.8362 18.886 65.9687 19.4254 66.2229 19.9125C66.4671 20.3561 66.8316 20.7247 67.2762 20.9774C67.7363 21.2258 68.253 21.3561 68.7782 21.3561C69.3034 21.3561 69.8201 21.2258 70.2802 20.9774" fill="#3B438B"/>
<path d="M84.9438 22.4283C84.386 22.2882 83.8608 22.0444 83.3965 21.7105L84.0547 20.4831C84.4816 20.7723 84.9542 20.9904 85.4534 21.1287C85.9924 21.2886 86.5523 21.37 87.1154 21.3703C88.498 21.3703 89.1893 20.983 89.1893 20.2082C89.1939 20.0914 89.1708 19.9751 89.1217 19.8686C89.0725 19.7621 88.9988 19.6682 88.9062 19.5946C88.7007 19.4352 88.4619 19.3224 88.2069 19.2641C87.9237 19.1947 87.5259 19.1165 87.0134 19.0295C86.4314 18.9487 85.8565 18.8248 85.2935 18.6588C84.856 18.5235 84.4617 18.2791 84.1496 17.9493C83.8316 17.6161 83.6725 17.1482 83.6725 16.5457C83.6653 16.1783 83.7522 15.8151 83.9254 15.4893C84.0986 15.1635 84.3523 14.8856 84.6635 14.681C85.3241 14.2127 86.2075 13.9785 87.3136 13.9785C87.9015 13.9793 88.487 14.0497 89.0576 14.1882C89.5632 14.298 90.0467 14.4889 90.4889 14.7532L89.8151 15.9806C89.0614 15.5175 88.1857 15.2819 87.2966 15.303C86.6275 15.303 86.1174 15.4104 85.7663 15.6251C85.6078 15.7076 85.475 15.8307 85.3823 15.9813C85.2896 16.1319 85.2403 16.3044 85.2397 16.4804C85.2338 16.6057 85.2573 16.7306 85.3086 16.8455C85.3599 16.9603 85.4376 17.062 85.5355 17.1427C85.7499 17.3125 85.9998 17.4339 86.2674 17.4981C86.5581 17.5731 86.9667 17.6591 87.4934 17.7563C88.0675 17.8462 88.635 17.9729 89.1921 18.1354C89.6173 18.2649 90.0004 18.5013 90.3034 18.8212C90.6101 19.1443 90.764 19.596 90.765 20.1763C90.7723 20.5437 90.683 20.9067 90.5058 21.2304C90.3285 21.5541 90.0691 21.8275 89.7527 22.0243C89.078 22.4815 88.1592 22.7101 86.9965 22.7101C86.3009 22.7139 85.6082 22.6205 84.9395 22.4324" fill="#3B438B"/>
<path d="M109.099 14.0605V22.6144H107.601V21.3233C107.28 21.7667 106.846 22.12 106.343 22.3479C105.811 22.5921 105.231 22.7164 104.644 22.7116C103.481 22.7116 102.565 22.397 101.896 21.7675C101.227 21.1381 100.893 20.2102 100.893 18.9838V14.0605H102.472V18.8061C102.472 19.6391 102.675 20.2657 103.081 20.686C103.487 21.1062 104.066 21.3186 104.818 21.3233C105.652 21.3233 106.312 21.0756 106.8 20.5804C107.288 20.0853 107.529 19.386 107.523 18.4826V14.0605H109.099Z" fill="#3B438B"/>
<path d="M123.069 14.3677C123.684 14.0938 124.354 13.9613 125.028 13.9803V15.4812C124.907 15.4687 124.787 15.4632 124.665 15.4645C123.809 15.4645 123.137 15.7149 122.649 16.2156C122.162 16.7164 121.917 17.4291 121.917 18.3538V22.6148H120.338V14.0608H121.851V15.4978C122.123 15.0035 122.55 14.6076 123.068 14.3677" fill="#3B438B"/>
<path d="M143.34 14.0605V22.6143H141.825V21.2593C141.483 21.726 141.023 22.0984 140.491 22.3409C139.935 22.5922 139.328 22.7188 138.715 22.7115C137.924 22.7214 137.143 22.53 136.45 22.1561C135.789 21.798 135.244 21.2637 134.879 20.6151C134.505 19.9108 134.311 19.1289 134.311 18.3353C134.311 17.5418 134.505 16.7598 134.879 16.0556C135.247 15.4126 135.791 14.8835 136.45 14.5284C137.143 14.1547 137.924 13.9633 138.715 13.973C139.309 13.9667 139.899 14.0851 140.443 14.3201C140.964 14.5466 141.417 14.8992 141.76 15.3447V14.0535L143.34 14.0605ZM140.346 20.9761C140.793 20.7262 141.158 20.3569 141.399 19.9112C141.648 19.4225 141.778 18.8837 141.778 18.3374C141.778 17.7911 141.648 17.2523 141.399 16.7637C141.159 16.3188 140.794 15.9514 140.346 15.7057C139.884 15.4621 139.369 15.3345 138.844 15.3345C138.32 15.3345 137.803 15.4621 137.342 15.7057C136.897 15.9543 136.532 16.321 136.288 16.7637C136.034 17.2508 135.902 17.7902 135.902 18.3374C135.902 18.8847 136.034 19.4241 136.288 19.9112C136.533 20.3547 136.898 20.7233 137.342 20.9761C137.802 21.2244 138.319 21.3548 138.844 21.3548C139.37 21.3548 139.885 21.2244 140.346 20.9761Z" fill="#3B438B"/>
<path d="M161.862 14.9242C162.514 15.5536 162.841 16.4765 162.842 17.6927V22.616H161.261V17.869C161.261 17.036 161.059 16.4117 160.653 15.9961C160.247 15.5805 159.666 15.3708 158.909 15.3671C158.053 15.3671 157.378 15.612 156.885 16.1016C156.39 16.5912 156.144 17.2933 156.144 18.2078V22.6146H154.564V14.0607H156.077V15.3519C156.405 14.9034 156.852 14.5519 157.37 14.3356C157.955 14.0906 158.586 13.9695 159.222 13.9801C160.33 13.9801 161.211 14.2948 161.863 14.9242" fill="#3B438B"/>
<path d="M174.44 22.4283C173.882 22.288 173.357 22.0444 172.893 21.7105L173.55 20.4831C173.978 20.7723 174.45 20.9904 174.949 21.1287C175.488 21.2886 176.048 21.37 176.611 21.3703C177.994 21.3703 178.685 20.983 178.685 20.2082C178.69 20.0914 178.667 19.9751 178.617 19.8686C178.569 19.7621 178.494 19.6682 178.402 19.5946C178.196 19.4352 177.958 19.3224 177.703 19.2641C177.42 19.1947 177.021 19.1165 176.509 19.0295C175.928 18.9487 175.353 18.8247 174.79 18.6588C174.351 18.5236 173.957 18.2791 173.645 17.9493C173.328 17.6161 173.168 17.1482 173.168 16.5457C173.161 16.1783 173.248 15.8151 173.421 15.4893C173.595 15.1635 173.849 14.8856 174.16 14.681C174.82 14.2127 175.704 13.9785 176.809 13.9785C177.397 13.9793 177.983 14.0497 178.554 14.1882C179.06 14.298 179.543 14.4889 179.984 14.7532L179.309 15.9806C178.556 15.5175 177.68 15.2819 176.791 15.303C176.121 15.303 175.612 15.4104 175.261 15.6251C175.102 15.7076 174.969 15.8307 174.877 15.9813C174.784 16.1319 174.735 16.3044 174.734 16.4804C174.728 16.6057 174.752 16.7306 174.803 16.8455C174.854 16.9603 174.932 17.062 175.03 17.1427C175.244 17.3126 175.494 17.4339 175.762 17.4981C176.052 17.5731 176.462 17.6591 176.988 17.7563C177.562 17.8463 178.129 17.9729 178.687 18.1354C179.111 18.2649 179.494 18.5013 179.798 18.8212C180.108 19.1424 180.263 19.5946 180.263 20.1777C180.271 20.545 180.181 20.9081 180.005 21.2318C179.827 21.5555 179.568 21.8289 179.251 22.0256C178.576 22.4829 177.658 22.7115 176.495 22.7115C175.799 22.7153 175.107 22.6219 174.439 22.4338" fill="#3B438B"/>
<path d="M190.49 12.124C190.391 12.033 190.314 11.9229 190.261 11.8007C190.209 11.6786 190.184 11.547 190.186 11.4145C190.184 11.2808 190.209 11.1481 190.262 11.0247C190.314 10.9012 190.392 10.7896 190.49 10.6967C190.59 10.5983 190.71 10.521 190.841 10.4697C190.973 10.4183 191.114 10.394 191.256 10.3982C191.538 10.3879 191.814 10.4877 192.021 10.6759C192.12 10.7651 192.198 10.8739 192.251 10.995C192.303 11.1161 192.329 11.2468 192.326 11.3784C192.329 11.5147 192.303 11.6502 192.252 11.7765C192.199 11.9028 192.12 12.0173 192.021 12.1129C191.921 12.2113 191.802 12.2885 191.67 12.3399C191.539 12.3912 191.397 12.4155 191.256 12.4114C191.115 12.4158 190.975 12.3923 190.842 12.3425C190.711 12.2926 190.592 12.2174 190.49 12.1212V12.124ZM190.466 14.0649H192.046V22.6188H190.466V14.0649Z" fill="#3B438B"/>
<path d="M63.8223 67.6215L64.952 61.3154H65.8523L67.3769 65.7124L70.4631 61.3154H71.3732L70.2436 67.6215H69.472L70.3526 62.6663L67.4873 66.7205H66.9083L65.4842 62.676L64.5938 67.6215H63.8223Z" fill="#3B438B"/>
<path d="M73.8971 67.7303C73.7011 67.7414 73.5047 67.7141 73.3194 67.65C73.1342 67.5859 72.9639 67.4863 72.8184 67.3567C72.5579 67.1078 72.4277 66.7519 72.4277 66.2891C72.4277 66.2057 72.4277 66.1197 72.4376 66.0322C72.4441 65.9428 72.4564 65.8537 72.4745 65.7657L72.9515 63.1528H73.723L73.2644 65.6837C73.2521 65.7615 73.2412 65.8365 73.2318 65.9086C73.2227 65.9773 73.218 66.0464 73.2177 66.1155C73.2177 66.7579 73.539 67.0791 74.1817 67.0791C74.566 67.0798 74.9365 66.9385 75.2193 66.6834C75.5465 66.3818 75.763 65.9825 75.8352 65.5477L76.2598 63.1514H77.0314L76.2386 67.6192H75.5407L75.6328 66.8084C75.4421 67.0899 75.1834 67.3208 74.8796 67.4803C74.5782 67.6412 74.2402 67.7248 73.8971 67.7233" fill="#3B438B"/>
<path d="M80.2356 67.7307C79.8808 67.741 79.5308 67.6487 79.229 67.4654C78.9519 67.29 78.7306 67.0418 78.5906 66.749C78.4413 66.4393 78.3658 66.1003 78.3698 65.7577C78.3595 65.2695 78.4781 64.7869 78.7137 64.3569C78.9332 63.962 79.255 63.6311 79.6466 63.3975C80.0424 63.1622 80.4976 63.0405 80.9603 63.0462C81.3065 63.0323 81.6497 63.1136 81.9513 63.2808C82.1988 63.4285 82.3959 63.645 82.5176 63.9028L83.0202 61.1357H83.7917L82.6238 67.6196H81.916L81.9796 66.881C81.7844 67.1122 81.5514 67.3103 81.2902 67.4668C80.9707 67.6507 80.6043 67.7412 80.2342 67.7279L80.2356 67.7307ZM80.455 67.0698C80.788 67.0753 81.1143 66.9782 81.3879 66.792C81.6652 66.6003 81.8867 66.3409 82.0306 66.0396C82.1886 65.715 82.2685 65.3592 82.2642 64.9997C82.2808 64.6544 82.1589 64.3165 81.9245 64.0584C81.8028 63.9372 81.6564 63.8431 81.4948 63.7817C81.3333 63.7204 81.1603 63.6936 80.9873 63.7029C80.6557 63.6983 80.3299 63.789 80.0502 63.9639C79.774 64.1386 79.5506 64.3826 79.4032 64.6706C79.2427 64.9849 79.162 65.3326 79.1682 65.6841C79.1553 66.0447 79.2777 66.3974 79.5122 66.6755C79.6283 66.807 79.7734 66.9109 79.9365 66.9795C80.0996 67.048 80.2764 67.0794 80.4536 67.0712" fill="#3B438B"/>
<path d="M86.0558 67.7302C85.7673 67.7417 85.4802 67.6846 85.2191 67.5636C85.0192 67.4658 84.8533 67.3122 84.742 67.1221C84.6389 66.942 84.5852 66.7387 84.5864 66.5321C84.5785 66.2232 84.6784 65.9209 84.8695 65.6754C85.077 65.4221 85.3519 65.2299 85.6637 65.12C86.0445 64.9838 86.4477 64.918 86.8528 64.9257H88.0746L88.0845 64.8716C88.1035 64.7703 88.1134 64.6677 88.1142 64.5646C88.1228 64.4436 88.1048 64.3222 88.0613 64.2086C88.0178 64.0951 87.9499 63.992 87.8621 63.9066C87.6641 63.7458 87.4109 63.6653 87.1544 63.6817C86.8666 63.6802 86.584 63.7566 86.3375 63.9024C86.0883 64.0469 85.9019 64.2761 85.8137 64.5467H85.0139C85.1027 64.2384 85.2686 63.9568 85.4967 63.7274C85.7215 63.5042 85.9921 63.3305 86.2908 63.2179C86.5982 63.1009 86.9251 63.0416 87.2548 63.043C87.7994 63.043 88.2081 63.1688 88.4808 63.4206C88.6191 63.5538 88.7271 63.7142 88.7976 63.8914C88.8681 64.0685 88.8996 64.2582 88.8899 64.4481C88.8899 64.5147 88.8899 64.5869 88.88 64.655C88.8701 64.723 88.8645 64.7937 88.8517 64.8716L88.3704 67.6191H87.6724L87.7645 66.8264C87.5877 67.0838 87.3576 67.3019 87.0892 67.4664C86.7775 67.6492 86.4187 67.7398 86.0558 67.7274V67.7302ZM86.2852 67.0873C86.5667 67.0908 86.843 67.0125 87.0793 66.8624C87.3154 66.7118 87.5147 66.5117 87.6625 66.2766C87.8139 66.0469 87.9192 65.791 87.9726 65.5226V65.5129H86.8146C86.4559 65.4936 86.0996 65.5796 85.7911 65.7601C85.6742 65.832 85.5784 65.9327 85.5131 66.0519C85.4478 66.1712 85.4154 66.305 85.4188 66.4403C85.4143 66.5319 85.4325 66.623 85.4717 66.7062C85.5109 66.7894 85.5699 66.862 85.6438 66.918C85.8343 67.0435 86.0618 67.1036 86.2908 67.0887" fill="#3B438B"/>
<path d="M90.2266 67.6194L91.3846 61.1328H92.1561L91.6606 63.9097C91.8547 63.6409 92.1114 63.4214 92.4094 63.2696C92.7049 63.1152 93.0345 63.0346 93.3693 63.0349C93.9025 63.0349 94.3022 63.1955 94.5683 63.5167C94.8345 63.8379 94.9062 64.3317 94.7835 64.9981L94.3149 67.6194H93.5434L93.9936 65.0883C94.1588 64.1573 93.8525 63.6917 93.0748 63.6917C92.6812 63.6919 92.303 63.8411 92.0187 64.1082C91.6853 64.4278 91.4718 64.8486 91.4129 65.3021L90.9981 67.6194H90.2266Z" fill="#3B438B"/>
<path d="M96.5269 67.6683C96.4563 67.6704 96.3863 67.6582 96.3208 67.6327C96.2552 67.6071 96.1958 67.5688 96.1461 67.5198C96.0486 67.4222 95.9941 67.2911 95.9941 67.1546C95.9941 67.0181 96.0486 66.887 96.1461 66.7895C96.1958 66.7406 96.2552 66.7022 96.3208 66.6765C96.3863 66.651 96.4563 66.6389 96.5269 66.6409C96.5966 66.6385 96.6663 66.6506 96.7311 66.6761C96.796 66.7017 96.8547 66.7404 96.9034 66.7895C96.9978 66.8885 97.0503 67.0191 97.0503 67.1546C97.0503 67.2903 96.9978 67.4207 96.9034 67.5198C96.8547 67.569 96.796 67.6075 96.7311 67.6331C96.6663 67.6588 96.5966 67.6707 96.5269 67.6683Z" fill="#3B438B"/>
<path d="M104.858 67.7304C104.374 67.7446 103.895 67.6361 103.467 67.4152C103.091 67.2127 102.786 66.9054 102.589 66.5322C102.379 66.1216 102.275 65.6669 102.286 65.2077C102.282 64.6699 102.378 64.136 102.569 63.6318C102.746 63.1618 103.012 62.7292 103.355 62.3573C103.685 61.9987 104.087 61.7105 104.535 61.5103C104.996 61.3072 105.496 61.2044 106.001 61.2091C106.736 61.2091 107.305 61.3817 107.709 61.7269C108.113 62.0722 108.324 62.5554 108.341 63.1765H107.469C107.472 62.9983 107.437 62.8215 107.365 62.6577C107.294 62.4937 107.188 62.3465 107.055 62.2254C106.792 61.994 106.403 61.8783 105.889 61.8783C105.505 61.8749 105.126 61.9595 104.782 62.1255C104.44 62.2928 104.138 62.5294 103.895 62.8196C103.638 63.1293 103.439 63.4821 103.308 63.8609C103.164 64.2757 103.093 64.7114 103.097 65.1494C103.097 65.7557 103.262 66.2272 103.593 66.5641C103.923 66.9011 104.382 67.069 104.97 67.0682C105.423 67.0849 105.87 66.9652 106.251 66.7252C106.591 66.4975 106.852 66.1741 107 65.7978H107.872C107.658 66.3792 107.262 66.879 106.74 67.225C106.181 67.5753 105.528 67.7528 104.865 67.7345" fill="#3B438B"/>
<path d="M111.33 67.7304C111.08 67.7413 110.831 67.7014 110.597 67.613C110.364 67.5245 110.152 67.3896 109.975 67.2166C109.635 66.8741 109.465 66.4145 109.465 65.838C109.457 65.3463 109.575 64.8606 109.809 64.4259C110.033 64.0121 110.364 63.6638 110.769 63.4166C111.187 63.1646 111.67 63.035 112.161 63.0431C112.511 63.0314 112.858 63.1104 113.167 63.2722C113.429 63.4146 113.643 63.6289 113.783 63.8886C113.922 64.1532 113.993 64.4474 113.99 64.7453C113.988 64.885 113.975 65.0243 113.949 65.1618C113.921 65.3145 113.895 65.4483 113.871 65.563H110.233C110.221 65.6528 110.215 65.7432 110.214 65.8338C110.214 66.2605 110.337 66.5775 110.582 66.7849C110.821 66.9904 111.128 67.1012 111.446 67.0959C111.742 67.1021 112.033 67.0256 112.287 66.8751C112.524 66.7335 112.719 66.5334 112.853 66.2947H113.616C113.424 66.7114 113.119 67.0683 112.734 67.3263C112.322 67.6064 111.83 67.7522 111.328 67.7428L111.33 67.7304ZM112.063 63.6984C111.691 63.7002 111.328 63.8151 111.025 64.0275C110.692 64.2585 110.454 64.5988 110.354 64.9869H113.22C113.225 64.9507 113.23 64.916 113.234 64.8827C113.234 64.8494 113.234 64.8188 113.234 64.7883C113.242 64.6397 113.218 64.4911 113.163 64.3526C113.107 64.2142 113.022 64.089 112.912 63.9858C112.677 63.7868 112.373 63.6835 112.063 63.697" fill="#3B438B"/>
<path d="M114.84 69.6044L116.006 63.154H116.723L116.649 63.8925C116.846 63.6531 117.086 63.4504 117.357 63.2942C117.672 63.1203 118.029 63.0348 118.391 63.0471C118.745 63.0376 119.095 63.1251 119.401 63.2997C119.678 63.4636 119.902 63.7008 120.048 63.9843C120.202 64.289 120.279 64.6257 120.273 64.9658C120.281 65.4569 120.163 65.9421 119.929 66.3764C119.711 66.7828 119.386 67.1248 118.987 67.3677C118.582 67.6131 118.114 67.7398 117.637 67.7329C117.194 67.7372 116.765 67.5765 116.438 67.283C116.305 67.166 116.198 67.0244 116.121 66.8665L115.616 69.6044H114.84ZM117.678 67.0734C118.007 67.079 118.329 66.9882 118.605 66.8124C118.878 66.635 119.097 66.389 119.239 66.1001C119.397 65.78 119.476 65.4281 119.469 65.0727C119.482 64.715 119.36 64.365 119.125 64.0912C119.009 63.9624 118.864 63.8608 118.703 63.7937C118.541 63.7268 118.367 63.696 118.192 63.7037C117.859 63.6992 117.532 63.7936 117.255 63.9745C116.975 64.1589 116.75 64.4122 116.602 64.709C116.44 65.0293 116.358 65.383 116.363 65.7405C116.354 65.9177 116.381 66.0949 116.443 66.2617C116.504 66.4286 116.599 66.5818 116.721 66.7124C116.846 66.8354 116.995 66.9314 117.16 66.9943C117.324 67.0572 117.5 67.0856 117.677 67.0775" fill="#3B438B"/>
<path d="M123.063 67.7299C122.774 67.7413 122.488 67.6842 122.227 67.5634C122.027 67.4655 121.861 67.3119 121.75 67.1218C121.647 66.9417 121.593 66.7383 121.594 66.5318C121.587 66.2229 121.687 65.9207 121.877 65.6751C122.085 65.4219 122.36 65.2297 122.672 65.1198C123.052 64.9836 123.456 64.9178 123.86 64.9254H125.082L125.092 64.8713C125.11 64.77 125.119 64.6673 125.119 64.5645C125.128 64.4435 125.11 64.322 125.066 64.2085C125.023 64.0949 124.955 63.9919 124.867 63.9063C124.669 63.7456 124.416 63.6651 124.16 63.6814C123.871 63.6797 123.588 63.7561 123.342 63.9022C123.092 64.0468 122.905 64.2759 122.817 64.5464H122.017C122.11 64.2385 122.28 63.9583 122.511 63.7313C122.736 63.5081 123.008 63.3344 123.306 63.2218C123.613 63.1048 123.94 63.0455 124.27 63.0469C124.814 63.0469 125.223 63.1727 125.496 63.4245C125.634 63.5577 125.742 63.7182 125.812 63.8953C125.883 64.0724 125.915 64.2621 125.905 64.452C125.905 64.5186 125.905 64.5908 125.895 64.6589C125.886 64.7269 125.879 64.7976 125.868 64.8755L125.377 67.6189H124.679L124.771 66.8261C124.595 67.0836 124.364 67.3017 124.096 67.4662C123.784 67.6489 123.425 67.7395 123.063 67.7272V67.7299ZM123.292 67.0871C123.573 67.0906 123.85 67.0123 124.085 66.8622C124.322 66.7115 124.522 66.5115 124.669 66.2763C124.819 66.0453 124.921 65.7885 124.973 65.5196V65.5099H123.814C123.455 65.4902 123.098 65.5763 122.789 65.757C122.672 65.829 122.576 65.9296 122.511 66.0488C122.446 66.1681 122.413 66.302 122.417 66.4374C122.412 66.5289 122.431 66.62 122.469 66.7031C122.509 66.7864 122.568 66.859 122.642 66.915C122.833 67.0406 123.061 67.1007 123.29 67.0857" fill="#3B438B"/>
<path d="M128.881 67.6192C128.57 67.6377 128.263 67.5606 127.999 67.3984C127.79 67.2513 127.685 67.0005 127.685 66.646C127.685 66.5862 127.685 66.521 127.696 66.4529C127.706 66.3849 127.711 66.3141 127.723 66.2322L128.164 63.79H127.455L127.575 63.15H128.282L128.577 62.0781H129.256L129.054 63.15H130.404L130.286 63.79H128.944L128.489 66.2308C128.477 66.3146 128.471 66.399 128.47 66.4835C128.462 66.5547 128.47 66.6268 128.497 66.6936C128.523 66.7605 128.566 66.8199 128.622 66.8666C128.772 66.9475 128.942 66.9838 129.113 66.9708H129.711L129.589 67.6192H128.881Z" fill="#3B438B"/>
<path d="M131.666 67.6683C131.595 67.6702 131.525 67.6582 131.46 67.6326C131.394 67.6071 131.334 67.5686 131.285 67.5198C131.188 67.4222 131.133 67.2911 131.133 67.1546C131.133 67.0181 131.188 66.887 131.285 66.7895C131.334 66.7405 131.394 66.7021 131.46 66.6765C131.525 66.651 131.595 66.6388 131.666 66.6409C131.736 66.6386 131.805 66.6507 131.87 66.6762C131.935 66.7018 131.993 66.7404 132.043 66.7895C132.136 66.8885 132.189 67.019 132.189 67.1546C132.189 67.2901 132.136 67.4207 132.043 67.5198C131.993 67.5688 131.935 67.6074 131.87 67.6329C131.805 67.6585 131.736 67.6706 131.666 67.6683Z" fill="#3B438B"/>
<path d="M138.666 67.6215L139.685 61.9194H137.775L137.885 61.3154H142.488L142.378 61.9194H140.458L139.438 67.6215H138.666Z" fill="#3B438B"/>
<path d="M144.232 67.7305C143.982 67.7416 143.733 67.7016 143.5 67.6133C143.266 67.5248 143.054 67.3898 142.878 67.2168C142.537 66.8743 142.367 66.4148 142.367 65.8381C142.362 65.347 142.481 64.8622 142.717 64.4289C142.941 64.0151 143.272 63.6668 143.678 63.4195C144.095 63.1676 144.578 63.038 145.069 63.0461C145.419 63.0343 145.766 63.1133 146.075 63.2751C146.337 63.4176 146.551 63.6318 146.691 63.8917C146.831 64.1563 146.901 64.4504 146.898 64.7482C146.897 64.888 146.883 65.0274 146.857 65.1647C146.829 65.3175 146.803 65.4512 146.779 65.5661H143.14C143.13 65.6558 143.123 65.7463 143.122 65.8367C143.122 66.2634 143.245 66.5805 143.49 66.7878C143.728 66.9933 144.036 67.1042 144.354 67.0988C144.65 67.1052 144.942 67.0285 145.195 66.878C145.433 66.7366 145.627 66.5364 145.761 66.2977H146.524C146.333 66.7144 146.027 67.0713 145.642 67.3293C145.23 67.6095 144.738 67.7551 144.236 67.7458L144.232 67.7305ZM144.971 63.7014C144.599 63.7032 144.236 63.8181 143.934 64.0304C143.6 64.2614 143.362 64.6017 143.262 64.9898H146.128C146.133 64.9537 146.138 64.919 146.142 64.8857C146.142 64.8523 146.142 64.8219 146.142 64.7913C146.151 64.6427 146.126 64.4941 146.071 64.3555C146.015 64.2171 145.93 64.092 145.82 63.9888C145.585 63.7898 145.282 63.6865 144.971 63.7" fill="#3B438B"/>
<path d="M148.115 67.6195L148.914 63.1516H149.621L149.54 63.9444C149.739 63.6653 150.005 63.4392 150.315 63.2863C150.656 63.12 151.032 63.0367 151.412 63.0433L151.271 63.8361H151.06C150.796 63.8344 150.533 63.8771 150.285 63.9625C150.041 64.0471 149.827 64.1949 149.665 64.3901C149.476 64.6301 149.356 64.9146 149.316 65.2148L148.887 67.6195H148.115Z" fill="#3B438B"/>
<path d="M151.828 69.6044L152.994 63.154H153.71L153.637 63.8925C153.834 63.6531 154.074 63.4504 154.345 63.2942C154.66 63.1203 155.017 63.0348 155.378 63.0471C155.732 63.0376 156.083 63.1251 156.389 63.2997C156.667 63.4636 156.89 63.7008 157.036 63.9843C157.19 64.289 157.267 64.6257 157.261 64.9658C157.265 65.4553 157.145 65.938 156.909 66.3695C156.69 66.7758 156.365 67.1179 155.967 67.3607C155.562 67.6062 155.094 67.7329 154.617 67.7259C154.173 67.7303 153.745 67.5695 153.417 67.2761C153.285 67.159 153.177 67.0174 153.101 66.8596L152.595 69.5975L151.828 69.6044ZM154.666 67.0734C154.995 67.079 155.318 66.9882 155.593 66.8124C155.866 66.635 156.085 66.389 156.227 66.1001C156.386 65.78 156.464 65.4281 156.457 65.0727C156.471 64.715 156.348 64.365 156.113 64.0912C155.997 63.9624 155.853 63.8608 155.691 63.7937C155.53 63.7268 155.355 63.696 155.18 63.7037C154.847 63.6992 154.52 63.7936 154.243 63.9745C153.963 64.1589 153.738 64.4122 153.591 64.709C153.428 65.0293 153.346 65.383 153.35 65.7405C153.342 65.9177 153.369 66.0949 153.43 66.2617C153.492 66.4286 153.586 66.5818 153.709 66.7124C153.834 66.8354 153.982 66.9314 154.147 66.9943C154.312 67.0572 154.489 67.0856 154.665 67.0775" fill="#3B438B"/>
<path d="M160.597 67.7305C160.348 67.7416 160.098 67.7016 159.864 67.6133C159.632 67.5248 159.42 67.3898 159.242 67.2168C158.903 66.8743 158.733 66.4148 158.733 65.8381C158.726 65.347 158.847 64.8622 159.083 64.4289C159.305 64.0151 159.637 63.6668 160.042 63.4195C160.461 63.1676 160.943 63.038 161.434 63.0461C161.784 63.0343 162.132 63.1133 162.441 63.2751C162.702 63.4176 162.916 63.6318 163.056 63.8917C163.195 64.1563 163.266 64.4504 163.263 64.7482C163.261 64.888 163.248 65.0274 163.222 65.1647C163.194 65.3175 163.168 65.4512 163.144 65.5661H159.506C159.494 65.6558 159.488 65.7463 159.487 65.8367C159.487 66.2634 159.61 66.5805 159.856 66.7878C160.094 66.9933 160.401 67.1042 160.719 67.0988C161.015 67.1052 161.307 67.0285 161.56 66.878C161.797 66.7366 161.993 66.5364 162.126 66.2977H162.89C162.697 66.7144 162.392 67.0713 162.007 67.3293C161.594 67.6095 161.103 67.7551 160.602 67.7458L160.597 67.7305ZM161.336 63.7014C160.963 63.7032 160.602 63.8181 160.298 64.0304C159.965 64.2614 159.727 64.6017 159.627 64.9898H162.492C162.499 64.9537 162.503 64.919 162.507 64.8857C162.507 64.8523 162.507 64.8219 162.507 64.7913C162.515 64.6427 162.491 64.4941 162.435 64.3555C162.38 64.2171 162.295 64.092 162.185 63.9888C161.951 63.7898 161.646 63.6865 161.336 63.7" fill="#3B438B"/>
<path d="M164.482 67.6195L165.281 63.1516H165.989L165.907 63.9444C166.106 63.6653 166.372 63.4392 166.682 63.2863C167.023 63.12 167.399 63.0367 167.779 63.0433L167.638 63.8361H167.427C167.163 63.8344 166.901 63.8771 166.651 63.9625C166.409 64.0471 166.194 64.1949 166.031 64.3901C165.843 64.6301 165.723 64.9146 165.683 65.2148L165.259 67.6195H164.482Z" fill="#3B438B"/>
<path d="M170.443 67.7305C170.097 67.7372 169.755 67.6548 169.452 67.4917C169.168 67.3371 168.934 67.1058 168.781 66.8253C168.616 66.5188 168.534 66.1762 168.541 65.8298C168.537 65.4496 168.608 65.0722 168.753 64.7191C168.887 64.3886 169.087 64.0872 169.34 63.8319C169.591 63.5781 169.893 63.377 170.226 63.2407C170.559 63.1044 170.918 63.0358 171.278 63.0392C171.83 63.0392 172.267 63.1803 172.592 63.4626C172.754 63.6066 172.882 63.7836 172.968 63.9811C173.054 64.1787 173.095 64.3921 173.087 64.6067H172.298C172.308 64.473 172.282 64.3391 172.225 64.2176C172.166 64.0962 172.078 63.9911 171.967 63.9124C171.733 63.7551 171.453 63.6749 171.167 63.6834C170.841 63.6801 170.521 63.7724 170.249 63.9485C169.968 64.1318 169.74 64.3834 169.588 64.6788C169.418 65.0063 169.333 65.3696 169.34 65.7368C169.34 66.1635 169.46 66.4939 169.698 66.7282C169.81 66.8414 169.944 66.9311 170.093 66.9915C170.241 67.0519 170.401 67.0818 170.561 67.0794C170.87 67.0804 171.174 66.9993 171.44 66.8447C171.712 66.6888 171.919 66.4426 172.022 66.1505H172.812C172.697 66.4548 172.519 66.7324 172.289 66.9655C172.056 67.2034 171.776 67.3925 171.467 67.5209C171.143 67.6546 170.794 67.7222 170.443 67.7194" fill="#3B438B"/>
<path d="M175.77 67.7302C175.481 67.7416 175.195 67.6845 174.934 67.5636C174.734 67.4658 174.568 67.3122 174.457 67.1221C174.354 66.942 174.3 66.7386 174.301 66.5321C174.294 66.2232 174.394 65.921 174.584 65.6754C174.792 65.4222 175.067 65.23 175.379 65.12C175.76 64.9838 176.163 64.9179 176.569 64.9257H177.79L177.799 64.8715C177.818 64.7702 177.827 64.6675 177.826 64.5646C177.836 64.4436 177.818 64.3222 177.773 64.2086C177.73 64.0952 177.662 63.992 177.574 63.9066C177.376 63.7458 177.123 63.6653 176.867 63.6817C176.578 63.68 176.295 63.7564 176.049 63.9024C175.8 64.047 175.613 64.2762 175.524 64.5467H174.725C174.814 64.2383 174.979 63.9567 175.208 63.7274C175.433 63.5042 175.703 63.3305 176.002 63.2179C176.309 63.1009 176.636 63.0416 176.966 63.043C177.511 63.043 177.919 63.1688 178.192 63.4206C178.33 63.5538 178.438 63.7142 178.509 63.8914C178.579 64.0685 178.611 64.2582 178.601 64.448C178.601 64.5147 178.601 64.5869 178.591 64.655C178.581 64.723 178.575 64.7937 178.564 64.8715L178.086 67.6191H177.388L177.479 66.8264C177.303 67.0839 177.072 67.302 176.804 67.4665C176.493 67.6492 176.134 67.7398 175.771 67.7274L175.77 67.7302ZM176 67.0874C176.282 67.0908 176.558 67.0126 176.795 66.8624C177.03 66.7118 177.23 66.5117 177.378 66.2766C177.527 66.0456 177.63 65.7887 177.681 65.5199V65.5101H176.522C176.164 65.4904 175.806 65.5766 175.497 65.7573C175.381 65.8293 175.285 65.9299 175.22 66.0491C175.155 66.1684 175.122 66.3023 175.126 66.4377C175.122 66.5292 175.139 66.6203 175.179 66.7034C175.217 66.7867 175.277 66.8592 175.351 66.9152C175.541 67.0409 175.77 67.101 175.999 67.086" fill="#3B438B"/>
<path d="M179.83 69.6047L181.382 67.1903H181.125L180.032 63.1543H180.85L181.758 66.6308L183.973 63.1543H184.78L180.639 69.6047H179.83Z" fill="#3B438B"/>
<path d="M186.764 67.7299C186.475 67.7413 186.189 67.6842 185.928 67.5634C185.728 67.4655 185.562 67.3119 185.451 67.1218C185.348 66.9417 185.294 66.7383 185.295 66.5318C185.288 66.2229 185.388 65.9207 185.578 65.6751C185.786 65.4219 186.061 65.2297 186.373 65.1198C186.753 64.9836 187.157 64.9178 187.562 64.9254H188.784L188.793 64.8713C188.812 64.77 188.82 64.6673 188.82 64.5645C188.829 64.4435 188.811 64.322 188.767 64.2085C188.724 64.0949 188.657 63.9919 188.568 63.9063C188.37 63.7456 188.117 63.6651 187.861 63.6814C187.572 63.6797 187.289 63.7561 187.043 63.9022C186.793 64.0468 186.607 64.2759 186.518 64.5464H185.718C185.81 64.239 185.978 63.9589 186.207 63.7313C186.432 63.5081 186.702 63.3344 187.001 63.2218C187.309 63.1048 187.636 63.0455 187.965 63.0469C188.51 63.0469 188.918 63.1727 189.192 63.4245C189.329 63.5577 189.437 63.7182 189.508 63.8953C189.578 64.0724 189.61 64.2621 189.601 64.452C189.601 64.5186 189.601 64.5908 189.59 64.6589C189.58 64.7269 189.575 64.7976 189.563 64.8755L189.078 67.6189H188.38L188.472 66.8261C188.295 67.0836 188.066 67.3017 187.796 67.4662C187.485 67.6489 187.127 67.7395 186.764 67.7272V67.7299ZM186.993 67.0871C187.274 67.0906 187.551 67.0123 187.787 66.8622C188.024 66.7115 188.223 66.5115 188.37 66.2763C188.52 66.0453 188.622 65.7885 188.673 65.5196V65.5099H187.515C187.156 65.4902 186.799 65.5763 186.49 65.757C186.373 65.829 186.277 65.9296 186.213 66.0488C186.147 66.1681 186.115 66.302 186.118 66.4374C186.112 66.5309 186.131 66.6243 186.171 66.7094C186.212 66.7944 186.272 66.8684 186.348 66.9247C186.54 67.0504 186.767 67.1105 186.996 67.0954" fill="#3B438B"/>
<path d="M191.283 67.6683C191.212 67.6702 191.142 67.6582 191.077 67.6326C191.012 67.6071 190.951 67.5686 190.902 67.5198C190.805 67.4222 190.75 67.2911 190.75 67.1546C190.75 67.0181 190.805 66.887 190.902 66.7895C190.951 66.7405 191.012 66.7021 191.077 66.6765C191.142 66.651 191.212 66.6388 191.283 66.6409C191.353 66.6386 191.422 66.6507 191.488 66.6762C191.552 66.7018 191.61 66.7404 191.66 66.7895C191.753 66.8885 191.806 67.019 191.806 67.1546C191.806 67.2901 191.753 67.4207 191.66 67.5198C191.61 67.5688 191.552 67.6074 191.488 67.6329C191.422 67.6585 191.353 67.6706 191.283 67.6683Z" fill="#3B438B"/>
</g>
<defs>
<clipPath id="clip0_5223_8017">
<rect width="181.93" height="59.208" fill="white" transform="translate(10.3965 10.3965)"/>
</clipPath>
</defs>
</svg>
