<svg id="Layer_1" data-name="Layer 1" xmlns="http://www.w3.org/2000/svg" viewBox="0 0 233 32.73"><defs><style>.cls-1{fill:#0b9601;}.cls-2{fill:#0c9602;}.cls-3{fill:#020202;}.cls-4{fill:#040404;}.cls-5{fill:#0e9704;}.cls-6{fill:#030303;}.cls-7{fill:#0d9703;}.cls-8{fill:#050505;}.cls-9{fill:#f8fbf8;}</style></defs><title>Untitled-1 [Recovered]</title><path class="cls-1" d="M0,0Q16,0,32,0c.68,0,.86.14.85.84,0,3.11,0,6.22,0,9.33,0,.26,0,.52,0,.77h0c-3.38,0-6.76,0-10.15,0-.63,0-.76.18-.76.78,0,6.75,0,13.49,0,20.23,0,.63-.12.83-.8.82q-4.68-.06-9.36,0c-.73,0-.82-.23-.82-.87,0-6.72,0-13.44,0-20.15,0-.64-.16-.82-.81-.82-3.38,0-6.76,0-10.14,0Z"/><path class="cls-1" d="M32.78,10.94l9.77,0h1.17l0,0a1.61,1.61,0,0,1,.08.84c0,3.11,0,6.22,0,9.34,0,.61.17.77.78.77,6.76,0,13.52,0,20.28,0,.68,0,.88.14.87.84,0,3.09,0,6.17,0,9.26,0,.71-.21.83-.87.83q-15.6,0-31.21,0c-.64,0-.81-.14-.81-.8,0-6.69,0-13.38,0-20.07,0-.31,0-.62,0-.94Z"/><path class="cls-2" d="M43.72,10.9c0-2.39,0-4.77.05-7.16,0-1,0-2.08,0-3.11,0-.46.09-.63.6-.63Q54.74,0,65.12,0c.45,0,.57.13.57.56,0,3.27,0,6.54,0,9.81,0,.39-.1.55-.52.55l-21.39,0-.08,0Z"/><path class="cls-3" d="M139.27,17.83a11.35,11.35,0,0,1,1.13-5.4A7.92,7.92,0,0,1,146.75,8a11.82,11.82,0,0,1,3,0c3.3.44,4.88,2.26,6,5.18.13.35,0,.4-.28.49-1.33.52-2.66,1-4,1.57-.35.14-.49,0-.63-.28a6.92,6.92,0,0,0-.64-1.24,2.67,2.67,0,0,0-4.51,0,6,6,0,0,0-.85,2.72,9.27,9.27,0,0,0,.48,4.52,2.9,2.9,0,0,0,5.21.68c.33-.43.49-1.22.94-1.25s1.06.46,1.59.74c.76.39,1.5.83,2.28,1.18.53.24.51.48.25.93-2,3.46-5.11,4.7-8.83,4.25A7.93,7.93,0,0,1,139.64,21,12,12,0,0,1,139.27,17.83Z"/><path class="cls-4" d="M224.57,7.39v6.42a8.25,8.25,0,0,1,2.62-1.09c2.94-.48,5,1,5.49,3.9a12.2,12.2,0,0,1,.15,2c0,2.67,0,5.34,0,8,0,.5-.11.66-.63.65q-1.87-.06-3.75,0c-.49,0-.61-.14-.6-.62,0-2.36,0-4.72,0-7.08a11.38,11.38,0,0,0-.06-1.31c-.13-1-.62-1.44-1.51-1.46a1.4,1.4,0,0,0-1.64,1.37,6.41,6.41,0,0,0-.09,1.16c0,2.41,0,4.82,0,7.24,0,.51-.09.72-.67.7-1.24-.05-2.49,0-3.74,0-.46,0-.56-.14-.56-.57q0-8.4,0-16.8c0-.29,0-.56.33-.7C221.45,8.64,222.94,8,224.57,7.39Z"/><path class="cls-2" d="M128,13.78a7.47,7.47,0,0,1,2.56-1.06c2.92-.47,4.94.93,5.45,3.85a8.83,8.83,0,0,1,.15,1.54c0,2.86,0,5.71,0,8.57,0,.47-.12.62-.61.6-1.25,0-2.5,0-3.74,0-.55,0-.64-.19-.64-.67,0-2.34,0-4.67,0-7a9,9,0,0,0-.08-1.47,1.58,1.58,0,0,0-3.11,0,6.42,6.42,0,0,0-.11,1.16c0,2.44,0,4.87,0,7.31,0,.52-.08.73-.66.71-1.23-.05-2.45,0-3.67,0-.4,0-.6,0-.6-.53q0-8.44,0-16.89a.67.67,0,0,1,.52-.73c1.29-.48,2.57-1,3.84-1.52.46-.2.57-.11.56.38,0,1.66,0,3.32,0,5A1.47,1.47,0,0,0,128,13.78Z"/><path class="cls-5" d="M84.87,8.16c2.42,0,4.84,0,7.26,0,.57,0,.83.09.79.75-.06,1.09,0,2.18,0,3.27,0,.53-.17.64-.66.63-1.33,0-2.66,0-4,0-.65,0-.76.2-.76.78,0,4.31,0,8.61,0,12.92,0,.64-.15.84-.81.81-1.27-.06-2.55-.05-3.82,0-.58,0-.74-.14-.74-.73,0-4.28,0-8.56,0-12.84,0-.82-.23-1-1-1-1.27.07-2.55,0-3.82,0-.43,0-.59-.1-.58-.55,0-1.17,0-2.34,0-3.5,0-.51.18-.6.63-.6C79.93,8.17,82.4,8.16,84.87,8.16Z"/><path class="cls-6" d="M179.77,26.37a6.14,6.14,0,0,1-3.11,1.2c-2.94.16-4.76-1.4-5-4.42s-.06-6-.1-8.94c0-1.27,0-1.27,1.26-1.27,1,0,1.92,0,2.88,0,.64,0,.84.12.83.79,0,2.28,0,4.57,0,6.85,0,.31,0,.63,0,.94.13,1.4.57,1.91,1.65,1.89s1.56-.58,1.58-2c0-2.36,0-4.72,0-7.08,0-1.42,0-1.42,1.43-1.42,1,0,2,0,3,0,.41,0,.59.07.59.54q0,6.66,0,13.32c0,.44-.17.5-.54.49-1.17,0-2.35,0-3.52,0C180.11,27.29,179.58,27.32,179.77,26.37Z"/><path class="cls-3" d="M193.16,13.91a6,6,0,0,1,4.55-1.19,4,4,0,0,1,3.38,2.93,8.42,8.42,0,0,1,.38,2.69c0,2.75,0,5.5,0,8.25,0,.62-.2.71-.75.7-1.16-.05-2.34-.05-3.51,0-.57,0-.75-.12-.74-.72,0-2.41,0-4.83,0-7.24a7.31,7.31,0,0,0-.08-1.24,1.38,1.38,0,0,0-1.51-1.27,1.4,1.4,0,0,0-1.59,1.25,6.85,6.85,0,0,0-.11,1.63c0,2.28,0,4.57,0,6.85,0,.55-.07.77-.7.74-1.22-.06-2.45,0-3.67,0-.44,0-.56-.11-.56-.55q0-6.61,0-13.24c0-.44.12-.57.56-.56,1.17,0,2.35,0,3.51,0C193,12.91,193.39,13,193.16,13.91Z"/><path class="cls-7" d="M101.11,21.52c-1.22,0-2.45,0-3.67,0-.54,0-.6.17-.46.64a2.18,2.18,0,0,0,2.19,1.64,6.56,6.56,0,0,0,3.31-.76c.43-.22.62-.15.85.26.41.75.86,1.47,1.32,2.2.18.28.25.47-.12.66a10.41,10.41,0,0,1-7.3,1.21A5.8,5.8,0,0,1,92.8,23.2a9.93,9.93,0,0,1-.09-5.91,6.1,6.1,0,0,1,6.53-4.64c3.08.11,5.17,2,5.82,5.17a15.4,15.4,0,0,1,.25,3.18c0,.4-.12.54-.54.53C103.55,21.5,102.33,21.52,101.11,21.52Zm-2.25-3.06h1.62c.24,0,.45,0,.41-.35a2,2,0,0,0-1.58-1.78,1.8,1.8,0,0,0-2.23,1.19c-.35.9-.33.94.61.94Z"/><path class="cls-6" d="M204.35,20.09a9.29,9.29,0,0,1,.67-3.72,6,6,0,0,1,5.5-3.7,6.09,6.09,0,0,1,5.94,2.84c.23.35.17.51-.15.74-.86.62-1.72,1.26-2.54,1.93-.38.3-.55.22-.74-.17a2.81,2.81,0,0,0-.71-.93,1.61,1.61,0,0,0-2.61.5,6.23,6.23,0,0,0,0,5,1.74,1.74,0,0,0,2.51.78,2.43,2.43,0,0,0,1-.88c.39-.69.75-.73,1.33-.18a19.53,19.53,0,0,0,2,1.54c.32.23.37.39.13.74a6.8,6.8,0,0,1-9,2.22c-2.16-1.16-3-3.16-3.22-5.46C204.36,20.92,204.37,20.51,204.35,20.09Z"/><path class="cls-7" d="M107.76,20.05a7.85,7.85,0,0,1,.16-2.16,6,6,0,0,1,4.86-5.06c2.8-.57,5.21.06,6.94,2.52.29.4.38.64-.12,1a28.44,28.44,0,0,0-2.42,1.83c-.4.33-.59.27-.8-.16a3.34,3.34,0,0,0-.48-.7,1.66,1.66,0,0,0-2.91.45,6.48,6.48,0,0,0,0,4.65,1.77,1.77,0,0,0,2.82.81,3.48,3.48,0,0,0,.58-.51c.82-.9.82-.9,1.82-.12.52.4,1,.83,1.55,1.18s.41.55.11,1c-2.17,3.06-5.29,3.39-8.16,2.35-2.65-1-3.61-3.18-3.91-5.78A10.41,10.41,0,0,1,107.76,20.05Z"/><path class="cls-8" d="M163.77,14a4.59,4.59,0,0,1,4.67-1.12c.59.19.83.43.65,1.1-.37,1.4-.66,2.81-1,4.24-.36,0-.51-.35-.75-.52a2.5,2.5,0,0,0-2.58-.32c-.83.39-.92,1.21-.93,2,0,2.41,0,4.82,0,7.23,0,.57-.16.69-.69.68-1.23,0-2.45,0-3.67,0-.5,0-.6-.16-.6-.62q0-6.54,0-13.07c0-.58.2-.68.71-.67,1.12,0,2.24.05,3.36,0C163.61,12.9,164,13,163.77,14Z"/><path class="cls-9" d="M98.86,18.46H97.69c-.94,0-1,0-.61-.94a1.8,1.8,0,0,1,2.23-1.19,2,2,0,0,1,1.58,1.78c0,.39-.17.35-.41.35Z"/></svg>