<svg id="Layer_1" data-name="Layer 1" xmlns="http://www.w3.org/2000/svg" viewBox="0 0 223.55 42.19"><defs><style>.cls-1{fill:#f50102;}.cls-2{fill:#030303;}.cls-3{fill:#070707;}.cls-4{fill:#040404;}.cls-5{fill:#050505;}.cls-6{fill:#0a0a0a;}.cls-7{fill:#191919;}.cls-8{fill:#f9f9f9;}</style></defs><title>Untitled-1 [Recovered]</title><g id="N3sVL0"><path class="cls-1" d="M12.52,6.7c3.37,0,6.74,0,10.1,0a4.36,4.36,0,0,1,2.4.63c1.3.8,2.62,1.54,3.95,2.29.67.37,1,.68.44,1.52a30.89,30.89,0,0,0-1.89,3.55c-.28.56-.62.71-1.16.36-.15-.1-.33-.15-.47-.26-2.93-2.28-6.32-2.44-9.82-2.22-.4,0-.85-.05-1,.41s.3.71.58.94c.92.78,1.87,1.53,2.85,2.24a3.07,3.07,0,0,1,1.36,2.74c-.06,3,0,6,0,9,0,.53-.29,1.3.51,1.47s.88-.63,1.15-1.11c5.22-9,10.45-18,15.61-27,1-1.78,1.79-1.55,2.68,0q7.05,12.27,14.15,24.51c.76,1.32,1.53,2.63,2.27,3.95.29.52.82,1.06.14,1.66s-1.25.24-1.84-.11L48.93,28c-4.4-2.59-8.77-5.21-13.2-7.74-.92-.53-1-1-.44-1.76s1-1.68,1.51-2.53,1.09-1.39,2.08-.5a6.42,6.42,0,0,0,1.51.86.67.67,0,0,0,.76-.08c.26-.24.12-.5,0-.73-.71-1.29-1.38-2.61-2.18-3.85-.61-.94-1.2-.47-1.61.26Q34.2,17.47,31.09,23c-3,5.28-5.92,10.58-8.9,15.86-.9,1.6-1.92,1.58-2.85,0C17.88,36.42,16.43,34,15,31.51A6.19,6.19,0,0,1,14,28.08c.05-2.07,0-4.13,0-6.2a3.19,3.19,0,0,0-1.16-2.67c-4-3.44-8-6.94-11.95-10.42C.46,8.39-.26,8.06.09,7.3s1-.59,1.66-.59Z"/><path class="cls-2" d="M134.22,18.9c0,3,0,6,0,9,0,.67-.13,1-.88.91-1.41-.12-3.26.57-4.12-.29-.68-.68-.14-2.54-.2-3.88s.55-2.88-.26-3.58-2.31-.2-3.51-.21c-3.15,0-3.15,0-3.15,3.2,0,1.21,0,2.42,0,3.63,0,.81-.11,1.22-1.07,1.14a29,29,0,0,0-3.36,0c-.67,0-.93-.15-.93-.88q0-9,0-18c0-.73.24-.93.92-.9,1.43.07,3.27-.46,4.18.25s.22,2.6.23,4c0,2.8,0,2.83,2.86,2.78,1.32,0,3.09.59,3.85-.26s.19-2.47.23-3.76c0-1-.34-2.43.19-3s1.93-.2,2.95-.2c2,0,2,0,2,2Z"/><path class="cls-3" d="M80.43,18.89c0-3,0-5.92,0-8.88,0-.75.19-1,1-1q7.14,0,14.27,0c.73,0,.87.23.88.91,0,2.85.07,2.85-2.72,2.85-2.34,0-4.67,0-7,0-.72,0-.89.22-.91.91-.06,2.78-.09,2.78,2.67,2.78,2,0,4,0,5.92,0,.7,0,1,.1,1,.92.07,3.24.11,3.24-3.14,3.24-1.88,0-3.77,0-5.65,0-.77,0-1.09.11-1.09,1,0,2.81,0,2.81,2.77,2.81,2.43,0,4.85,0,7.27,0,.8,0,1.28.07,1.15,1.06s.47,2.57-.25,3.2-2,.17-3.13.18c-4,0-7.9,0-11.85,0-.94,0-1.2-.24-1.18-1.19C80.47,24.73,80.43,21.81,80.43,18.89Z"/><path class="cls-4" d="M186.46,28.8a9.9,9.9,0,0,1-6.08-1.51,6,6,0,0,1-2.54-4.24c-.14-.86,0-1.4,1-1.23a5.56,5.56,0,0,0,1.08,0c1.28,0,2.56-.33,2.82,1.67s5.14,2,6.05.5a1.54,1.54,0,0,0-.66-2.28c-1.42-.92-3.12-1-4.68-1.54-.63-.21-1.3-.32-1.92-.58-2.15-.88-3.77-2.18-3.82-4.78a5.12,5.12,0,0,1,3.37-5.22c3.36-1.41,6.68-1.49,9.84.59a5.75,5.75,0,0,1,2.43,4.15c.09.58-.06.79-.67.75s-1.52,0-2.28,0c-.95,0-1.75.18-2.22-1.17s-3.91-1.53-4.91-.37a1.24,1.24,0,0,0,.56,2,13.87,13.87,0,0,0,3.22.89A22.9,22.9,0,0,1,191,17.68a5.11,5.11,0,0,1,3.37,4.84A5.73,5.73,0,0,1,190.82,28,10.22,10.22,0,0,1,186.46,28.8Z"/><path class="cls-2" d="M176.13,28.81c-2.66,0-2.72,0-3.58-2.48a1.3,1.3,0,0,0-1.53-1c-1.61.05-3.23.06-4.84,0a1.21,1.21,0,0,0-1.42,1c-.83,2.52-.87,2.51-3.55,2.51s-2.59,0-1.7-2.44c2-5.57,4.09-11.13,6.08-16.71a1,1,0,0,1,1.22-.85c1.26,0,2.52,0,3.77,0,.66,0,.9.22,1.13.83,2.22,6,4.45,11.94,6.75,17.88.39,1,.4,1.46-.85,1.3A12.15,12.15,0,0,0,176.13,28.81Zm-7.4-14.15c-.87,2.13-1.59,3.93-2.34,5.73-.3.72-.08,1,.68.92,1,0,2,0,3,0,.73.05.82-.22.61-.83C170,18.66,169.45,16.84,168.73,14.66Z"/><path class="cls-2" d="M219.28,28.81c-2.4,0-2.42,0-3.35-2.36a1.49,1.49,0,0,0-1.72-1.17,34.43,34.43,0,0,1-4.31,0,1.46,1.46,0,0,0-1.74,1.14c-.86,2.4-.79,2.81-3.37,2.77-.88,0-2.22,0-2.7-.61s.45-1.52.73-2.3c2.07-5.61,4.19-11.2,6.27-16.81.19-.51.49-.89,1-.81h.13a9.87,9.87,0,0,1,4.24.11c1,.42,1.26,2.48,1.74,3.75,1.92,5,3.64,10.08,5.57,15.07.4,1,.21,1.36-.89,1.22A12.5,12.5,0,0,0,219.28,28.81Zm-7.09-14.12c-.85,2.08-1.62,4-2.42,5.93-.25.6,0,.69.54.68,1,0,2.06,0,3.08,0s.93-.29.68-1C213.43,18.5,212.85,16.68,212.19,14.69Z"/><path class="cls-4" d="M112.86,16.1c-.49,0-1,0-1.48,0s-.79-.09-.93-.67c-.57-2.54-5.17-3.06-6.9-.77a7.55,7.55,0,0,0,0,8.41A4.16,4.16,0,0,0,108,24.41a3.23,3.23,0,0,0,2.65-2.69c.13-.61.35-.91,1.05-.85a22.49,22.49,0,0,0,3,0c.92-.06,1,.29.84,1.1-.68,4.25-4.07,7-8.83,6.93a9.29,9.29,0,0,1-9.11-7.3,10.28,10.28,0,0,1,4.2-11.4c4-2.47,9.6-1.55,12.24,2a6.7,6.7,0,0,1,.62,1C115.78,15.79,115.6,16.1,112.86,16.1Z"/><path class="cls-5" d="M70.63,8.82c2.51,0,5,0,7.54,0,.84,0,1,.24,1,1.06,0,3.46.05,3.46-3.38,3.46-2.57,0-2.57,0-2.57,2.57,0,3.91,0,7.81,0,11.71,0,.89-.13,1.33-1.14,1.23-1.37-.15-3.22.56-4-.29S68,26,68,24.64c0-3.41,0-6.82,0-10.23,0-.87-.19-1.17-1.09-1.11-1.3.08-2.61,0-3.9,0-.79,0-1-.24-1-1,.11-1.14-.48-2.63.25-3.34.56-.55,2-.17,3.11-.18Z"/><path class="cls-3" d="M155,25.16c0-5.09,0-10.19,0-15.29,0-.91.29-1.06,1.12-1.09s.86.46.86,1.08c0,5.83,0,11.66,0,17.49,0,.48.12,1.36-.41,1.42-.82.1-1.7.3-2.36-.7-2.31-3.51-4.71-6.95-7.09-10.41-1.23-1.79-2.47-3.57-3.73-5.39-.44.37-.25.8-.25,1.16,0,4.76,0,9.51,0,14.27,0,.85-.2,1.12-1.1,1.15s-1-.42-1-1.18c0-5.7,0-11.4,0-17.09,0-.51-.44-1.36.34-1.49s1.72-.39,2.4.62c2,2.92,4.09,5.76,6.13,8.64l4.88,6.88Z"/><path class="cls-6" d="M200.94,18.79c0,3,0,6,0,9,0,.86-.25,1.09-1.06,1-1.43-.09-3.29.46-4.17-.25s-.26-2.68-.27-4.09c0-4.84,0-9.68,0-14.52,0-1,.27-1.23,1.2-1.17,1.38.09,3.25-.47,4,.23s.24,2.69.28,4.11C201,15,200.94,16.9,200.94,18.79Z"/><path class="cls-7" d="M138.73,18.91c0,2.95,0,5.9,0,8.86,0,.8-.16,1.09-1,1.08s-1-.24-1-1.07q.06-9,0-18c0-.89.33-1,1.09-1s1,.24,1,1C138.71,12.82,138.73,15.86,138.73,18.91Z"/><path class="cls-8" d="M168.73,14.66c.72,2.18,1.31,4,1.91,5.82.21.61.12.88-.61.83-1,0-2,0-3,0-.76,0-1-.2-.68-.92C167.14,18.59,167.86,16.79,168.73,14.66Z"/><path class="cls-8" d="M212.19,14.69c.66,2,1.24,3.81,1.88,5.6.25.73.22,1.07-.68,1s-2,0-3.08,0c-.5,0-.79-.08-.54-.68C210.57,18.7,211.34,16.77,212.19,14.69Z"/></g></svg>