<svg width="1013" height="243" viewBox="0 0 1013 243" fill="none" xmlns="http://www.w3.org/2000/svg">
<path d="M289.707 33.892L278.308 31.8402C279.59 27.2649 281.786 23.8909 284.917 21.6882C288.059 19.4995 292.701 18.3901 298.865 18.3901C304.482 18.3901 308.648 19.0597 311.395 20.381C314.125 21.7032 316.063 23.3752 317.179 25.411C318.293 27.4478 318.858 31.1706 318.858 36.6114L318.721 51.2158C318.721 55.3654 318.919 58.4356 319.331 60.4094C319.727 62.3713 320.491 64.498 321.59 66.7477H309.15C308.832 65.9122 308.419 64.6809 307.946 63.0548C307.747 62.3103 307.594 61.8236 307.503 61.5797C305.351 63.6625 303.062 65.2126 300.62 66.262C298.179 67.2944 295.569 67.8111 292.791 67.8111C287.908 67.8111 284.047 66.4898 281.238 63.8604C278.415 61.2159 277.011 57.8729 277.011 53.8303C277.011 51.1709 277.652 48.7843 278.934 46.6875C280.215 44.5897 282.016 42.9947 284.322 41.8853C286.626 40.776 289.968 39.8035 294.316 38.967C300.178 37.8727 304.253 36.8393 306.51 35.8968V34.6516C306.51 32.234 305.915 30.533 304.726 29.4996C303.534 28.4812 301.291 27.9645 297.98 27.9645C295.736 27.9645 293.996 28.4052 292.745 29.2867C291.494 30.1532 290.486 31.6873 289.707 33.892V33.892ZM306.51 44.043C304.908 44.5747 302.359 45.2134 298.865 45.9589C295.384 46.7025 293.112 47.4321 292.027 48.1316C290.394 49.301 289.571 50.7601 289.571 52.5381C289.571 54.301 290.226 55.8051 291.54 57.0814C292.852 58.3586 294.516 58.9972 296.546 58.9972C298.819 58.9972 300.971 58.2517 303.032 56.7785C304.557 55.6542 305.549 54.271 306.023 52.63C306.359 51.5656 306.51 49.5288 306.51 46.5356V44.043V44.043ZM323.771 53.2526L336.376 51.3377C336.91 53.7693 337.994 55.6232 339.642 56.8845C341.275 58.1468 343.565 58.7834 346.525 58.7834C349.776 58.7834 352.218 58.1907 353.851 56.9914C354.964 56.1709 355.515 55.0456 355.515 53.6634C355.515 52.705 355.209 51.9154 354.613 51.2918C353.989 50.6991 352.585 50.1524 350.417 49.6507C340.284 47.432 333.858 45.3963 331.142 43.5563C327.387 41.0038 325.51 37.4479 325.51 32.9036C325.51 28.816 327.128 25.366 330.379 22.5847C333.629 19.7883 338.666 18.3901 345.487 18.3901C351.989 18.3901 356.826 19.4535 359.985 21.5513C363.146 23.663 365.312 26.7792 366.502 30.9128L354.66 33.0865C354.156 31.2466 353.194 29.8334 351.775 28.862C350.357 27.8736 348.341 27.3868 345.716 27.3868C342.404 27.3868 340.039 27.8426 338.604 28.77C337.659 29.4226 337.185 30.2751 337.185 31.3085C337.185 32.205 337.598 32.9496 338.436 33.5722C339.565 34.4087 343.472 35.579 350.172 37.0981C356.857 38.6032 361.528 40.4562 364.184 42.6599C366.806 44.8935 368.121 47.9947 368.121 51.9614C368.121 56.2918 366.304 60.0306 362.656 63.1458C359.024 66.262 353.653 67.8111 346.525 67.8111C340.055 67.8111 334.941 66.5048 331.157 63.8904C327.387 61.2909 324.931 57.736 323.771 53.2526V53.2526ZM407.326 66.7477V59.6658C405.586 62.1884 403.312 64.1792 400.503 65.6383C397.68 67.0825 394.704 67.8111 391.575 67.8111C388.386 67.8111 385.532 67.1115 382.999 65.7293C380.464 64.3311 378.633 62.3713 377.49 59.8488C376.359 57.3242 375.795 53.8303 375.795 49.3769V19.4695H388.356V41.1867C388.356 47.8428 388.584 51.9154 389.057 53.4205C389.516 54.9087 390.355 56.094 391.575 56.9754C392.797 57.8579 394.353 58.2827 396.23 58.2827C398.382 58.2827 400.305 57.705 402 56.5347C403.694 55.3504 404.853 53.9062 405.479 52.1732C406.104 50.4253 406.424 46.1708 406.424 39.4078V19.4695H418.985V66.7477H407.326V66.7477ZM440.977 66.7477H428.415V19.4695H440.075V26.1865C442.074 23.0104 443.876 20.9126 445.463 19.9102C447.065 18.9068 448.865 18.3901 450.896 18.3901C453.765 18.3901 456.512 19.1817 459.167 20.7617L455.276 31.6583C453.171 30.3041 451.202 29.6215 449.385 29.6215C447.615 29.6215 446.135 30.0923 444.914 31.0647C443.677 32.0221 442.732 33.7701 442.029 36.2926C441.327 38.8151 440.977 44.104 440.977 52.1433V66.7477V66.7477ZM470.916 33.892L459.517 31.8402C460.799 27.2649 462.996 23.8909 466.126 21.6882C469.268 19.4995 473.908 18.3901 480.075 18.3901C485.691 18.3901 489.857 19.0597 492.604 20.381C495.335 21.7032 497.274 23.3752 498.387 25.411C499.502 27.4478 500.067 31.1706 500.067 36.6114L499.93 51.2158C499.93 55.3654 500.128 58.4356 500.539 60.4094C500.937 62.3713 501.7 64.498 502.799 66.7477H490.36C490.041 65.9122 489.628 64.6809 489.154 63.0548C488.957 62.3103 488.804 61.8236 488.713 61.5797C486.56 63.6625 484.27 65.2126 481.83 66.262C479.388 67.2944 476.779 67.8111 474 67.8111C469.117 67.8111 465.256 66.4898 462.447 63.8604C459.625 61.2159 458.221 57.8729 458.221 53.8303C458.221 51.1709 458.861 48.7843 460.143 46.6875C461.424 44.5897 463.226 42.9947 465.531 41.8853C467.835 40.776 471.177 39.8035 475.526 38.967C481.387 37.8727 485.462 36.8393 487.72 35.8968V34.6516C487.72 32.234 487.125 30.533 485.935 29.4996C484.743 28.4812 482.5 27.9645 479.189 27.9645C476.946 27.9645 475.206 28.4052 473.954 29.2867C472.703 30.1532 471.696 31.6873 470.916 33.892V33.892ZM487.72 44.043C486.117 44.5747 483.569 45.2134 480.075 45.9589C476.594 46.7025 474.321 47.4321 473.237 48.1316C471.604 49.301 470.78 50.7601 470.78 52.5381C470.78 54.301 471.436 55.8051 472.749 57.0814C474.061 58.3586 475.725 58.9972 477.755 58.9972C480.029 58.9972 482.181 58.2517 484.24 56.7785C485.766 55.6542 486.759 54.271 487.232 52.63C487.568 51.5656 487.72 49.5288 487.72 46.5356V44.043V44.043ZM552.595 66.7477H540.036V42.6139C540.036 37.5089 539.761 34.2098 539.226 32.7057C538.692 31.2166 537.808 30.0463 536.601 29.2108C535.396 28.3893 533.945 27.9645 532.251 27.9645C530.069 27.9645 528.117 28.5571 526.391 29.7434C524.668 30.9427 523.476 32.5088 522.836 34.4697C522.195 36.4295 521.874 40.0454 521.874 45.3353V66.7477H509.315V19.4695H520.975V26.4154C525.125 21.0656 530.344 18.3901 536.632 18.3901C539.394 18.3901 541.943 18.8918 544.232 19.8803C546.522 20.8827 548.262 22.1439 549.436 23.694C550.612 25.2451 551.436 26.9921 551.894 28.9519C552.366 30.9128 552.595 33.7091 552.595 37.356V66.7477V66.7477ZM557.86 53.2526L570.467 51.3377C571 53.7693 572.085 55.6232 573.733 56.8845C575.366 58.1468 577.654 58.7834 580.615 58.7834C583.866 58.7834 586.306 58.1907 587.939 56.9914C589.054 56.1709 589.604 55.0456 589.604 53.6634C589.604 52.705 589.298 51.9154 588.703 51.2918C588.078 50.6991 586.673 50.1524 584.506 49.6507C574.373 47.432 567.947 45.3963 565.231 43.5563C561.477 41.0038 559.6 37.4479 559.6 32.9036C559.6 28.816 561.218 25.366 564.469 22.5847C567.719 19.7883 572.754 18.3901 579.576 18.3901C586.077 18.3901 590.916 19.4535 594.076 21.5513C597.234 23.663 599.402 26.7792 600.592 30.9128L588.749 33.0865C588.244 31.2466 587.285 29.8334 585.865 28.862C584.445 27.8736 582.431 27.3868 579.805 27.3868C576.494 27.3868 574.127 27.8426 572.694 28.77C571.748 29.4226 571.275 30.2751 571.275 31.3085C571.275 32.205 571.687 32.9496 572.525 33.5722C573.655 34.4087 577.562 35.579 584.261 37.0981C590.946 38.6032 595.616 40.4562 598.272 42.6599C600.897 44.8935 602.21 47.9947 602.21 51.9614C602.21 56.2918 600.394 60.0306 596.745 63.1458C593.113 66.262 587.741 67.8111 580.615 67.8111C574.143 67.8111 569.03 66.5048 565.246 63.8904C561.477 61.2909 559.02 57.736 557.86 53.2526V53.2526ZM610.159 13.0563V1.47607H622.72V13.0563H610.159ZM610.159 66.7477V19.4695H622.72V66.7477H610.159Z" fill="#1D1819"/>
<path d="M651.586 13.0563V1.47607H664.145V13.0563H651.586ZM664.145 19.4695V65.2735C664.145 71.306 663.748 75.5615 662.971 78.039C662.177 80.5156 660.65 82.4455 658.408 83.8436C656.149 85.2428 653.28 85.9414 649.8 85.9414C648.549 85.9414 647.191 85.8195 645.755 85.6066C644.305 85.3787 642.749 85.0449 641.085 84.6042L643.269 73.9205C643.863 74.0274 644.427 74.1333 644.946 74.2093C645.465 74.2852 645.953 74.3162 646.397 74.3162C647.678 74.3162 648.732 74.0414 649.555 73.4957C650.38 72.948 650.913 72.2794 651.188 71.5049C651.448 70.7443 651.586 68.4197 651.586 64.558V19.4695H664.145ZM673.738 13.0563V1.47607H686.298V13.0563H673.738ZM673.738 66.7477V19.4695H686.298V66.7477H673.738ZM704.468 66.7477L689.437 19.4695H701.645L710.543 50.4563L718.723 19.4695H730.84L738.762 50.4563L747.842 19.4695H760.218L744.972 66.7477H732.901L724.721 36.3386L716.678 66.7477H704.468V66.7477ZM772.666 33.892L761.265 31.8402C762.548 27.2649 764.745 23.8909 767.875 21.6882C771.018 19.4995 775.658 18.3901 781.823 18.3901C787.44 18.3901 791.605 19.0597 794.353 20.381C797.084 21.7032 799.022 23.3752 800.135 25.411C801.25 27.4478 801.816 31.1706 801.816 36.6114L801.679 51.2158C801.679 55.3654 801.876 58.4356 802.288 60.4094C802.686 62.3713 803.449 64.498 804.548 66.7477H792.109C791.789 65.9122 791.377 64.6809 790.904 63.0548C790.705 62.3103 790.553 61.8236 790.461 61.5797C788.308 63.6625 786.019 65.2126 783.578 66.262C781.136 67.2944 778.527 67.811 775.75 67.811C770.866 67.811 767.004 66.4898 764.197 63.8604C761.373 61.2159 759.969 57.8729 759.969 53.8303C759.969 51.1709 760.61 48.7843 761.892 46.6875C763.173 44.5897 764.974 42.9947 767.279 41.8853C769.583 40.776 772.925 39.8035 777.275 38.967C783.135 37.8727 787.211 36.8393 789.469 35.8968V34.6516C789.469 32.234 788.874 30.533 787.684 29.4996C786.492 28.4812 784.25 27.9645 780.939 27.9645C778.693 27.9645 776.955 28.4052 775.702 29.2867C774.452 30.1532 773.444 31.6873 772.666 33.892V33.892ZM789.469 44.043C787.867 44.5747 785.317 45.2133 781.823 45.9589C778.342 46.7025 776.07 47.4321 774.986 48.1316C773.353 49.301 772.529 50.7601 772.529 52.538C772.529 54.301 773.184 55.8051 774.498 57.0814C775.81 58.3586 777.474 58.9972 779.503 58.9972C781.777 58.9972 783.93 58.2517 785.989 56.7785C787.516 55.6542 788.508 54.271 788.98 52.63C789.318 51.5656 789.469 49.5288 789.469 46.5356V44.043V44.043Z" fill="#1D1819"/>
<path fill-rule="evenodd" clip-rule="evenodd" d="M24.2178 0H217.957C231.277 0 242.175 10.8566 242.175 24.1268V218.437C242.175 231.707 231.277 242.563 217.957 242.563H24.2178C10.8976 242.563 0 231.707 0 218.437V24.1268C0 10.8566 10.8976 0 24.2178 0V0ZM232.429 123.122H196.881C192.455 230.687 30.578 248.792 16.2464 123.101L11.6352 123.114C24.2757 276.474 229.331 257.572 232.429 123.122V123.122ZM192.471 123.122H157.275C153.987 205.544 34.9904 216.569 24.6905 123.099L20.405 123.122C31.4625 241.29 188.407 227.682 192.471 123.122V123.122ZM152.59 123.106L122.171 123.094C119.844 181.458 37.7728 186.818 33.8221 123.094L29.1678 123.105C35.2982 208.828 151.353 200.537 152.59 123.106ZM11.6352 118.576H47.1832C51.6086 11.0095 213.486 -7.09484 227.818 118.596L232.429 118.583C219.789 -34.7786 14.7323 -15.8757 11.6352 118.576ZM51.5937 118.576H86.7889C90.076 36.1527 209.074 25.1282 219.374 118.598L223.658 118.575C212.601 0.405752 55.6563 14.0148 51.5937 118.576V118.576ZM91.4742 118.592L121.893 118.604C124.221 60.2375 206.292 54.8787 210.241 118.604L214.897 118.592C208.766 32.8687 92.7105 41.1598 91.4742 118.592Z" fill="#E62129"/>
<path d="M275.313 189.087L300.69 185.216C301.765 190.131 303.947 193.88 307.265 196.43C310.552 198.98 315.162 200.27 321.121 200.27C327.665 200.27 332.581 199.072 335.868 196.645C338.111 194.986 339.217 192.713 339.217 189.916C339.217 187.981 338.603 186.383 337.404 185.124C336.145 183.926 333.319 182.819 328.956 181.806C308.555 177.32 295.621 173.203 290.152 169.485C282.594 164.324 278.815 157.135 278.815 147.949C278.815 139.684 282.072 132.71 288.616 127.087C295.16 121.435 305.298 118.608 319.032 118.608C332.121 118.608 341.86 120.759 348.219 124.998C354.579 129.269 358.942 135.567 361.338 143.924L337.496 148.318C336.483 144.6 334.547 141.743 331.691 139.776C328.833 137.779 324.778 136.796 319.493 136.796C312.826 136.796 308.064 137.718 305.175 139.592C303.272 140.913 302.318 142.633 302.318 144.723C302.318 146.536 303.148 148.041 304.838 149.3C307.111 150.991 314.977 153.356 328.465 156.428C341.921 159.47 351.322 163.218 356.668 167.673C361.953 172.189 364.595 178.457 364.595 186.476C364.595 195.232 360.939 202.79 353.596 209.088C346.284 215.386 335.469 218.52 321.121 218.52C308.095 218.52 297.803 215.878 290.182 210.593C282.594 205.34 277.648 198.15 275.313 189.087V189.087ZM378.248 107.824V84.4124H403.534V107.824H378.248ZM378.248 216.37V120.789H403.534V216.37H378.248ZM507.913 216.37H482.628V167.58C482.628 157.257 482.075 150.591 481 147.549C479.925 144.539 478.143 142.172 475.715 140.482C473.289 138.824 470.369 137.964 466.959 137.964C462.566 137.964 458.633 139.162 455.161 141.559C451.689 143.985 449.294 147.15 448.003 151.114C446.712 155.076 446.068 162.388 446.068 173.08V216.37H420.781V120.789H444.255V134.83C452.611 124.015 463.119 118.608 475.777 118.608C481.338 118.608 486.469 119.623 491.077 121.618C495.685 123.646 499.187 126.197 501.553 129.331C503.92 132.464 505.579 135.997 506.5 139.961C507.452 143.924 507.913 149.577 507.913 156.951V216.37V216.37ZM543.964 149.947L521.012 145.798C523.594 136.55 528.018 129.73 534.317 125.275C540.645 120.851 549.985 118.608 562.398 118.608C573.703 118.608 582.092 119.959 587.621 122.633C593.121 125.305 597.023 128.685 599.266 132.803C601.509 136.919 602.645 144.446 602.645 155.445L602.37 184.97C602.37 193.358 602.768 199.565 603.598 203.558C604.397 207.521 605.932 211.822 608.145 216.37H583.106C582.46 214.68 581.631 212.191 580.678 208.904C580.279 207.398 579.972 206.415 579.787 205.924C575.455 210.132 570.846 213.267 565.931 215.386C561.015 217.475 555.762 218.52 550.17 218.52C540.338 218.52 532.566 215.847 526.912 210.532C521.228 205.186 518.402 198.427 518.402 190.254C518.402 184.877 519.692 180.055 522.273 175.815C524.853 171.575 528.479 168.349 533.118 166.106C537.758 163.863 544.486 161.897 553.242 160.207C565.041 157.995 573.244 155.905 577.79 154V151.482C577.79 146.598 576.592 143.156 574.195 141.067C571.8 139.008 567.283 137.964 560.616 137.964C556.099 137.964 552.597 138.854 550.077 140.636C547.559 142.388 545.531 145.491 543.964 149.947V149.947ZM577.79 170.469C574.564 171.544 569.433 172.834 562.398 174.34C555.392 175.846 550.815 177.32 548.633 178.733C545.346 181.099 543.687 184.049 543.687 187.644C543.687 191.208 545.008 194.249 547.651 196.829C550.293 199.411 553.641 200.701 557.728 200.701C562.305 200.701 566.638 199.195 570.785 196.215C573.857 193.942 575.854 191.146 576.807 187.828C577.483 185.677 577.79 181.56 577.79 175.508V170.469V170.469ZM643.305 216.37H618.019V120.789H641.493V134.369C645.517 127.948 649.142 123.707 652.337 121.679C655.563 119.652 659.189 118.608 663.275 118.608C669.051 118.608 674.581 120.205 679.927 123.4L672.093 145.429C667.853 142.695 663.889 141.313 660.234 141.313C656.67 141.313 653.689 142.265 651.231 144.231C648.742 146.167 646.837 149.7 645.424 154.8C644.011 159.9 643.305 170.592 643.305 186.844V216.37ZM680.431 120.789H703.75V133.816C712.076 123.677 722.03 118.608 733.552 118.608C739.666 118.608 744.981 119.867 749.467 122.387C753.983 124.907 757.669 128.716 760.558 133.816C764.736 128.716 769.283 124.907 774.138 122.387C778.992 119.867 784.185 118.608 789.714 118.608C796.719 118.608 802.68 120.051 807.534 122.909C812.388 125.736 816.014 129.945 818.411 135.444C820.161 139.531 821.022 146.136 821.022 155.261V216.37H795.736V161.744C795.736 152.249 794.876 146.136 793.124 143.372C790.79 139.776 787.195 137.964 782.341 137.964C778.777 137.964 775.459 139.039 772.325 141.22C769.222 143.372 766.979 146.536 765.597 150.713C764.213 154.892 763.507 161.467 763.507 170.469V216.37H738.222V163.987C738.222 154.677 737.761 148.686 736.87 145.982C735.979 143.279 734.566 141.282 732.692 139.961C730.787 138.639 728.237 137.964 724.979 137.964C721.078 137.964 717.576 139.008 714.473 141.128C711.339 143.217 709.096 146.259 707.744 150.223C706.392 154.185 705.716 160.729 705.716 169.915V216.37H680.431V120.789V120.789ZM856.642 149.947L833.692 145.798C836.273 136.55 840.696 129.73 846.995 125.275C853.324 120.851 862.664 118.608 875.076 118.608C886.383 118.608 894.77 119.959 900.3 122.633C905.8 125.305 909.702 128.685 911.944 132.803C914.187 136.919 915.324 144.446 915.324 155.445L915.048 184.97C915.048 193.358 915.447 199.565 916.276 203.558C917.075 207.521 918.612 211.822 920.823 216.37H895.784C895.138 214.68 894.31 212.191 893.356 208.904C892.958 207.398 892.65 206.415 892.466 205.924C888.134 210.132 883.525 213.267 878.609 215.386C873.694 217.475 868.44 218.52 862.848 218.52C853.017 218.52 845.244 215.847 839.591 210.532C833.906 205.186 831.08 198.427 831.08 190.254C831.08 184.877 832.37 180.055 834.952 175.815C837.532 171.575 841.157 168.349 845.796 166.106C850.436 163.863 857.165 161.897 865.921 160.207C877.719 157.995 885.922 155.905 890.469 154V151.482C890.469 146.598 889.271 143.156 886.874 141.067C884.478 139.008 879.961 137.964 873.294 137.964C868.778 137.964 865.275 138.854 862.756 140.636C860.237 142.388 858.209 145.491 856.642 149.947V149.947ZM890.469 170.469C887.243 171.544 882.112 172.834 875.076 174.34C868.071 175.846 863.493 177.32 861.312 178.733C858.025 181.099 856.366 184.049 856.366 187.644C856.366 191.208 857.686 194.249 860.329 196.829C862.971 199.411 866.319 200.701 870.406 200.701C874.984 200.701 879.316 199.195 883.463 196.215C886.536 193.942 888.533 191.146 889.486 187.828C890.161 185.677 890.469 181.56 890.469 175.508V170.469ZM922.863 189.087L948.241 185.216C949.316 190.131 951.497 193.88 954.815 196.43C958.103 198.98 962.712 200.27 968.672 200.27C975.216 200.27 980.132 199.072 983.419 196.645C985.662 194.986 986.769 192.713 986.769 189.916C986.769 187.981 986.154 186.383 984.955 185.124C983.696 183.926 980.87 182.819 976.506 181.806C956.105 177.32 943.171 173.203 937.702 169.485C930.145 164.324 926.366 157.135 926.366 147.949C926.366 139.684 929.622 132.71 936.166 127.087C942.71 121.435 952.849 118.608 966.583 118.608C979.671 118.608 989.41 120.759 995.77 124.998C1002.13 129.269 1006.49 135.567 1008.89 143.924L985.047 148.318C984.034 144.6 982.098 141.743 979.241 139.776C976.384 137.779 972.328 136.796 967.044 136.796C960.377 136.796 955.614 137.718 952.727 139.592C950.822 140.913 949.869 142.633 949.869 144.723C949.869 146.536 950.699 148.041 952.389 149.3C954.662 150.991 962.528 153.356 976.015 156.428C989.472 159.47 998.873 163.218 1004.22 167.673C1009.5 172.189 1012.15 178.457 1012.15 186.476C1012.15 195.232 1008.49 202.79 1001.15 209.088C993.834 215.386 983.02 218.52 968.672 218.52C955.645 218.52 945.353 215.878 937.733 210.593C930.145 205.34 925.198 198.15 922.863 189.087Z" fill="#1D1819"/>
<path fill-rule="evenodd" clip-rule="evenodd" d="M11.6353 118.576H47.1833C51.6087 11.0095 213.487 -7.09482 227.818 118.596L232.429 118.583C219.789 -34.7785 14.7324 -15.8756 11.6353 118.576V118.576Z" fill="#FEFEFE"/>
<path fill-rule="evenodd" clip-rule="evenodd" d="M51.5938 118.576H86.789C90.0761 36.1527 209.074 25.1282 219.374 118.598L223.659 118.575C212.601 0.4057 55.6564 14.0147 51.5938 118.576V118.576Z" fill="#FEFEFE"/>
<path fill-rule="evenodd" clip-rule="evenodd" d="M91.4741 118.592L121.893 118.604C124.221 60.2375 206.292 54.8787 210.241 118.604L214.897 118.592C208.766 32.8686 92.7104 41.1598 91.4741 118.592V118.592Z" fill="#FEFEFE"/>
<path fill-rule="evenodd" clip-rule="evenodd" d="M232.429 123.122H196.881C192.455 230.687 30.5781 248.792 16.2465 123.101L11.6353 123.114C24.2758 276.474 229.331 257.572 232.429 123.122V123.122Z" fill="#FEFEFE"/>
<path fill-rule="evenodd" clip-rule="evenodd" d="M192.471 123.122H157.275C153.987 205.544 34.9902 216.569 24.6903 123.099L20.4048 123.122C31.4623 241.29 188.407 227.682 192.471 123.122V123.122Z" fill="#FEFEFE"/>
<path fill-rule="evenodd" clip-rule="evenodd" d="M152.59 123.105L122.171 123.094C119.844 181.458 37.7729 186.818 33.8222 123.094L29.168 123.105C35.2984 208.828 151.353 200.537 152.59 123.105Z" fill="#FEFEFE"/>
</svg>
