<svg id="Layer_1" data-name="Layer 1" xmlns="http://www.w3.org/2000/svg" viewBox="0 0 245.81 47"><defs><style>.cls-1{fill:#22419a;}.cls-2{fill:#22409a;}.cls-3{fill:#a11c6e;}.cls-4{fill:#fd5608;}.cls-5{fill:#fd4505;}.cls-6{fill:#fe4245;}.cls-7{fill:#781367;}.cls-8{fill:#a11c4e;}.cls-9{fill:#fe2627;}.cls-10{fill:#c72e60;}.cls-11{fill:#fd7f51;}.cls-12{fill:#fe0101;}.cls-13{fill:#fe2e04;}.cls-14{fill:#bc3e7c;}.cls-15{fill:#fd6437;}</style></defs><title>Untitled-1 [Recovered]</title><path class="cls-1" d="M22.79,41.76A15.07,15.07,0,0,1,18,44,13.45,13.45,0,0,1,5,40.33c-7-6.7-6.5-18.67.89-24.89a13.64,13.64,0,0,1,16.08-1.15c.24.15.5.29.87.5V9c0-2.57,0-5.14,0-7.72,0-.6.08-.9.8-.89,2.34,0,4.69,0,7,0,.65,0,.77.24.77.82q0,21,0,42c0,.63-.2.79-.8.78-2.28,0-4.56,0-6.84,0-.84,0-1-.27-1-1A11.74,11.74,0,0,0,22.79,41.76Zm-.62-13.29a10.56,10.56,0,0,0-2.06-6.54,6.3,6.3,0,0,0-9.92-.76,10.68,10.68,0,0,0,.08,14.31,6.18,6.18,0,0,0,9.25-.14A10,10,0,0,0,22.17,28.47Z"/><path class="cls-2" d="M116.25,23.64c3.28-3.4,6.4-6.56,9.42-9.82a4.09,4.09,0,0,1,3.51-1.54c2.71.14,5.42,0,8.26,0a10.51,10.51,0,0,1-1.56,1.62c-3.27,3.16-6.51,6.35-9.8,9.49-.56.53-.25.84,0,1.25q6.1,9.18,12.2,18.36c.16.24.51.5.39.76s-.6.16-.9.16c-2.85,0-5.7,0-8.54,0a1.41,1.41,0,0,1-1.43-.78c-2.53-4.17-5.11-8.3-7.64-12.47-.44-.72-.64-.71-1.34-.19a6.11,6.11,0,0,0-2.63,6.17c.23,2.11,0,4.27.06,6.41,0,.62-.12.88-.82.87-2.38-.05-4.76,0-7.13,0-.64,0-.79-.19-.79-.79q0-21.1,0-42.21c0-.67.27-.74.83-.74,2.34,0,4.69,0,7,0,.72,0,.88.2.88.89,0,7.09,0,14.17,0,21.25Z"/><path class="cls-2" d="M55.2,30.27c-3.52,0-7,0-10.55,0-.72,0-.9.19-.84.91.26,3.39,1.83,5.72,4.51,6.59,3.44,1.11,7.42.3,9.15-2.25a3,3,0,0,1,3-1.38c1.6.06,3.21,0,4.82,0,.63,0,.71.15.5.74a13.67,13.67,0,0,1-12.54,9.77,18.13,18.13,0,0,1-10.68-2c-4.31-2.43-6.54-6.32-7.31-11a17.71,17.71,0,0,1,2.46-13.17c3.23-4.84,7.9-7,13.66-7,8.61,0,13.83,6.13,15,13.65a25.63,25.63,0,0,1,.25,4.38c0,.72-.28.81-.88.8C62.23,30.26,58.71,30.27,55.2,30.27Zm-4.46-5.55h6.31c.44,0,.77,0,.68-.62A6.52,6.52,0,0,0,51.5,18a6.83,6.83,0,0,0-7.64,5.78c-.11.67,0,1,.76.93C46.66,24.68,48.7,24.72,50.74,24.72Z"/><path class="cls-1" d="M73.24,28.19c0-3.08,0-6.15,0-9.23,0-.63-.13-.87-.81-.84-1.24.06-2.48,0-3.72,0-.54,0-.77-.1-.75-.7C68,16,68,14.51,68,13c0-.56.14-.75.72-.73,1.2,0,2.41,0,3.61,0,.73,0,1-.13,1-.91-.06-2.57,0-5.15,0-7.72,0-.63.14-.87.82-.86,2.38.05,4.76,0,7.14,0,.66,0,.85.17.84.83,0,2.61,0,5.22,0,7.82,0,.65.17.85.83.83,1.61,0,3.22,0,4.83,0,.56,0,.76.14.74.72,0,1.47,0,2.94,0,4.41,0,.61-.22.71-.76.7-1.61,0-3.21,0-4.82,0-.57,0-.82.08-.82.75C82,24,82,29.16,82,34.3c0,2.26.78,3,3,3.09a10.6,10.6,0,0,0,2.7-.14c.5-.11.65,0,.65.54,0,1.84,0,3.68,0,5.51,0,.42-.06.68-.57.72a30.18,30.18,0,0,1-9.2-.21c-3.54-.77-5.36-3.07-5.38-6.7C73.23,34.13,73.24,31.16,73.24,28.19Z"/><path class="cls-2" d="M101.75,28.26c0,4.91,0,9.82,0,14.73,0,.78-.19,1-1,1-2.31-.06-4.62,0-6.93,0-.66,0-.85-.19-.85-.85q0-15,0-30.06c0-.64.21-.77.8-.76q3.57,0,7.14,0c.65,0,.83.18.82.83C101.74,18.17,101.75,23.22,101.75,28.26Z"/><path class="cls-3" d="M166.86,28.37a14.16,14.16,0,0,1,3.2-9.65c.95-.26,1.68-1,2.65-1.19.17.56.58.66,1.1.58a28.89,28.89,0,0,1,5.34-.36c-.24.12-.47.24-.72.34a10.9,10.9,0,0,0-3.81,17.56,11.25,11.25,0,0,0,8.94,3.52,5.26,5.26,0,0,1-2,.6,1.61,1.61,0,0,0-.91-.36,18.88,18.88,0,0,1-10.93-7C168.65,31.15,167.89,29.67,166.86,28.37Z"/><path class="cls-3" d="M145.56,20.54a11.54,11.54,0,0,0-3,6.7c-.35,4.87,2,8.79,6.64,11.06a7.27,7.27,0,0,0,2.2,2.51c1.17,1.14,2.61,1.93,3.82,3A14.48,14.48,0,0,1,145.93,42a3,3,0,0,1,.69-.39c.95-.27.74-.53.1-1a19.22,19.22,0,0,1-3.4-3,23.11,23.11,0,0,1-3.38-5.8,14,14,0,0,1,1.7-8A6.36,6.36,0,0,1,145.56,20.54Z"/><path class="cls-4" d="M198.38,28.17A15.26,15.26,0,0,1,191,41.55a4.51,4.51,0,0,1,.42-2,13.72,13.72,0,0,0,1-3.19l.83-1.12c2.28-3,1.87-7.33,0-10.08a.33.33,0,0,1,0-.16l-.12-.25A15,15,0,0,0,191,21c.46-.56.36-1.43,1.05-1.87A24.35,24.35,0,0,1,196.56,25C197.21,26,197.42,27.3,198.38,28.17Z"/><path class="cls-5" d="M220,27.15a42.77,42.77,0,0,0-.26-4.65,8.37,8.37,0,0,0-2.49-4.74,8.25,8.25,0,0,0,.13-3.92s-.17-.07-.26-.11l.39-.75a4.89,4.89,0,0,1,2.21.94c0,1.85,0,3.71,0,5.56,0,.28-.15.67.22.79s.44-.32.64-.51c.4-.39.59-1,1.13-1.22a26.47,26.47,0,0,1,2,3.4c.33.52.45,1.2,1.16,1.41-.25,3.21-.06,6.42-.13,9.63,0,.4,0,.8,0,1.19-.59,0-.72-.56-.93-.93-.87-1.49-1.65-3-2.5-4.53C221,28.12,220.78,27.4,220,27.15Z"/><path class="cls-6" d="M239.47,33.78l0-8.31a15.93,15.93,0,0,0-.53-3.83,6.25,6.25,0,0,0-6.1-5.12c2.07-1,4.19-.69,6.32-.2,1.17.27,2.17,1,3.37,1.18h0l.17.23a9.94,9.94,0,0,1,1.32,4c-2.11,0-1.72-.1-1.68,1.68a19,19,0,0,1-.66,5.62A14.67,14.67,0,0,1,239.47,33.78Z"/><path class="cls-7" d="M155.22,43.82c-1.21-1.08-2.65-1.87-3.82-3a7.27,7.27,0,0,1-2.2-2.51A10.87,10.87,0,0,0,161,36.13c.3-.26.46-.25.72,0,.89.9,1.79,1.8,2.7,2.67.33.31.29.52,0,.81A15.08,15.08,0,0,1,155.22,43.82Z"/><path class="cls-8" d="M166.86,28.37c1,1.3,1.79,2.78,2.85,4.06a18.88,18.88,0,0,0,10.93,7,1.61,1.61,0,0,1,.91.36l-.43.35a12.53,12.53,0,0,0-4.7,2.55,14.6,14.6,0,0,1-6.53-5.1A14.56,14.56,0,0,1,166.86,28.37Z"/><path class="cls-7" d="M145.56,20.54a6.36,6.36,0,0,0-3.92,3.27,14,14,0,0,0-1.7,8,18.35,18.35,0,0,0,.17,3.39A1.27,1.27,0,0,1,140,36.4c-3.28-5.18-3-12.75.62-17.26a1,1,0,0,0,.8-.34c1.48-1.34,3.05-2,4.94-.72.41.29,1.06.22,1.25.85l-1.81,1.41-.21.2Z"/><path class="cls-9" d="M239.47,33.78a14.67,14.67,0,0,0,2.15-4.73,19,19,0,0,0,.66-5.62c0-1.78-.43-1.72,1.68-1.68.07.54.14,1.08.22,1.61-.7.53-.26,1.3-.37,1.94-.33,1.88-.52,3.8-.75,5.71s-.4,3.95-.7,5.91c-.36,2.26-.56,4.53-.7,6.81-2.23.14-2.23.14-2.23-2.06C239.44,39,239.46,36.41,239.47,33.78Z"/><path class="cls-10" d="M165.24,17.73c.37.22.44.44.1.78-.94.91-1.86,1.83-2.77,2.76-.23.23-.39.29-.64,0a11,11,0,0,0-9.51-4,2.74,2.74,0,0,0-.67-1.51c-.31-.42-.88-.64-.95-1.24a22.56,22.56,0,0,1,3.15-.38,18.72,18.72,0,0,1,9.62,2.77A3.4,3.4,0,0,0,165.24,17.73Z"/><path class="cls-11" d="M198.38,28.17c-1-.87-1.17-2.16-1.82-3.21A24.35,24.35,0,0,0,192,19.13a13.61,13.61,0,0,0-5.63-3.38l-2-.6c-.11-.89.65-1.57.61-2.45a13.29,13.29,0,0,1,7.37,3.06,15.63,15.63,0,0,1,6.07,11.12A11.11,11.11,0,0,1,198.38,28.17Z"/><path class="cls-1" d="M96.52.11a4.71,4.71,0,0,1,4.8,1.78,4.41,4.41,0,0,1,.08,5c-.4-.1-.68.16-1,.33a3.84,3.84,0,0,1-4.93-1.32,3.9,3.9,0,0,1,.38-4.68C96.16.93,96.6.67,96.52.11Z"/><path class="cls-5" d="M201.62,34.17c-.14-2.18-.1-4.37,0-6.55A42.78,42.78,0,0,1,202.8,23c.19-.49.39-1,.57-1.48s.32-.07.47,0a13.8,13.8,0,0,0-.17,3,.38.38,0,0,0,.18.4,48.78,48.78,0,0,0,1.82,12.25c-.52.09-.58.5-.6.9s0,.94,0,1.4c0,.22.1.53-.21.6s-.43-.19-.52-.4c-.3-.74-.78-1.39-1.13-2.11A21.51,21.51,0,0,0,201.62,34.17Z"/><path class="cls-9" d="M242.5,17.5c-1.2-.18-2.2-.91-3.37-1.18-2.13-.49-4.25-.8-6.32.2a11.27,11.27,0,0,0-5.93,2c-.16-.59.2-1,.48-1.46a8.86,8.86,0,0,1,3.81-3.44,2.72,2.72,0,0,0-1.56.11c-1.13.19-2.12.9-3.31.89,2.07-1.72,4.55-2,7.11-1.91a.53.53,0,0,0,.42.5l6.32,2.17c.27.09.46.07.55-.22A6.24,6.24,0,0,1,242.5,17.5Z"/><path class="cls-3" d="M150.8,14.53c.07.6.64.82.95,1.24a2.74,2.74,0,0,1,.67,1.51,13,13,0,0,0-4.84,1.65c-.19-.63-.84-.56-1.25-.85-1.89-1.32-3.46-.62-4.94.72a1,1,0,0,1-.8.34,14,14,0,0,1,6.35-5.24,5.85,5.85,0,0,1,3,.31A1.56,1.56,0,0,0,150.8,14.53Z"/><path class="cls-12" d="M241.66,43.73c.14-2.28.34-4.55.7-6.81.3-2,.46-3.94.7-5.91s.42-3.83.75-5.71c.11-.64-.33-1.41.37-1.94,0,1,.08,2,.08,3,0,5.46,0,10.93,0,16.39,0,.81-.16,1.16-1,1A14.25,14.25,0,0,0,241.66,43.73Z"/><path class="cls-13" d="M181.12,40.12l.43-.35a5.26,5.26,0,0,0,2-.6h0a1,1,0,0,0,.82-.15l.41-.05a.54.54,0,0,0,.6-.14l1-.24c.41.39.9.09,1.35.15.55.52.06,1-.08,1.46-.32,1.07-.71,2.13-1.07,3.2a13.3,13.3,0,0,1-6.45.34,3,3,0,0,1,.2-1.17A10.09,10.09,0,0,0,181.12,40.12Z"/><path class="cls-14" d="M185,12.7c0,.88-.72,1.56-.61,2.45h-.82a21,21,0,0,0-4.68.2,19,19,0,0,0-6.14,2.19c-1,.2-1.7.93-2.65,1.19a14.69,14.69,0,0,1,7.82-5.57A14.05,14.05,0,0,1,185,12.7Z"/><path class="cls-4" d="M220,27.15c.76.25,1,1,1.3,1.56.85,1.5,1.63,3,2.5,4.53.21.37.34.91.93.93,0,3,0,6,.05,9,0,.5-.19.66-.65.61s-.66,0-1-.05c.83-2.73.14-5.26-1-7.74-.62-2.15-1.24-4.3-1.88-6.44,0,0-.17,0-.26,0Z"/><path class="cls-13" d="M205.67,37.19a48.78,48.78,0,0,1-1.82-12.25v-.39c.19-.13.16-.35.23-.53.64-1.82,1.14-3.71,2.58-5.12.4.56,0,1.31.43,1.87a12.89,12.89,0,0,0-1,5.82c0,3.93,0,7.86,0,11.79A2.2,2.2,0,0,1,205.67,37.19Z"/><path class="cls-4" d="M205.67,37.19a2.2,2.2,0,0,0,.37,1.19c0,1.56,0,3.13,0,4.7,0,.5-.12.72-.67.7-1.07,0-2.14,0-3.21,0-.45,0-.68-.1-.67-.6,0-3,.06-6,.09-9a21.51,21.51,0,0,1,1.58,3.41c.35.72.83,1.37,1.13,2.11.09.21.27.45.52.4s.21-.38.21-.6c0-.46,0-.93,0-1.4S205.15,37.28,205.67,37.19Z"/><path class="cls-13" d="M226.3,14.63c1.19,0,2.18-.7,3.31-.89a2.72,2.72,0,0,1,1.56-.11,8.86,8.86,0,0,0-3.81,3.44c-.28.44-.64.87-.48,1.46h0c-.3-.13-.25.1-.28.26a14.39,14.39,0,0,0-1.67,4.56c-.71-.21-.83-.89-1.16-1.41a26.47,26.47,0,0,0-2-3.4c.32-.42.6-.89,1.18-1l.38.7a12.49,12.49,0,0,1,2.67-3.3c.18,0,.35,0,.33-.29Z"/><path class="cls-15" d="M206.66,18.9c-1.44,1.41-1.94,3.3-2.58,5.12-.07.18,0,.4-.23.53h-.18a13.8,13.8,0,0,1,.17-3,6.69,6.69,0,0,1,.44-2.38c.6-.5.45-1.56,1.37-1.83.46-.08.51-.55.72-.84,2.2-3.18,5.41-4,9-3.83a2.56,2.56,0,0,1,1.36.22,6.66,6.66,0,0,1-1.83.65c-1.61.59-3.3,1-4.62,2.18A7.27,7.27,0,0,0,206.66,18.9Z"/><path class="cls-14" d="M150.8,14.53a1.56,1.56,0,0,1-.9-.32,5.85,5.85,0,0,0-3-.31,15.24,15.24,0,0,1,14.31.56,12.25,12.25,0,0,1,4,3.27,3.4,3.4,0,0,1-1.67-.81A18.72,18.72,0,0,0,154,14.15,22.56,22.56,0,0,0,150.8,14.53Z"/><path class="cls-2" d="M96.52.11c.08.56-.36.82-.67,1.15a3.9,3.9,0,0,0-.38,4.68,3.84,3.84,0,0,0,4.93,1.32c.32-.17.6-.43,1-.33a4.54,4.54,0,0,1-8.11-.81A4.51,4.51,0,0,1,96.52.11Z"/><path class="cls-13" d="M220,29.55c.09,0,.26,0,.26,0,.64,2.14,1.26,4.29,1.88,6.44a1.32,1.32,0,0,0-.37.9c-.23,2.28-.43,4.56-.64,6.84-.89.22-1.2,0-1.19-1C220,38.31,220,33.93,220,29.55Z"/><path class="cls-14" d="M140,36.4a1.27,1.27,0,0,0,.14-1.24,18.35,18.35,0,0,1-.17-3.39,23.11,23.11,0,0,0,3.38,5.8,19.22,19.22,0,0,0,3.4,3c.64.48.85.74-.1,1a3,3,0,0,0-.69.39A14.39,14.39,0,0,1,140,36.4Z"/><path class="cls-5" d="M186.58,43.41c.36-1.07.75-2.13,1.07-3.2.14-.46.63-.94.09-1.46a14.44,14.44,0,0,0,4.66-2.4,13.72,13.72,0,0,1-1,3.19,4.51,4.51,0,0,0-.42,2A11.57,11.57,0,0,1,186.58,43.41Z"/><path class="cls-13" d="M201.62,17.13c0-1.29,0-2.58-.08-3.87,0-.46.14-.7.63-.65h.5c1,.07,2.34-.43,2.85.22s.11,1.9.12,2.9c-.51,0-.87.31-1.31.46C203.42,16.5,202.64,17.16,201.62,17.13Z"/><path class="cls-4" d="M210.29,15.7c1.32-1.18,3-1.59,4.62-2.18a6.66,6.66,0,0,0,1.83-.65l.79.11-.39.75a5.65,5.65,0,0,1-3.86,2.41c-.33,0-.66.13-.76.52l-2,.65A4.18,4.18,0,0,1,210.29,15.7Z"/><path class="cls-5" d="M221.14,43.72c.21-2.28.41-4.56.64-6.84a1.32,1.32,0,0,1,.37-.9c1.14,2.48,1.83,5,1,7.74Z"/><path class="cls-4" d="M222.92,17.53c-.58.12-.86.59-1.18,1-.54.25-.73.83-1.13,1.22-.2.19-.26.64-.64.51s-.22-.51-.22-.79c0-1.85,0-3.71,0-5.56A7.1,7.1,0,0,1,222.92,17.53Z"/><path class="cls-5" d="M201.62,17.13c1,0,1.8-.63,2.71-.94.44-.15.8-.5,1.31-.46v1.59c-.92.27-.77,1.33-1.37,1.83-.95.05-1.67.89-2.67.79A13.89,13.89,0,0,1,201.62,17.13Z"/><path class="cls-12" d="M181.12,40.12a10.09,10.09,0,0,1-.79,2.46,3,3,0,0,0-.2,1.17,11.48,11.48,0,0,1-3.71-1.08A12.53,12.53,0,0,1,181.12,40.12Z"/><path class="cls-13" d="M212.52,16.66c.1-.39.43-.48.76-.52a5.65,5.65,0,0,0,3.86-2.41c.09,0,.26.07.26.11a8.25,8.25,0,0,1-.13,3.92A6.61,6.61,0,0,0,212.52,16.66Z"/><path class="cls-5" d="M210.29,15.7a4.18,4.18,0,0,0,.2,1.61,9.88,9.88,0,0,0-3.4,3.46c-.4-.56,0-1.31-.43-1.87A7.27,7.27,0,0,1,210.29,15.7Z"/><path class="cls-6" d="M240.7,15.17c-.09.29-.28.31-.55.22l-6.32-2.17a.53.53,0,0,1-.42-.5A9.24,9.24,0,0,1,240.7,15.17Z"/><path class="cls-4" d="M201.61,19.94c1,.1,1.72-.74,2.67-.79a6.69,6.69,0,0,0-.44,2.38c-.15-.07-.3-.46-.47,0s-.38,1-.57,1.48l-1.22,0Z"/><path class="cls-11" d="M201.58,23l1.22,0a42.78,42.78,0,0,0-1.21,4.61A22.49,22.49,0,0,1,201.58,23Z"/><path class="cls-9" d="M226.59,18.79c0-.16,0-.39.28-.26A3.45,3.45,0,0,1,226.59,18.79Z"/><path class="cls-9" d="M226.3,14.64c0,.25-.15.28-.33.29Z"/><path class="cls-3" d="M145.56,20.54l.21-.2Z"/><path class="cls-9" d="M242.64,17.73l-.17-.23C242.6,17.52,242.64,17.61,242.64,17.73Z"/><path class="cls-10" d="M183,17.24a16.88,16.88,0,0,0-3.81.51,28.89,28.89,0,0,0-5.34.36c-.52.08-.93,0-1.1-.58a19,19,0,0,1,6.14-2.19,21,21,0,0,1,4.68-.2Z"/><path class="cls-11" d="M186.38,38.6c.63-.35,1.28-.67,1.9-1.05a10.88,10.88,0,0,0,5-11.72c-.05-.22-.05-.45-.08-.68,1.87,2.75,2.28,7.08,0,10.08l-.83,1.12a14.44,14.44,0,0,1-4.66,2.4C187.28,38.69,186.79,39,186.38,38.6Z"/><path class="cls-15" d="M191,21a13.36,13.36,0,0,0-5.45-3.41,4.59,4.59,0,0,0,.87-1.84A13.61,13.61,0,0,1,192,19.13C191.31,19.57,191.41,20.44,191,21Z"/><path class="cls-11" d="M193.18,25l-.12-.25Z"/><path class="cls-6" d="M186.37,15.75a4.59,4.59,0,0,1-.87,1.84L183,17.24l.57-2.1h.82Z"/><path class="cls-4" d="M203.67,24.54h.18v.39A.38.38,0,0,1,203.67,24.54Z"/><path class="cls-3" d="M183.54,39.18a1.12,1.12,0,0,1,.82-.15A1,1,0,0,1,183.54,39.18Z"/><path class="cls-11" d="M184.77,39a.63.63,0,0,1,.6-.14A.54.54,0,0,1,184.77,39Z"/></svg>