<?xml version="1.0" encoding="UTF-8"?>
<!DOCTYPE svg PUBLIC "-//W3C//DTD SVG 1.1//EN" "http://www.w3.org/Graphics/SVG/1.1/DTD/svg11.dtd">
<!-- Creator: CorelDRAW 2021 (64-Bit) -->
<svg xmlns="http://www.w3.org/2000/svg" xml:space="preserve" width="308px" height="90px" version="1.1" style="shape-rendering:geometricPrecision; text-rendering:geometricPrecision; image-rendering:optimizeQuality; fill-rule:evenodd; clip-rule:evenodd"
viewBox="0 0 263.501 77.413"
 xmlns:xlink="http://www.w3.org/1999/xlink"
 xmlns:xodm="http://www.corel.com/coreldraw/odm/2003">
 <defs>
  <style type="text/css">
   <![CDATA[
    .fil1 {fill:#E62129;fill-rule:nonzero}
    .fil0 {fill:#174593;fill-rule:nonzero}
   ]]>
  </style>
 </defs>
 <g id="Layer_x0020_1">
  <metadata id="CorelCorpID_0Corel-Layer"/>
  <g id="_2508137722832">
   <g>
    <path class="fil0" d="M201.542 33.878c3.392,0 5.091,-2.966 5.091,-6.096l0 -5.553 -3.055 1.483c-4.182,2.037 -6.392,3.133 -6.392,6.266 0,2.637 1.81,3.9 4.356,3.9zm5.77 2.531l0 0c-0.511,-2.034 -0.453,-3.405 -0.905,-3.405 -0.227,0 -0.284,0.106 -0.341,0.163 -1.47,2.088 -2.658,3.789 -6.619,3.789 -3.899,0 -7.012,-2.086 -7.012,-6.098 0,-4.782 6.391,-6.762 10.181,-8.518 3.226,-1.484 4.017,-1.598 4.017,-5.166 0,-2.746 -1.074,-4.838 -4.411,-4.838 -5.378,0 -3.167,5.276 -6.849,5.276 -1.239,0 -2.088,-0.607 -2.088,-1.922 0,-3.736 5.711,-5.002 10.069,-5.002 4.013,0 7.468,0.88 7.468,4.452l0 12.095c0,3.237 -0.175,6.591 1.58,8.844l-5.09 0.33z"/>
    <path class="fil0" d="M222.215 30.094l0 -16.46c2.599,-0.321 5.119,-1.059 6.198,-2.762 -1.99,0.177 -4.089,0.266 -6.198,0.315l0 -7.75 -3.958 1.046 -0.225 6.755c-0.904,0.004 -1.79,0.004 -2.655,0.004l0 2.638 2.655 -0.002 0 17.037c0,3.353 1.357,5.718 5.086,5.718 2.152,0 4.814,-1.648 4.868,-2.143l0.226 -2.364c-0.624,0.603 -2.432,1.317 -3.449,1.317 -2.264,0 -2.548,-1.539 -2.548,-3.349z"/>
    <path class="fil0" d="M192.375 70.871l0 -16.457c2.595,-0.32 5.121,-1.054 6.196,-2.761 -1.992,0.173 -4.091,0.264 -6.196,0.316l0 -7.749 -3.958 1.045 -0.23 6.75c-0.899,0.006 -1.788,0.006 -2.654,0.006l0 2.64 2.654 -0.005 0 17.04c0,3.351 1.355,5.717 5.091,5.717 2.154,0 4.809,-1.65 4.865,-2.145l0.227 -2.364c-0.622,0.608 -2.435,1.321 -3.449,1.321 -2.262,0 -2.546,-1.539 -2.546,-3.354z"/>
    <path class="fil0" d="M146.994 6.679c-3.843,-3.027 -7.07,-4.126 -11.429,-4.126 -8.767,0 -13.575,7.203 -13.575,15.225 0,10.165 4.697,16.762 15.612,16.762 1.472,0 2.775,-0.165 4.19,-0.386 0.566,-1.869 0.566,-3.791 0.566,-5.661l0 -2.695c0,-1.799 -0.017,-3.801 -0.482,-5.484 -0.29,-1.032 -1.29,-1.032 -2.677,-1.71l8.236 0 0.012 12.693c0,1.428 0.169,3.407 0.396,4.782 -3.455,0.549 -8.088,0.877 -12.049,0.877 -11.935,0 -19.683,-5.109 -19.683,-17.472 0,-13.303 9.672,-19.347 22.342,-19.347 2.829,0 5.655,0.386 8.541,0.604l0 5.938z"/>
    <path class="fil0" d="M154.52 20.362c0,-3.904 0,-7.698 -1.47,-8.851 2.095,-0.052 4.073,-0.273 4.748,-0.273 1.019,0 0.399,2.749 1.019,2.749 0.286,0 2.151,-3.299 5.487,-3.299 1.983,0 3.111,0.771 3.111,2.088 0,1.045 -0.567,1.813 -1.978,1.813 -1.078,0 -2.207,-0.161 -3.563,-0.161 -2.827,0 -3.17,1.921 -3.17,4.343l0 11.318c0,2.034 0,4.396 1.022,5.99l-6.223 0c1.017,-1.594 1.017,-3.956 1.017,-5.99l0 -9.727z"/>
    <path class="fil0" d="M179.743 18.604c2.77,0 4.243,0 4.243,-2.089 0,-2.036 -1.527,-4.179 -4.3,-4.179 -3.566,0 -5.091,3.354 -5.77,6.268l5.827 0zm-6.243 1.646l0 0c-0.111,1.046 -0.223,1.924 -0.223,3.08 0,5.111 2.375,10.001 8.259,10.001 2.77,0 5.484,-1.099 6.845,-2.583l0 0.605c0,2.911 -4.755,5.603 -8.938,5.603 -7.411,0 -10.916,-6.484 -10.916,-13.134 0,-7.145 4.069,-13.134 11.818,-13.134 5.434,0 8.653,3.461 8.653,7.036 0,2.526 -1.865,2.526 -5.372,2.526l-10.126 0z"/>
    <path class="fil0" d="M122.303 74.336l6.787 0c3.502,0 7.125,-0.824 9.782,-3.136l-1.014 5.058c-1.531,0.11 -3.395,0.275 -5.431,0.275l-16.488 0c1.245,-1.869 1.414,-4.728 1.414,-7.199l0 -20.661c0,-2.476 0,-5.334 -1.242,-7.201l19.876 0 0.228 4.232c-1.978,-1.653 -5.034,-2.033 -8.373,-2.033l-5.539 0 0 13.131c4.356,0 9.215,0 13.572,-0.384 -1.979,3.134 -8.649,3.134 -12.16,3.134l-1.412 0 0 14.784z"/>
    <path class="fil0" d="M150.917 74.336c3.394,0 5.093,-2.971 5.093,-6.1l0 -5.552 -3.057 1.486c-4.184,2.035 -6.391,3.127 -6.391,6.263 0,2.637 1.81,3.903 4.355,3.903zm5.767 2.525l0 0c-0.506,-2.032 -0.449,-3.406 -0.901,-3.406 -0.224,0 -0.284,0.111 -0.339,0.165 -1.471,2.091 -2.662,3.793 -6.62,3.793 -3.906,0 -7.013,-2.091 -7.013,-6.1 0,-4.783 6.392,-6.762 10.181,-8.518 3.225,-1.483 4.018,-1.595 4.018,-5.167 0,-2.75 -1.077,-4.836 -4.416,-4.836 -5.37,0 -3.167,5.276 -6.839,5.276 -1.248,0 -2.096,-0.605 -2.096,-1.925 0,-3.733 5.713,-5.002 10.069,-5.002 4.016,0 7.462,0.88 7.462,4.453l0 12.092c0,3.241 -0.166,6.595 1.589,8.847l-5.095 0.328z"/>
    <path class="fil0" d="M182.336 69.555c0,5.219 -5.202,7.858 -10.009,7.858 -2.265,0 -4.186,-0.44 -6.279,-1.211 -0.625,-0.22 -0.961,-0.439 -0.961,-1.208 0,-1.319 0.227,-2.639 0.281,-4.008 1.755,2.747 3.169,4.448 6.902,4.448 3.336,0 5.313,-1.535 5.313,-4.673 0,-6.703 -11.195,-5.607 -11.195,-13.734 0,-4.127 3.282,-5.886 8.594,-5.886 1.699,0 3.454,0.276 5.15,0.658 0.171,0.059 0.734,0.17 0.734,0.498 0,0.987 -0.054,2.581 -0.113,3.736 -2.205,-2.691 -3.337,-3.241 -5.94,-3.241 -2.205,0 -4.24,0.989 -4.24,3.351 0,6.541 11.763,5.772 11.763,13.412z"/>
    <path class="fil0" d="M212.222 59.057c2.773,0 4.244,0 4.244,-2.09 0,-2.032 -1.527,-4.175 -4.299,-4.175 -3.563,0 -5.092,3.351 -5.771,6.265l5.826 0zm-6.161 1.651l0 0c-0.114,1.042 -0.226,1.922 -0.226,3.073 0,5.111 2.374,10.002 8.253,10.002 2.774,0 5.488,-1.097 6.848,-2.583l0 0.605c0,2.914 -4.755,5.608 -8.936,5.608 -7.412,0 -10.918,-6.486 -10.918,-13.136 0,-7.139 4.072,-13.136 11.818,-13.136 5.433,0 8.656,3.466 8.656,7.033 0,2.534 -1.869,2.534 -5.375,2.534l-10.12 0z"/>
    <path class="fil0" d="M226.911 60.817c0,-3.906 0,-7.695 -1.466,-8.848 2.096,-0.057 4.074,-0.274 4.753,-0.274 1.019,0 0.396,2.744 1.019,2.744 0.281,0 2.148,-3.298 5.484,-3.298 1.98,0 3.109,0.771 3.109,2.091 0,1.044 -0.561,1.815 -1.975,1.815 -1.076,0 -2.212,-0.169 -3.564,-0.169 -2.83,0 -3.168,1.924 -3.168,4.343l0 11.321c0,2.03 0,4.398 1.014,5.991l-6.217 0c1.011,-1.593 1.011,-3.961 1.011,-5.991l0 -9.725z"/>
    <path class="fil0" d="M247.951 51.695l0 1.923c0,0.437 -0.059,0.877 0.336,0.877 0.512,0 2.998,-3.354 7.414,-3.354 4.244,0 6.898,2.034 6.898,7.144l0 12.309c0,2.037 0,4.4 0.902,5.939l-5.089 0 0 -15.06c0,-3.517 -0.509,-7.363 -5.033,-7.363 -4.469,0 -5.316,3.903 -5.316,7.64l0 8.844c0,2.037 0,4.4 1.017,5.939l-6.221 0c1.018,-1.539 1.018,-3.902 1.018,-5.939l0 -13.076c0,-2.252 0,-4.396 -1.188,-5.497l5.262 -0.326z"/>
    <path class="fil1" d="M106.989 69.948c0.952,1.565 2.72,4.289 1.633,5.992 -1.088,1.7 -5.034,0.812 -8.577,0.405 -3.535,-0.405 -5.444,0.066 -6.732,0.066 -1.295,0 -2.043,-0.951 -2.725,-2.04 -0.68,-1.089 -0.82,-1.427 -0.748,-2.858 0.068,-1.425 -0.136,-0.613 -1.77,-4.285 -1.634,-3.677 -3.334,-5.24 -4.49,-5.922 -1.158,-0.679 -0.952,-1.089 -0.818,-1.429 0.139,-0.34 0.612,-1.158 -0.474,-3.672 -1.09,-2.523 -1.906,-3.402 -1.906,-3.402 -1.975,1.682 -7.214,2.995 -7.214,2.995 0,0 0,1.561 0.953,6.19 0.823,3.991 2.379,7.415 2.993,7.687 0.617,0.273 2.625,-0.899 4.191,-0.852 2.501,0.067 2.603,2.045 3.157,4.596 0.548,2.481 -0.136,3.267 -1.767,3.135 -1.633,-0.143 -8.508,-0.209 -11.296,-0.346 -2.79,-0.137 -2.245,-0.676 -3.197,-1.767 -0.955,-1.092 -0.545,-2.653 -0.679,-3.472 -0.142,-0.815 -2.931,-5.715 -3.61,-6.738 -0.681,-1.02 -1.43,-1.02 -2.108,-1.833 -0.684,-0.82 -0.341,-1.771 -0.139,-2.521 0.203,-0.749 -0.067,-2.246 -0.067,-2.246 0,0 -2.041,0.125 -4.082,0.125 -2.042,0 -3.879,-0.328 -3.879,-0.328 0,0 -1.977,1.838 -4.763,2.789 -2.79,0.956 -5.852,1.565 -6.601,1.977 -0.748,0.405 -0.206,1.288 0.612,3.806 0.815,2.522 2.244,4.18 2.244,4.18l2.044 -0.684c1.427,-0.472 2.665,-0.379 3.331,0.142 1.308,1.012 2.318,4.285 2.178,5.919 -0.134,1.632 -2.381,1.087 -7.824,0.952 -5.444,-0.137 -6.192,0.135 -7.079,-0.137 -0.88,-0.273 -1.291,-1.429 -1.36,-2.109 -0.068,-0.681 0.342,-0.884 -1.36,-4.221 -1.7,-3.335 -1.497,-3.905 -2.993,-4.859 -1.5,-0.952 -1.566,-0.817 -1.77,-1.972 -0.428,-2.426 1.36,-2.723 3.199,-3.54 1.835,-0.814 2.719,-2.92 2.719,-2.92l-1.837 0.136c0,0 -1.836,2.309 -7.483,3.531 -5.65,1.226 -8.987,2.027 -11.331,3.752 -1.29,0.952 -3.095,5.962 -3.095,5.962 0,0 0.678,-0.339 2.312,-0.818 1.633,-0.473 1.974,0 3.336,2.591 1.36,2.58 0.815,4.762 -1.703,4.83 -2.518,0.065 -2.11,-0.795 -6.943,-0.457 -4.828,0.34 -5.544,0.966 -6.536,-0.079 -0.751,-0.789 -0.53,-2.336 -0.52,-3.359 0.015,-1.327 0.905,-1.818 1.554,-3.111 0.393,-0.788 1.7,-3.509 2.518,-5.223 1.321,-2.75 1.487,-4.475 1.693,-6.058 0.115,-0.876 1.768,-2.178 3.133,-2.039 2.916,0.288 4.489,-2.111 5.646,-3.606 1.158,-1.498 2.449,-3.745 2.449,-3.745 0,0 -5.564,2.846 -12.415,1.133 -6.959,-1.735 -8.287,-8.123 -5.898,-11.942 1.947,-3.121 6.769,-5.243 11.493,-5.899 5.444,-0.756 8.756,-0.6 9.298,-1.89 0.246,-0.58 -1.126,-2.747 -0.375,-5.221 0.678,-2.242 1.778,-3.035 3.477,-4.669 1.703,-1.633 1.5,-2.993 1.5,-2.993 0,0 3.742,6.732 1.7,10.543 -3.542,6.611 -11.64,6.129 -16.333,7.285 -4.694,1.156 -8.493,4.053 -8.44,6.939 0.099,5.428 10.837,6.487 13.882,2.833 3.672,-4.4 6.822,-8.674 18.782,-9.322 10.071,-0.545 12.522,0.614 20.077,-4.694 0.873,-0.614 1.646,-1.199 2.34,-1.75 -0.207,-1.452 -0.156,-3.367 0.44,-5.837 0.912,-3.792 3.135,-7.217 2.861,-7.494 -0.274,-0.271 -1.772,1.502 -2.18,0.815 -0.41,-0.678 1.8,-5.966 3.953,-8.444 3.542,-4.09 7.358,-4.5 7.903,-5.179 0.547,-0.683 -2.585,-0.139 -2.183,-0.82 0.411,-0.682 3.274,-2.452 9.815,-2.452 7.227,-0.002 5.454,1.366 7.903,1.908 2.454,0.544 4.774,0.954 5.999,1.364 1.229,0.408 1.773,1.634 2.452,2.043 0.686,0.408 1.091,0.274 3.818,0.545 2.725,0.274 3.926,0.994 4.038,1.772 0.188,1.293 0.051,3.407 -0.512,5.008 -0.503,1.436 -2.297,1.668 -2.297,1.668 0,0 -1.91,0.546 -5.32,-0.271 -3.404,-0.818 -4.495,-0.818 -4.495,2.858 0,3.686 0.818,3.409 4.904,3.409 4.093,0 5.047,-1.768 5.726,-1.768 0.681,0 0.681,0.816 0.681,2.176 0,1.365 -0.134,2.728 -0.816,3.276 -0.68,0.543 -2.931,-0.091 -2.931,-0.091 0,0 1.325,1.834 1.527,3.018 1.218,7.165 -3.657,11.871 -4.334,11.774 -1.133,-0.164 -0.968,-5.019 -2.264,-4.05 -0.577,0.436 0,3.343 -1.723,5.95l0.4 3.225c0,0 0.905,8.303 3.217,15.857 2.314,7.557 4.56,9.186 5.037,9.934 0.475,0.753 1.77,-0.268 3.607,-0.816 1.835,-0.544 2.313,-0.405 3.267,1.159zm-31.153 -63.543l0 0c1.773,-0.411 3.269,1.091 3.269,1.091 0,0 -0.815,-2.456 -3.545,-2.044 -2.725,0.408 -3.814,2.588 -2.585,5.042 1.225,2.454 3.408,2.317 3.408,2.317 0,0 0,3.133 1.086,4.908 1.092,1.772 2.862,3.54 2.862,3.54 0,0 -2.041,-3.54 -2.312,-5.179 -0.276,-1.633 -0.276,-4.221 -0.276,-4.221 0,0 -2.728,-0.276 -3.406,-1.775 -0.682,-1.5 -0.761,-3.157 1.499,-3.679zm-4.223 38.12l0 0c2.309,3.826 5.717,4.035 6.195,4.035 -0.478,0 -4.537,-1.941 -6.479,-6.796 -1.064,-2.665 -1.333,-4.208 -1.333,-4.208 -1.089,-0.411 -1.384,4.707 -2.066,4.707 -0.683,0 -2.62,-1.739 -4.497,-5.722 -0.708,-1.497 -0.584,-4.358 -0.567,-8.11 -1.096,4.585 -0.885,6.797 0.336,10.193 1.076,2.979 4.442,6.079 5.121,6.053 1.241,-0.047 0.473,-4.079 1.562,-3.672 0,0 0.24,1.069 1.728,3.52zm11.405 1.9l0 0c1.092,1.412 5.117,3.829 5.47,1.167 -0.353,1.761 -4.318,-1.286 -5.455,-3.246 -1.168,-2.024 -1.236,-3.822 -1.991,-4.039 -0.416,-0.12 -2.213,1.626 -2.215,4.979 1.18,-2.306 1.703,-3.353 2.277,-2.149 0.336,0.708 1.136,2.281 1.914,3.288zm7.844 -38.113l0 0 0.654 -1.361c0,0 -1.099,-0.706 -2.437,-0.85 -1.526,-0.162 -3.396,0.813 -3.396,0.813 0,0 1.771,-0.335 3.073,0.064 1.451,0.443 2.106,1.334 2.106,1.334zm10.078 5.511l0 0c0,0 1.105,-0.668 1.002,-2.636 -0.054,-1.085 -0.016,-1.802 -0.016,-1.802 0,0 0.283,-0.042 0.663,-0.375 0.43,-0.376 0.688,-0.765 0.392,-1.382 -0.34,-0.704 -0.641,0.211 -1.66,0.007 -1.017,-0.204 -2.678,0.182 -2.034,0.615 0.609,0.403 1.962,1.14 1.962,1.14 0,0 0.099,0.405 0.099,1.935 0,1.526 -0.408,2.498 -0.408,2.498zm-19.346 9.039l0 0c0,0 0.102,5.413 8.174,2.251 2.212,-0.869 5.556,-1.805 7.327,-1.397 0.631,0.143 -1.403,-1.719 -7.12,0.549 -5.93,2.351 -8.381,-1.403 -8.381,-1.403z"/>
    <path class="fil1" d="M94.37 18.059c0,0 1.126,-2.25 3.17,-2.555 2.043,-0.309 3.935,0.532 5.724,-0.031 1.159,-0.365 2.042,-0.892 2.042,-0.892 0,0 -0.788,1.945 -1.94,2.862 -1.533,1.228 -2.97,1.046 -5.928,0.308 -1.636,-0.41 -3.068,0.308 -3.068,0.308z"/>
   </g>
  </g>
 </g>
</svg>
