<?xml version="1.0" encoding="utf-8"?>
<!-- Generator: Adobe Illustrator 24.0.3, SVG Export Plug-In . SVG Version: 6.00 Build 0)  -->
<svg version="1.1" id="Layer_1" xmlns="http://www.w3.org/2000/svg" xmlns:xlink="http://www.w3.org/1999/xlink" x="0px" y="0px"
	 viewBox="0 0 500 220.23" style="enable-background:new 0 0 500 220.23;" xml:space="preserve">
<style type="text/css">
	.st0{fill:#5346C7;}
	.st1{fill:#5145C6;}
	.st2{fill:#574BC8;}
	.st3{fill:#5448C7;}
</style>
<g>
	<path class="st0" d="M272.14,86.81c9.33,0,18.66-0.01,27.98,0c18.65,0.01,31.95,11.42,33.15,30.04
		c0.95,14.92,1.19,29.97-0.32,44.91c-1.51,14.98-15.15,26.96-30.25,27.02c-6.83,0.03-13.66,0.11-20.49-0.05
		c-2.64-0.06-3.68,0.79-3.35,3.4c0.12,0.98,0.02,2,0.02,3c0,8.7-2.51,10.62-11.1,8.67c-1.18-0.27-1.79-0.67-1.78-1.87
		c0.01-0.83-0.01-1.67-0.02-2.5c-0.11-10.64-0.12-10.5-11-10.7c-6.79-0.12-13.64,0.94-20.37-0.88
		c-13.86-3.75-23.51-16.05-23.59-30.34c-0.07-12.99-0.07-25.99,0-38.98c0.09-17.61,14.1-31.64,31.63-31.72
		C252.48,86.77,262.31,86.81,272.14,86.81z M272.37,99.79c-9.82,0-19.63-0.04-29.45,0.01c-10.81,0.06-18.88,8.12-18.91,18.89
		c-0.04,12.81-0.04,25.62,0,38.43c0.04,10.52,7.98,18.57,18.42,18.71c5.16,0.07,10.31,0.02,15.47,0.02c7.89,0,7.84,0,8.12-8.07
		c0.05-1.42-0.99-3.79,1.72-3.84c3.46-0.07,7.37-1.23,10.25,0.54c2.2,1.36,0.88,4.98,0.78,7.54c-0.12,3.1,0.89,4.01,3.95,3.9
		c6.48-0.23,12.98-0.01,19.46-0.1c9.83-0.14,17.66-7.08,17.97-16.97c0.45-13.96,0.45-27.95,0.01-41.91
		c-0.31-10.02-8.37-17.09-18.36-17.14C292,99.76,282.19,99.8,272.37,99.79z"/>
	<path class="st0" d="M415.67,188.78c-9.32,0-18.69-0.52-27.97,0.12c-16.09,1.11-32.61-12.02-33.12-30.12
		c-0.43-14.96-1.06-29.97,0.4-44.91c1.44-14.69,15.08-26.97,29.75-27.04c20.65-0.1,41.3-0.1,61.94,0
		c15.51,0.08,29.8,13.92,30.15,29.53c0.32,14.31,0.33,28.65,0,42.96c-0.37,15.84-14.75,29.41-30.68,29.46
		C435.99,188.81,425.83,188.78,415.67,188.78z M415.75,175.85c9.33,0,18.66,0,27.99,0c0.33,0,0.67,0,1,0
		c11.23-0.12,19.14-7.95,19.17-19.06c0.04-12.66,0.04-25.32,0-37.98c-0.03-10.89-7.93-18.98-18.72-19.01
		c-19.66-0.07-39.31-0.06-58.97,0c-10.32,0.03-18.23,7.19-18.54,17.58c-0.4,13.65-0.41,27.32,0.01,40.97
		c0.32,10.42,8.14,17.41,18.58,17.48C396.1,175.9,405.93,175.84,415.75,175.85z"/>
	<path class="st0" d="M79.07,86.8c15.16,0,30.31-0.01,45.47,0c14.71,0.01,24.47,9.69,24.5,24.26c0.01,5.16,0.01,10.33,0,15.49
		c-0.03,14.06-10.03,24.14-24.19,24.17c-26.48,0.06-52.97,0.13-79.45-0.08c-4.48-0.04-5.99,0.99-5.79,5.68
		c0.39,9.31-0.02,18.65,0.19,27.98c0.07,3.36-0.68,4.64-4.34,4.57c-8.9-0.15-8.91,0.05-8.91-8.91c0-29.31,0.08-58.63-0.09-87.94
		c-0.02-4.04,0.84-5.39,5.14-5.32C47.42,86.97,63.24,86.8,79.07,86.8z M84.89,99.79c-13.66,0-27.32,0.09-40.98-0.06
		c-3.17-0.03-4.33,0.74-4.26,4.12c0.22,9.99,0.17,19.99,0.02,29.99c-0.05,2.94,0.64,4.03,3.84,4.02c27.16-0.12,54.31-0.04,81.47-0.1
		c6.84-0.01,10.99-4.38,11.08-11.33c0.06-5,0.04-10,0.01-14.99c-0.06-7.78-3.89-11.61-11.68-11.63
		C111.22,99.77,98.06,99.79,84.89,99.79z"/>
	<path class="st1" d="M420.65,75.81c0-5.32,0.02-9.81-0.01-14.29c-0.02-3.39-1.09-5.96-5.11-5.85c-3.78,0.1-4.61,2.62-4.61,5.78
		c0,3.33,0.05,6.67-0.03,10c-0.03,1.06,0.65,2.58-0.71,3.09c-1.65,0.61-2.27-1.12-2.96-2.1c-2-2.85-2.13-6.17-2.11-9.54
		c0.06-9.06,0.01-9.06-9.11-9.06c-57.14,0-114.29,0.01-171.43-0.01c-5.86,0-10.15-3.37-11.2-8.61c-0.95-4.76,1.84-9.54,6.5-11.68
		c1.64-0.76,3.23-0.67,4.86-0.67c65.81-0.02,131.61,0.03,197.42-0.12c4.19-0.01,4.92,1.4,4.81,5.1c-0.27,8.82-0.16,17.65-0.2,26.48
		C426.73,68.81,425.64,72.77,420.65,75.81z M415.59,36.18c-4.49,0.15-7.91,4-7.66,8.62c0.23,4.28,3.92,7.6,8.25,7.44
		c4.53-0.17,8.01-4,7.77-8.57C423.73,39.58,419.79,36.05,415.59,36.18z"/>
	<path class="st2" d="M186.68,137.79c0,15.32-0.1,30.64,0.07,45.96c0.04,3.65-0.52,5.32-4.8,5.15c-8.47-0.33-8.48-0.05-8.48-8.37
		c0-29.48,0.11-58.96-0.11-88.43c-0.03-4.52,1.25-5.61,5.57-5.41c7.73,0.35,7.74,0.09,7.74,7.63
		C186.68,108.81,186.68,123.3,186.68,137.79z"/>
	<path class="st3" d="M177.94,71.83c-14.31-0.05-26.41-12.05-26.42-26.22c-0.01-14.91,11.92-26.81,26.84-26.78
		c14.47,0.03,26.66,12.3,26.52,26.71C204.74,60.03,192.6,71.87,177.94,71.83z M161.94,45.66c-0.02,9.27,7.11,16.38,16.36,16.32
		c9.12-0.06,16.03-7.01,16.08-16.17c0.05-9.14-6.79-16.12-15.87-16.2C168.98,29.52,161.96,36.33,161.94,45.66z"/>
</g>
</svg>
