<svg xmlns="http://www.w3.org/2000/svg" xmlns:xlink="http://www.w3.org/1999/xlink" width="1920" height="1080" viewBox="0 0 1920 1080">
  <defs>
    <clipPath id="clip-_404_Not_Found">
      <rect width="1920" height="1080"/>
    </clipPath>
  </defs>
  <g id="_404_Not_Found" data-name="404 Not Found" clip-path="url(#clip-_404_Not_Found)">
    <rect width="1920" height="1080" fill="#fff"/>
    <text id="_404" data-name="404" transform="translate(703 505)" fill="#435a8c" font-size="261" font-family="Poppins-Bold, Poppins" font-weight="700"><tspan x="0" y="0">404</tspan></text>
    <text id="Oops" transform="translate(820 633)" fill="#435a8c" font-size="106" font-family="Poppins-SemiBold, Poppins" font-weight="600"><tspan x="0" y="0">Oops</tspan></text>
    <text id="Sorry_Page_does_not_Found" data-name="Sorry Page does not Found" transform="translate(792 708)" fill="#435a8c" font-size="26" font-family="Poppins-Regular, Poppins"><tspan x="0" y="0">Sorry Page does not Found</tspan></text>
    <path id="Path_1010" data-name="Path 1010" d="M13,0H185a13,13,0,0,1,13,13V53a13,13,0,0,1-13,13H13A13,13,0,0,1,0,53V13A13,13,0,0,1,13,0Z" transform="translate(871 746)" fill="#ff7900" opacity="0.998"/>
    <text id="Back_Home" data-name="Back Home" transform="translate(914 786)" fill="#fff" font-size="20" font-family="Poppins-Regular, Poppins"><tspan x="0" y="0">Back Home</tspan></text>
    <path id="Path_3" data-name="Path 3" d="M512.49,127.16H323.85A22.65,22.65,0,0,0,301.2,149.8h0v18.69A23.49,23.49,0,0,1,277.71,192h0a23.49,23.49,0,0,1-23.49-23.49V46.14A46.14,46.14,0,0,0,208.08,0h0A46.13,46.13,0,0,0,162,46.14V111a16.17,16.17,0,0,1-16.17,16.17H0V149.8H150.36a33.93,33.93,0,0,0,33.93-33.711l.15-70A23.57,23.57,0,0,1,208,22.64h0a23.58,23.58,0,0,1,23.57,23.57V168.49a46.132,46.132,0,0,0,46.14,46.14h-.01a46.14,46.14,0,0,0,46.14-46.14v-8.3a10.39,10.39,0,0,1,10.38-10.39H512.49Z" transform="translate(0 433)" fill="#fdc795"/>
    <path id="Path_4" data-name="Path 4" d="M580,76.39c-37.27,0-67.49,27.89-67.49,62.28S542.71,201,580,201Z" transform="translate(0 433)" fill="#ff9331"/>
    <rect id="Rectangle_4" data-name="Rectangle 4" width="124.55" height="26.64" rx="3.02" transform="translate(611.15 509.4) rotate(90)" fill="#ff9331"/>
    <rect id="Rectangle_5" data-name="Rectangle 5" width="62.12" height="20.8" rx="6.61" transform="translate(679.39 541.03) rotate(180)" fill="#ff9331"/>
    <rect id="Rectangle_6" data-name="Rectangle 6" width="62.12" height="20.8" rx="6.61" transform="translate(679.39 619.18) rotate(180)" fill="#ff9331"/>
    <path id="Path_5" data-name="Path 5" d="M98.66,127.16H287.31A22.64,22.64,0,0,1,310,149.8h0v18.69A23.49,23.49,0,0,0,333.44,192h0a23.48,23.48,0,0,0,23.49-23.49V46.14A46.14,46.14,0,0,1,403.07,0h0a46.14,46.14,0,0,1,46.14,46.14V111a16.16,16.16,0,0,0,16.16,16.17H664.56V149.8H460.79a33.93,33.93,0,0,1-33.93-33.711l-.15-70a23.57,23.57,0,0,0-23.57-23.42h0a23.57,23.57,0,0,0-23.56,23.57V168.49a46.14,46.14,0,0,1-46.14,46.14h0a46.13,46.13,0,0,1-46.13-46.14v-8.3a10.39,10.39,0,0,0-10.39-10.39H98.66Z" transform="translate(1255 433)" fill="#fdc795"/>
    <path id="Path_6" data-name="Path 6" d="M31.17,76.39c37.28,0,67.49,27.89,67.49,62.28S68.45,201,31.17,201Z" transform="translate(1255 433)" fill="#ff9331"/>
    <rect id="Rectangle_7" data-name="Rectangle 7" width="124.55" height="26.64" rx="3.02" transform="translate(1281.64 509.39) rotate(90)" fill="#ff9331"/>
    <ellipse id="Ellipse_1" data-name="Ellipse 1" cx="5.08" cy="6.4" rx="5.08" ry="6.4" transform="translate(1258.16 523.3)" fill="#fff"/>
    <ellipse id="Ellipse_2" data-name="Ellipse 2" cx="5.08" cy="6.4" rx="5.08" ry="6.4" transform="translate(1258.16 602.38)" fill="#fff"/>
  </g>
</svg>
