<svg xmlns="http://www.w3.org/2000/svg" xmlns:xlink="http://www.w3.org/1999/xlink" width="1920" height="1080" viewBox="0 0 1920 1080">
  <defs>
    <clipPath id="clip-_404_Not_Found_1">
      <rect width="1920" height="1080"/>
    </clipPath>
  </defs>
  <g id="_404_Not_Found_1" data-name="404 Not Found – 1" clip-path="url(#clip-_404_Not_Found_1)">
    <rect width="1920" height="1080" fill="#fff"/>
    <text id="Maaf" transform="translate(820 791)" fill="#435a8c" font-size="106" font-family="Poppins-SemiBold, Poppins" font-weight="600"><tspan x="0" y="0">Maaf</tspan></text>
    <text id="Maaf_Asuransi_yang_anda_cari_belum_tersedia" data-name="Maaf Asuransi yang anda cari belum tersedia" transform="translate(663 866)" fill="#435a8c" font-size="26" font-family="Poppins-Regular, Poppins"><tspan x="0" y="0">Maaf Asuransi yang anda cari belum tersedia</tspan></text>
    <g id="Group_1086" data-name="Group 1086" transform="translate(0 -12)">
      <circle id="Ellipse_134" data-name="Ellipse 134" cx="217.5" cy="217.5" r="217.5" transform="translate(723 218)" fill="#f4f6ff" opacity="0.995"/>
      <g id="_404-05" data-name="404-05" transform="translate(652.781 128.57)">
        <path id="Path_851" data-name="Path 851" d="M142,303.67c27.13-14.14,55.91-15,85.34-10.54-3.47,17.43-.27,34.32,3.67,51.15.68-4.51.94-9,1.36-13.44,1.37-14.77,5.43-29,9.51-43.15,4.72-12,9.15-24.2,15.28-35.63l6.58-12a202.72,202.72,0,0,1,39-50.84c6.55,10,15.47,17.13,26.16,22.22,13.23,6.3,27.37,8.69,41.83,9.78,12,16.84,12.1,35.91,8.57,54.88-3.94,21.18-13.9,40.58-20.59,61-31.53-21.88-80.77-18.58-103.11,7.41l14.15-6.09c1.06-.38,2.36-.18,3.08-1.33l-.08.05c2.09-.51,4.19-1,6.26-1.53,13-3.66,26.18-5.44,39.45-2.38,14.32,3.3,26.3,10.19,32.47,24.51.5,15.06-7,25.43-19.29,33-7.89,4.86-17,5.36-25.68,7.2-10.67,2.26-21.58,3.19-32,6.87-13.44,4.74-24.72,12.63-35.06,22.15-12.68-12.4-26.92-22.27-44.15-27.29,5.06-10.42,12.48-19.14,20.12-27.68,3.17-2.68,6.21-5.5,9.53-8,2.6-1.93,1.84-2.79-.52-4a87.78,87.78,0,0,0-38.18-10,145.332,145.332,0,0,0-22.84,1c-3-12.45-6.66-24.7-13.48-35.72C146.94,311.43,144.44,307.56,142,303.67Zm193.76-80.61h0a2.22,2.22,0,0,0-2.09-1c-1.6-1.07-3.35-2.07-4.83-3.14-5.8-4.2-12.87-4.8-19.21-7.4a15.5,15.5,0,0,0-15.2,1.54c-14.31,10.37-22.95,24.52-26.58,41.75-.3,1.43-.4,3,.81,4.25-.56,3.77,1.19,6.14,4.26,8.22,11,7.47,23.2,12.06,35.83,15.85,7.82,2.34,13.69-.34,18.42-6.29,8.76-11,15.11-23.41,20.29-36.43,2.27-5.72.07-10.55-5.72-13.35h0a1.92,1.92,0,0,0-2-1h0c-.2-1.89-1.52-2.09-3-2h0c-.32-.31-.67-.65-1.01-1Z" fill="#c1cfef"/>
        <path id="Path_852" data-name="Path 852" d="M38.75,298c12.66-10.21,27.13-12.56,42.63-9.24,5.92,1.27,10,5.71,13.47,10.5,4.83,6.63,7.9,14.16,10.88,21.72,1.09,2.76,2.15,5.53,3.47,8.94a119.291,119.291,0,0,1,23.33-20.64c1.3,1.49,2.73,2.9,3.9,4.5,8.83,12.05,13.75,25.73,16.67,40.24l-.34,1.05c-7.34.33-13.08,4.62-19.21,7.86-10.21,5.38-19.11,13-30.82,15.86-13.83,3.36-24.56.29-31.83-11.73-9.92-16.4-17.48-34-25.07-51.58C43.34,309.71,40,304.26,38.75,298Z" fill="#c1cfef"/>
        <path id="Path_853" data-name="Path 853" d="M105.81,454.05c4.49-17,15.86-27.61,31.9-33.36,6.37-2.28,12.8.16,18.79,2.79,7.33,3.21,13.91,7.72,20.42,12.3,1.59,1.12,3.23,2.19,5.39,3.64a119.17,119.17,0,0,1,7.87-30.48,86.7,86.7,0,0,1,41.64,26c-5.33,8-10.44,16.11-14.12,25.09-3.27,8-6.92,15.76-12.29,22.66C196.6,494,182.59,497.63,169.9,491c-13.68-7.12-27-14.91-40.17-22.93C121.83,463.3,114.51,457.49,105.81,454.05Z" fill="#c1cfef"/>
        <path id="Path_854" data-name="Path 854" d="M387.65,412.92c-10.56,4.1-20.5,2.08-30.2-2.93-3.09-1.59-6.36-2.83-9.55-4.24a56.07,56.07,0,0,0,21.51-25.87c8-1.82,10.41-8.65,13.16-15,8.67-20,17.19-40,25.72-60,4.6-10.8,9.83-21.35,13.52-32.53h2c.89.75,1.54.34,2.12-.43a128.809,128.809,0,0,0,26.62,8.58c-3,8.25-7.46,15.88-10,24.31-4.42,10-8.93,19.94-13.24,30-7.32,17-14.5,34.15-21.74,51.22-4.24,7.56-6.42,16.3-13,22.53Z" fill="#ff7900"/>
        <path id="Path_855" data-name="Path 855" d="M563.75,266.25l-3.07-.23-6-4.94c.61-4,.83-7.33-3.84-9.67-3.33-1.66-2.71-5.41-1-8.4.91-1.58,1.61-2.41-.55-3.82-5.51-3.6-5.75-5.76-2.07-11.26.62-.92-.14-3.56-2.16-3.93-3.77-.69-2.9-2.58-5-5.42-1.94,5.29-1.67,10.61-4.15,15.29-3.52,6.65-2.93,8.23,3.17,12.86a53.774,53.774,0,0,1,13.72,14.29,26.8,26.8,0,0,1-13.55,2c-9-.85-16.56,2.63-24,7-1.58.92-3.15,1.86-4.79,2.66-14.29,6.94-27.75-1.49-27.85-17.42,0-4.16-.11-8.32-.16-12.48.62-3.58,3.51-5.65,5.52-8.32h-.21a2.89,2.89,0,0,0,2.7-1.36l4.09-1.14c7.68.17,15-1.58,21.18-6,13.32-9.54,27.13-18.58,37.17-32,2.42,2.68,1.63,6,1.7,9.09-3.3.89-5,3.72-7.11,6l-.3.59.62-.27,8.79-2.93,5.87-2.36,12.39-.05c5.09,2.63,6.28,5.49,3.9,10.29-1,2-1.76,2.87,1,4.32,4.88,2.55,5,5.78,1.28,12.71,7.56,3.91,8.44,8.35,2.7,14.65-1.46,1.59-2.27,2.49-.88,4.86,2,3.46-.15,8.08-4.29,10.91-2.49,1.71-5.49,2-8.17,3.14Zm-18.3-55.12c-.11-.46-.28-.49-.46,0a1.381,1.381,0,0,0,.19.35Zm-2,2.11-.09-.36L543,213l.1.36Zm-2.32,2.6a1.461,1.461,0,0,0-.12.39s.21.08.32.12a1.149,1.149,0,0,0,.11-.39s-.24-.08-.35-.12Z" fill="#c1cfef"/>
        <path id="Path_856" data-name="Path 856" d="M279.82,98.14c9.5-3.58,14.44-10.9,19.35-19.66C314.93,50.35,339.61,35,372.05,34.81s56.83,15.07,73.53,42.74c.76,1.26,1.47,2.55,2.33,4,1.25-1.28.7-2.64.71-3.8V29.31c0-2.47.1-4.75-1.85-6.91s-1.22-4.72.94-6.6a4.65,4.65,0,0,1,6.38-.2c2.25,1.76,3.09,4.37,1.31,6.59-1.92,2.39-1.73,4.87-1.73,7.48,0,18.81.14,37.62-.11,56.42-.06,4.38.81,7.24,5.21,8.72,1.55.52,3.71.88,4.09,3.17-8.76.32-8.78.32-7.19,9.24a70.669,70.669,0,0,1,.22,24.1c-1.76,10.67-1.74,10.67,9.32,10.69a12.293,12.293,0,0,1,1.49.06c-3.14,1.69-6.52.54-9.78.86-1.44.14-2.9-.27-3.42,1.89-2,8.29-6.38,15.6-9.92,23.26-1.89,1.13-2.55,3.25-3.92,4.8-21.08,26.61-48.34,38.24-82.07,33-20.75-3.21-37.37-14.06-50.88-29.9l.05.07-1-1.11.08.1c-.36-.49-.71-1-1.06-1.48l-4-5.8c-3.83-7.19-7.61-14.43-9.67-22.36-.55-2.13-1.63-2.41-3.51-2.5-3.27-.14-6.67.89-9.8-.87,2.49,0,5-.14,7.48,0,3.84.27,4.84-1.07,4.14-5a87.589,87.589,0,0,1-.71-29.17c.49-3.11,3.36-6.91.82-9.22C287.28,96.74,283.12,98.35,279.82,98.14Zm175,23.39a72,72,0,0,0-19.4-50.95c-19.81-21.66-44.71-30.68-74-27.5-23.26,2.53-42.37,12.92-56.5,31.58-15.17,20-19,42.67-11.68,66.53,4.21,13.8,12.66,25.22,23.75,34.92a82.73,82.73,0,0,0,50.14,20.75c24.19,1.6,46-5.36,63.91-22.37,15.21-14.39,23.37-31.94,23.82-52.96Z" fill="#b6b6c6"/>
        <path id="Path_857" data-name="Path 857" d="M475.58,226.09c.29,2.45,2.78,2.72,4.1,4.15-.09.32-.08.8-.29.93-7.62,5.07-10.27,12.72-11.93,21.28-1.32,6.86-4.71,12.74-12.35,14.69-3.85,1-7.68,2-11.71,1.93-8.69-.23-16.88-3-25.22-5-5.58-12.17-5.39-24.6-1.09-36.95,6.72-19.31,22.62-25.56,40.66-16.33l.08.42c4.62,3.05,8.33,7.11,12.29,10.91C471.73,223.67,472.83,226.06,475.58,226.09Z" fill="#c1cfef"/>
        <path id="Path_858" data-name="Path 858" d="M197,208.48c-3.27-4.6-6.66-9.12-9.76-13.83A56.73,56.73,0,0,0,177,182.48c-4.47-3.83-6-9.37-8.07-14.62-.36-.93.39-2.74-1.49-2.61-5.34.38-6.07-3.89-7.26-7.35a45,45,0,0,1-2.44-19.12c.39-4,1.95-7.33,6.34-7.69,4.06-.33,3.18-5.3,6.46-6.08,16.94,4.24,29.7,14.82,37.84,29.44,5.72,10.27,9.08,22,14.37,32.74C213.76,193.77,205.4,201.16,197,208.48ZM172.78,139.1l-1-1-1-1-.33-.21.34.19,1,1,1,1,1,1,.18,1,.49-.28-.66-.68Zm9.55,9.68c1.5,10.41,1.35,12.18-1.58,13.07-4.18,1.27-7.08-.39-8.52-4.79-.58,2.22-1,4-1.49,5.72-.38,1.35-.26,2.32,1.46,2.3,4.38,0,8.42,1.64,12.6,2.57,1.25.28,2.16.29,3-.85C191.41,162.15,188.05,151.05,182.33,148.78Z" fill="#c1cfef"/>
        <path id="Path_859" data-name="Path 859" d="M238.89,427c10.34-9.52,21.62-17.41,35.06-22.15,10.42-3.68,21.33-4.61,32-6.87,8.69-1.84,17.79-2.34,25.68-7.2,12.33-7.6,19.79-18,19.29-33,6,13.36,4.84,26.1-3.3,38.24h.11l-1,1.1h0l-.93,1v.07l-1.86,1.92c-7.51,6.06-16.56,8.5-25.61,10.93-15.35,2.35-30.94,3.6-45.35,10.1a83.141,83.141,0,0,0-24.42,15.88L239,427.77Z" fill="#7188ba"/>
        <path id="Path_860" data-name="Path 860" d="M105.81,454.05c8.7,3.44,16,9.25,23.92,14.05,13.18,8,26.49,15.81,40.17,22.93,12.69,6.6,26.7,3,35.51-8.35,5.37-6.9,9-14.7,12.29-22.66,3.68-9,8.79-17.08,14.12-25.09l.83.11c2.32,3.55,6.18,5.82,8.09,9.71-8.23,8.45-13.72,18.62-18.05,29.42-6.14,15.3-15.5,28.39-26.84,40.18a23.644,23.644,0,0,0-2.7-2.11c-22.78-13.07-45.52-26.21-68.4-39.11-6.89-3.88-13.23-8.88-21-11.1a16.88,16.88,0,0,1,2.06-7.98Z" fill="#7188ba"/>
        <path id="Path_861" data-name="Path 861" d="M38.75,298c1.24,6.27,4.59,11.72,7.08,17.48C53.42,333,61,350.65,70.9,367.05c7.27,12,18,15.09,31.83,11.73,11.71-2.84,20.61-10.48,30.82-15.86,6.13-3.24,11.87-7.53,19.21-7.86a43,43,0,0,1,2,11.85c-12.19,2.75-23.09,8.39-33.28,15.39-12.62,8.67-26.79,13-41.58,15.85-3,.11-4.19-1.62-5.34-4.18-8.21-18.15-16.65-36.19-24.92-54.32C43.92,327.13,38.35,314.54,32.72,302Z" fill="#7188ba"/>
        <path id="Path_862" data-name="Path 862" d="M254.65,250.15a100.8,100.8,0,0,1-47-28.68l-4.75-5.1c8.85-8.71,18-17.05,28.88-23.26,10.82,8.3,20.65,17.34,23.36,31.62C256.73,233.23,260.11,241.77,254.65,250.15Z" fill="#c1cfef"/>
        <path id="Path_863" data-name="Path 863" d="M442.55,304.87c2.55-8.43,7-16.06,10-24.31l14.19,1.5c1.45,2.84,4.1,5.33,2.44,9-.47,1,.36,1.07,1.21,1.41,5.46,2.18,11.17,10.74,11.12,16.4a2.326,2.326,0,0,0-.28.36s.19.24.23.23a2.421,2.421,0,0,0,.35-.3c4.8,1.11,12.52,9.88,12.8,15.08.13,2.39.82,3.26,3.08,4.13,4.13,1.59,10.05,13.89,9.24,18.17-.17.87-.92,1.48.28,2.5,7.82,6.64,10.18,14.77,6.11,24.43a2.05,2.05,0,0,0,.21,1.82c4.12,9.21,2.32,17.92-5.34,25.65a1.58,1.58,0,0,0-.52,1.6c.82,8.94-7.34,19.87-15.81,21.29l-.61-.05.3.36c-1.79,7-13.93,14.93-21.38,13.63-1.88-.33-2.88-.5-3.91,1.47-1.53,2.92-4.78,2.87-7.51,3.11-5.63.51-11.55,2.74-16.63-1.81a1.19,1.19,0,0,0-1.61-.27c-9.71,4.17-17.69,1.11-24.61-6.08-.49-.5-.94-1-1.65-.81-6.35,1.78-9.67-2.94-13.62-6.31l4.06-3.06c4.46,1.24,8.29,6.62,13.57,1.55.91,8.57.89,8.67,9.3,10.56,4.28.95,8.31,1.95,12.76-1.06,3.77-2.56,6.26,5.06,11.16,3,2.49-1.05,5.54-.74,8.33-1.13,2.42-.33,4.64-1.3,5.56-3.67.76-2,1.6-1.86,3.36-1.31,5.7,1.8,16.72-5.11,17.94-11.17.3-1.49.43-2.19,2.38-2.16,8.82.15,16.19-11.92,12.27-19.79,7.62,0,8.79-1,10.85-9.69,2.49-10.49,2.37-10.8-5.77-14.81,4.06-1.18,7.31-3.19,6.21-7.73-1.59-6.57.16-15.41-11.24-16.28,6.42-5.46,1.56-9.51-.45-13.76-2.22-4.72-5-8.71-11.81-5.59,2.86-3.54,4-7.08,1.7-9.86-3.51-4.24-5.5-11.47-13.82-8.45,3.48-8.56-1.83-16.6-11.52-18.18.22-2.42,2.31-4.73.65-7.58-1.75,2.18-2.41,4.6-3.5,6.79-4,8-6.44,16.72-11.15,24.4-2.33-2.16-4.93-4.55-4.69-7.8C447.05,306.76,445.13,305.79,442.55,304.87Z" fill="#e26e06"/>
        <path id="Path_864" data-name="Path 864" d="M475.58,226.09c-2.75,0-3.85-2.42-5.46-4-4-3.8-7.67-7.86-12.29-10.91,2.28-1.34.9-3.28.62-4.85-.68-3.78-2.66-7-4.73-10.21,0-1.64.09-3.29,0-4.93-.35-6.32-6.29-13.8-12-15.16-.91-.9-.53-2.63-2-3.15,1.37-1.55,2-3.67,3.92-4.8,7.64,3.27,15.39,6.32,22.9,9.85a28.51,28.51,0,0,1,14.38,37C479.34,218.77,478.4,222.9,475.58,226.09Z" fill="#ff7900"/>
        <path id="Path_865" data-name="Path 865" d="M103.74,462c7.78,2.22,14.12,7.22,21,11.1,22.88,12.9,45.62,26,68.4,39.11a23.658,23.658,0,0,1,2.7,2.11c-5.76,7.78-9.84,7.77-15.74-.14-.61-.81-1-1.07-2-.85a10.161,10.161,0,0,1-2.45.31c-4.69-.06-5.28-6.36-8-6.65-4.14-.45-7.58-.56-9.32-4.71-.79-1.86-1.69-2.68-3.65-2.12a4.008,4.008,0,0,1-.5,0c-5.09.46-5.89-5.63-8.53-6.41-3.52-1.05-7.58-.26-9.47-4.36-.9-1.95-1.61-3.13-3.87-2.42a2.05,2.05,0,0,1-.5,0c-5,.32-5.83-5.68-8.55-6.5-3.74-1.11-7.82-.32-9.64-4.95-.48-1.21-.62-2.12-2.61-2.06C103.22,473.76,100.8,469.77,103.74,462Z" fill="#a1a1b5"/>
        <path id="Path_866" data-name="Path 866" d="M254.65,250.15c5.46-8.38,2.08-16.92.46-25.42-2.71-14.28-12.54-23.32-23.36-31.62l7.88-5.57c11.53,8.43,24.32,10.22,38,7.19.41,1.87-1,3.08-1.73,4.49a125.49,125.49,0,0,0-12.73,36.49c-.25,1.41-1.59,3.17.52,4.39l-6.58,12C256.79,250.78,255.33,251,254.65,250.15Z" fill="#7188ba"/>
        <path id="Path_867" data-name="Path 867" d="M32.72,302c5.63,12.56,11.2,25.15,16.92,37.67,8.27,18.13,16.71,36.17,24.92,54.32,1.15,2.56,2.37,4.29,5.34,4.18a15.4,15.4,0,0,1-8.75,1.07c-4.64-.57-7.05-3.28-6.35-7.77.39-2.55,0-3.68-2.39-4.85a5.88,5.88,0,0,1-3.19-7.17c.82-2.6-.12-3.39-2.12-4.45-4.48-2.38-1.66-8-3.43-10.15-2.41-3-6.52-4.6-5.31-9.39.55-2.17,0-3.11-1.89-3.69a2.132,2.132,0,0,1-.42-.27c-4.37-2.52-1.63-7.92-3.47-10.19-2.45-3-6.44-4.68-5.17-9.51.48-1.83.26-2.82-1.55-3.36A3.4,3.4,0,0,1,35,328c-3.6-2.5-2.66-6-3-9.66-.25-2.63-6.27-3.58-5.75-8.08C26.67,306.24,29.26,303.71,32.72,302Z" fill="#a1a1b5"/>
        <path id="Path_868" data-name="Path 868" d="M162.85,351.07a145.332,145.332,0,0,1,22.84-1,87.779,87.779,0,0,1,38.18,10c2.36,1.21,3.12,2.07.52,4-3.32,2.47-6.36,5.29-9.53,8a90,90,0,0,0-49.9-7.13q-1.17-6.42-2.32-12.84Z" fill="#7188ba"/>
        <path id="Path_869" data-name="Path 869" d="M318.29,411c9-2.43,18.1-4.87,25.61-10.93a2,2,0,0,0,1.86-1.92v-.07l.93-1h0l1-1.1h-.11c2.39.36,3.7-1.27,4.79-2.89,9.74-14.52,9.84-30.69.35-45.06,4.5-1.39,5.59-5.44,7.13-9.15,7.41,6,10.44,14.18,11.93,23.19a51.61,51.61,0,0,1-2.41,17.79,56.07,56.07,0,0,1-21.51,25.87c-7.71,3.8-15.55,7-24.43,6.4C321.66,412,319.84,412.15,318.29,411Z" fill="#8585b1"/>
        <path id="Path_870" data-name="Path 870" d="M466.75,282.06l-14.19-1.5A128.811,128.811,0,0,1,425.94,272l-1-.66L420,268c-.51-1.14-.79-2.45-2.18-2.94H418c.09-.31.17-.62.23-.94,8.34,2,16.53,4.76,25.22,5,4,.11,7.86-.95,11.71-1.93,7.64-1.95,11-7.83,12.35-14.69,1.66-8.56,4.31-16.21,11.93-21.28.21-.13.2-.61.29-.93l3.08,1.79c-13.57,8.74-15.83,39.63.07,49.37C477.51,282.49,472.1,281.67,466.75,282.06Z" fill="#7188ba"/>
        <path id="Path_871" data-name="Path 871" d="M300.75,167.83l4,5.8c.35.49.7,1,1.06,1.48l-.08-.1,1,1.11-.05-.07c-.38,2.13.53,3.82,1.66,5.55,7.32,11.16,17.36,19,29.45,24.41,19.09,8.55,39.22,11.83,60,12.14-8.79,3.14-18,2.86-27.09,3.11-14.46-1.09-28.6-3.48-41.83-9.78-10.69-5.09-19.61-12.25-26.16-22.22a53,53,0,0,1-3.89-14.75C300.07,172.45,299.2,169.8,300.75,167.83Z" fill="#8e8bb9"/>
        <path id="Path_872" data-name="Path 872" d="M298.84,174.51a53,53,0,0,0,3.89,14.75,202.721,202.721,0,0,0-39,50.84c-2.11-1.22-.77-3-.52-4.39a125.492,125.492,0,0,1,12.73-36.49c.74-1.41,2.14-2.62,1.73-4.49,3.89-3.43,5.63-8.44,9-12.27S293.85,175.73,298.84,174.51Z" fill="#8e8bb9"/>
        <path id="Path_873" data-name="Path 873" d="M162.85,351.07l-.21,1L153.1,354c-2.92-14.51-7.84-28.19-16.67-40.24-1.17-1.6-2.6-3-3.9-4.5.36-7.47,3-9,9.44-5.61,2.47,3.9,5,7.77,7.4,11.69C156.19,326.37,159.8,338.62,162.85,351.07Z" fill="#435a8c"/>
        <path id="Path_874" data-name="Path 874" d="M232.65,435l-.83-.11a86.7,86.7,0,0,0-41.64-26c-2.5-6.05-1.49-8.1,4.56-9.22,17.23,5,31.47,14.89,44.15,27.29l.06.76C236.41,429.82,233.71,431.72,232.65,435Z" fill="#435a8c"/>
        <path id="Path_875" data-name="Path 875" d="M466.73,142.11c-.5,0-1-.06-1.49-.06-11.06,0-11.08,0-9.32-10.69a70.669,70.669,0,0,0-.22-24.1c-1.59-8.92-1.57-8.92,7.19-9.24,6.47.88,9.08,3.64,9.12,10,.07,8.57,0,17.15,0,25.73C472.06,137.66,471,140.86,466.73,142.11Zm2.59-11.56c-.38-3.29-2.21-5.13-5.25-5.05s-4.92,2-4.84,5.18a4.7,4.7,0,0,0,5.16,4.9C467.37,135.51,469.13,133.51,469.32,130.55Zm.09-20.35c-.59-3.08-2.14-5.08-5.34-5a4.84,4.84,0,0,0-4.92,5.22c0,3,2.07,4.88,5.24,4.78s4.55-2.2,5.02-5Z" fill="#ececec"/>
        <path id="Path_876" data-name="Path 876" d="M279.82,98.14c3.3.21,7.46-1.4,9.68.63,2.54,2.31-.33,6.11-.82,9.22a87.59,87.59,0,0,0,.71,29.17c.7,3.91-.3,5.25-4.14,5-2.48-.18-5,0-7.48,0-3.9-1.33-5.15-4.3-5.14-8.12,0-8.48.16-17,0-25.43C272.49,103.17,274.53,99.61,279.82,98.14Zm-4.27,32.15c.22,3.64,2.18,5.36,5.16,5.24s5-2,4.87-5.15-2.18-4.86-5.22-4.81a4.51,4.51,0,0,0-4.81,4.72Zm10.11-20.11c-.55-2.89-2-4.94-5.18-4.88s-4.87,2-4.82,5,1.77,4.92,5,4.85,4.6-1.99,5-4.97Z" fill="#ececec"/>
        <path id="Path_877" data-name="Path 877" d="M482.51,242.76c.05,4.16.13,8.32.16,12.48.1,15.93,13.56,24.36,27.85,17.42,1.64-.8,3.21-1.74,4.79-2.66,7.39-4.35,15-7.83,24-7a26.9,26.9,0,0,0,13.55-2l1.88.05,6,4.94a89.8,89.8,0,0,1-20.25,2.14,54.926,54.926,0,0,0-24.82,6.25c-4.3,2.14-8.78,3.91-13.18,5.85a40.661,40.661,0,0,1-11.73-1.17l-2-1h0l-2-1.11.06.06-1.1-1.01.07.07L484.72,275l.07.06c-.08-.62-.33-1.06-1.05-1.06h.12C478.73,263.77,477.7,253.39,482.51,242.76Z" fill="#7188ba"/>
        <path id="Path_878" data-name="Path 878" d="M239.63,187.54l-7.88,5.57c-10.87,6.21-20,14.55-28.88,23.26-6.09-1-7.2-2.46-5.9-7.89,8.43-7.32,16.79-14.71,25.82-21.29l10.11-6.09C238.93,180.94,239.6,181.58,239.63,187.54Z" fill="#435a8c"/>
        <path id="Path_879" data-name="Path 879" d="M241.85,287.69c-4.08,14.19-8.14,28.38-9.51,43.15-.42,4.46-.68,8.93-1.36,13.44-3.94-16.83-7.14-33.72-3.67-51.15C230.75,287.55,235.65,285.89,241.85,287.69Z" fill="#435a8c"/>
        <path id="Path_880" data-name="Path 880" d="M490.7,279.09a40.661,40.661,0,0,0,11.73,1.17c-6.26,5-12.93,3.1-19.6,1.14-15.9-9.74-13.64-40.63-.07-49.37,3.94-1.41,7.86-3.7,11.85-.13l-4.09,1.1c-1.06.14-2.31-.11-2.7,1.36h.21c-3.49-.31-5,2.45-6.3,4.71-4.84,8.3-6.75,17.21-3.58,26.55,1.07,3.14,1,7.49,5.71,8.28h-.12l1.05,1.06-.07-.06,1.07,1.07-.07-.07,1.06,1.06-.06-.06c.31,1,1.19,1,2,1.11h0Z" fill="#8e8bb9"/>
        <path id="Path_881" data-name="Path 881" d="M560.77,190.52q.88,6.73,1.76,13.48l-5.87,2.36c-1.54-.6-1-2.42-2-3.37-.07-3.12.72-6.41-1.7-9.09C555,191.91,555.86,189.74,560.77,190.52Z" fill="#7188ba"/>
        <path id="Path_882" data-name="Path 882" d="M219.33,142.27c-.61-12.28-26.77-34-48.75-17.26,16.94,4.24,29.7,14.82,37.84,29.44,5.72,10.27,9.08,22,14.37,32.74l10.11-6.09a69.6,69.6,0,0,1-13.57-38.83Zm-20.62-19.76c-.73-1.66-1.41-3.34-2.06-5Z" fill="#7188ba"/>
        <path id="Path_883" data-name="Path 883" d="M153.1,354l9.54-1.94,2.32,12.84c-1.82,6.11-5.43,6.82-10.2,2a43,43,0,0,0-2-11.85Z" fill="#435a8c"/>
        <path id="Path_884" data-name="Path 884" d="M232.65,435c1.06-3.32,3.76-5.22,6.3-7.27l9.57,9.19c.54,7.32-.64,8.5-7.78,7.8C238.83,440.86,235,438.59,232.65,435Z" fill="#435a8c"/>
        <path id="Path_885" data-name="Path 885" d="M404.7,424.05l-4.06,3.06c-3.61-2-6.29-4.63-6.94-9-.5-3.34-5.12-2.2-6.05-5.21l7-4.32c.1,2.58,4.74,1.76,3.82,5-1.62,5.77,2.31,7.18,6.5,8.42C404.85,422.72,404.77,423.38,404.7,424.05Z" fill="#e26e06"/>
        <path id="Path_886" data-name="Path 886" d="M562.53,204q-.88-6.75-1.76-13.48c5.2,1.48,7.18,4,5.59,8.83-1.39,4.26-.15,2.32,3,2.67,2.56.3,4.06.58,5.6,1.93Z" fill="#7188ba"/>
        <path id="Path_887" data-name="Path 887" d="M554.41,118.32l-.18.24-.21-.19.18-.2Z" fill="#556293"/>
        <path id="Path_888" data-name="Path 888" d="M370.72,221.26c9.12-.25,18.3,0,27.09-3.11,3.23,0,6-1.79,9-2.49-2.74,11.82-4.45,23.7-2.12,35.82,1.77,9.18,5.39,17,14.94,20.57a429.908,429.908,0,0,0-31.8,52.47c-6.18,12.18-11,24.92-16.05,37.57-1.49-9-4.52-17.23-11.93-23.19v.1l-1.08-1.11a5.465,5.465,0,0,0-.1-.8c6.69-20.4,16.65-39.8,20.59-61C382.82,257.17,382.76,238.1,370.72,221.26Z" fill="#7188ba"/>
        <path id="Path_889" data-name="Path 889" d="M268.67,259.07c-1.21-1.24-1.11-2.82-.81-4.25,3.63-17.23,12.27-31.38,26.58-41.75a15.5,15.5,0,0,1,15.2-1.54c6.34,2.6,13.41,3.2,19.21,7.4,1.48,1.07,3.23,2.07,4.83,3.14a2.33,2.33,0,0,0,2.09,1h0c.34.35.69.69,1,1h0a3.16,3.16,0,0,0,3,2h0a1.91,1.91,0,0,0,2,1h0c.75,4.6.9,9.06-1.2,13.49a159.42,159.42,0,0,1-16,26.83c-5.4,7.26-11.76,9.5-20.57,7.25A121.88,121.88,0,0,1,268.67,259.07Zm40-9c2.4.12,3.69-.21,4.73-1.11a41.51,41.51,0,0,0,11.14-16.27c.87-2.16-.35-3.81-2.14-5.06a41.18,41.18,0,0,0-14.48-6.39,7.84,7.84,0,0,0-7,1.68,33.34,33.34,0,0,0-10.45,15.47c-.57,1.71-.8,3.26.92,4.42A46.26,46.26,0,0,0,308.67,250Zm-13.79,4.7c-2.75.5-4.52,1.95-4.54,4.93a3.08,3.08,0,0,0,3.53,3.28c2.86-.16,4.39-2.2,4.52-5,.1-2.16-1.32-3.22-3.51-3.24Zm-19.23-2.38c.28,2.22,1.39,3.7,3.55,3.54,2.87-.22,4.5-2.14,4.7-4.93.16-2.27-1.47-3.39-3.51-3.31-2.92.08-4.39,1.93-4.74,4.67Zm38.23,11.86c-.17-2.37-1.41-3.47-3.56-3.3a4.48,4.48,0,0,0-4.38,4.48,3,3,0,0,0,3.26,3.46c2.88-.13,4.25-2.1,4.68-4.67Z" fill="#f7f7f7"/>
        <path id="Path_890" data-name="Path 890" d="M268.67,259.07A121.88,121.88,0,0,0,304,274.64c8.81,2.25,15.17,0,20.57-7.25a159.417,159.417,0,0,0,16-26.83c2.1-4.43,1.95-8.89,1.2-13.49,5.79,2.8,8,7.63,5.72,13.35-5.18,13-11.53,25.41-20.29,36.43-4.73,5.95-10.6,8.63-18.42,6.29-12.63-3.79-24.83-8.38-35.83-15.85C269.86,265.21,268.11,262.84,268.67,259.07Z" fill="#7188ba"/>
        <path id="Path_891" data-name="Path 891" d="M358.7,337.12a7.284,7.284,0,0,0,.1.8l1.08,1.11v-.13c-1.54,3.71-2.63,7.76-7.13,9.15a50,50,0,0,0-23.2-16.43c-10.4-3.68-20.93-3.55-31.4-2.21-8.77,1.12-17.68,2.77-25.42,7.75l.08-.05c-1.21,0-2.49-.13-3.08,1.33l-14.15,6.09C277.93,318.54,327.17,315.24,358.7,337.12Z" fill="#8e8bb9"/>
        <path id="Path_892" data-name="Path 892" d="M272.74,337.16c7.74-5,16.65-6.63,25.42-7.75,10.47-1.34,21-1.47,31.4,2.21a50,50,0,0,1,23.2,16.43c9.49,14.37,9.39,30.54-.35,45.06-1.09,1.62-2.4,3.25-4.79,2.89,8.14-12.14,9.28-24.88,3.3-38.24-6.17-14.32-18.15-21.21-32.47-24.51C305.18,330.19,292,332,279,335.63,276.93,336.21,274.83,336.65,272.74,337.16Z" fill="#435a8c"/>
        <path id="Path_893" data-name="Path 893" d="M339.76,226.08a3.16,3.16,0,0,1-3-2C338.24,224,339.56,224.19,339.76,226.08Z" fill="#f7f7f7"/>
        <path id="Path_894" data-name="Path 894" d="M269.74,338.44c.59-1.46,1.87-1.31,3.08-1.33C272.1,338.26,270.8,338.06,269.74,338.44Z" fill="#8780b1"/>
        <path id="Path_895" data-name="Path 895" d="M335.77,223.09a2.33,2.33,0,0,1-2.09-1,2.22,2.22,0,0,1,2.09,1Z" fill="#f7f7f7"/>
        <path id="Path_896" data-name="Path 896" d="M341.75,227.08a1.91,1.91,0,0,1-2-1,1.92,1.92,0,0,1,2,1Z" fill="#f7f7f7"/>
        <path id="Path_897" data-name="Path 897" d="M336.76,224.09c-.34-.34-.69-.68-1-1C336.07,223.41,336.42,223.75,336.76,224.09Z" fill="#bebfc1"/>
        <path id="Path_898" data-name="Path 898" d="M371.82,362.09c5.06-12.65,9.87-25.39,16.05-37.57a429.912,429.912,0,0,1,31.8-52.47l2.14.38c-3.69,11.18-8.92,21.73-13.52,32.53-8.53,20-17.05,40-25.72,60-2.75,6.32-5.16,13.15-13.16,15A51.61,51.61,0,0,0,371.82,362.09Z" fill="#e26e06"/>
        <path id="Path_899" data-name="Path 899" d="M421.81,272.43l-2.14-.38c-9.55-3.54-13.17-11.39-14.94-20.57-2.33-12.12-.62-24,2.12-35.82a21.76,21.76,0,0,0,2.19-3.83c7.1-12.09,15.52-22.41,31.42-21.91,5.43-.06,9.39,3,13.26,6.24,2.07,3.17,4,6.43,4.73,10.21.28,1.57,1.66,3.51-.62,4.85l-.08-.42c-1.41-6.67-4.36-10-10.09-10.62-8.5-1-16.44.78-22.49,7.08-11.09,11.56-15.87,25.65-14.09,41.49.65,5.77.72,12.5,6.87,16.27h-.18A2.7,2.7,0,0,0,420,268l4.95,3.37-1.08,1.09Z" fill="#8e8bb9"/>
        <path id="Path_900" data-name="Path 900" d="M407.57,386.07c3.46,1.39,7.62,7.36,7.46,11.09,0,1.21-.4,2.28.79,3.07-2.59,7.79-4.32,16-10.9,21.82-4.19-1.24-8.12-2.65-6.5-8.42.92-3.27-3.72-2.45-3.82-5C401.15,402.37,403.33,393.63,407.57,386.07Z" fill="#e26e06"/>
        <path id="Path_901" data-name="Path 901" d="M423.82,272.41l1.08-1.09,1,.66C425.36,272.75,424.71,273.16,423.82,272.41Z" fill="#87888c"/>
        <path id="Path_902" data-name="Path 902" d="M554.69,261.08l-1.88-.05c-3.57-5.73-8.4-10.26-13.72-14.3-6.1-4.63-6.69-6.21-3.17-12.86,2.48-4.68-2.16-16.74,18.79-33.24-1,1.73,4.33.17-2.61,7.25-4.88,5-9.1,10.94-4.92,17.46,1.11,1.73.68,1.67.06,2.59-3.68,5.5-3.44,7.66,2.07,11.26,2.16,1.41,1.46,2.24.55,3.82-1.72,3-2.34,6.74,1,8.4C555.52,253.75,555.3,257.12,554.69,261.08Z" fill="#7188ba"/>
        <path id="Path_903" data-name="Path 903" d="M483.86,274c-4.72-.79-4.64-5.14-5.71-8.28-3.17-9.34-1.26-18.25,3.58-26.55,1.32-2.26,2.81-5,6.3-4.71-2,2.67-4.9,4.74-5.52,8.32C477.7,253.39,478.73,263.77,483.86,274Z" fill="#8780b1"/>
        <path id="Path_904" data-name="Path 904" d="M554.66,203c1,.95.46,2.77,2,3.37l-8.79,2.93-.32-.32C549.69,206.71,551.36,203.88,554.66,203Z" fill="#7188ba"/>
        <path id="Path_905" data-name="Path 905" d="M487.82,234.4c.39-1.47,1.64-1.22,2.7-1.36a2.89,2.89,0,0,1-2.7,1.36Z" fill="#8e8bb9"/>
        <path id="Path_906" data-name="Path 906" d="M545.45,211.13l-.27.31c-.07-.12-.22-.28-.19-.35C545.17,210.64,545.34,210.67,545.45,211.13Z" fill="#7188ba"/>
        <path id="Path_907" data-name="Path 907" d="M543.41,213.24l-.31.09L543,213l.32-.09Z" fill="#7188ba"/>
        <path id="Path_908" data-name="Path 908" d="M541.09,215.84c.11,0,.31.08.31.12a1.149,1.149,0,0,1-.11.39c-.11,0-.32-.08-.32-.12a1.463,1.463,0,0,1,.12-.39Z" fill="#bebfc1"/>
        <path id="Path_909" data-name="Path 909" d="M547.87,209.29l-.62.27.3-.59Z" fill="#7188ba"/>
        <path id="Path_910" data-name="Path 910" d="M454.86,121.53c-.45,21-8.61,38.57-23.82,53-18,17-39.72,24-63.91,22.37A82.73,82.73,0,0,1,317,176.11c-11.09-9.7-19.54-21.12-23.75-34.92-7.29-23.86-3.49-46.52,11.68-66.53,14.13-18.64,33.24-29,56.58-31.58,29.25-3.18,54.15,5.84,74,27.5A72,72,0,0,1,454.86,121.53Zm-3.94-.58a66.13,66.13,0,0,0-6.68-29.47C422.57,46.25,360,32.77,320.41,64.8c-32.55,26.35-35.59,71.45-6.88,101.93,27.71,29.43,75.61,34,108.09,10,18.69-13.84,28.7-32.39,29.3-55.73Z" fill="#ececec"/>
        <path id="Path_911" data-name="Path 911" d="M440.46,189.92c-15.9-.5-24.32,9.82-31.42,21.91a21.76,21.76,0,0,1-2.19,3.83c-3.05.7-5.81,2.45-9,2.49-20.74-.31-40.87-3.59-60-12.14-12.09-5.42-22.13-13.25-29.45-24.41-1.13-1.73-2-3.42-1.66-5.55,13.51,15.84,30.13,26.69,50.88,29.9,33.73,5.21,61-6.42,82.07-33,1.51.52,1.13,2.25,2,3.15C442,180.75,440.86,185.3,440.46,189.92Z" fill="#435a8c"/>
        <path id="Path_912" data-name="Path 912" d="M305.83,175.11c-.36-.49-.71-1-1.06-1.48C305.12,174.12,305.47,174.62,305.83,175.11Z" fill="#7d3a3b"/>
        <path id="Path_913" data-name="Path 913" d="M306.79,176.12l-1-1.11Z" fill="#7d3a3b"/>
        <path id="Path_914" data-name="Path 914" d="M418,265c-6.15-3.77-6.22-10.5-6.87-16.27-1.78-15.84,3-29.93,14.09-41.49,6.05-6.3,14-8,22.49-7.08,5.73.65,8.68,3.95,10.09,10.62-18-9.23-33.94-3-40.66,16.33-4.3,12.35-4.49,24.78,1.09,36.95A3.294,3.294,0,0,0,418,265Z" fill="#8780b1"/>
        <path id="Path_915" data-name="Path 915" d="M182.33,148.78c5.72,2.27,9.08,13.37,5.51,18-.88,1.14-1.79,1.13-3,.85-4.18-.93-8.22-2.6-12.6-2.57-1.72,0-1.84-1-1.46-2.3.49-1.74.91-3.5,1.49-5.72,1.44,4.4,4.34,6.06,8.52,4.79C183.68,161,183.83,159.19,182.33,148.78Z" fill="#ebf1fd"/>
        <path id="Path_916" data-name="Path 916" d="M173.77,140.11l.66.68-.49.28-.18-1Z" fill="#cdced0"/>
        <path id="Path_917" data-name="Path 917" d="M170.77,137.1l-.34-.19.33.21Z" fill="#cdced0"/>
        <path id="Path_918" data-name="Path 918" d="M171.77,138.1l-1-1h0Z" fill="#cdced0"/>
        <path id="Path_919" data-name="Path 919" d="M172.78,139.1l1,1h0Z" fill="#cdced0"/>
        <path id="Path_920" data-name="Path 920" d="M172.75,139.12l-1-1h0Z" fill="#cdced0"/>
        <path id="Path_921" data-name="Path 921" d="M345.76,398.13a2,2,0,0,1-1.86,1.92Z" fill="#7d3a3b"/>
        <path id="Path_922" data-name="Path 922" d="M346.73,397l-.93,1Z" fill="#7d3a3b"/>
        <path id="Path_923" data-name="Path 923" d="M347.73,396l-1,1.1Z" fill="#7d3a3b"/>
        <path id="Path_924" data-name="Path 924" d="M404.92,422.05c6.58-5.8,8.31-14,10.9-21.82,5.05-.48,7.71,3.35,10.37,6.42,1.2,1.38,1,2.06,3.42,1.82a16.86,16.86,0,0,1,12.44,3.47c.62.5.58,2,2.12.92,4.58-3.17,9.54-3.89,14.74-1.65,1.61.69,1.35-.73,1.92-1.35,3.39-3.75,7.39-6.38,12.65-6.57l.6.3-.31-.58c.47-5.2,3.86-8.51,7.53-11.62.61-.51,2.08,0,1.5-1.76-1.61-4.87-.36-9.29,2.59-13.29.42-.57.91-.86.27-1.55a15.86,15.86,0,0,1-4-14.43c.22-1.11-.68-1.29-1.27-1.83-4.38-4.06-8.23-8.43-7.94-15a1.18,1.18,0,0,0-.86-1.42c-6.89-3-10.51-8.5-11.77-15.72-.19-1.06-.81-1.3-1.63-1.5-3.65-.86-5.37-3.61-6.67-6.78,4.71-7.68,7.15-16.39,11.15-24.4,1.09-2.19,1.75-4.61,3.5-6.79,1.66,2.85-.43,5.16-.65,7.58,9.69,1.58,15,9.62,11.52,18.18,8.32-3,10.31,4.21,13.82,8.45,2.29,2.78,1.16,6.32-1.7,9.86,6.77-3.12,9.59.87,11.81,5.59,2,4.25,6.87,8.3.45,13.76,11.4.87,9.65,9.71,11.24,16.28,1.1,4.54-2.15,6.55-6.21,7.73,8.14,4,8.26,4.32,5.77,14.81-2.06,8.69-3.23,9.73-10.85,9.69,3.92,7.87-3.45,19.94-12.27,19.79-1.95,0-2.08.67-2.38,2.16-1.22,6.06-12.24,13-17.94,11.17-1.76-.55-2.6-.66-3.36,1.31-.92,2.37-3.14,3.34-5.56,3.67-2.79.39-5.84.08-8.33,1.13-4.9,2.05-7.39-5.57-11.16-3-4.45,3-8.48,2-12.76,1.06-8.41-1.89-8.39-2-9.3-10.56-5.28,5.07-9.11-.31-13.57-1.55C404.77,423.38,404.85,422.72,404.92,422.05Z" fill="#ff7900"/>
        <path id="Path_925" data-name="Path 925" d="M491.56,424.18l-.3-.36.61.05Z" fill="#2f3857"/>
        <path id="Path_926" data-name="Path 926" d="M481.82,309.2a2.421,2.421,0,0,1-.35.3s-.24-.19-.23-.23a2.328,2.328,0,0,1,.28-.36Z" fill="#2f3857"/>
        <path id="Path_927" data-name="Path 927" d="M440.46,189.92c.4-4.62,1.56-9.17,1.27-13.85,5.7,1.36,11.64,8.84,12,15.16.09,1.64,0,3.29,0,4.93C449.85,192.91,445.89,189.86,440.46,189.92Z" fill="#9191af"/>
        <path id="Path_928" data-name="Path 928" d="M420,268a2.7,2.7,0,0,1-2.18-2.94C419.16,265.5,419.44,266.81,420,268Z" fill="#8780b1"/>
        <path id="Path_929" data-name="Path 929" d="M469.32,130.55c-.19,3-1.95,5-4.93,5a4.7,4.7,0,0,1-5.16-4.9c-.08-3.17,1.79-5.1,4.84-5.18S468.94,127.26,469.32,130.55Z" fill="#8e8bb9"/>
        <path id="Path_930" data-name="Path 930" d="M469.41,110.2c-.47,2.78-1.79,5-5,5s-5.2-1.83-5.24-4.78a4.84,4.84,0,0,1,4.92-5.22C467.27,105.12,468.82,107.12,469.41,110.2Z" fill="#8e8bb9"/>
        <path id="Path_931" data-name="Path 931" d="M275.55,130.29a4.51,4.51,0,0,1,4.81-4.72c3,0,5.08,1.7,5.22,4.81s-1.93,5-4.87,5.15S275.77,133.93,275.55,130.29Z" fill="#8e8bb9"/>
        <path id="Path_932" data-name="Path 932" d="M285.66,110.18c-.4,3-1.87,4.95-5,5s-4.93-1.79-5-4.85,1.69-5,4.82-5S285.11,107.29,285.66,110.18Z" fill="#8e8bb9"/>
        <path id="Path_933" data-name="Path 933" d="M488.72,278.11c-.81-.11-1.69-.1-2-1.11Z" fill="#8780b1"/>
        <path id="Path_934" data-name="Path 934" d="M490.7,279.09l-2-1Z" fill="#7d3a3b"/>
        <path id="Path_935" data-name="Path 935" d="M484.79,275.06,483.74,274C484.46,274,484.71,274.44,484.79,275.06Z" fill="#8780b1"/>
        <path id="Path_936" data-name="Path 936" d="M485.79,276.07,484.72,275Z" fill="#7d3a3b"/>
        <path id="Path_937" data-name="Path 937" d="M486.78,277.06,485.72,276Z" fill="#8780b1"/>
        <path id="Path_938" data-name="Path 938" d="M359.88,339l-1.08-1.11Z" fill="#9b474b"/>
        <path id="Path_939" data-name="Path 939" d="M308.67,250a46.26,46.26,0,0,1-17.3-7.26c-1.72-1.16-1.49-2.71-.92-4.42a33.34,33.34,0,0,1,10.45-15.47,7.84,7.84,0,0,1,7-1.68,41.18,41.18,0,0,1,14.48,6.39c1.79,1.25,3,2.9,2.14,5.06a41.51,41.51,0,0,1-11.14,16.27C312.36,249.83,311.07,250.16,308.67,250Z" fill="#c1cfef"/>
        <path id="Path_940" data-name="Path 940" d="M294.88,254.74c2.19,0,3.61,1.08,3.51,3.25-.13,2.76-1.66,4.8-4.52,5a3.08,3.08,0,0,1-3.53-3.28C290.36,256.69,292.13,255.24,294.88,254.74Z" fill="#c1cfef"/>
        <path id="Path_941" data-name="Path 941" d="M275.65,252.36c.32-2.74,1.82-4.59,4.74-4.7,2-.08,3.67,1,3.51,3.31-.2,2.79-1.83,4.71-4.7,4.93C277,256.06,275.93,254.58,275.65,252.36Z" fill="#c1cfef"/>
        <path id="Path_942" data-name="Path 942" d="M313.88,264.22c-.43,2.57-1.8,4.54-4.68,4.64a3,3,0,0,1-3.26-3.46,4.48,4.48,0,0,1,4.38-4.48C312.47,260.75,313.71,261.85,313.88,264.22Z" fill="#c1cfef"/>
        <path id="Path_943" data-name="Path 943" d="M450.92,121c-.6,23.39-10.61,41.94-29.3,55.74-32.48,24-80.38,19.47-108.09-10-28.71-30.48-25.67-75.58,6.88-101.93,39.56-32,102.16-18.55,123.83,26.68A66.13,66.13,0,0,1,450.92,121Zm-81.41,49.23a88.728,88.728,0,0,0,13.41-.93c27.65-4.72,52.87-29.66,48.95-61.82-1.68-13.88-7.44-25.59-17.41-34.81C399.49,58.76,381.58,52.73,361,55c-20.41,2.3-36.51,12-47,29.16-12.19,20-10.21,42.87,4,61.3,12.71,16.45,30.21,25.13,51.51,24.72Z" fill="#435a8c"/>
        <path id="Path_944" data-name="Path 944" d="M473.77,403l.31.58-.6-.3Z" fill="#2f3857"/>
        <path id="Path_945" data-name="Path 945" d="M369.51,170.18c-21.3.41-38.8-8.27-51.47-24.72-14.21-18.43-16.19-41.32-4-61.3C324.49,67,340.59,57.3,361,55c20.62-2.3,38.53,3.73,53.5,17.59,10,9.22,15.73,20.93,17.41,34.81,3.92,32.16-21.3,57.1-48.95,61.82a88.734,88.734,0,0,1-13.45.96Zm-.78-106.11c-17.35,1.14-34.48,6.15-45,23.66-7.32,12.12-9.76,24.91-3,38.29,1,2,2.17,4,4.67,3.87,2.66-.19,3-2.52,3.6-4.7,4.38-17,16.29-25.83,32.53-30.13,8-2.12,16.11-1.87,24.25-2A13.5,13.5,0,0,0,398.8,82.74c1.19-5.31-1.72-10.35-7.82-13.48a48.456,48.456,0,0,0-22.25-5.19Z" fill="#c1cfef"/>
        <path id="Path_946" data-name="Path 946" d="M368.73,64.07c8.94.11,15.79,1.88,22.25,5.19,6.1,3.13,9,8.17,7.82,13.48A13.5,13.5,0,0,1,385.71,93c-8.14.17-16.25-.08-24.25,2-16.24,4.3-28.15,13.14-32.53,30.13-.56,2.18-.94,4.51-3.6,4.7-2.5.18-3.66-1.86-4.67-3.87-6.73-13.38-4.29-26.17,3-38.29C334.25,70.22,351.38,65.21,368.73,64.07Z" fill="#ebf1fd"/>
      </g>
      <circle id="Ellipse_135" data-name="Ellipse 135" cx="17.5" cy="17.5" r="17.5" transform="translate(688 272)" fill="#f4f6ff"/>
      <circle id="Ellipse_136" data-name="Ellipse 136" cx="10" cy="10" r="10" transform="translate(736 252)" fill="#f4f6ff"/>
      <circle id="Ellipse_137" data-name="Ellipse 137" cx="7.5" cy="7.5" r="7.5" transform="translate(1199 436)" fill="#f4f6ff"/>
      <circle id="Ellipse_138" data-name="Ellipse 138" cx="25.5" cy="25.5" r="25.5" transform="translate(1133 618)" fill="#f4f6ff"/>
      <circle id="Ellipse_139" data-name="Ellipse 139" cx="8" cy="8" r="8" transform="translate(663 569)" fill="#f4f6ff"/>
      <circle id="Ellipse_140" data-name="Ellipse 140" cx="12.5" cy="12.5" r="12.5" transform="translate(663 521)" fill="#f4f6ff"/>
    </g>
  </g>
</svg>
