<svg id="Layer_1" data-name="Layer 1" xmlns="http://www.w3.org/2000/svg" viewBox="0 0 140 140"><defs><style>.cls-1{fill:#e6f0ff;}.cls-2{fill:#587bb7;}.cls-3{fill:#213b6e;}.cls-4{fill:#050404;}.cls-5{fill:#f9b63e;}.cls-6{fill:#fdfcf9;}.cls-7{fill:#435a8c;}.cls-8{fill:#e7e7e7;}.cls-9{fill:#fdab27;}.cls-10{fill:#b1d6f2;}.cls-11{fill:#3d3d3d;}.cls-12{fill:#d9effd;}.cls-13{fill:#c3e3f4;}.cls-14{fill:#373d57;}.cls-15{fill:#ffa753;}.cls-16{fill:#ff8e04;}</style></defs><rect class="cls-1" width="140" height="140"/><g id="oiT9Kx"><path class="cls-2" d="M100.67,91.43a10.18,10.18,0,0,0,1.73,1.48c3.39,2.16,4.67,5.42,4.91,9.26.26,4.26.21,8.53.2,12.79a14.4,14.4,0,0,1-.7,3.56c-1.63,2.78-4.19,3.47-7.2,3.29-1.24-.08-2.49,0-3.73.07l-.22-.16a1.16,1.16,0,0,0-1.49,0c-.27,0-.55,0-.83,0H47.05c-.27,0-.55,0-.83,0a.9.9,0,0,0-1.27,0l-.4.1c-1.8,0-3.61,0-5.42,0a6.14,6.14,0,0,1-5.4-2.56,9.8,9.8,0,0,1-1.22-5c0-4.41,0-8.82.37-13.22a10.08,10.08,0,0,1,4.28-7.75c.65-.46,1.27-1,1.9-1.44l.08.06a4.25,4.25,0,0,1-.31,1.41c-.46,1.59,0,3.63,1,4.32a17.77,17.77,0,0,0,3.65,2c2.73,1.06,5.44,2.19,8.23,3.11a7.7,7.7,0,0,0,2.42.47q14.45,0,28.87,0c2.3,0,4.58,0,6.72-1,.5-.22,1-.33,1.56-.52a69.48,69.48,0,0,0,8.1-3.43,3.58,3.58,0,0,0,2-3.4,12.8,12.8,0,0,0-.68-3.33ZM43.6,101.19a2,2,0,0,0-1.14-.36,65,65,0,0,0-6.2-2,.9.9,0,0,0-1.26.85,17.92,17.92,0,0,0,.13,4.74c-.13,1.45,1,2,2,2.59,2.6,1.5,5.48,1.51,8.38,1.29h0l.11.26c.08.23.17.46.24.69a22.47,22.47,0,0,0,2.27,5.34,3.06,3.06,0,0,0,2.84,1.54q19.11-.06,38.23,0A3,3,0,0,0,92,114.56c.36-.59.68-1.21,1-1.83.71-1.47,1.09-3.07,1.65-4.59a12.78,12.78,0,0,0,8.69-1.33,3,3,0,0,0,1.72-2.53c0-1.46.06-2.91,0-4.36,0-.91-.5-1.35-1.32-1.1a64.2,64.2,0,0,0-6.21,2l-.83.23a33,33,0,0,0-4,1.4.84.84,0,0,0-.62.24,8.51,8.51,0,0,0-2.22.83c-.44.17-.18.42-.05.65-.24,0-.48.06-.72.06H51.18c-.31,0-.62,0-.93-.06.33-.34.26-.56-.19-.7-.73-.24-1.44-.52-2.17-.77-.15-.21-.39-.21-.61-.26A20.45,20.45,0,0,0,43.6,101.19ZM70,119.88h30.25c.45,0,.9,0,1.35,0a1.94,1.94,0,0,0,2-2c0-.66,0-1.32,0-2s-.31-1-1-1c-1.36,0-2.71,0-4.07,0-1.54,0-1.4-.17-1.33,1.3,0,.94-.22,1.19-1.18,1.19q-25.71,0-51.42,0c-1.62,0-1.66,0-1.64-1.62,0-.69-.2-.9-.88-.87-1.11,0-2.22,0-3.33,0-2.57,0-2.26-.28-2.27,2.29,0,2.12.6,2.72,2.74,2.72Z"/><path class="cls-3" d="M39.33,91.46c-.53-1.54-1-1.87-2.48-1.87-1.22,0-2.43,0-3.65,0a1.82,1.82,0,0,1-1.94-1.76,2.05,2.05,0,0,1,1.32-2.52,13.94,13.94,0,0,1,5.27-.15.83.83,0,0,1,.82.92c-.35,1.65,1,2.28,1.83,3.38,1.69-2.91,3.34-5.71,5-8.54A17.58,17.58,0,0,1,49,76a8.78,8.78,0,0,1,5.78-2.28c10.18,0,20.36,0,30.54,0,3.73,0,6.28,2.17,8.12,5.2,2.06,3.4,4,6.88,6.07,10.4l1.63-1.72a1.18,1.18,0,0,0,.25-1.06c-.16-1,.21-1.54,1.24-1.58a37.35,37.35,0,0,1,4,0,2.15,2.15,0,0,1,2.18,2.49c-.07,1.41-.73,2-2.33,2-1,0-2.08,0-3.12,0-1.65,0-2,.24-2.66,1.84l0,0c-.42,0-.83,0-1.25,0H43.61c-1.42,0-2.83,0-4.25,0Zm59.05-.4c-2.31-4.15-4.53-8.15-6.93-12a2.93,2.93,0,0,0-2.88-1.55c-6.73.09-13.47.18-20.21.11q-8.53-.08-17.08-.11a2.73,2.73,0,0,0-2.62,1.44c-2.29,3.69-4.4,7.48-6.51,11.27-.14.26-.41.49-.32.88Z"/><path class="cls-4" d="M106.72,127.12a1.8,1.8,0,0,1-1.47.6q-3.9,0-7.79,0a1.41,1.41,0,0,1-1.63-1.23l0-4.61c1.24,0,2.49-.15,3.73-.07,3,.18,5.57-.51,7.2-3.29,0,.17,0,.34,0,.51a.57.57,0,0,0,0,.55C106.73,122.09,106.94,124.61,106.72,127.12Z"/><path class="cls-4" d="M44.61,126.49a1.28,1.28,0,0,1-1.5,1.22c-2.63,0-5.27,0-7.9,0a2,2,0,0,1-1.48-.61c-.09-2.63-.08-5.25,0-7.88a6.14,6.14,0,0,0,5.4,2.56c1.81,0,3.62,0,5.42,0Z"/><path class="cls-5" d="M106.83,119.58a.57.57,0,0,1,0-.55A.5.5,0,0,1,106.83,119.58Z"/><path class="cls-5" d="M39.06,91.82l.27-.36,0,0c-.08.13-.15.27-.22.4Z"/><path class="cls-3" d="M39.14,91.88c.07-.13.14-.27.22-.4,1.42,0,2.83,0,4.25,0H99.38c.42,0,.83,0,1.25,0a12.8,12.8,0,0,1,.68,3.33,3.58,3.58,0,0,1-2,3.4,69.48,69.48,0,0,1-8.1,3.43c-.52.19-1.06.3-1.56.52-2.14,1-4.42,1-6.72,1q-14.43,0-28.87,0a7.7,7.7,0,0,1-2.42-.47c-2.79-.92-5.5-2-8.23-3.11a17.77,17.77,0,0,1-3.65-2c-1-.69-1.44-2.73-1-4.32A4.25,4.25,0,0,0,39.14,91.88Z"/><path class="cls-4" d="M94.6,108.14c-.56,1.52-.94,3.12-1.65,4.59-.31.62-.63,1.24-1,1.83a3,3,0,0,1-2.82,1.55q-19.11-.08-38.23,0a3.06,3.06,0,0,1-2.84-1.54,22.47,22.47,0,0,1-2.27-5.34c-.07-.23-.16-.46-.24-.69l-.11-.26h0c-.14-.64-.27-1.27-.4-1.91l.93-.1c-.3,1,.25,1.06,1,1.06q22.87,0,45.75,0c.45,0,1.26.34,1.26-.43s-.79-.35-1.22-.35l-45.23,0c-.41,0-.92.23-1.23-.29l2.14-.74c.27.34.64.2,1,.2H90.42c.35,0,.77.17,1-.23a14.43,14.43,0,0,0,3.53,1Zm-24.44,0c-7.6,0-15.21,0-22.81,0-.32,0-.88-.24-.9.37s.54.38.87.44c.1,0,.21,0,.32,0H92.33a7.38,7.38,0,0,0,.94,0,.48.48,0,0,0,.4-.53c0-.29-.28-.25-.48-.26s-.56,0-.83,0Zm-.09,1.65H47.56c-.25,0-.63-.12-.66.29s.28.51.64.51H91.92a5.63,5.63,0,0,0,.82,0,.43.43,0,0,0,.37-.45c0-.29-.23-.3-.44-.31H70.07Zm0,3.15H48.61c-.17,0-.39,0-.41.21a.48.48,0,0,0,.28.51,2.1,2.1,0,0,0,.71.09H90.77c.45,0,1.06,0,1-.56s-.63-.25-1-.25Zm20.8,1.75H49.18a1.79,1.79,0,0,0,1.57.72H89.29A1.86,1.86,0,0,0,90.87,114.7ZM70,111.45H48.32c-.27,0-.74-.2-.75.27s.42.38.73.39H92c.25,0,.51,0,.49-.38s-.28-.27-.48-.27H70Z"/><path class="cls-4" d="M70,119.88H39.17c-2.14,0-2.75-.6-2.74-2.72,0-2.57-.3-2.28,2.27-2.29,1.11,0,2.22,0,3.33,0,.68,0,.89.18.88.87,0,1.62,0,1.62,1.64,1.62q25.71,0,51.42,0c1,0,1.22-.25,1.18-1.19-.07-1.47-.21-1.29,1.33-1.3,1.36,0,2.71,0,4.07,0,.74,0,1.1.23,1,1s0,1.32,0,2a1.94,1.94,0,0,1-2,2c-.45,0-.9,0-1.35,0ZM100.51,116A1.36,1.36,0,0,0,99,117.24a1.4,1.4,0,1,0,2.79.24A1.37,1.37,0,0,0,100.51,116Zm-60.86,2.77a1.34,1.34,0,0,0,1.4-1.35A1.32,1.32,0,0,0,39.74,116a1.37,1.37,0,0,0-1.47,1.39A1.38,1.38,0,0,0,39.65,118.78Z"/><path class="cls-6" d="M46,106.26l-.93.1a21,21,0,0,1-4.34-.13c-2-.23-4-.32-5.6-1.84A17.92,17.92,0,0,1,35,99.65a.9.9,0,0,1,1.26-.85,65,65,0,0,1,6.2,2c-.11.22-.23.43-.32.66a3.11,3.11,0,0,0,.67,3.53,3.45,3.45,0,0,0,3.12.65c1.24-.59,2.13-1.44,2-3,.73.25,1.44.53,2.17.77.45.14.52.36.19.7l-.89.66a2.49,2.49,0,0,0-.85.62l-2.14.74Zm-9.67-5.89a2.46,2.46,0,0,0,.31,2.91,2.69,2.69,0,0,0,3,.82,2.8,2.8,0,0,0,1.74-2.71C39.13,102.83,37.72,102.57,36.33,100.37Z"/><path class="cls-6" d="M95,106.38a14.43,14.43,0,0,1-3.53-1,2.09,2.09,0,0,0-.83-.61l-.82-.63c-.13-.23-.39-.48.05-.65a8.51,8.51,0,0,1,2.22-.83,3.11,3.11,0,0,0,2.56,3.14,3.08,3.08,0,0,0,3.45-2.45,3.68,3.68,0,0,0-.58-2.56,64.2,64.2,0,0,1,6.21-2c.82-.25,1.32.19,1.32,1.1,0,1.45,0,2.9,0,4.36a4.57,4.57,0,0,1-2.39,1.38A27.13,27.13,0,0,1,95,106.38Zm3.64-4.86c.38,2.08,1.34,2.85,3.19,2.66a2.7,2.7,0,0,0,2.16-2.85c0-.31.05-.69-.31-.8s-.39.31-.53.52a2.65,2.65,0,0,1-2.54,1.26C99.85,102.3,99.43,101.6,98.64,101.52Z"/><path class="cls-4" d="M89.82,104.18l.82.63c-.31.34-.72.19-1.08.19Q70,105,50.35,105c-.33,0-.7.12-1-.17l.89-.66c.31,0,.62.06.93.06H89.1C89.34,104.24,89.58,104.2,89.82,104.18Z"/><path class="cls-7" d="M35.13,104.39c1.57,1.52,3.62,1.61,5.6,1.84a21,21,0,0,0,4.34.13c.13.64.26,1.27.4,1.91-2.9.22-5.78.21-8.38-1.29C36.13,106.43,35,105.84,35.13,104.39Z"/><path class="cls-7" d="M95,106.38a27.13,27.13,0,0,0,7.62-.72,4.57,4.57,0,0,0,2.39-1.38,3,3,0,0,1-1.72,2.53,12.78,12.78,0,0,1-8.69,1.33Z"/><path class="cls-6" d="M92.71,102.46a33,33,0,0,1,4-1.4,4.15,4.15,0,0,1,.3.43,2.44,2.44,0,0,1,.11,2.37A2,2,0,0,1,95,105C93.6,105,92.85,104.14,92.71,102.46Z"/><path class="cls-6" d="M43.6,101.19a20.45,20.45,0,0,1,3.68,1.25c-.18,1.91-1.11,2.81-2.73,2.56a2.16,2.16,0,0,1-1.84-1.74A1.63,1.63,0,0,1,43.6,101.19Z"/><path class="cls-8" d="M43.6,101.19a1.63,1.63,0,0,0-.89,2.07A2.16,2.16,0,0,0,44.55,105c1.62.25,2.55-.65,2.73-2.56.22,0,.46,0,.61.26.17,1.53-.72,2.38-2,3a3.45,3.45,0,0,1-3.12-.65,3.11,3.11,0,0,1-.67-3.53c.09-.23.21-.44.32-.66A2,2,0,0,1,43.6,101.19Z"/><path class="cls-8" d="M92.71,102.46c.14,1.68.89,2.49,2.27,2.56a2,2,0,0,0,2.12-1.16,2.44,2.44,0,0,0-.11-2.37,4.15,4.15,0,0,0-.3-.43l.83-.23a3.68,3.68,0,0,1,.58,2.56,3.08,3.08,0,0,1-3.45,2.45,3.11,3.11,0,0,1-2.56-3.14A.84.84,0,0,1,92.71,102.46Z"/><path class="cls-9" d="M95.66,121.72H94.17A1.16,1.16,0,0,1,95.66,121.72Z"/><path class="cls-9" d="M46.22,121.72H45A.9.9,0,0,1,46.22,121.72Z"/><path class="cls-9" d="M45.45,108.28l.11.26Z"/><path class="cls-10" d="M98.38,91.06H41.83c-.09-.39.18-.62.32-.88,2.11-3.79,4.22-7.58,6.51-11.27a2.73,2.73,0,0,1,2.62-1.44q8.53,0,17.08.11c6.74.07,13.48,0,20.21-.11A2.93,2.93,0,0,1,91.45,79C93.85,82.91,96.07,86.91,98.38,91.06Zm-20-12.76c-9,0-17.93,0-26.89,0a2.46,2.46,0,0,0-2.4,1.37c-2,3.24-3.83,6.51-5.69,9.8-.37.66-.41,1,.51,1q14.18,0,28.36,0H97c-.09-.24-.12-.37-.18-.49-2-3.85-4.28-7.53-6.48-11.25a.72.72,0,0,0-.72-.33c-1.59,0-3.16-.22-4.76-.24C82.71,78,80.54,78.39,78.36,78.3Z"/><path class="cls-11" d="M46,106.26l.37-.07c.31.52.82.29,1.23.29l45.23,0c.43,0,1.21-.28,1.22.35s-.81.43-1.26.43q-22.87,0-45.75,0C46.25,107.32,45.7,107.25,46,106.26Z"/><path class="cls-11" d="M70.16,108.15h22.2c.27,0,.55,0,.83,0s.47,0,.48.26a.48.48,0,0,1-.4.53,7.38,7.38,0,0,1-.94,0H47.64c-.11,0-.22,0-.32,0-.33-.06-.88.17-.87-.44s.58-.37.9-.37C55,108.14,62.56,108.15,70.16,108.15Z"/><path class="cls-11" d="M70.07,109.8h22.6c.21,0,.44,0,.44.31a.43.43,0,0,1-.37.45,5.63,5.63,0,0,1-.82,0H47.54c-.36,0-.67-.13-.64-.51s.41-.29.66-.29H70.07Z"/><path class="cls-11" d="M70.07,113H90.81c.34,0,.93-.23,1,.25s-.56.56-1,.56H49.19a2.1,2.1,0,0,1-.71-.09.48.48,0,0,1-.28-.51c0-.23.24-.2.41-.21H70.07Z"/><path class="cls-11" d="M90.87,114.7a1.86,1.86,0,0,1-1.58.71H50.75a1.79,1.79,0,0,1-1.57-.72Z"/><path class="cls-11" d="M70,111.45H92c.2,0,.45,0,.48.27s-.24.37-.49.38H48.3c-.31,0-.74,0-.73-.39s.48-.27.75-.27Z"/><path class="cls-11" d="M49.36,104.83c.29.29.66.17,1,.17q19.6,0,39.21,0c.36,0,.77.15,1.08-.19a2.09,2.09,0,0,1,.83.61c-.28.4-.7.23-1,.23H49.48c-.33,0-.7.14-1-.2A2.49,2.49,0,0,1,49.36,104.83Z"/><path class="cls-7" d="M100.51,116a1.37,1.37,0,0,1,1.28,1.47,1.4,1.4,0,1,1-2.79-.24A1.36,1.36,0,0,1,100.51,116Z"/><path class="cls-7" d="M39.65,118.78a1.38,1.38,0,0,1-1.38-1.38A1.37,1.37,0,0,1,39.74,116a1.32,1.32,0,0,1,1.31,1.42A1.34,1.34,0,0,1,39.65,118.78Z"/><path class="cls-8" d="M36.33,100.37c1.39,2.2,2.8,2.46,5.05,1a2.8,2.8,0,0,1-1.74,2.71,2.69,2.69,0,0,1-3-.82A2.46,2.46,0,0,1,36.33,100.37Z"/><path class="cls-8" d="M98.64,101.52c.79.08,1.21.78,2,.79a2.65,2.65,0,0,0,2.54-1.26c.14-.21.16-.63.53-.52s.3.49.31.8a2.7,2.7,0,0,1-2.16,2.85C100,104.37,99,103.6,98.64,101.52Z"/><path class="cls-12" d="M72.25,90.38q-14.19,0-28.36,0c-.92,0-.88-.32-.51-1,1.86-3.29,3.74-6.56,5.69-9.8a2.46,2.46,0,0,1,2.4-1.37c9,.06,17.92,0,26.89,0-.32.69-.61,1.39-1,2.06C75.68,83.7,73.79,87,72.25,90.38Z"/><path class="cls-13" d="M72.25,90.38c1.54-3.43,3.43-6.68,5.15-10,.35-.67.64-1.37,1-2.06,2.18.09,4.35-.26,6.53-.23,1.6,0,3.17.29,4.76.24a.72.72,0,0,1,.72.33c2.2,3.72,4.49,7.4,6.48,11.25.06.12.09.25.18.49Z"/></g><path class="cls-14" d="M68.38,58.7a18.23,18.23,0,0,0,0-2.56c0-.72,0-1.44,0-2.16,0-.14-.07-.48.22-.33.68.34,1.49.33,2.1.82-.73,0-1.25.37-1.27.93s.47.77.92.92c1,.34,1,.33,1,1.44a2.45,2.45,0,0,0,0,.27V59c0,1.27,0,2.54,0,3.81a6.3,6.3,0,0,1-12.59.29,1.52,1.52,0,0,1,1.42-1.79,1.5,1.5,0,0,1,1.63,1.6,3.25,3.25,0,0,0,6.49,0c.06-1.11,0-2.22,0-3.34A2.26,2.26,0,0,0,68.38,58.7Z"/><path class="cls-14" d="M70.07,60.34c-.54.19-1.09-3.51-1.64-3.32,0-1.85,0-16.6,0-18.45a1.66,1.66,0,0,0,2.7,0c.07-.08.2-.09.3-.14,0,1.51,0,19.61,0,21.12A10.3,10.3,0,0,0,70.07,60.34Z"/><path class="cls-15" d="M90.33,46.24a14.27,14.27,0,0,0-8.16-3,19.28,19.28,0,0,0-9.48,1.46,5.28,5.28,0,0,0-1.19.65c-.1,0-.23.06-.3.14a1.66,1.66,0,0,1-2.7,0,15.38,15.38,0,0,0-6.11-2.12,18.93,18.93,0,0,0-9.72.86,9.14,9.14,0,0,0-3.17,1.93c-.23.22-.37.22-.63,0a18.6,18.6,0,0,0-9.82-3.21,16.74,16.74,0,0,0-6.37.73,8,8,0,0,0-4.29,2.87,14,14,0,0,1,.75-2.81A43,43,0,0,1,51.59,18.62a21.23,21.23,0,0,1,3.46-1.4c.07,0,.15.12.22.12a19.78,19.78,0,0,1,3.69.33,44,44,0,0,1,7.47,1.82,44.15,44.15,0,0,1,6.42,2.91A34.8,34.8,0,0,1,79.08,27a38.88,38.88,0,0,1,4.53,5.06,43.17,43.17,0,0,1,4.52,7.6c.6,1.21,1,2.5,1.5,3.76A6.44,6.44,0,0,1,90.33,46.24Z"/><path class="cls-16" d="M90.33,46.24a6.44,6.44,0,0,0-.7-2.8c-.48-1.26-.9-2.55-1.5-3.76a43.17,43.17,0,0,0-4.52-7.6A38.88,38.88,0,0,0,79.08,27a34.8,34.8,0,0,0-6.23-4.62,44.15,44.15,0,0,0-6.42-2.91A44,44,0,0,0,59,17.67a19.78,19.78,0,0,0-3.69-.33c-.07,0-.15-.08-.22-.12a38.33,38.33,0,0,1,7.44-2c2-.36,4-.48,5.94-.66l3,0a53,53,0,0,1,7.21.88A42.19,42.19,0,0,1,97.27,24.3a42.63,42.63,0,0,1,14.22,21.88,1.4,1.4,0,0,1,.1.73h0c-1.94-2.54-4.71-3.4-7.7-3.72A19.58,19.58,0,0,0,92,45.51c-.41.24-.8.51-1.19.78C90.62,46.43,90.46,46.52,90.33,46.24Z"/><path class="cls-14" d="M71.48,14.53l-3,0c0-.61,0-1.23,0-1.84,0-.29.09-.39.39-.39q1.16,0,2.31,0c.31,0,.38.14.38.41C71.48,13.3,71.48,13.91,71.48,14.53Z"/></svg>