<svg id="Layer_1" data-name="Layer 1" xmlns="http://www.w3.org/2000/svg" viewBox="0 0 140 140"><defs><style>.cls-1{fill:#e6f0ff;}.cls-2{fill:#213b6e;}.cls-3{fill:#587bb7;}.cls-4{fill:#2f3c44;}.cls-5{fill:#354f7c;}.cls-6{fill:#7c888b;}.cls-7{fill:#dadada;}.cls-8{fill:#3b537f;}.cls-9{fill:#435a8c;}.cls-10{fill:#ff8e04;}.cls-11{fill:#8dee4c;}.cls-12{fill:#c3e3f4;}.cls-13{fill:#d9effd;}.cls-14{fill:#515e66;}.cls-15{fill:#fefefe;}.cls-16{fill:#e9e9e9;}</style></defs><rect class="cls-1" width="140" height="140"/><g id="TX8ZFY"><path class="cls-2" d="M125.89,78.46l-2.82.44a14.46,14.46,0,0,0-.37-3.65c-1-4.2-4.25-6.64-8.4-6.21a11.4,11.4,0,0,0-7.39,4.17,17.12,17.12,0,0,0-2.79,4.64c-.45-.34-.82.07-1.23.13q-4.31.6-8.6,1.25c-3,.46-5.87,1-8.84,1.42-3.16.39-6.29,1-9.43,1.54-1.44.24-1.4.25-1.45,1.69a12.49,12.49,0,0,1-.16,3.56l-.69.13c0-1.4,0-2.8,0-4.19,0-.49-.15-.72-.65-.66-.89.11-1.78.21-2.66.35-.38.07-.84.07-1,.59a4.07,4.07,0,0,1-.13-.5c-1.07-6.51-6.89-9.81-13-7.38A16.72,16.72,0,0,0,46,91.49c0,.73-.11,1.14-.92,1.07-.11-1.32-.28-2.65-.33-4,0-.7-.28-.85-.89-.76-1.29.2-2.58.36-3.87.54V88.3c-.08-3.39-.57-6.76-.54-10.16a45.12,45.12,0,0,1,2.12-4.3,26.93,26.93,0,0,0,1.75-3.58,39.58,39.58,0,0,0,1.89-5c1.09-2.82,2-5.71,3-8.55.92-2.62,1.9-5.23,2.86-7.85,2.44-.18,4.88-.42,7.32-.51,2.12-.09,4.24-.31,6.36-.43,3.17-.17,6.33-.49,9.5-.67,1.65-.09,3.3-.27,5-.36,2.82-.17,5.63-.46,8.44-.67,2-.15,4-.2,6-.4a1.11,1.11,0,0,1,1.16.49,9.82,9.82,0,0,0,1.74,2.16,9.89,9.89,0,0,0,1.51,2.22q4.44,6,8.87,11.92a1.36,1.36,0,0,0,1.09.63c2.45,0,4.89.2,7.34.35,1.8.11,3.63,0,5.42.23,1.48.18,3,0,4.45.27a14.56,14.56,0,0,0,2.56.06c.89-.16,1,.37,1,1.07a3.6,3.6,0,0,0-2.69,2.29c-.55,1.68.68,3.34,2.78,3.81a14.73,14.73,0,0,1,.15,2.65c-.88.12-1.77.25-2.66.34-.41,0-.68.13-.6.62A26.43,26.43,0,0,1,125.89,78.46ZM75.64,64.25,82,63.53l7.92-.89,11.83-1.36c.29,0,.68,0,.82-.2s-.19-.51-.35-.72c-2.8-3.78-5.63-7.55-8.42-11.34a1.33,1.33,0,0,0-1.61-.66c-2.11.13-4.22.2-6.32.46-1.31.06-2.62.11-3.93.2-2,.13-4,.3-6,.44-.41,0-.63.13-.63.61,0,4.56,0,9.12,0,13.68C75.26,64,75.2,64.32,75.64,64.25Zm-12-14c-3.29.22-6.58.46-9.88.62a1.23,1.23,0,0,0-1.29,1c-1.39,4-2.81,7.92-4.22,11.88-.44,1.23-.86,2.46-1.33,3.82l5.49-.7c.2,0,.41,0,.61,0l9.4-1.08c3-.35,6-.68,9-1,.5-.06,1.09.06,1.08-.86,0-4.47,0-8.95,0-13.43,0-.6-.13-.83-.77-.78C69.05,49.92,66.37,50.11,63.69,50.3Z"/><path class="cls-3" d="M96.55,48.44a9.82,9.82,0,0,1-1.74-2.16,1.11,1.11,0,0,0-1.16-.49c-2,.2-4,.25-6,.4-2.81.21-5.62.5-8.44.67-1.66.09-3.31.27-5,.36-3.17.18-6.33.5-9.5.67-2.12.12-4.24.34-6.36.43-2.44.09-4.88.33-7.32.51a10.23,10.23,0,0,1-2-.18c-2.25-.25-4.5-.47-6.74-.74-2.7-.32-5.39-.76-8.1-1-2.29-.19-4.55-.54-6.83-.8-.76-.09-1.66.21-2.34-.45,2.09-.31,4.2-.35,6.29-.5,7.29-.55,14.58-1.05,21.87-1.57,4.17-.3,8.34-.68,12.51-.84a40.33,40.33,0,0,1,5.67.5L84,44.61a2.28,2.28,0,0,1,.26,0c2.06.69,3.34-.13,4.23-2a27.4,27.4,0,0,1,1.93-2.93.87.87,0,0,1,1-.45c5,.64,10,1.25,15,1.86,1.6.19,3.19.36,4.79.53,0,0,0,.09,0,.13A10.55,10.55,0,0,1,109.63,46a13.53,13.53,0,0,0-2.21,6.86c-.41-.15-.82-.28-1.23-.44Z"/><path class="cls-4" d="M111.3,91.59a35.9,35.9,0,0,1-6.6-2.08c-2.82-1.17-4.16-3.54-4.66-6.46a15.71,15.71,0,0,1,2.63-.53c.34-.06.71-.08.7-.58a15,15,0,0,1,.75-4.09,17.12,17.12,0,0,1,2.79-4.64A11.4,11.4,0,0,1,114.3,69c4.15-.43,7.35,2,8.4,6.21a14.46,14.46,0,0,1,.37,3.65c-.51.1-.7.34-.73.92A13.31,13.31,0,0,1,118.12,89,9.07,9.07,0,0,1,111.3,91.59Zm6.84-11.43v-.44c0-2.85-2.68-5.38-5.89-3.63a6.67,6.67,0,0,0-3.55,7.1,4,4,0,0,0,5.66,3.12A7.1,7.1,0,0,0,118.14,80.16Z"/><path class="cls-3" d="M43.32,70.26a26.93,26.93,0,0,1-1.75,3.58,45.12,45.12,0,0,0-2.12,4.3c-.75-.06-1.51-.08-2.26-.2q-6.64-1.11-13.29-2.25l-11-1.9c-1.23-.21-2.47-.35-3.69-.58-.38-.07-.51.09-.63.36a.68.68,0,0,1,.12-.73c1.78-2.09,3.46-4.28,5.34-6.29a15.29,15.29,0,0,1,2.43.18c2.38.36,4.76.69,7.15,1s4.54.61,6.81.91c2.1.28,4.19.59,6.3.82S41.1,70.22,43.32,70.26Z"/><path class="cls-5" d="M43.32,70.26c-2.22,0-4.38-.53-6.57-.78s-4.2-.54-6.3-.82c-2.27-.3-4.54-.59-6.81-.91s-4.77-.66-7.15-1a15.29,15.29,0,0,0-2.43-.18q4.8-10.36,9.62-20.71l.14-.11,1.23-.06c.68.66,1.58.36,2.34.45,2.28.26,4.54.61,6.83.8,2.71.23,5.4.67,8.1,1,2.24.27,4.49.49,6.74.74a10.23,10.23,0,0,0,2,.18c-1,2.62-1.94,5.23-2.86,7.85-1,2.84-1.89,5.73-3,8.55A39.58,39.58,0,0,1,43.32,70.26Zm-2-2.54c.5.12.63-.12.73-.42l.9-2.57c1.56-4.34,3.11-8.69,4.68-13,.23-.62.3-1-.58-1-2.5-.21-5-.54-7.49-.8-4.62-.5-9.24-1-13.85-1.51a.87.87,0,0,0-1.06.6q-3.39,7.35-6.83,14.7c-.28.58-.24.75.45.85,4.89.66,9.78,1.36,14.67,2Z"/><path class="cls-5" d="M8.6,73.57c.12-.27.25-.43.63-.36,1.22.23,2.46.37,3.69.58l11,1.9q6.65,1.14,13.29,2.25c.75.12,1.51.14,2.26.2,0,3.4.46,6.77.54,10.16-1.07-.18-2.13-.34-3.19-.53Q24.17,85.4,11.55,83a4.47,4.47,0,0,1-2.3-.63c-.2-2.73-.41-5.46-.61-8.2C8.62,74,8.61,73.78,8.6,73.57Zm25.08,5.64c-.23,0-.47,0-.7,0a3.69,3.69,0,0,0-3.27,2.52,3.48,3.48,0,0,0,1.68,3.66A5.06,5.06,0,0,0,36,86a3.14,3.14,0,0,0,1.07-5.56A5,5,0,0,0,33.68,79.21ZM13.63,76c-.26,0-.49,0-.72,0-2.09.34-3.25,2.14-2.48,3.85a4.3,4.3,0,0,0,6.17,1.48,2.55,2.55,0,0,0,.46-3.78A4.26,4.26,0,0,0,13.63,76Z"/><path class="cls-6" d="M9.25,82.38a4.47,4.47,0,0,0,2.3.63q12.61,2.42,25.25,4.76c1.06.19,2.12.35,3.19.53v.06l.36,5.41-3-.61a2.39,2.39,0,0,0-1-.07c-.25-.3-.62-.29-1-.36q-7.45-1.68-14.93-3.34c-1.9-.43-3.81-.82-5.72-1.23-1.65-.37-3.3-.75-5-1.1-.57-.11-.85-.34-.84-1,0-1-.09-2-.16-3C8.74,82.73,8.74,82.39,9.25,82.38Z"/><path class="cls-5" d="M96.55,48.44l9.64,4c.41.16.82.29,1.23.44a19.9,19.9,0,0,0,3.48,1.43c.45.49,1.33.32,1.65,1-.66,1.14-1.56,2.12-2.14,3.31-.31.42-.6.86-.94,1.25-.48.55-.4.77.33.89,2.19.35,4.36.76,6.54,1.15,1.28.28,1.28.28,1.12-1,0-.23,0-.46-.17-.65a12.62,12.62,0,0,0-.3-2.45l-.27-2-.24-1.59L116,50.44a1.37,1.37,0,0,1,.36-.73c.22,1.35.44,2.71.65,4.06.1.58.19,1.16.28,1.74a21.44,21.44,0,0,0,.45,3,7.46,7.46,0,0,0,.24,1.76,6.55,6.55,0,0,0,.19,1.71c0,.41.36.39.64.44l8.3,1.55c.23,0,.45.11.67.17a14.56,14.56,0,0,1-2.56-.06c-1.48-.28-3-.09-4.45-.27-1.79-.22-3.62-.12-5.42-.23-2.45-.15-4.89-.32-7.34-.35a1.36,1.36,0,0,1-1.09-.63q-4.43-6-8.87-11.92A9.89,9.89,0,0,1,96.55,48.44Z"/><path class="cls-7" d="M117.3,55.51c-.09-.58-.18-1.16-.28-1.74,2-1.1,4.2-1.27,6.38-1.64a3.87,3.87,0,0,0,3.42-2.76,4.5,4.5,0,0,0-.49-3.13,9.13,9.13,0,0,1-1-4,2.41,2.41,0,0,1,2-2.42c.09.22-.09.32-.19.45-1.54,1.83-1.35,3.48.72,4.75a7.39,7.39,0,0,1,3.57,6.87c0,2.37-.89,4.43-3.26,5.44a7.85,7.85,0,0,1-5,.22,13.81,13.81,0,0,1-3.74-1.44A4.62,4.62,0,0,0,117.3,55.51Z"/><path class="cls-4" d="M14.71,88.16c1.91.41,3.82.8,5.72,1.23Q27.9,91,35.36,92.73c.33.07.7.06,1,.36a10.43,10.43,0,0,1-10.06,2.3c-1.66-.47-3.33-.87-5-1.29a9.51,9.51,0,0,1-5.47-3.71A11.43,11.43,0,0,1,14.71,88.16Z"/><path class="cls-8" d="M110.89,54.29a20.12,20.12,0,0,1-3.47-1.43A13.53,13.53,0,0,1,109.63,46a10.55,10.55,0,0,0,1.68-4.24l3.67.37,0,.06c1,2.35,1.85,4.74,1.44,7.36a.18.18,0,0,1,0,.16,1.37,1.37,0,0,0-.36.73c-.56.32-.7,1-1.15,1.39a9.89,9.89,0,0,0-2.31,1.07C111.9,53.2,111.12,53.45,110.89,54.29Z"/><path class="cls-9" d="M116.4,49.55c.41-2.62-.41-5-1.44-7.36a38.78,38.78,0,0,1,6,.84A4.58,4.58,0,0,0,119.72,45a36.93,36.93,0,0,0-2.64,3.69Z"/><path class="cls-6" d="M125.89,78.46a26.43,26.43,0,0,0-.13-3.56c-.08-.49.19-.58.6-.62.89-.09,1.78-.22,2.66-.34a15.83,15.83,0,0,1,.2,3.7c0,.2-.14.3-.34.33A25.18,25.18,0,0,1,125.89,78.46Z"/><path class="cls-10" d="M128.87,71.29c-2.1-.47-3.33-2.13-2.78-3.81a3.6,3.6,0,0,1,2.69-2.29C129,67.22,128.82,69.26,128.87,71.29Z"/><path class="cls-7" d="M115,42.13l-3.67-.37s0-.09,0-.13a7.32,7.32,0,0,0-.6-3.57A8.66,8.66,0,0,1,115,42.13Z"/><path class="cls-7" d="M118,60.25a7.46,7.46,0,0,1-.24-1.76,11.53,11.53,0,0,1,4.48,2.73C120.81,60.9,119.49,60.14,118,60.25Z"/><path class="cls-9" d="M119.72,45A4.58,4.58,0,0,1,120.94,43c.08.28.17.55.23.83s.44,1,.12,1.19A1.61,1.61,0,0,1,119.72,45Z"/><path class="cls-11" d="M23.82,45.73l-.14.11C23.69,45.75,23.72,45.7,23.82,45.73Z"/><path class="cls-4" d="M69.33,88.32c-.69,0-.9.43-1,1.11a15.41,15.41,0,0,1-6.63,10.7,9.88,9.88,0,0,1-8.44,1.44c-2.17-.57-4.38-1-6.5-1.76a8.77,8.77,0,0,1-5.54-6c1-.58,2.25-.4,3.37-.71.33-.09.53-.17.5-.54.81.07.94-.34.92-1.07a16.72,16.72,0,0,1,10.3-15.71c6.14-2.43,12,.87,13,7.38a4.07,4.07,0,0,0,.13.5A21.36,21.36,0,0,1,69.33,88.32Zm-12.7,8.46a6.39,6.39,0,0,0,4.71-2,9.87,9.87,0,0,0,2.72-7.33,5.07,5.07,0,0,0-5.4-5.08,6.79,6.79,0,0,0-4,1.91,8.41,8.41,0,0,0-3,8C52,94.75,53.87,96.94,56.63,96.78Z"/><path class="cls-12" d="M63.69,50.3c2.68-.19,5.36-.38,8-.6.64-.05.78.18.77.78,0,4.48,0,9,0,13.43,0,.92-.58.8-1.08.86-3,.37-6,.7-9,1l-9.4,1.08c-.2,0-.41,0-.61,0,1.35-2.11,2.79-4.15,4.22-6.21,1.78-2.55,3.53-5.12,5.21-7.74A15,15,0,0,0,63.69,50.3Z"/><path class="cls-12" d="M92.15,48.36a1.33,1.33,0,0,1,1.61.66c2.79,3.79,5.62,7.56,8.42,11.34.16.21.52.44.35.72s-.53.17-.82.2L89.88,62.64,82,63.53a4.93,4.93,0,0,1,.23-.46c1.75-2.57,3.51-5.13,5.25-7.71C89,53,90.58,50.7,92.15,48.36Z"/><path class="cls-3" d="M104.12,77.85a15,15,0,0,0-.75,4.09c0,.5-.36.52-.7.58a15.71,15.71,0,0,0-2.63.53c-1.62.15-3.21.52-4.82.79-2,.34-4,.65-5.93,1-2.36.45-4.76.72-7.11,1.31l-7.77,1.27a12.49,12.49,0,0,0,.16-3.56c.05-1.44,0-1.45,1.45-1.69,3.14-.53,6.27-1.15,9.43-1.54,3-.38,5.89-1,8.84-1.42s5.73-.85,8.6-1.25C103.3,77.92,103.67,77.51,104.12,77.85Z"/><path class="cls-13" d="M63.69,50.3A15,15,0,0,1,61.89,53c-1.68,2.62-3.43,5.19-5.21,7.74-1.43,2.06-2.87,4.1-4.22,6.21l-5.49.7c.47-1.36.89-2.59,1.33-3.82,1.41-4,2.83-7.92,4.22-11.88a1.23,1.23,0,0,1,1.29-1C57.11,50.76,60.4,50.52,63.69,50.3Z"/><path class="cls-13" d="M92.15,48.36c-1.57,2.34-3.13,4.68-4.71,7-1.74,2.58-3.5,5.14-5.25,7.71a4.93,4.93,0,0,0-.23.46l-6.32.72a.94.94,0,0,1,.22-.64c1-1.4,2-2.81,2.93-4.23q2.65-3.89,5.29-7.78a12.17,12.17,0,0,0,1.75-2.78C87.93,48.56,90,48.49,92.15,48.36Z"/><path class="cls-12" d="M85.83,48.82a12.17,12.17,0,0,1-1.75,2.78q-2.62,3.9-5.29,7.78c-1,1.42-1.94,2.83-2.93,4.23a.94.94,0,0,0-.22.64c-.44.07-.38-.25-.38-.5,0-4.56,0-9.12,0-13.68,0-.48.22-.59.63-.61,2-.14,4-.31,6-.44C83.21,48.93,84.52,48.88,85.83,48.82Z"/><path class="cls-14" d="M45.07,92.56c0,.37-.17.45-.5.54-1.12.31-2.32.13-3.37.71l-.86,0L40,88.36c1.29-.18,2.58-.34,3.87-.54.61-.09.87.06.89.76C44.79,89.91,45,91.24,45.07,92.56Z"/><path class="cls-3" d="M69.33,88.32a21.36,21.36,0,0,0,.12-4.66c.11-.52.57-.52,1-.59.88-.14,1.77-.24,2.66-.35.5-.06.66.17.65.66,0,1.39,0,2.79,0,4.19Z"/><path class="cls-4" d="M82.18,86.17c2.35-.59,4.75-.86,7.11-1.31,2-.37,4-.68,5.93-1-2.47,3.13-6.15,4.53-9.39,3.55C84.6,87,83.4,86.58,82.18,86.17Z"/><path class="cls-14" d="M118.14,80.16a7.1,7.1,0,0,1-3.78,6.15,4,4,0,0,1-5.66-3.12,6.67,6.67,0,0,1,3.55-7.1c3.21-1.75,5.89.78,5.89,3.63Z"/><path class="cls-13" d="M41.37,67.72,33,66.57c-4.89-.69-9.78-1.39-14.67-2-.69-.1-.73-.27-.45-.85Q21.31,56.34,24.7,49a.87.87,0,0,1,1.06-.6c4.61.53,9.23,1,13.85,1.51,2.5.26,5,.59,7.49.8.88.07.81.4.58,1-1.57,4.34-3.12,8.69-4.68,13l-.9,2.57C42,67.6,41.87,67.84,41.37,67.72Z"/><path class="cls-10" d="M33.68,79.21a5,5,0,0,1,3.38,1.23A3.14,3.14,0,0,1,36,86a5.06,5.06,0,0,1-4.6-.61,3.48,3.48,0,0,1-1.68-3.66A3.69,3.69,0,0,1,33,79.21C33.21,79.19,33.45,79.21,33.68,79.21Z"/><path class="cls-10" d="M13.63,76a4.26,4.26,0,0,1,3.43,1.6,2.55,2.55,0,0,1-.46,3.78,4.3,4.3,0,0,1-6.17-1.48c-.77-1.71.39-3.51,2.48-3.85C13.14,76.05,13.37,76.05,13.63,76Z"/><path class="cls-15" d="M114.86,51.83c.45-.41.59-1.07,1.15-1.39.16,1.27.31,2.55.47,3.82a9.79,9.79,0,0,0-4.09,3.9,2.19,2.19,0,0,0,.86-.51,7.68,7.68,0,0,1,2-1.45c.45-.25.91-.66,1.52-.35l.27,2c-.25.35-.63.27-1,.24a4.34,4.34,0,0,0-4.23,2.21c-.13.2-.18.59-.51.5s-.16-.45-.28-.68c-.27-.47,0-1.16-.6-1.51.58-1.19,1.48-2.17,2.14-3.31ZM112,58.66c0-.06.09-.13.14-.2l-.07,0-.08.23-.07.08Z"/><path class="cls-7" d="M110.41,58.64c.61.35.33,1,.6,1.51.12.23,0,.61.28.68s.38-.3.51-.5A4.34,4.34,0,0,1,116,58.12c.33,0,.71.11,1-.24a12.62,12.62,0,0,1,.3,2.45c-.11.65-.65,1.06-1,1.6-2.18-.39-4.35-.8-6.54-1.15-.73-.12-.81-.34-.33-.89C109.81,59.5,110.1,59.06,110.41,58.64Z"/><path class="cls-9" d="M114.86,51.83l-2.31,3.5c-.32-.72-1.2-.55-1.65-1,.22-.84,1-1.09,1.65-1.39A9.89,9.89,0,0,1,114.86,51.83Z"/><path class="cls-7" d="M116.72,55.85c-.61-.31-1.07.1-1.52.35a7.68,7.68,0,0,0-2,1.45,2.19,2.19,0,0,1-.86.51,9.79,9.79,0,0,1,4.09-3.9Z"/><path class="cls-16" d="M116.34,61.93c.3-.54.84-1,1-1.6.17.19.14.42.17.65C117.62,62.21,117.62,62.21,116.34,61.93Z"/><path class="cls-14" d="M56.63,96.78c-2.76.16-4.59-2-5-4.44a8.41,8.41,0,0,1,3-8,6.79,6.79,0,0,1,4-1.91,5.07,5.07,0,0,1,5.4,5.08,9.87,9.87,0,0,1-2.72,7.33A6.39,6.39,0,0,1,56.63,96.78Z"/><path class="cls-7" d="M112,58.65l.08-.23.07,0c0,.07-.09.14-.14.2Z"/><path class="cls-7" d="M112,58.66l-.08.07.07-.08Z"/></g></svg>