<svg id="Layer_1" data-name="Layer 1" xmlns="http://www.w3.org/2000/svg" viewBox="0 0 140 140"><defs><style>.cls-1{fill:#e5e8f9;}.cls-2{fill:#ff8e04;}.cls-3{fill:#587bb7;}.cls-4{fill:#fff;}</style></defs><rect class="cls-1" width="140" height="140"/><rect class="cls-2" x="33.88" y="17.6" width="81.83" height="94.73" rx="6.64"/><rect class="cls-3" x="24.21" y="27.67" width="81.83" height="94.73" rx="8.18"/><path class="cls-4" d="M65,95.18,64.43,95a147.88,147.88,0,0,1-14.68-7.62c-7.44-4.52-7.66-15.25-7.67-15.71L43.2,44,65,36.52l21.77,6.73.09,1c.1,1.07,2.42,26.24.79,34.54C85.92,87.48,67.57,94.25,65.49,95ZM46,46l-1,25.63s.23,9.54,6.31,13.23a141,141,0,0,0,13.82,7.21c5.6-2.08,18.62-8,19.78-13.92,1.38-7-.33-28-.75-32.77L65,39.52Z"/><path class="cls-4" d="M65,88.2,64.47,88a108.49,108.49,0,0,1-11-5.72c-5.74-3.49-5.91-11.72-5.91-12.07l.84-21L65,43.51l16.65,5.14.09,1c.07.81,1.81,19.7.58,26C81,82.31,67.1,87.44,65.52,88Zm-14.62-18s.17,6.93,4.55,9.59A107.06,107.06,0,0,0,65.1,85.12c5.41-2,13.7-6.35,14.44-10.1,1-5.11-.2-20.25-.54-24.2L65.06,46.51,51.14,51.27l-.77,18.95Z"/><rect class="cls-4" x="56.81" y="102.03" width="39.1" height="2.86"/><rect class="cls-4" x="56.81" y="108.75" width="32.92" height="2.86"/><polygon class="cls-4" points="42.72 112.16 37.48 107.78 39.32 105.59 42.42 108.19 46.74 103.32 48.88 105.21 42.72 112.16"/><path class="cls-4" d="M43.26,116.8a10,10,0,1,1,10-10A10,10,0,0,1,43.26,116.8Zm0-17.16a7.16,7.16,0,1,0,7.15,7.16A7.16,7.16,0,0,0,43.26,99.64Z"/></svg>