<svg id="Layer_1" data-name="Layer 1" xmlns="http://www.w3.org/2000/svg" viewBox="0 0 140 140"><defs><style>.cls-1{fill:#e5e8f9;}.cls-2{fill:#435a8c;}.cls-3{fill:#fff;}.cls-4{fill:#ff8e04;}.cls-5{fill:#4bcef7;}</style></defs><rect class="cls-1" width="140" height="140"/><g id="WNEChN"><path class="cls-2" d="M118.66,76c.46.59.13,1.23,0,1.82a42.05,42.05,0,0,1-2.06,8.27c-.85,2.25-1.83,4.46-2.87,6.64a42.73,42.73,0,0,1-5.45,8.38,50.36,50.36,0,0,1-6.42,6.56,48.77,48.77,0,0,1-8.48,5.84,49.3,49.3,0,0,1-9.78,4,61.92,61.92,0,0,1-8.94,1.74c-.8.11-.89,0-.89-.76q0-3.75,0-7.49c0-.18.05-.35.06-.53s-.1-.78.08-1,.62-.12,1-.16a39.66,39.66,0,0,0,34.17-33.25,49,49,0,0,0,.38-8.48c0-.16.15-.32.23-.49l1.56,1.49,2.18,2.12a1.93,1.93,0,0,0,.22.28q1.74,1.77,3.49,3.53C117.64,75,118.15,75.48,118.66,76Z"/><path class="cls-2" d="M113.43,70.69l-2.18-2.12-1.56-1.49a5.26,5.26,0,0,1-.42-1.31,35.34,35.34,0,0,0-1.44-7.2,38.55,38.55,0,0,0-5.11-10.76,40.11,40.11,0,0,0-8.37-9A38.73,38.73,0,0,0,86.43,34a40.51,40.51,0,0,0-10.16-3.11c-.68-.11-1.37-.14-2-.26a.61.61,0,0,1-.4-.43c0-3.13,0-6.25,0-9.45.84.08,1.64.12,2.42.25,1.54.26,3.08.56,4.62.86a43.76,43.76,0,0,1,8,2.5,49.52,49.52,0,0,1,27.59,28.9,48.33,48.33,0,0,1,2.48,10.28,10.43,10.43,0,0,1,.11,1.11,1.88,1.88,0,0,1-.21.57c-.92.93-1.84,1.85-2.75,2.79S114.3,69.79,113.43,70.69Z"/><circle class="cls-3" cx="69.74" cy="69.38" r="39.7"/><path class="cls-4" d="M20.64,66.06a49.35,49.35,0,0,1,11.58-28L39.16,45c-.67.9-1.43,1.85-2.1,2.86a36.88,36.88,0,0,0-4.79,9.88c-.51,1.71-.94,3.45-1.34,5.18a22.05,22.05,0,0,0-.35,2.57c0,.41-.19.6-.67.59-2.4,0-4.81,0-7.21,0Z"/><path class="cls-4" d="M37.9,107.64l6.93-6.92,2,1.45a38,38,0,0,0,7.73,4.35,40.66,40.66,0,0,0,8.56,2.53c.75.13,1.52.22,2.28.3A.59.59,0,0,1,66,110c0,2.71,0,5.43,0,8.14v1.09A49.27,49.27,0,0,1,37.9,107.64Z"/><path class="cls-4" d="M65.78,23.39a1.53,1.53,0,0,1,.15.44c0,2.22,0,4.44,0,6.75a39.61,39.61,0,0,0-21,8.69l-7-6.93c1-.8,2-1.6,3-2.35a48.09,48.09,0,0,1,8.64-5,44.24,44.24,0,0,1,9.31-3.09c1.28-.26,2.57-.51,3.87-.74a4.08,4.08,0,0,1,.84.07Z"/><path class="cls-4" d="M23.69,74.26a1.86,1.86,0,0,1,.7-.3c1.67,0,3.35,0,5,0,.8,0,1,.22,1.19,1,.31,1.58.55,3.17.92,4.73a36.77,36.77,0,0,0,3.48,9,37.89,37.89,0,0,0,3.92,5.94c.2.25.35.42,0,.73-2,1.94-3.91,3.89-5.85,5.84l-.84.78c-.73-.91-1.49-1.76-2.12-2.7-1.25-1.85-2.52-3.71-3.62-5.65a42.18,42.18,0,0,1-4-9.78c-.57-2.16-1-4.36-1.44-6.55a1.84,1.84,0,0,1,.12-.63Z"/><path class="cls-2" d="M113.43,70.69c.87-.9,1.73-1.8,2.6-2.69s1.83-1.86,2.75-2.79c.11.13.31.25.31.38.09,2,.2,4,.19,5.94,0,1.37-.18,2.74-.29,4.11,0,.18.1.54-.33.32-.51-.48-1-1-1.52-1.46q-1.76-1.75-3.49-3.53A1.93,1.93,0,0,1,113.43,70.69Z"/><path class="cls-2" d="M91.24,55.9c-1.2-1.18-2.95-2.81-4.17-4-.17.18-.86.84-1.27,1.25a2,2,0,0,0-.29.29,21.59,21.59,0,0,1-1.72,1.73L77.22,61.7C75.12,63.8,73,65.9,71,68c-1.31,1.31-2.61,2.61-3.91,3.93C66,73,64.93,74.1,63.76,75.31l-10.94-11-6.4,6.41,17.42,17.4Q78.69,73.23,93.68,58.24C92.87,57.46,92.07,56.67,91.24,55.9ZM86.7,53.3l0-.1a.46.46,0,0,1,0,.1Z"/><path class="cls-5" d="M23.69,74.26c-.84.81-1.69,2.77-2.52,3.59A8.09,8.09,0,0,1,21,76.56c-.09-.73-.19-1.47-.24-2.21,0-.13.22-.39.34-.39.78,0,4.41,0,5.19,0A22.21,22.21,0,0,0,23.69,74.26Z"/><path class="cls-5" d="M65.78,23.39,63.59,21.2c0-.07,0-.21.09-.21l2.24-.25c0,.86,0,1.68,0,2.5C65.92,23.29,65.83,23.34,65.78,23.39Z"/><path class="cls-3" d="M87.78,52.11l.11.15h-.15l.06-.15Z"/></g></svg>