<svg xmlns="http://www.w3.org/2000/svg" width="191" height="176.627" viewBox="0 0 191 176.627">
  <g id="Group_368" data-name="Group 368" transform="translate(-850 -3339.686)">
    <g id="cooperation" transform="translate(850 3332.5)">
      <path id="Path_398" data-name="Path 398" d="M190.158,130.6l-13.175-13.174a2.877,2.877,0,0,0-4.069,4.069l1.835,1.835-44.229,44.23-15.778-15.778,44.23-44.229,4.509,4.509A2.877,2.877,0,0,0,167.549,108l-6.528-6.528c-5.172-5.3-8.57-11.345-13.357-17.015,5.469-7.345-.319-18.1-9.429-17.653a11.21,11.21,0,0,0-11.583-11.589A11.218,11.218,0,0,0,115.06,43.625c.5-10.555-12.7-15.3-19.561-7.679l-.678-.678A11.066,11.066,0,0,0,75.941,43.63,11.2,11.2,0,0,0,64.348,55.218a11.057,11.057,0,0,0-7.263,2.268A13.8,13.8,0,0,0,45.109,58.94a15.862,15.862,0,0,0-7.664,13.095L34.186,97.261.843,130.6a2.877,2.877,0,0,0,0,4.069l48.3,48.3a2.877,2.877,0,0,0,4.069,0l29.152-29.152a2.877,2.877,0,0,0,0-4.069l-4.9-4.9c5.5-5.5,11.013-8.283,18.035-11.456,6.968,3.148,12.585,6.006,18.035,11.456l-4.9,4.9a2.878,2.878,0,0,0,0,4.069l29.152,29.152a2.878,2.878,0,0,0,4.07,0l48.3-48.3a2.879,2.879,0,0,0,0-4.069ZM138.765,72.542a5.409,5.409,0,0,1,4.862,7.47c-2.312-2.359-4.665-4.68-7-7.016l2.139-.455ZM127.177,60.952a5.393,5.393,0,0,1,4.863,7.468,32.389,32.389,0,0,0-8.4-6.11,5.28,5.28,0,0,1,3.533-1.358ZM49.15,82.295l-.678-.678A5.316,5.316,0,0,1,55.99,74.1l.677.677-3.759,3.759ZM83.235,39.337a5.322,5.322,0,0,1,7.518,0l.678.678-7.518,7.518-.678-.678a5.323,5.323,0,0,1,0-7.518ZM70.09,54.683a5.318,5.318,0,0,1,9.075-3.759l.678.678-3.759,3.759L72.324,59.12l-.678-.678A5.281,5.281,0,0,1,70.09,54.683Zm-6.271,6.274a5.3,5.3,0,0,1,3.759,1.555l.678.678-7.518,7.518-.678-.678a5.314,5.314,0,0,1,3.759-9.073ZM48.127,63.839a8.6,8.6,0,0,1,5.278-1.32,11.128,11.128,0,0,0-.64,4.286,11.2,11.2,0,0,0-9.52,4.587,10.329,10.329,0,0,1,4.881-7.553Zm3.048,113.028L6.947,132.638l5.236-5.236,44.229,44.229Zm57.148-43.995a36.956,36.956,0,0,0-6.418-3.172,65.076,65.076,0,0,0,7.772-7.093,2.877,2.877,0,1,0-4.069-4.069c-3.49,3.49-6.9,6.868-11.388,9.1-7.864,3.932-14.5,6.818-20.824,13.146L48.931,116.318a2.877,2.877,0,0,0-4.069,4.069l31.4,31.4L60.482,167.562l-44.23-44.229,15.778-15.778,2.849,2.849a2.877,2.877,0,0,0,4.069-4.069L36.1,103.486l2.85-2.85a2.879,2.879,0,0,0,.819-1.666l2.194-16.98c1.048,2.616,3.208,4.463,5.148,6.4a2.9,2.9,0,0,0,4.075.006l49.063-49.064c4.794-4.794,12.33,2.71,7.519,7.52a2.877,2.877,0,1,0,4.069,4.069c4.85-4.85,12.366,2.669,7.517,7.517a2.869,2.869,0,0,0-.842,2.034c0-.665-22.858-.354-24.706-.354-12.526,0-14.606,18.552-2.227,20.967l14.267,4.225a14.025,14.025,0,0,1,5.922,3.524l11.771,11.771-8.306,8.306a2.877,2.877,0,1,0,4.069,4.069l10.341-10.341a2.877,2.877,0,0,0,0-4.069L115.836,84.769a19.8,19.8,0,0,0-8.357-4.972L93.07,75.529c-5.308-1.571-5.806-9.653.735-9.653h20.444c5.553,0,10.3,3.183,14.1,6.978,0,0,12.48,12.531,13.324,13.475,4.918,5.47,8.065,11.989,13.232,17.155l-37.3,37.3a52.766,52.766,0,0,0-9.281-7.91Zm31.5,43.995-5.236-5.236L178.818,127.4l5.236,5.236Z" fill="#435a8c"/>
      <path id="Path_399" data-name="Path 399" d="M95.5,18.824a2.877,2.877,0,0,0,2.877-2.877V10.064a2.877,2.877,0,1,0-5.755,0v5.882A2.877,2.877,0,0,0,95.5,18.824Z" fill="#435a8c"/>
      <path id="Path_400" data-name="Path 400" d="M79.275,19.888a2.877,2.877,0,1,0,5.272-2.306l-2.357-5.389A2.877,2.877,0,0,0,76.917,14.5Z" fill="#435a8c"/>
      <path id="Path_401" data-name="Path 401" d="M68.623,28.847a2.877,2.877,0,0,0,3.907-4.225l-4.319-3.994A2.877,2.877,0,0,0,64.3,24.853Z" fill="#435a8c"/>
      <path id="Path_402" data-name="Path 402" d="M107.937,21.371a2.875,2.875,0,0,0,3.789-1.484l2.357-5.389a2.877,2.877,0,0,0-5.273-2.305l-2.357,5.389A2.878,2.878,0,0,0,107.937,21.371Z" fill="#435a8c"/>
      <path id="Path_403" data-name="Path 403" d="M120.424,29.612a2.867,2.867,0,0,0,1.953-.765l4.319-3.994a2.877,2.877,0,1,0-3.907-4.225l-4.319,3.994a2.877,2.877,0,0,0,1.954,4.99Z" fill="#435a8c"/>
      <circle id="Ellipse_66" data-name="Ellipse 66" cx="3.242" cy="3.242" r="3.242" transform="translate(56.603 149.673) rotate(-13.3)" fill="#435a8c"/>
    </g>
  </g>
</svg>
