<svg id="Layer_1" data-name="Layer 1" xmlns="http://www.w3.org/2000/svg" viewBox="0 0 140 140"><defs><style>.cls-1{fill:#e5e8f9;}.cls-2{fill:#abeee4;}.cls-3{fill:#e0f9f5;}.cls-4{fill:#ff8e04;}.cls-5{fill:#587bb7;}.cls-6{fill:#213b6e;}.cls-7{fill:#f1f0f0;}.cls-8{fill:#fd3e3f;}</style></defs><rect class="cls-1" width="140" height="140"/><g id="lzFUHk"><path class="cls-2" d="M125.87,18.76l-.82,0H17.31c-.23,0-.48.08-.69-.09.25-.17.53-.09.8-.09H125.87Z"/><path class="cls-3" d="M125.87,18.54H17.42c-.27,0-.55-.08-.8.09l-.32,0-.24,0c.05-.06-.1-.23.11-.22s.26,0,.39,0H125.38C125.54,18.44,125.75,18.31,125.87,18.54Z"/><path class="cls-4" d="M92.05,25.45a25.09,25.09,0,0,1,16.16,6.17,25.53,25.53,0,0,1,8.2,12.76,26.28,26.28,0,0,1-6.92,26.07,25.22,25.22,0,0,1-9.4,5.88,25.54,25.54,0,0,1-9.8,1.47,21.31,21.31,0,0,1-6.19-1.1,4.91,4.91,0,0,0-3.5.07c-4.45,1.63-8.93,3.2-13.4,4.8A3.08,3.08,0,0,1,63.49,77c1.77-2.92,3.54-5.84,5.34-8.74a3.35,3.35,0,0,0,.08-3.75,26,26,0,0,1-3.33-14.31A25.69,25.69,0,0,1,72.28,34a25.24,25.24,0,0,1,10.15-6.9A27.15,27.15,0,0,1,92.05,25.45Zm1.88,11.27c-.1-.42-.4-.25-.66-.23a24.65,24.65,0,0,1-4,0,8,8,0,0,0-1.83.07c-.14,0-.1.12-.08.21-1.29.59-1.57,1.66-1.52,3,.07,1.82,0,3.66,0,5.49,0,.53-.19.69-.71.69-2,0-4,0-6,0a2.17,2.17,0,0,0-2.38,2.24c0,2.17,0,4.35,0,6.53a2.19,2.19,0,0,0,2.35,2.25c2-.06,4,0,6,0,.74,0,.77,0,.77.77,0,2.07,0,4.14,0,6.21A2.09,2.09,0,0,0,88,66.1h6.54a2.07,2.07,0,0,0,1.64-.73,2.47,2.47,0,0,0,.54-1.79V57.71c0-.76,0-.79.77-.79,2,0,4,0,6,0a2.24,2.24,0,0,0,2.32-2.33c-.07-2-.09-4.07,0-6.09a2.32,2.32,0,0,0-2.61-2.62c-1.9.07-3.8,0-5.7,0-.75,0-.76,0-.76-.78V39.21A2.27,2.27,0,0,0,95.65,37c-.18-.11-.35-.2-.53-.29-.33-.36-.67-.26-1,0Z"/><path class="cls-5" d="M44.39,70.9a5.15,5.15,0,0,0-.66,5.74A43.77,43.77,0,0,0,49,85.06a69.73,69.73,0,0,0,6.18,7,55.38,55.38,0,0,0,10.73,8.62,9.18,9.18,0,0,0,3,1.32,4.59,4.59,0,0,0,3.57-.86,1.19,1.19,0,0,1,.46-.27.57.57,0,0,0,.36.24c.86.28,1.73.56,2.59.86,2.77.94,5.53,1.92,8.32,2.8,1.71.54,3.42,1.11,5.13,1.66,2.08.67,4.14,1.42,6.21,2.11s4.15,1.31,6.21,2c.38.13.89.12,1.13.57a12.66,12.66,0,0,1-2.53,5,14.38,14.38,0,0,1-7.57,5,15.75,15.75,0,0,1-5.76.41c-1.84-.18-3.67-.35-5.5-.62a79.15,79.15,0,0,1-12.33-2.81,63.77,63.77,0,0,1-16.78-8,55.71,55.71,0,0,1-7.24-5.86,65.69,65.69,0,0,1-8-9.11,59.59,59.59,0,0,1-4.32-7A62.11,62.11,0,0,1,29,79.46a70.5,70.5,0,0,1-2.38-8.32,78.61,78.61,0,0,1-1.51-9.4,60.87,60.87,0,0,1-.4-8.1,14.69,14.69,0,0,1,9.92-13.25,3.69,3.69,0,0,1,1.27-.3,12.84,12.84,0,0,0,.65,2.58c.42,1.49.73,3,1.19,4.51.62,2,1.12,4,1.7,6s1.18,4.29,1.77,6.43S42.4,63.94,43,66.08C43.44,67.69,43.92,69.3,44.39,70.9Z"/><path class="cls-6" d="M44.39,70.9c-.47-1.6-1-3.21-1.4-4.82-.59-2.14-1.16-4.28-1.75-6.43s-1.16-4.29-1.77-6.43-1.08-4-1.7-6c-.46-1.48-.77-3-1.19-4.51a12.84,12.84,0,0,1-.65-2.58,4.42,4.42,0,0,1,1.79-.41c1.05-.24,2.13-.32,3.18-.52a4.87,4.87,0,0,1,5.65,3.68c.72,2.77,1.48,5.53,2.23,8.3s1.57,5.76,2.38,8.64A5.12,5.12,0,0,1,49.92,65c-1.71,1.85-3.41,3.71-5.13,5.56C44.67,70.68,44.58,70.85,44.39,70.9Z"/><path class="cls-6" d="M102.88,111.14c-.24-.45-.75-.44-1.13-.57-2.06-.7-4.14-1.33-6.21-2s-4.13-1.44-6.21-2.11c-1.71-.55-3.42-1.12-5.13-1.66-2.79-.88-5.55-1.86-8.32-2.8-.86-.3-1.73-.58-2.59-.86a.57.57,0,0,1-.36-.24,29.59,29.59,0,0,1,2.46-2.17c1.18-1,2.42-2,3.59-3.06a5,5,0,0,1,5.26-.94l7.22,2.35c2.32.76,4.65,1.51,7,2.3a17,17,0,0,1,3.53,1.3,4.89,4.89,0,0,1,2.24,4.79c-.34,1.75-.64,3.51-1.11,5.24C103,110.86,103,111,102.88,111.14Z"/><path class="cls-7" d="M95.12,36.75c.18.09.35.18.53.29a2.27,2.27,0,0,1,1.1,2.17v5.93c0,.77,0,.78.76.78,1.9,0,3.8,0,5.7,0a2.32,2.32,0,0,1,2.61,2.62c-.09,2-.07,4.06,0,6.09a2.24,2.24,0,0,1-2.32,2.33c-2-.06-4,0-6,0-.74,0-.77,0-.77.79v5.87a2.47,2.47,0,0,1-.54,1.79,2.07,2.07,0,0,1-1.64.73H88a2.09,2.09,0,0,1-2.2-2.2c0-2.07,0-4.14,0-6.21,0-.73,0-.77-.77-.77-2,0-4,0-6,0a2.19,2.19,0,0,1-2.35-2.25c0-2.18,0-4.36,0-6.53a2.17,2.17,0,0,1,2.38-2.24c2,0,4,0,6,0,.52,0,.71-.16.71-.69,0-1.83,0-3.67,0-5.49,0-1.32.23-2.39,1.52-3h1l5.57,0h.17Z"/><path class="cls-8" d="M93.93,36.72l-5.57,0h-1c0-.09-.06-.2.08-.21a8,8,0,0,1,1.83-.07,24.65,24.65,0,0,0,4,0C93.53,36.47,93.83,36.3,93.93,36.72Z"/><path class="cls-8" d="M95.12,36.75l-1,0C94.45,36.49,94.79,36.39,95.12,36.75Z"/></g></svg>