<svg xmlns="http://www.w3.org/2000/svg" width="192" height="144.353" viewBox="0 0 192 144.353">
  <g id="Group_370" data-name="Group 370" transform="translate(-483 -3355.823)">
    <g id="fast-time" transform="translate(483 3332)">
      <path id="Path_404" data-name="Path 404" d="M14.577,55.954H44.239a2.813,2.813,0,0,0,0-5.625H14.577a2.813,2.813,0,1,0,0,5.625Z" fill="#435a8c"/>
      <path id="Path_405" data-name="Path 405" d="M43.222,69.494H31.5a2.813,2.813,0,1,0,0,5.625H43.222a2.813,2.813,0,0,0,0-5.625Z" fill="#435a8c"/>
      <path id="Path_406" data-name="Path 406" d="M2.813,89H31.5a2.813,2.813,0,0,0,0-5.625H2.813a2.813,2.813,0,0,0,0,5.625Z" fill="#435a8c"/>
      <path id="Path_407" data-name="Path 407" d="M47.051,138.858a2.812,2.812,0,0,0-2.812-2.812H14.577a2.813,2.813,0,1,0,0,5.625H44.239A2.812,2.812,0,0,0,47.051,138.858Z" fill="#435a8c"/>
      <path id="Path_408" data-name="Path 408" d="M43.222,116.881H31.5a2.813,2.813,0,1,0,0,5.625H43.222a2.813,2.813,0,0,0,0-5.625Z" fill="#435a8c"/>
      <path id="Path_409" data-name="Path 409" d="M34.317,105.815A2.812,2.812,0,0,0,31.5,103H2.813a2.813,2.813,0,0,0,0,5.625H31.5A2.812,2.812,0,0,0,34.317,105.815Z" fill="#435a8c"/>
      <path id="Path_410" data-name="Path 410" d="M119.823,62.186a2.812,2.812,0,0,0,2.813-2.812V55.081a2.813,2.813,0,0,0-5.625,0v4.293A2.812,2.812,0,0,0,119.823,62.186Z" fill="#435a8c"/>
      <path id="Path_411" data-name="Path 411" d="M150.746,65.077a2.813,2.813,0,0,0-3.978,0l-3.036,3.036a2.813,2.813,0,1,0,3.978,3.978l3.036-3.036A2.813,2.813,0,0,0,150.746,65.077Z" fill="#435a8c"/>
      <path id="Path_412" data-name="Path 412" d="M156.45,93.188a2.813,2.813,0,0,0,0,5.625h4.293a2.813,2.813,0,0,0,0-5.625Z" fill="#435a8c"/>
      <path id="Path_413" data-name="Path 413" d="M147.711,119.91a2.813,2.813,0,1,0-3.978,3.978l3.036,3.036a2.813,2.813,0,0,0,3.978-3.978Z" fill="#435a8c"/>
      <path id="Path_414" data-name="Path 414" d="M117.011,132.626v4.293a2.812,2.812,0,0,0,5.625,0v-4.293a2.813,2.813,0,0,0-5.625,0Z" fill="#435a8c"/>
      <path id="Path_415" data-name="Path 415" d="M91.936,119.91,88.9,122.945a2.812,2.812,0,0,0,3.977,3.978l3.036-3.036a2.812,2.812,0,0,0-3.977-3.978Z" fill="#435a8c"/>
      <path id="Path_416" data-name="Path 416" d="M78.9,93.188a2.813,2.813,0,0,0,0,5.625H83.2a2.813,2.813,0,0,0,0-5.625Z" fill="#435a8c"/>
      <path id="Path_417" data-name="Path 417" d="M95.913,68.112l-3.036-3.036A2.812,2.812,0,0,0,88.9,69.054l3.036,3.036a2.812,2.812,0,0,0,3.977-3.978Z" fill="#435a8c"/>
      <path id="Path_418" data-name="Path 418" d="M134.947,96a2.812,2.812,0,0,0-2.812-2.812h-9.5V72.306a2.812,2.812,0,0,0-5.625,0V96a2.812,2.812,0,0,0,2.813,2.813h12.311A2.812,2.812,0,0,0,134.947,96Z" fill="#435a8c"/>
      <path id="Path_419" data-name="Path 419" d="M173.153,95.536a2.812,2.812,0,0,0,2.637-2.978,56.035,56.035,0,1,0-.518,11.833,2.813,2.813,0,0,0-5.563-.835,50.487,50.487,0,1,1,.465-10.657,2.814,2.814,0,0,0,2.978,2.636Z" fill="#435a8c"/>
      <path id="Path_420" data-name="Path 420" d="M119.823,23.823a72.149,72.149,0,0,0-28.507,5.89H41.693a2.813,2.813,0,0,0,0,5.625H80.735A72.1,72.1,0,0,0,66.312,47.565a2.812,2.812,0,0,0,4.169,3.776,66.417,66.417,0,1,1-6.595,8.589,2.812,2.812,0,0,0-4.725-3.053,72.158,72.158,0,0,0,21.591,99.783H41.693a2.813,2.813,0,0,0,0,5.625H91.278A72.174,72.174,0,1,0,119.823,23.823Z" fill="#435a8c"/>
    </g>
  </g>
</svg>
