<svg xmlns="http://www.w3.org/2000/svg" width="172" height="144.258" viewBox="0 0 172 144.258">
  <g id="Group_369" data-name="Group 369" transform="translate(-1216 -3347.484)">
    <g id="file" transform="translate(1216 3347.484)">
      <path id="Path_421" data-name="Path 421" d="M172.323,24.129a2.774,2.774,0,0,0,0-5.548,13.887,13.887,0,0,0-13.871,13.871v72.129h-11.1V49.1a2.774,2.774,0,0,0-.813-1.962L118.8,19.393a2.774,2.774,0,0,0-1.962-.812H44.71A13.887,13.887,0,0,0,30.839,32.452V71.29h-11.1V32.452A13.887,13.887,0,0,0,5.871,18.581a2.774,2.774,0,0,0,0,5.548,8.332,8.332,0,0,1,8.323,8.323V71.29H8.645a2.774,2.774,0,0,0-2.774,2.774V90.71a2.774,2.774,0,0,0,2.774,2.774h5.548v55.484a8.332,8.332,0,0,1-8.323,8.323,2.774,2.774,0,1,0,0,5.548,13.887,13.887,0,0,0,13.871-13.871V93.484h11.1v55.484A13.887,13.887,0,0,0,44.71,162.839h88.774a13.887,13.887,0,0,0,13.871-13.871V126.774h11.1v22.194a13.887,13.887,0,0,0,13.871,13.871,2.774,2.774,0,0,0,0-5.548A8.332,8.332,0,0,1,164,148.968V126.774h5.548A2.774,2.774,0,0,0,172.323,124V107.355a2.774,2.774,0,0,0-2.774-2.774H164V32.452a8.332,8.332,0,0,1,8.323-8.323Zm-52.71,3.923,18.27,18.27h-9.948A8.332,8.332,0,0,1,119.613,38Zm-86,59.883H11.419v-11.1H33.613a2.774,2.774,0,0,0,2.774-2.774V71.29l14.8,11.1-14.8,11.1V90.71A2.774,2.774,0,0,0,33.613,87.935Zm108.194,61.032a8.332,8.332,0,0,1-8.323,8.323H44.71a8.332,8.332,0,0,1-8.323-8.323V100.419L57.471,84.606a2.774,2.774,0,0,0,0-4.439L36.387,64.355v-31.9a8.332,8.332,0,0,1,8.323-8.323h69.355V38a13.887,13.887,0,0,0,13.871,13.871h13.871V97.645l-21.084,15.813a2.774,2.774,0,0,0,0,4.439l21.084,15.813Zm24.968-38.839v11.1H144.581A2.774,2.774,0,0,0,141.806,124v2.774l-14.8-11.1,14.8-11.1v2.774a2.774,2.774,0,0,0,2.774,2.774Z" transform="translate(-3.097 -18.581)" fill="#435a8c"/>
      <path id="Path_422" data-name="Path 422" d="M83.613,70.9a2.774,2.774,0,0,0,2.774,2.774h49.935a2.774,2.774,0,0,0,0-5.548H86.387A2.774,2.774,0,0,0,83.613,70.9Z" transform="translate(-11.484 -23.742)" fill="#435a8c"/>
      <path id="Path_423" data-name="Path 423" d="M105.161,89.484a2.774,2.774,0,0,0-2.774-2.774H80.194a2.774,2.774,0,0,0,0,5.548h22.194A2.774,2.774,0,0,0,105.161,89.484Z" transform="translate(-10.839 -25.677)" fill="#435a8c"/>
      <path id="Path_424" data-name="Path 424" d="M132.71,105.29H104.968a2.774,2.774,0,1,0,0,5.548H132.71a2.774,2.774,0,0,0,0-5.548Z" transform="translate(-13.419 -27.613)" fill="#435a8c"/>
      <path id="Path_425" data-name="Path 425" d="M110.9,123.871H55.419a2.774,2.774,0,1,0,0,5.548H110.9a2.774,2.774,0,1,0,0-5.548Z" transform="translate(-8.258 -29.548)" fill="#435a8c"/>
      <path id="Path_426" data-name="Path 426" d="M75.484,70.9a2.774,2.774,0,0,0-2.774-2.774h-11.1a2.774,2.774,0,0,0,0,5.548h11.1A2.774,2.774,0,0,0,75.484,70.9Z" transform="translate(-8.903 -23.742)" fill="#435a8c"/>
      <path id="Path_427" data-name="Path 427" d="M139.548,86.71H117.355a2.774,2.774,0,0,0,0,5.548h22.194a2.774,2.774,0,0,0,0-5.548Z" transform="translate(-14.71 -25.677)" fill="#435a8c"/>
      <path id="Path_428" data-name="Path 428" d="M61.613,110.839H89.355a2.774,2.774,0,1,0,0-5.548H61.613a2.774,2.774,0,1,0,0,5.548Z" transform="translate(-8.903 -27.613)" fill="#435a8c"/>
      <path id="Path_429" data-name="Path 429" d="M72.065,142.452H55.419a2.774,2.774,0,1,0,0,5.548H72.065a2.774,2.774,0,1,0,0-5.548Z" transform="translate(-8.258 -31.484)" fill="#435a8c"/>
      <path id="Path_430" data-name="Path 430" d="M91.484,52.323a2.774,2.774,0,0,0-2.774-2.774H55.419a2.774,2.774,0,0,0,0,5.548H88.71A2.774,2.774,0,0,0,91.484,52.323Z" transform="translate(-8.258 -21.806)" fill="#435a8c"/>
      <path id="Path_431" data-name="Path 431" d="M114.129,142.452H86.387a2.774,2.774,0,1,0,0,5.548h27.742a2.774,2.774,0,1,0,0-5.548Z" transform="translate(-11.484 -31.484)" fill="#435a8c"/>
      <path id="Path_432" data-name="Path 432" d="M126.968,145.226A2.774,2.774,0,0,0,129.742,148h5.548a2.774,2.774,0,0,0,0-5.548h-5.548A2.774,2.774,0,0,0,126.968,145.226Z" transform="translate(-16 -31.484)" fill="#435a8c"/>
    </g>
  </g>
</svg>
