<svg xmlns="http://www.w3.org/2000/svg" width="186.101" height="171.54" viewBox="0 0 186.101 171.54">
  <g id="headset" transform="translate(0 -20.031)">
    <g id="Group_800" data-name="Group 800" transform="translate(0 21.096)">
      <g id="Group_799" data-name="Group 799">
        <path id="Path_644" data-name="Path 644" d="M173.743,104.462v-1.874a80.82,80.82,0,0,0-66.268-79.4,3.635,3.635,0,0,0-1.3,7.153,73.363,73.363,0,0,1,60.295,72.248v1.093H159.2v-1.093a66.153,66.153,0,0,0-132.306,0v1.09h-7.27v-1.09A73.19,73.19,0,0,1,80.837,30.181a3.635,3.635,0,0,0-1.206-7.169,80.817,80.817,0,0,0-67.273,79.576v1.872A17.568,17.568,0,0,0,0,121.215v24.536a17.557,17.557,0,0,0,17.537,17.537h10.2a10.9,10.9,0,0,0,20.238-5.632V109.314A10.9,10.9,0,0,0,34.294,98.77a58.88,58.88,0,0,1,117.513,0,10.9,10.9,0,0,0-13.685,10.544v9.074a3.635,3.635,0,0,0,7.27,0v-9.074a3.635,3.635,0,1,1,7.27,0v48.343a3.635,3.635,0,1,1-7.27,0v-8.373a3.635,3.635,0,0,0-7.27,0v8.373a10.9,10.9,0,0,0,14.539,10.279V170.3a7.146,7.146,0,0,1-7.137,7.137H112.178a12.379,12.379,0,0,0-11.812-8.724H85.827a12.358,12.358,0,0,0,0,24.717h14.539a12.379,12.379,0,0,0,11.812-8.724h33.346A14.423,14.423,0,0,0,159.931,170.3v-7.013h8.633A17.557,17.557,0,0,0,186.1,145.754V121.218A17.568,17.568,0,0,0,173.743,104.462ZM26.17,156.019H17.537A10.279,10.279,0,0,1,7.27,145.752V121.215a10.279,10.279,0,0,1,10.268-10.268H26.17Zm10.9-50.34a3.639,3.639,0,0,1,3.635,3.635v48.343a3.635,3.635,0,1,1-7.27,0V109.314A3.639,3.639,0,0,1,37.075,105.679Zm63.292,80.487H85.827a5.089,5.089,0,1,1,0-10.177h14.539a5.089,5.089,0,1,1,0,10.177Zm78.465-40.411a10.279,10.279,0,0,1-10.268,10.268h-8.633V110.951h8.633a10.279,10.279,0,0,1,10.268,10.268Z" transform="translate(0 -22.96)" fill="#435a8c"/>
      </g>
    </g>
    <g id="Group_802" data-name="Group 802" transform="translate(89.416 20.031)">
      <g id="Group_801" data-name="Group 801">
        <path id="Path_645" data-name="Path 645" d="M249.951,20.031h-.316a3.635,3.635,0,1,0,0,7.27h.3a3.635,3.635,0,0,0,.012-7.27Z" transform="translate(-246 -20.031)" fill="#435a8c"/>
      </g>
    </g>
    <g id="Group_804" data-name="Group 804" transform="translate(138.122 127.988)">
      <g id="Group_803" data-name="Group 803">
        <path id="Path_646" data-name="Path 646" d="M386.2,318.105a3.632,3.632,0,1,0,1.065,2.57A3.661,3.661,0,0,0,386.2,318.105Z" transform="translate(-380 -317.04)" fill="#435a8c"/>
      </g>
    </g>
    <g id="Group_806" data-name="Group 806" transform="translate(55.249 84.016)">
      <g id="Group_805" data-name="Group 805">
        <path id="Path_647" data-name="Path 647" d="M210.941,196.067H168.663A16.682,16.682,0,0,0,152,212.73v21.264a16.682,16.682,0,0,0,16.663,16.663h10.065l8.209,10.244a3.635,3.635,0,0,0,2.809,1.362h.028a3.635,3.635,0,0,0,2.8-1.318l8.51-10.288h9.857A16.682,16.682,0,0,0,227.6,233.993V212.73A16.681,16.681,0,0,0,210.941,196.067Zm9.393,37.926a9.4,9.4,0,0,1-9.393,9.393H199.373a3.634,3.634,0,0,0-2.8,1.318l-6.755,8.166-6.509-8.122a3.635,3.635,0,0,0-2.837-1.362h-11.81a9.4,9.4,0,0,1-9.393-9.393V212.73a9.4,9.4,0,0,1,9.393-9.393h42.278a9.4,9.4,0,0,1,9.393,9.393v21.264Z" transform="translate(-152 -196.067)" fill="#435a8c"/>
      </g>
    </g>
    <g id="Group_808" data-name="Group 808" transform="translate(73.47 109.494)">
      <g id="Group_807" data-name="Group 807">
        <path id="Path_648" data-name="Path 648" d="M208.335,267.225a3.633,3.633,0,1,0,1.065,2.57A3.667,3.667,0,0,0,208.335,267.225Z" transform="translate(-202.13 -266.16)" fill="#435a8c"/>
      </g>
    </g>
    <g id="Group_810" data-name="Group 810" transform="translate(89.463 109.494)">
      <g id="Group_809" data-name="Group 809">
        <path id="Path_649" data-name="Path 649" d="M252.335,267.225a3.633,3.633,0,1,0,1.065,2.57A3.662,3.662,0,0,0,252.335,267.225Z" transform="translate(-246.13 -266.16)" fill="#435a8c"/>
      </g>
    </g>
    <g id="Group_812" data-name="Group 812" transform="translate(105.456 109.494)">
      <g id="Group_811" data-name="Group 811">
        <path id="Path_650" data-name="Path 650" d="M296.335,267.225a3.632,3.632,0,1,0,1.065,2.57A3.669,3.669,0,0,0,296.335,267.225Z" transform="translate(-290.13 -266.16)" fill="#435a8c"/>
      </g>
    </g>
  </g>
</svg>
