<svg xmlns="http://www.w3.org/2000/svg" xmlns:xlink="http://www.w3.org/1999/xlink" width="708" height="632" viewBox="0 0 708 632">
  <defs>
    <clipPath id="clip-Artboard_4">
      <rect width="708" height="632"/>
    </clipPath>
  </defs>
  <g id="Artboard_4" data-name="Artboard – 4" clip-path="url(#clip-Artboard_4)">
    <rect width="708" height="632" fill="#fff"/>
    <path id="Path_1014" data-name="Path 1014" d="M570.222,416.183A105.8,105.8,0,0,0,457.588,392.76l-16.907-16.869a36.7,36.7,0,0,0,3.855-3.336l42.183-42.092a36.662,36.662,0,0,0,0-51.816h0A36.66,36.66,0,0,0,458.759,268a41.436,41.436,0,0,0,.387-5.6,40.558,40.558,0,0,0-38.752-40.531,40.538,40.538,0,0,0-43.238-53.146,41.65,41.65,0,0,0,.273-4.671,40.276,40.276,0,0,0-11.875-28.714,40.769,40.769,0,0,0-57.5,0l-26.962,26.9-2.087-2.082a25.978,25.978,0,0,0-36.639.034l-8.947,8.927-26.076-26.041A104.78,104.78,0,0,0,89.9,1.933C84.991,2.856,70.055,5.667,66.989,17.1c-3,11.177,7.661,20.339,12.785,24.743.519.446,42.1,41.855,42.1,41.855a29.482,29.482,0,0,1,1.756,39.734,29.685,29.685,0,0,1-39.877-1.752S42.25,80.187,41.8,79.668c-4.414-5.111-13.6-15.741-24.78-12.74C5.6,70,2.779,84.9,1.855,89.786a104.756,104.756,0,0,0,28.815,93.791A105.805,105.805,0,0,0,143.3,207l30.189,30.121a72.818,72.818,0,0,0-4.773,30.52c1.432,23.616-11.087,46.779-41.862,77.455L94.8,377.08a28.937,28.937,0,0,0-33.6,5.228l-44.9,44.8a28.834,28.834,0,0,0,0,40.757l123.98,123.7a28.925,28.925,0,0,0,40.792,0l44.9-44.8a28.876,28.876,0,0,0,5.266-33.55l54.53-54.41c16.164-16.126,18.79-15.69,35.91-12.832,2.881.481,6.147,1.027,9.822,1.55,14.944,2.146,32.3-5.447,42.143-10.705l19.9,19.86a105.9,105.9,0,0,0-7.076,42.768,8.8,8.8,0,0,0,8.787,8.432c.124,0,.251,0,.377-.008a8.8,8.8,0,0,0,8.424-9.163,87.892,87.892,0,0,1,7.9-40.37,8.8,8.8,0,0,0-1.774-9.92L269.341,307.857a77.158,77.158,0,0,0,9.328-33.544,96.512,96.512,0,0,0,36.508,19.319c10.675,2.869,20.663,3.336,29.633,1.48,0,.1-.007.2-.007.3A40.562,40.562,0,0,0,383.528,335.9a36.857,36.857,0,0,0-1.588,10.745A36.571,36.571,0,0,0,418.6,383.256a36.845,36.845,0,0,0,4.284-.259l26.462,26.4a8.8,8.8,0,0,0,9.886,1.77,88.108,88.108,0,0,1,98.557,17.472A87.162,87.162,0,0,1,581.74,506.7a30.168,30.168,0,0,1-2.591,8.5c-1.265-.83-3.341-2.686-6.734-6.617-.762-.883-42.839-42.961-42.839-42.961a47.341,47.341,0,0,0-64.327-2.176,9.044,9.044,0,0,0-.843.84,47.124,47.124,0,0,0,2.182,64.241l49.66,49.422a30.477,30.477,0,0,1-8.515,2.578,87.181,87.181,0,0,1-94.224-45.809,8.8,8.8,0,1,0-15.665,8.031,104.641,104.641,0,0,0,93.408,56.927,106.483,106.483,0,0,0,19.741-1.849c4.909-.924,19.845-3.734,22.911-15.163,3-11.176-7.661-20.339-12.785-24.743-.519-.446-42.1-41.855-42.1-41.855a27.011,27.011,0,1,1,38.121-37.982s41.5,41.487,41.948,42.006c4.415,5.112,13.61,15.746,24.78,12.74,11.424-3.072,14.24-17.967,15.165-22.858a104.747,104.747,0,0,0-28.811-93.789ZM398.177,192.756a23.082,23.082,0,0,1,.322,32.2l-28.293,28.23c-4.858-7.038-31.585-33.547-31.585-33.547l26.934-26.875A23.132,23.132,0,0,1,398.177,192.756ZM320.491,147.8a23.137,23.137,0,0,1,32.63,0,23.043,23.043,0,0,1,0,32.5l-26.962,26.9-32.6-32.53ZM151.547,190.358a8.8,8.8,0,0,0-9.885-1.77A88.109,88.109,0,0,1,43.1,171.116,87.162,87.162,0,0,1,19.152,93.061a30.169,30.169,0,0,1,2.591-8.5c1.265.83,3.341,2.686,6.734,6.617.762.883,42.839,42.961,42.839,42.961a47.339,47.339,0,0,0,64.327,2.176,9.036,9.036,0,0,0,.843-.84A47.124,47.124,0,0,0,134.3,71.231S85.484,23.074,84.645,21.81a30.481,30.481,0,0,1,8.515-2.578,87.189,87.189,0,0,1,95.77,122.2,8.8,8.8,0,0,0,1.776,9.91l30.256,30.216-32.8,32.724a61.748,61.748,0,0,0-5.837,6.789Zm205.157,76.3a40.813,40.813,0,0,0-5.9,7.451c-18.749,11.617-48.395-1.179-63.148-15.39l-1.83-1.823c-13.486-13.44-20.659-20.6-21.32-21.273l-.035-.033c-.033-.033-.063-.068-.1-.1s-.094-.081-.141-.123a8.8,8.8,0,0,0-12.472,12.4c.032.033.085.088.177.182,6.008,5.995,9.183,14.392,9.183,24.283,0,15.559-7.951,32.782-21.27,46.07a8.8,8.8,0,0,0,12.435,12.461,100.119,100.119,0,0,0,7.126-7.942L360.532,423.733c-10.25,4.811-20.171,7.282-26.535,6.367-3.477-.5-6.634-1.023-9.419-1.488-20.4-3.4-29.535-3.923-51.242,17.734l-53.579,53.46-44.272-44.172a8.8,8.8,0,1,0-12.432,12.461l50.47,50.357,0,.006.006.006.009.009a11.23,11.23,0,0,1,0,15.834l-44.9,44.8a11.291,11.291,0,0,1-15.924,0L28.74,455.4a11.23,11.23,0,0,1,0-15.834l44.9-44.8a11.293,11.293,0,0,1,15.924,0l44.4,44.3a8.8,8.8,0,1,0,12.434-12.461L108.239,388.54l31.049-30.981c34.712-34.6,48.769-61.811,47-90.977-.891-14.883,4.591-30.152,14.3-39.845L254.8,172.652a8.447,8.447,0,0,1,11.771-.034l8.289,8.27,57.365,57.238c1.548,1.544,3.092,3.072,4.616,4.579,7.29,7.212,17.8,17.61,20.657,23.154Zm28.75,51.689a22.979,22.979,0,0,1-16.317-39.227l33.047-32.972a23.135,23.135,0,0,1,32.629,0l.009.008a22.986,22.986,0,0,1,0,32.488.068.068,0,0,0-.009.009L401.76,311.631a22.883,22.883,0,0,1-16.306,6.715ZM405.1,360.095a19.06,19.06,0,0,1,0-26.894l42.15-42.089a19.173,19.173,0,0,1,27.039,0h0a19.061,19.061,0,0,1,0,26.891L432.1,360.095a19.153,19.153,0,0,1-27.009,0Z" transform="translate(71.989 15.918)" fill="#ff7900"/>
  </g>
</svg>
