<svg id="Layer_1" data-name="Layer 1" xmlns="http://www.w3.org/2000/svg" viewBox="0 0 208 208"><defs><style>.cls-1{fill:#213b6e;}.cls-2{fill:#36474f;}.cls-3{fill:#49bdcc;}.cls-4{fill:#f8f8f8;}.cls-5{fill:#ff8e04;}.cls-6{fill:#587bb7;}.cls-7{fill:#465a65;}.cls-8{fill:#f8f9f9;}.cls-9{fill:#556f7a;}.cls-10{fill:#feb101;}.cls-11{fill:#ea5654;}</style></defs><g id="EGW1V7"><path class="cls-1" d="M72.61,162.13c-3.82,0-7.63-.06-11.45-.06l-51.9,0-.09,0h-.1c-.18-.09-.35-.19-.52-.29a5.31,5.31,0,0,1-2.45-5q0-69.09,0-138.18c0-2.24.39-4.18,2.86-5l.32-.07.68-.08c.25.37.5.5.72,0,.71-.06,1.42-.16,2.12-.16h182c.71,0,1.42.1,2.13.16.22.48.44.43.64,0,1.9-.27,3,.89,4,2.24l.29.51a.26.26,0,0,0,0,.19c0,5.85,0,11.7,0,17.54q0,61.4,0,122.79a5.32,5.32,0,0,1-.93,3.73,5,5,0,0,1-4.15,1.65q-29.62,0-59.25,0c-.71,0-1.43,0-2.14.07ZM18.25,40.38a.65.65,0,0,0,.28,0l-.27,1.4c-.56.54-.36,1.23-.36,1.86q0,47.56,0,95.11c0,.64-.2,1.33.36,1.86.14,1.44,1.25,1,2,1q71,0,142,0h25.57c.66,0,1.49.34,1.84-.62.47-.37.47-.74,0-1.1,0-.53-.1-1.07-.1-1.6q0-46.9,0-93.81c0-.53.07-1.06.1-1.6,0,0,.13-.08.13-.11s-.08-.17-.12-.26l-.24-2.05c.34-4.41,0-8.82.18-13.23,0-1.32-.3-1.69-1.68-1.68q-84,.06-168.07,0c-1.28,0-1.59.34-1.58,1.58,0,4.29,0,8.58-.07,12.87-.05,0-.13.09-.12.11A1.12,1.12,0,0,0,18.25,40.38Z"/><path class="cls-2" d="M10.69,13.45c-.22.52-.47.39-.72,0Z"/><path class="cls-2" d="M197.59,13.43c-.2.45-.42.5-.64,0Z"/><path class="cls-3" d="M8.55,161.77c.17.1.34.2.52.29C8.89,162,8.72,161.87,8.55,161.77Z"/><path class="cls-2" d="M9.29,13.55,9,13.62A.34.34,0,0,1,9.29,13.55Z"/><path class="cls-3" d="M201.86,16.18l-.29-.51Z"/><path class="cls-1" d="M72.61,162.13h62.8c0,6.14,0,12.28,0,18.42,0,1.44.34,2,1.88,1.95,4.41-.09,8.82,0,13.24,0,3.76,0,6.53,2.61,6.56,6.09s-2.79,6.14-6.55,6.14H57.65c-4,0-6.59-2.48-6.57-6.19s2.6-6,6.68-6c4.35,0,8.71,0,13.06,0,1.37,0,1.86-.3,1.83-1.77C72.57,174.54,72.61,168.33,72.61,162.13Z"/><path class="cls-4" d="M189.71,42.9c0,.54-.1,1.07-.1,1.6q0,46.91,0,93.81c0,.53.07,1.07.1,1.6V141c-.35,1-1.18.61-1.84.62H162.3q-71,0-142,0c-.79,0-1.9.46-2-1,0-.53.08-1.07.08-1.6V43.42c0-.54-.05-1.07-.08-1.61l.27-1.4,2.32,0H187.69c.6,0,1.19,0,1.79,0l.24,2.05ZM38.65,96.25h.73c.59,0,1.19.09,1.78.09H167.89c.48,0,1,0,1.43,0a3.31,3.31,0,0,0,3.28-3.16c.1-1.79-.9-3-2.87-3.45-.77,0-1.54-.13-2.3-.13H42.08c-.78,0-1.55.07-2.32.11a3.42,3.42,0,0,0-4.34,2.78A3.28,3.28,0,0,0,38.65,96.25Zm65.17-19h65.32c3,0,4.15-1.16,4.16-4.09q0-10.83,0-21.65c0-2.76-1.19-4-3.88-4q-65.32,0-130.64,0c-2.93,0-4.07,1.19-4.07,4.16V72.77c0,3.42,1,4.45,4.5,4.45Zm50.88,57.41h0c4.65,0,9.3,0,14,0,2.72,0,3.94-1.27,3.95-3.95q0-10.9,0-21.83c0-2.78-1.27-4-4.09-4q-13.68,0-27.38,0c-2.76,0-4,1.26-4,4q0,10.83,0,21.65c0,2.85,1.19,4.05,4,4.06C145.63,134.65,150.16,134.64,154.7,134.64ZM81.56,107.28H45.23c-2.21,0-4.41,0-6.62,0a3.13,3.13,0,0,0-3.09,2.52,3.23,3.23,0,0,0,1.32,3.63,4.63,4.63,0,0,0,2.91.64l83.39,0a8.29,8.29,0,0,0,2.12-.18,3.36,3.36,0,0,0-.58-6.58,14.37,14.37,0,0,0-1.61,0Zm0,24.47h41.16a16,16,0,0,0,2-.05,3.37,3.37,0,0,0,.56-6.59,7.69,7.69,0,0,0-2.48-.19q-41.25,0-82.5,0a15.24,15.24,0,0,0-1.79,0,3.39,3.39,0,0,0-3.06,3.74c.18,1.95,1.62,3.06,4.09,3.06Z"/><path class="cls-5" d="M189.48,40.48c-.6,0-1.19,0-1.79,0H20.85l-2.32,0a.65.65,0,0,1-.28,0V40c0-4.29.11-8.58.07-12.87,0-1.24.3-1.59,1.58-1.58q84,0,168.07,0c1.38,0,1.72.36,1.68,1.68C189.5,31.66,189.82,36.07,189.48,40.48Zm-70.62-3.33h61.92c.48,0,1,0,1.43,0,.84,0,1.18-.33,1.17-1.17,0-1.55,0-3.1,0-4.65,0-2.39,0-2.4-2.44-2.4H56.9a8.81,8.81,0,0,1-.89,0c-.94-.08-1.27.35-1.25,1.26a49.24,49.24,0,0,1,0,5c-.14,1.61.45,2,2,2Q87.8,37.11,118.86,37.15ZM30.31,33a2.87,2.87,0,0,0-3.1-2.75A2.75,2.75,0,0,0,24.52,33a2.94,2.94,0,0,0,2.88,3A3.09,3.09,0,0,0,30.31,33Zm9.09.06a2.69,2.69,0,0,0-2.83-2.77,2.83,2.83,0,0,0-2.83,2.83A3,3,0,0,0,36.63,36,2.83,2.83,0,0,0,39.4,33.09Zm9.27,0A2.86,2.86,0,0,0,43,33a2.86,2.86,0,1,0,5.71.06Z"/><path class="cls-2" d="M18.26,41.81c0,.54.08,1.07.08,1.61V139c0,.53-.05,1.07-.08,1.6-.56-.53-.36-1.22-.36-1.86q0-47.55,0-95.11C17.9,43,17.7,42.35,18.26,41.81Z"/><path class="cls-2" d="M189.71,141v-1.1C190.18,140.27,190.18,140.64,189.71,141Z"/><path class="cls-2" d="M18.26,40v.36a1.12,1.12,0,0,1-.11-.25S18.21,40.06,18.26,40Z"/><path class="cls-2" d="M189.71,42.9v-.37c0,.09.09.17.12.26S189.76,42.87,189.71,42.9Z"/><path class="cls-6" d="M103.82,77.23H39.21c-3.45,0-4.5-1-4.5-4.45V51.65c0-3,1.14-4.16,4.07-4.16q65.31,0,130.64,0c2.69,0,3.87,1.22,3.88,4q0,10.83,0,21.65c0,2.93-1.21,4.09-4.16,4.09Z"/><path class="cls-6" d="M154.7,134.64c-4.54,0-9.07,0-13.6,0-2.82,0-4-1.21-4-4.06q0-10.83,0-21.65c0-2.79,1.27-4,4-4q13.69,0,27.38,0c2.82,0,4.08,1.22,4.09,4q0,10.92,0,21.83c0,2.68-1.23,3.93-3.95,3.95-4.65,0-9.3,0-14,0Z"/><path class="cls-5" d="M169.73,89.73c2,.45,3,1.66,2.87,3.45a3.31,3.31,0,0,1-3.28,3.16c-.47,0-.95,0-1.43,0H41.16c-.59,0-1.19-.06-1.78-.09-.24-.34-.48-.36-.73,0a3.28,3.28,0,0,1-3.23-3.76,3.42,3.42,0,0,1,4.34-2.78c.45.74,1.19.43,1.79.43q63.09,0,126.16,0C168.4,90.14,169.17,90.38,169.73,89.73Z"/><path class="cls-5" d="M81.56,107.28h41.51a14.37,14.37,0,0,1,1.61,0,3.36,3.36,0,0,1,.58,6.58,8.29,8.29,0,0,1-2.12.18l-83.39,0a4.63,4.63,0,0,1-2.91-.64,3.23,3.23,0,0,1-1.32-3.63,3.13,3.13,0,0,1,3.09-2.52c2.21-.06,4.41,0,6.62,0Z"/><path class="cls-5" d="M81.57,131.75H39.51c-2.47,0-3.91-1.11-4.09-3.06A3.39,3.39,0,0,1,38.48,125a15.24,15.24,0,0,1,1.79,0q41.25,0,82.5,0a7.69,7.69,0,0,1,2.48.19,3.37,3.37,0,0,1-.56,6.59,16,16,0,0,1-2,.05Z"/><path class="cls-5" d="M169.73,89.73c-.56.65-1.33.41-2,.41q-63.08,0-126.16,0c-.6,0-1.34.31-1.79-.43.77,0,1.54-.11,2.32-.11H167.43C168.19,89.6,169,89.69,169.73,89.73Z"/><path class="cls-7" d="M38.65,96.25c.25-.35.49-.33.73,0Z"/><path class="cls-8" d="M118.86,37.15q-31.06,0-62.11,0c-1.56,0-2.15-.37-2-2a49.24,49.24,0,0,0,0-5c0-.91.31-1.34,1.25-1.26a8.81,8.81,0,0,0,.89,0h124c2.44,0,2.44,0,2.44,2.4,0,1.55,0,3.1,0,4.65,0,.84-.33,1.21-1.17,1.17-.47,0-1,0-1.43,0Z"/><path class="cls-9" d="M30.31,33a3.09,3.09,0,0,1-2.91,3,2.94,2.94,0,0,1-2.88-3,2.75,2.75,0,0,1,2.69-2.76A2.87,2.87,0,0,1,30.31,33Z"/><path class="cls-10" d="M39.4,33.09A2.83,2.83,0,0,1,36.63,36a3,3,0,0,1-2.89-2.83,2.83,2.83,0,0,1,2.83-2.83A2.69,2.69,0,0,1,39.4,33.09Z"/><path class="cls-11" d="M48.67,33.1A2.86,2.86,0,1,1,43,33a2.86,2.86,0,0,1,5.71.06Z"/></g></svg>