<svg xmlns="http://www.w3.org/2000/svg" width="172.559" height="155.967" viewBox="0 0 172.559 155.967">
  <g id="pc" transform="translate(0 -24.615)">
    <g id="Group_1056" data-name="Group 1056" transform="translate(0 24.615)">
      <g id="Group_1055" data-name="Group 1055">
        <path id="Path_828" data-name="Path 828" d="M154.308,24.615H18.251A18.272,18.272,0,0,0,0,42.866v86.28A18.272,18.272,0,0,0,18.251,147.4h44.07l-5.31,26.547H39.821a3.318,3.318,0,1,0,0,6.637h92.916a3.318,3.318,0,1,0,0-6.637h-17.19l-5.31-26.547h44.07a18.272,18.272,0,0,0,18.251-18.251V42.866A18.272,18.272,0,0,0,154.308,24.615ZM63.78,173.945l5.31-26.547h34.38l5.31,26.547h-45Zm102.143-44.8a11.628,11.628,0,0,1-11.615,11.615H18.251A11.628,11.628,0,0,1,6.637,129.146v-8.3H165.922v8.3Zm0-14.933H6.637v-6.637H26.547a3.318,3.318,0,0,0,0-6.637H6.637V42.866A11.628,11.628,0,0,1,18.251,31.252H154.308a11.628,11.628,0,0,1,11.615,11.615v71.347Z" transform="translate(0 -24.615)" fill="#435a8c"/>
      </g>
    </g>
    <g id="Group_1058" data-name="Group 1058" transform="translate(79.643 124.168)">
      <g id="Group_1057" data-name="Group 1057">
        <path id="Path_829" data-name="Path 829" d="M242.945,320a6.637,6.637,0,1,0,6.637,6.637A6.644,6.644,0,0,0,242.945,320Z" transform="translate(-236.308 -320)" fill="#435a8c"/>
      </g>
    </g>
    <g id="Group_1060" data-name="Group 1060" transform="translate(76.105 62.559)">
      <g id="Group_1059" data-name="Group 1059">
        <path id="Path_830" data-name="Path 830" d="M263.154,162.808l-7.04-7.04,5.866-5.866a3.319,3.319,0,0,0-1.6-5.58l-30.5-7.04a3.319,3.319,0,0,0-3.98,3.98l7.04,30.5a3.319,3.319,0,0,0,5.58,1.6l5.866-5.866,7.04,7.04a3.318,3.318,0,0,0,4.693,0l7.04-7.04A3.319,3.319,0,0,0,263.154,162.808Zm-9.386,4.693-7.04-7.04a3.318,3.318,0,0,0-4.693,0l-3.979,3.979-4.5-19.5,19.5,4.5-3.979,3.979a3.319,3.319,0,0,0,0,4.693l7.04,7.04Z" transform="translate(-225.811 -137.198)" fill="#435a8c"/>
      </g>
    </g>
    <g id="Group_1062" data-name="Group 1062" transform="translate(63.637 50.09)">
      <g id="Group_1061" data-name="Group 1061">
        <path id="Path_831" data-name="Path 831" d="M197.8,104.492l-3.318-3.318a3.319,3.319,0,1,0-4.693,4.693l3.319,3.318a3.318,3.318,0,1,0,4.693-4.693Z" transform="translate(-188.816 -100.201)" fill="#435a8c"/>
      </g>
    </g>
    <g id="Group_1064" data-name="Group 1064" transform="translate(58.139 63.364)">
      <g id="Group_1063" data-name="Group 1063">
        <path id="Path_832" data-name="Path 832" d="M180.515,139.587h-4.693a3.318,3.318,0,0,0,0,6.637h4.693a3.318,3.318,0,0,0,0-6.637Z" transform="translate(-172.504 -139.587)" fill="#435a8c"/>
      </g>
    </g>
    <g id="Group_1066" data-name="Group 1066" transform="translate(63.637 73.319)">
      <g id="Group_1065" data-name="Group 1065" transform="translate(0 0)">
        <path id="Path_833" data-name="Path 833" d="M197.8,170.1a3.318,3.318,0,0,0-4.693,0l-3.318,3.318a3.318,3.318,0,1,0,4.693,4.693l3.318-3.318A3.319,3.319,0,0,0,197.8,170.1Z" transform="translate(-188.817 -169.124)" fill="#435a8c"/>
      </g>
    </g>
    <g id="Group_1068" data-name="Group 1068" transform="translate(86.866 50.09)">
      <g id="Group_1067" data-name="Group 1067">
        <path id="Path_834" data-name="Path 834" d="M266.724,101.173a3.319,3.319,0,0,0-4.693,0l-3.318,3.318a3.319,3.319,0,1,0,4.693,4.693l3.318-3.318A3.319,3.319,0,0,0,266.724,101.173Z" transform="translate(-257.74 -100.201)" fill="#435a8c"/>
      </g>
    </g>
    <g id="Group_1070" data-name="Group 1070" transform="translate(76.911 44.592)">
      <g id="Group_1069" data-name="Group 1069">
        <path id="Path_835" data-name="Path 835" d="M231.521,83.888a3.318,3.318,0,0,0-3.318,3.318V91.9a3.318,3.318,0,1,0,6.637,0V87.206A3.318,3.318,0,0,0,231.521,83.888Z" transform="translate(-228.203 -83.888)" fill="#435a8c"/>
      </g>
    </g>
    <g id="Group_1072" data-name="Group 1072" transform="translate(33.185 100.941)">
      <g id="Group_1071" data-name="Group 1071" transform="translate(0 0)">
        <path id="Path_836" data-name="Path 836" d="M105.032,253.751a3.218,3.218,0,0,0-.189-.624,3.353,3.353,0,0,0-.305-.571,3.223,3.223,0,0,0-.916-.916,3.292,3.292,0,0,0-.574-.305,3.118,3.118,0,0,0-.62-.189,3.268,3.268,0,0,0-1.294,0,3.118,3.118,0,0,0-.62.189,3.246,3.246,0,0,0-.574.305,3.223,3.223,0,0,0-.916.916,3.377,3.377,0,0,0-.305.571,3.219,3.219,0,0,0-.189.624,3.186,3.186,0,0,0,0,1.294,3.118,3.118,0,0,0,.189.62,3.246,3.246,0,0,0,.305.574,3.223,3.223,0,0,0,.916.916,3.293,3.293,0,0,0,.574.305,3.365,3.365,0,0,0,.62.192,3.352,3.352,0,0,0,1.294,0,3.365,3.365,0,0,0,.62-.192,3.248,3.248,0,0,0,.574-.305,3.223,3.223,0,0,0,.916-.916,3.291,3.291,0,0,0,.305-.574,3.117,3.117,0,0,0,.189-.62,3.186,3.186,0,0,0,0-1.294Z" transform="translate(-98.462 -251.081)" fill="#435a8c"/>
      </g>
    </g>
  </g>
</svg>
