<svg xmlns="http://www.w3.org/2000/svg" width="191.466" height="188.567" viewBox="0 0 191.466 188.567">
  <g id="target" transform="translate(-0.001 -0.5)">
    <path id="Path_837" data-name="Path 837" d="M186.944,228.527a17.343,17.343,0,0,0-10.7-4.482,15.313,15.313,0,0,0-11.765,4.479L143.192,249.59a14.132,14.132,0,0,0-1.44-2.055,13.8,13.8,0,0,0-10.783-4.822h-29.8a61.127,61.127,0,0,1-16.294-2.165c-13.536-3.744-26.466-1.009-37.4,7.913a54.393,54.393,0,0,0-9.739,10.453l-5.344-5.186a3.8,3.8,0,0,0-2.635-1.069h-.025a3.806,3.806,0,0,0-2.7,1.16L1.054,280.786a3.769,3.769,0,0,0,.115,5.341l43.936,41.835a3.765,3.765,0,0,0,5.3-.1l25.735-26.4a3.787,3.787,0,0,0-.075-5.36l-2.241-2.174,5.129-.577a81.507,81.507,0,0,1,9.381-.543h45.344c7.368,0,13.626-1.611,18.6-4.79l.123-.082a25.1,25.1,0,0,0,4.8-4.362l30.557-35.948C192.989,241.475,192.661,233.8,186.944,228.527ZM47.6,319.941l-38.5-36.657,20.739-21.53,38.272,37.14ZM182.02,242.748,151.463,278.7a17.606,17.606,0,0,1-3.307,3.014c-3.735,2.365-8.607,3.566-14.482,3.566H88.328a88.937,88.937,0,0,0-10.236.593l-11.274,1.265L43.212,264.227a46.978,46.978,0,0,1,9.026-9.93c9.083-7.415,19.387-9.6,30.625-6.489a68.65,68.65,0,0,0,18.3,2.438h29.8c5.352,0,6.781,4.637,6.781,7.375a8.157,8.157,0,0,1-1.763,5.227A6.4,6.4,0,0,1,130.85,265H104.907a3.767,3.767,0,0,0,0,7.533H130.85a13.968,13.968,0,0,0,10.877-4.812,15.469,15.469,0,0,0,3.548-9.6l24.519-24.262c3.5-3.5,8.979-2.625,12.043.2C183.421,235.525,185.55,238.595,182.02,242.748Zm0,0" transform="translate(0 -139.935)" fill="#435a8c"/>
    <path id="Path_838" data-name="Path 838" d="M236.672,336.129a3.766,3.766,0,1,0-7.333,1.719l.035.153a3.769,3.769,0,0,0,3.664,2.907,3.811,3.811,0,0,0,.863-.1,3.767,3.767,0,0,0,2.808-4.527Zm0,0" transform="translate(-143.512 -208.297)" fill="#435a8c"/>
    <path id="Path_839" data-name="Path 839" d="M52.811,79.966h36.7a9.063,9.063,0,0,0,5.352-1.744,9.063,9.063,0,0,0,5.352,1.744h36.7a9.063,9.063,0,0,0,5.352-1.744,9.063,9.063,0,0,0,5.352,1.744h36.7a9.129,9.129,0,0,0,9.118-9.12V53.732A19.749,19.749,0,0,0,182.7,36.074a21.726,21.726,0,1,0-33.455,0,19.73,19.73,0,0,0-6.975,5.98,19.692,19.692,0,0,0-6.977-5.98,21.726,21.726,0,1,0-33.453,0,19.692,19.692,0,0,0-6.977,5.98,19.711,19.711,0,0,0-6.977-5.982,21.725,21.725,0,1,0-33.453,0A19.752,19.752,0,0,0,43.691,53.734V70.847A9.131,9.131,0,0,0,52.811,79.966ZM165.975,8.033a14.193,14.193,0,1,1-14.193,14.193A14.209,14.209,0,0,1,165.975,8.033Zm-9.786,33.582a21.648,21.648,0,0,0,19.569,0A12.238,12.238,0,0,1,185.91,53.732V70.847a1.588,1.588,0,0,1-1.586,1.586h-36.7a1.588,1.588,0,0,1-1.585-1.586V53.732A12.238,12.238,0,0,1,156.189,41.615ZM118.568,8.033a14.193,14.193,0,1,1-14.193,14.193A14.209,14.209,0,0,1,118.568,8.033Zm-9.784,33.582a21.648,21.648,0,0,0,19.569,0A12.239,12.239,0,0,1,138.5,53.732V70.847a1.588,1.588,0,0,1-1.586,1.586h-36.7a1.588,1.588,0,0,1-1.586-1.586V53.732A12.24,12.24,0,0,1,108.784,41.615ZM71.161,8.033A14.193,14.193,0,1,1,56.968,22.226,14.209,14.209,0,0,1,71.161,8.033Zm-19.937,45.7A12.24,12.24,0,0,1,61.377,41.615a21.648,21.648,0,0,0,19.569,0A12.238,12.238,0,0,1,91.1,53.732V70.847a1.588,1.588,0,0,1-1.586,1.586h-36.7a1.588,1.588,0,0,1-1.586-1.586Zm0,0" transform="translate(-27.352)" fill="#435a8c"/>
  </g>
</svg>
