<svg xmlns="http://www.w3.org/2000/svg" xmlns:xlink="http://www.w3.org/1999/xlink" width="585" height="600" viewBox="0 0 585 600">
  <defs>
    <clipPath id="clip-Artboard_1">
      <rect width="585" height="600"/>
    </clipPath>
  </defs>
  <g id="Artboard_1" data-name="Artboard – 1" clip-path="url(#clip-Artboard_1)">
    <rect width="585" height="600" fill="#fff"/>
    <g id="Group_1102" data-name="Group 1102" transform="translate(61.99 38.291)">
      <g id="contact-form" transform="translate(0 0)">
        <path id="Path_722" data-name="Path 722" d="M501.7,116.059a42.982,42.982,0,0,0-58.643,15.711l-38.087,65.982V143.106a10.222,10.222,0,1,0-20.444,0v90.045L272.264,427.6a10.116,10.116,0,0,0-1.308,4.017l-7.687,71.3H20.632V20.444h363.9V51.109a10.222,10.222,0,1,0,20.444,0V10.222A10.226,10.226,0,0,0,394.752,0H10.41A10.219,10.219,0,0,0,.188,10.222V513.138A10.219,10.219,0,0,0,10.41,523.36H394.752a10.226,10.226,0,0,0,10.222-10.222V369.47L517.425,174.7A42.986,42.986,0,0,0,501.7,116.059ZM289.6,449.415l29.47,17.009-33.978,24.819Zm94.931,53.5H303.778l40.029-29.245a10.362,10.362,0,0,0,2.821-3.138l37.9-65.645Zm-50.5-51.457-38.956-22.488L444.7,169.837l38.945,22.488ZM499.711,164.48l-5.847,10.14-38.945-22.488,5.847-10.14a22.486,22.486,0,1,1,38.945,22.488Z" transform="translate(-0.188)" fill="#ff7900"/>
        <path id="Path_723" data-name="Path 723" d="M386.41,85a10.226,10.226,0,1,0,7.227,2.995A10.281,10.281,0,0,0,386.41,85Z" transform="translate(8.155 1.886)" fill="#ff7900"/>
        <path id="Path_724" data-name="Path 724" d="M303.892,106H97.41a10.222,10.222,0,1,0,0,20.444H303.892a10.222,10.222,0,1,0,0-20.444Z" transform="translate(1.742 2.352)" fill="#ff7900"/>
        <path id="Path_725" data-name="Path 725" d="M303.892,162H97.41a10.222,10.222,0,1,0,0,20.444H303.892a10.222,10.222,0,1,0,0-20.444Z" transform="translate(1.742 3.594)" fill="#ff7900"/>
        <path id="Path_726" data-name="Path 726" d="M301.057,218h-75.9a10.222,10.222,0,0,0,0,20.444h75.9a10.222,10.222,0,1,0,0-20.444Z" transform="translate(4.577 4.837)" fill="#ff7900"/>
        <path id="Path_727" data-name="Path 727" d="M314.114,284.222A10.226,10.226,0,0,0,303.892,274H97.41a10.222,10.222,0,1,0,0,20.444H303.892A10.226,10.226,0,0,0,314.114,284.222Z" transform="translate(1.742 6.08)" fill="#ff7900"/>
        <path id="Path_728" data-name="Path 728" d="M268.019,340.222A10.226,10.226,0,0,0,257.8,330H193.91a10.222,10.222,0,1,0,0,20.443H257.8A10.226,10.226,0,0,0,268.019,340.222Z" transform="translate(3.883 7.322)" fill="#ff7900"/>
        <path id="Path_729" data-name="Path 729" d="M97.41,406.444h89.952a10.222,10.222,0,1,0,0-20.444H97.41a10.222,10.222,0,0,0,0,20.444Z" transform="translate(1.742 8.565)" fill="#ff7900"/>
        <path id="Path_730" data-name="Path 730" d="M97.41,238.444h68.139a10.222,10.222,0,0,0,0-20.444H97.41a10.222,10.222,0,0,0,0,20.444Z" transform="translate(1.742 4.837)" fill="#ff7900"/>
        <path id="Path_731" data-name="Path 731" d="M97.41,350.444h52.643a10.222,10.222,0,1,0,0-20.443H97.41a10.222,10.222,0,1,0,0,20.443Z" transform="translate(1.742 7.322)" fill="#ff7900"/>
      </g>
    </g>
  </g>
</svg>
