<svg id="Layer_1" data-name="Layer 1" xmlns="http://www.w3.org/2000/svg" viewBox="0 0 140 140"><defs><style>.cls-1{fill:#e6f0ff;}.cls-2{fill:#587bb7;}.cls-3{fill:#435a8c;}.cls-4{fill:#ffa753;}.cls-5{fill:#ff8e04;}.cls-6{fill:#fff;}</style></defs><rect class="cls-1" width="140" height="140"/><path class="cls-2" d="M56.54,87.24a30.7,30.7,0,1,1,50.87,23.13,1.34,1.34,0,0,0,.2,2.16l5.78,3.42a1.06,1.06,0,0,1-.54,2H86.66A30.7,30.7,0,0,1,56.54,87.24Z"/><path class="cls-3" d="M113.39,116l-5.78-3.42a1.34,1.34,0,0,1-.2-2.16A30.69,30.69,0,0,0,87.69,56.55a31,31,0,0,0-3.35.13,30.69,30.69,0,0,1,17.29,53.69,1.34,1.34,0,0,0,.19,2.16l5.79,3.42a1.06,1.06,0,0,1-.53,2h5.77a1.06,1.06,0,0,0,.54-2Z"/><path class="cls-3" d="M88.41,56.57l-.72,0A30.7,30.7,0,0,0,56.54,87.24q0,.58,0,1.17A35.86,35.86,0,0,0,88.41,56.57Z"/><path class="cls-4" d="M83.46,52.76A30.7,30.7,0,1,0,32.59,75.89a1.34,1.34,0,0,1-.2,2.16l-5.78,3.42a1.07,1.07,0,0,0,.54,2H53.34A30.7,30.7,0,0,0,83.46,52.76Z"/><path class="cls-5" d="M52.31,22.07c-.82,0-1.63.06-2.44.13a30.7,30.7,0,0,1-2.31,61.25h5.78a30.69,30.69,0,0,0-1-61.38Z"/><circle class="cls-6" cx="52.76" cy="73.55" r="3.22"/><path class="cls-6" d="M52.76,64.55a2.89,2.89,0,0,1-2.89-2.9V51.35a2.89,2.89,0,0,1,2.89-2.89,7,7,0,0,0,7-7.34,7,7,0,0,0-13.84-.6,6.37,6.37,0,0,0-.07,1,2.9,2.9,0,0,1-5.79,0,11.75,11.75,0,0,1,.13-1.78,12.74,12.74,0,0,1,12.62-11H53A12.79,12.79,0,0,1,65.49,40.82,12.63,12.63,0,0,1,62,50.27a12.85,12.85,0,0,1-6.35,3.64v7.74a2.89,2.89,0,0,1-2.89,2.9Z"/><circle class="cls-5" cx="87.24" cy="87.24" r="3.22"/><circle class="cls-5" cx="101.71" cy="87.24" r="3.22"/><circle class="cls-5" cx="72.77" cy="87.24" r="3.22"/></svg>