<svg xmlns="http://www.w3.org/2000/svg" xmlns:xlink="http://www.w3.org/1999/xlink" width="690" height="665" viewBox="0 0 690 665">
  <defs>
    <clipPath id="clip-Artboard_6">
      <rect width="690" height="665"/>
    </clipPath>
  </defs>
  <g id="Artboard_6" data-name="Artboard – 6" clip-path="url(#clip-Artboard_6)">
    <rect width="690" height="665" fill="#fff"/>
    <g id="checked" transform="translate(32 33.022)">
      <g id="Group_871" data-name="Group 871">
        <g id="Group_870" data-name="Group 870">
          <path id="Path_733" data-name="Path 733" d="M584.967,241.54c-7.312-5.916-19.48-15.785-21-20.462-1.55-4.857,2.454-20.487,4.857-29.788,5.761-22.451,12.943-50.379-3.152-72.365-16.018-21.83-44.825-23.743-67.973-25.293-9.585-.672-25.655-1.731-29.711-4.677-4.108-2.971-10.283-18.188-13.977-27.308-9.12-22.606-19.506-48.235-44.85-56.4-25.215-8.241-48.261,6.356-68.542,19.2-8.94,5.632-22.4,14.158-28.031,14.158-5.4,0-18.7-8.655-27.54-14.39C265.54,11.525,241.151-4.183,215.445,4.55c-25.293,8.6-35.575,34.077-44.7,56.5-3.668,9.042-9.766,24.13-13.951,27.2-4.082,3.022-20.436,4.108-30.2,4.754-24.414,1.653-52.084,3.514-67.637,25.525-15.268,21.624-8.423,48.286-2.377,71.823,2.377,9.352,6.407,25.009,4.96,29.684-1.55,4.469-13.589,14.365-20.772,20.281C22.606,255.311,0,273.937,0,301.84c0,27.721,22.168,46.142,39.967,60.92,7.725,6.407,19.376,16.1,20.953,20.9,1.55,4.754-2.48,20.2-4.909,29.427-5.89,22.657-13.254,50.87,3.462,73.037,16.3,21.547,44.98,23.458,68.051,25.009,9.585.672,25.629,1.7,29.711,4.677s10.231,18.162,13.925,27.283c9.146,22.606,19.506,48.235,44.876,56.425a47.716,47.716,0,0,0,15.036,2.4c19.429,0,37.358-11.367,53.531-21.547,8.913-5.632,22.348-14.159,27.98-14.159,5.5,0,18.73,8.423,27.463,14,19.376,12.323,43.558,27.773,69.213,18.989,25.267-8.6,35.549-34.051,44.67-56.528,3.668-9.016,9.766-24.13,13.951-27.2,4.108-3.022,20.358-4.108,30.073-4.754,24.234-1.653,51.723-3.487,67.509-25.164,15.889-21.779,9.068-48.726,3.049-72.469-2.351-9.275-6.278-24.75-4.857-29.4,1.55-4.469,13.589-14.365,20.746-20.281,18.188-14.985,40.794-33.638,40.794-61.541C625.193,274.2,602.872,256.085,584.967,241.54Zm-33.405,82.029C536.449,336,520.818,348.887,514.669,367.36c-6.278,18.808-1.162,38.96,3.772,58.44,2.4,9.507,6.433,25.4,5.891,28.677-3.927,2.945-20.126,4.056-29.814,4.677-19.2,1.292-40.949,2.739-57.148,14.622-16.044,11.755-23.821,30.951-31.339,49.5-3.668,9.146-9.869,24.466-12.427,26.792-4.7,0-17.852-8.449-25.732-13.46-16.25-10.334-34.671-22.089-55.262-22.089-20.617,0-39.193,11.781-55.624,22.167-7.958,5.013-21.288,13.486-24.13,14.106-4-2.868-10.1-18.007-13.77-27.049-7.6-18.783-15.449-38.184-31.648-49.837-16.1-11.6-36.609-12.969-56.476-14.287-9.327-.62-26.714-1.783-29.866-3.927-1.6-4.573,2.454-20.2,4.909-29.5,4.779-18.421,10.231-39.3,4.082-58.363-6.175-19.04-22.58-32.708-37.074-44.748-7.079-5.891-20.281-16.87-21.392-20.849,1.162-4.857,14.726-16.044,22.011-22.011,15.113-12.453,30.744-25.345,36.894-43.817,6.33-18.938,1.111-39.244-3.9-58.879-2.429-9.482-6.511-25.345-6.2-28.367,3.953-2.841,20.022-3.927,29.633-4.573,20.177-1.343,41.078-2.765,57.277-14.622,16.044-11.755,23.821-30.925,31.339-49.475,3.668-9.172,9.9-24.467,12.272-26.766,4.779.077,18.059,8.706,25.991,13.848,16.38,10.644,34.981,22.71,55.675,22.71,20.591,0,39.219-11.781,55.6-22.141C376.165,63.1,389.5,54.651,392.338,54.03c3.978,2.868,10.1,18.007,13.77,27.049,7.6,18.757,15.449,38.159,31.648,49.81,16.1,11.626,36.635,12.995,56.529,14.312,9.818.672,26.275,1.783,29.349,3.642,1.576,4.547-2.429,20.255-4.857,29.608-4.728,18.5-10.1,39.451-3.927,58.569,6.226,19.248,22.89,32.759,37.591,44.67,6.717,5.477,19.093,15.476,21,20.281C571.611,307.008,558.615,317.729,551.562,323.568Z" transform="translate(0 -2.023)" fill="#ff7900"/>
        </g>
      </g>
      <g id="Group_873" data-name="Group 873" transform="translate(183.426 196.459)">
        <g id="Group_872" data-name="Group 872">
          <path id="Path_734" data-name="Path 734" d="M274.034,39.483a25.782,25.782,0,0,0-36.376,3.23l-115.2,137.729L73.447,131.458a25.831,25.831,0,1,0-36.531,36.531L105.9,236.971a25.658,25.658,0,0,0,18.266,7.57,8.058,8.058,0,0,0,1.111-.051,25.747,25.747,0,0,0,18.679-9.223L277.262,75.859A25.812,25.812,0,0,0,274.034,39.483Z" transform="translate(-29.339 -33.447)" fill="#ff7900"/>
        </g>
      </g>
    </g>
  </g>
</svg>
