<svg id="Layer_1" data-name="Layer 1" xmlns="http://www.w3.org/2000/svg" viewBox="0 0 140 140"><defs><style>.cls-1{fill:#e6f0ff;}.cls-2{fill:#213b6e;}.cls-3{fill:#435a8c;}.cls-4{fill:#ff8e04;}.cls-5{fill:#ffa753;}</style></defs><rect class="cls-1" width="140" height="140"/><g id="OyaLiK"><path class="cls-2" d="M99.72,108.7l-2.83,0H70.14l-1.09,0Q69,75,69,41.3l1.09,0,12.25,0a30.27,30.27,0,0,0,3.81,0l12,0,1.55,0q0,8.18,0,16.35Q99.73,83.18,99.72,108.7ZM96.15,70.15c-.08-.33-.36-.42-.59-.55-3.56-2-7.15-4-10.7-6.08-.61-.34-.84-.23-1.17.35q-5.37,9.54-10.82,19c-.43.75-.23,1,.41,1.36,3.5,2,7,3.93,10.46,6,.69.4,1,.25,1.3-.37q5.4-9.59,10.83-19.13C96,70.53,96.06,70.34,96.15,70.15Z"/><path class="cls-3" d="M69,41.3q0,33.71,0,67.4c-4.66,0-9.31,0-14,0l-14.87,0c0-.18,0-.37,0-.55V42c0-.24,0-.49,0-.73l12.44,0c.36,0,.72,0,1.09,0a30.11,30.11,0,0,0,3.8,0c.33,0,.66,0,1,0ZM58.12,51.37l-.24.1-10.21,5.1c-.36.17-.26.35-.12.64,2.51,5,5,9.94,7.48,14.94.36.72.65.71,1.29.38,3-1.57,6-3.1,9.1-4.62,1-.52,1.06-.48.55-1.51l-4.58-9.12Q60,54.6,58.66,51.93C58.54,51.7,58.49,51.39,58.12,51.37Zm.19,31.8a5.83,5.83,0,1,0,5.8,5.9A5.81,5.81,0,0,0,58.31,83.17Z"/><path class="cls-2" d="M36.84,108.7l-4.56,0H27.7c-.91,0-1.83,0-2.74,0A5.9,5.9,0,0,1,19.73,103c0-.63,0-1.27,0-1.91q0-26.65,0-53.31a6.72,6.72,0,0,1,1.45-4.41A4.91,4.91,0,0,1,25,41.33c3.95,0,7.91,0,11.86,0,0,.31,0,.61,0,.91v65.58C36.87,108.09,36.85,108.4,36.84,108.7Z"/><path class="cls-2" d="M104.31,41.3c3.53,0,7.06,0,10.59,0,2.7.06,5.12,2.7,5.3,5.61,0,.27,0,.54,0,.82q0,27.3,0,54.6a6.4,6.4,0,0,1-1.49,4.29,5.47,5.47,0,0,1-4.4,2c-.7,0-1.4,0-2.1,0l-4.6,0-3.46,0c0-.15,0-.3,0-.45v-66A1.94,1.94,0,0,1,104.31,41.3Z"/><path class="cls-4" d="M104.31,41.3a1.94,1.94,0,0,0-.16,1v66c0,.15,0,.3,0,.45H99.72q0-25.53,0-51.05,0-8.17,0-16.35Z"/><path class="cls-4" d="M36.84,108.7c0-.3,0-.61,0-.91V42.21c0-.3,0-.6,0-.91h3.4c0,.24,0,.49,0,.73v66.12c0,.18,0,.37,0,.55Z"/><path class="cls-4" d="M57.55,41.23a30.11,30.11,0,0,1-3.8,0c0-2.53,0-5,0-7.57a5.65,5.65,0,0,1,6-6l20.35,0c3.72,0,6.07,2.38,6.07,6.13q0,3.74,0,7.47a30.27,30.27,0,0,1-3.81,0c0-2.55,0-5.11,0-7.67,0-1.49-.67-2.15-2.19-2.15q-10.23,0-20.45,0c-1.55,0-2.19.66-2.2,2.24Q57.54,37.45,57.55,41.23Z"/><path class="cls-4" d="M107.63,108.74l4.6,0c0,.49,0,1,0,1.46a2.29,2.29,0,0,1-4.57,0C107.64,109.72,107.64,109.23,107.63,108.74Z"/><path class="cls-4" d="M27.7,108.72h4.58v1.36A2.12,2.12,0,0,1,30,112.37a2.15,2.15,0,0,1-2.33-2.29C27.69,109.63,27.7,109.18,27.7,108.72Z"/><path class="cls-5" d="M96.15,70.15c-.09.19-.18.38-.28.57Q90.46,80.28,85,89.85c-.35.62-.61.77-1.3.37-3.46-2-7-4-10.46-6-.64-.36-.84-.61-.41-1.36q5.46-9.5,10.82-19c.33-.58.56-.69,1.17-.35,3.55,2,7.14,4,10.7,6.08C95.79,69.73,96.07,69.82,96.15,70.15Z"/><path class="cls-4" d="M58.12,51.37c.37,0,.42.33.54.56Q60,54.6,61.39,57.28L66,66.4c.51,1,.49,1-.55,1.51-3.05,1.52-6.08,3-9.1,4.62-.64.33-.93.34-1.29-.38-2.46-5-5-10-7.48-14.94-.14-.29-.24-.47.12-.64l10.21-5.1Z"/><path class="cls-5" d="M58.31,83.17a5.83,5.83,0,1,1-.08,11.65,5.83,5.83,0,0,1,.08-11.65Z"/></g></svg>