<svg id="Layer_1" data-name="Layer 1" xmlns="http://www.w3.org/2000/svg" xmlns:xlink="http://www.w3.org/1999/xlink" viewBox="0 0 140 140"><defs><style>.cls-1{fill:#efefef;}.cls-1,.cls-2{opacity:0.45;}.cls-3{fill:#595959;}.cls-4{filter:url(#filter);}.cls-5{fill:#fff;}.cls-6{fill:none;stroke:#4d4d4d;stroke-miterlimit:10;stroke-width:0.25px;}</style><filter id="filter"><feOffset dx="3" dy="2" input="SourceAlpha"/><feGaussianBlur stdDeviation="5" result="blur"/><feFlood/><feComposite operator="in" in2="blur"/><feComposite in="SourceGraphic"/></filter></defs><rect class="cls-1" width="140" height="140"/><g id="lbiwJ4.tif" class="cls-2"><path class="cls-3" d="M89.73,72.33l-3.15-7.4c-.18-.43-.36-.87-.55-1.3a1.83,1.83,0,0,0-1.9-1.26,1.85,1.85,0,0,0-1.61,1.54c-.35,1.39-.66,2.78-1,4.17L78.47,81.36c0,.15-.09.3-.18.62-.41-1.24-.76-2.31-1.1-3.38q-4.38-13.75-8.77-27.5c-.5-1.57-2-2.09-3.07-1.05a2.48,2.48,0,0,0-.6,1.25L59.34,72.46c0,.13-.09.26-.13.39-.25,0-.25-.28-.33-.43C58,70.5,57,68.6,56.12,66.65a2.34,2.34,0,0,0-2.42-1.5c-7.74,0-15.49,0-23.23,0a1,1,0,0,1-1.12-.76,28.81,28.81,0,0,1-2-6.42,20.52,20.52,0,0,1,.57-9.66,23.51,23.51,0,0,1,12.83-15,22.27,22.27,0,0,1,13.91-1.9,18.52,18.52,0,0,1,10,5.44,24.86,24.86,0,0,1,5.2,8.1c.23,0,.21-.17.26-.29a23.69,23.69,0,0,1,6.5-9.13,18.9,18.9,0,0,1,13.9-4.45,23.44,23.44,0,0,1,11.3,3.66,24,24,0,0,1,7.72,7.94,22.71,22.71,0,0,1,3.33,11.62A23.61,23.61,0,0,1,111.54,62c-.14.42-.45.34-.74.34h-8.38c-2.25,0-4.5,0-6.75,0a2.18,2.18,0,0,0-2.24,1.46c-1.08,2.56-2.21,5.11-3.32,7.66Z"/><path class="cls-3" d="M66.94,58c.34,1,.68,2.07,1,3.11Q72.41,75.07,76.84,89A2.1,2.1,0,0,0,78,90.47,1.82,1.82,0,0,0,80.48,89c.42-1.75.81-3.51,1.21-5.27Q83.24,77,84.8,70.25c.32,0,.3.3.37.47,1,2.22,1.89,4.44,2.85,6.65a1.77,1.77,0,0,0,2,1.27,1.94,1.94,0,0,0,1.49-1.35l3-6.76c.59-1.37,1.21-2.74,1.79-4.12A.62.62,0,0,1,97,66q6.12,0,12.25,0c.66,0,.48.26.29.61a47.6,47.6,0,0,1-6.7,9.35c-4.11,4.59-8.69,8.69-13.17,12.89-6.26,5.86-12.09,12.13-17.9,18.41-.45.48-.92.94-1.33,1.45s-.51.39-.85,0c-1.81-2-3.64-3.92-5.46-5.88Q55,93,45.09,84A91.78,91.78,0,0,1,33.63,71.72c-.64-.84-1.19-1.74-1.8-2.6-.29-.4-.18-.52.28-.5s.89,0,1.33,0c6.32,0,12.63,0,18.94,0a1,1,0,0,1,1,.63c1.49,3.13,3,6.24,4.54,9.35.61,1.27,1.53,1.69,2.59,1.2a2.07,2.07,0,0,0,1.06-1.56q2.16-8.37,4.33-16.73c.3-1.15.6-2.31.89-3.46Z"/></g><g class="cls-4"><path d="M13.41,47.19a8.71,8.71,0,0,1,3.45-3.49,9.91,9.91,0,0,1,5-1.25,9.58,9.58,0,0,1,5.88,1.81,8.72,8.72,0,0,1,3.27,5H25.86a4.24,4.24,0,0,0-1.64-1.85,4.57,4.57,0,0,0-2.4-.63,4.52,4.52,0,0,0-3.52,1.51,5.85,5.85,0,0,0-1.35,4,5.84,5.84,0,0,0,1.35,4,4.48,4.48,0,0,0,3.52,1.51,4.57,4.57,0,0,0,2.4-.63,4.15,4.15,0,0,0,1.64-1.84H31a8.64,8.64,0,0,1-3.27,4.93,9.64,9.64,0,0,1-5.88,1.8,9.91,9.91,0,0,1-5-1.25,8.79,8.79,0,0,1-3.45-3.47,11.07,11.07,0,0,1,0-10.18Z"/><path d="M38,60.88a9.46,9.46,0,0,1-3.6-3.53,10.4,10.4,0,0,1,0-10.18A9.58,9.58,0,0,1,38,43.65a10.51,10.51,0,0,1,10,0,9.36,9.36,0,0,1,3.57,3.52,10.51,10.51,0,0,1,0,10.18A9.34,9.34,0,0,1,48,60.88a9.91,9.91,0,0,1-5,1.27A10,10,0,0,1,38,60.88Zm8.69-4.56a5.84,5.84,0,0,0,1.38-4.06,5.87,5.87,0,0,0-1.38-4.09,5.3,5.3,0,0,0-7.42,0,5.8,5.8,0,0,0-1.39,4.1,5.82,5.82,0,0,0,1.39,4.08A4.79,4.79,0,0,0,43,57.86,4.74,4.74,0,0,0,46.73,56.32Z"/><path d="M77.35,42.67V62h-4.7V50.39L68.34,62h-3.8L60.2,50.36V62H55.5V42.67h5.56L66.47,56l5.36-13.35Z"/><path d="M85.43,42.67V62h-4.7V42.67Z"/><path d="M106.09,62h-4.7L93.53,50.06V62h-4.7V42.67h4.7l7.86,11.95V42.67h4.7Z"/><path d="M122.3,48.77a3.47,3.47,0,0,0-1.49-1.47,4.94,4.94,0,0,0-2.3-.51,4.73,4.73,0,0,0-3.65,1.49,5.69,5.69,0,0,0-1.38,4,5.77,5.77,0,0,0,1.44,4.17,5.31,5.31,0,0,0,4,1.49,4.77,4.77,0,0,0,2.92-.88,5,5,0,0,0,1.75-2.52h-6V51.07h10.23v4.37a9,9,0,0,1-1.78,3.27,9.27,9.27,0,0,1-3.17,2.45,9.84,9.84,0,0,1-4.34.93,10.2,10.2,0,0,1-5.1-1.25A8.89,8.89,0,0,1,110,57.37a11,11,0,0,1,0-10.18,8.79,8.79,0,0,1,3.48-3.49,10.1,10.1,0,0,1,5.08-1.25,9.84,9.84,0,0,1,5.84,1.67,8,8,0,0,1,3.15,4.65Z"/><path class="cls-5" d="M13.41,47.19a8.71,8.71,0,0,1,3.45-3.49,9.91,9.91,0,0,1,5-1.25,9.58,9.58,0,0,1,5.88,1.81,8.72,8.72,0,0,1,3.27,5H25.86a4.24,4.24,0,0,0-1.64-1.85,4.57,4.57,0,0,0-2.4-.63,4.52,4.52,0,0,0-3.52,1.51,5.85,5.85,0,0,0-1.35,4,5.84,5.84,0,0,0,1.35,4,4.48,4.48,0,0,0,3.52,1.51,4.57,4.57,0,0,0,2.4-.63,4.15,4.15,0,0,0,1.64-1.84H31a8.64,8.64,0,0,1-3.27,4.93,9.64,9.64,0,0,1-5.88,1.8,9.91,9.91,0,0,1-5-1.25,8.79,8.79,0,0,1-3.45-3.47,11.07,11.07,0,0,1,0-10.18Z"/><path class="cls-5" d="M38,60.88a9.46,9.46,0,0,1-3.6-3.53,10.4,10.4,0,0,1,0-10.18A9.58,9.58,0,0,1,38,43.65a10.51,10.51,0,0,1,10,0,9.36,9.36,0,0,1,3.57,3.52,10.51,10.51,0,0,1,0,10.18A9.34,9.34,0,0,1,48,60.88a9.91,9.91,0,0,1-5,1.27A10,10,0,0,1,38,60.88Zm8.69-4.56a5.84,5.84,0,0,0,1.38-4.06,5.87,5.87,0,0,0-1.38-4.09,5.3,5.3,0,0,0-7.42,0,5.8,5.8,0,0,0-1.39,4.1,5.82,5.82,0,0,0,1.39,4.08A4.79,4.79,0,0,0,43,57.86,4.74,4.74,0,0,0,46.73,56.32Z"/><path class="cls-5" d="M77.35,42.67V62h-4.7V50.39L68.34,62h-3.8L60.2,50.36V62H55.5V42.67h5.56L66.47,56l5.36-13.35Z"/><path class="cls-5" d="M85.43,42.67V62h-4.7V42.67Z"/><path class="cls-5" d="M106.09,62h-4.7L93.53,50.06V62h-4.7V42.67h4.7l7.86,11.95V42.67h4.7Z"/><path class="cls-5" d="M122.3,48.77a3.47,3.47,0,0,0-1.49-1.47,4.94,4.94,0,0,0-2.3-.51,4.73,4.73,0,0,0-3.65,1.49,5.69,5.69,0,0,0-1.38,4,5.77,5.77,0,0,0,1.44,4.17,5.31,5.31,0,0,0,4,1.49,4.77,4.77,0,0,0,2.92-.88,5,5,0,0,0,1.75-2.52h-6V51.07h10.23v4.37a9,9,0,0,1-1.78,3.27,9.27,9.27,0,0,1-3.17,2.45,9.84,9.84,0,0,1-4.34.93,10.2,10.2,0,0,1-5.1-1.25A8.89,8.89,0,0,1,110,57.37a11,11,0,0,1,0-10.18,8.79,8.79,0,0,1,3.48-3.49,10.1,10.1,0,0,1,5.08-1.25,9.84,9.84,0,0,1,5.84,1.67,8,8,0,0,1,3.15,4.65Z"/><path class="cls-6" d="M13.41,47.19a8.71,8.71,0,0,1,3.45-3.49,9.91,9.91,0,0,1,5-1.25,9.58,9.58,0,0,1,5.88,1.81,8.72,8.72,0,0,1,3.27,5H25.86a4.24,4.24,0,0,0-1.64-1.85,4.57,4.57,0,0,0-2.4-.63,4.52,4.52,0,0,0-3.52,1.51,5.85,5.85,0,0,0-1.35,4,5.84,5.84,0,0,0,1.35,4,4.48,4.48,0,0,0,3.52,1.51,4.57,4.57,0,0,0,2.4-.63,4.15,4.15,0,0,0,1.64-1.84H31a8.64,8.64,0,0,1-3.27,4.93,9.64,9.64,0,0,1-5.88,1.8,9.91,9.91,0,0,1-5-1.25,8.79,8.79,0,0,1-3.45-3.47,11.07,11.07,0,0,1,0-10.18Z"/><path class="cls-6" d="M38,60.88a9.46,9.46,0,0,1-3.6-3.53,10.4,10.4,0,0,1,0-10.18A9.58,9.58,0,0,1,38,43.65a10.51,10.51,0,0,1,10,0,9.36,9.36,0,0,1,3.57,3.52,10.51,10.51,0,0,1,0,10.18A9.34,9.34,0,0,1,48,60.88a9.91,9.91,0,0,1-5,1.27A10,10,0,0,1,38,60.88Zm8.69-4.56a5.84,5.84,0,0,0,1.38-4.06,5.87,5.87,0,0,0-1.38-4.09,5.3,5.3,0,0,0-7.42,0,5.8,5.8,0,0,0-1.39,4.1,5.82,5.82,0,0,0,1.39,4.08A4.79,4.79,0,0,0,43,57.86,4.74,4.74,0,0,0,46.73,56.32Z"/><path class="cls-6" d="M77.35,42.67V62h-4.7V50.39L68.34,62h-3.8L60.2,50.36V62H55.5V42.67h5.56L66.47,56l5.36-13.35Z"/><path class="cls-6" d="M85.43,42.67V62h-4.7V42.67Z"/><path class="cls-6" d="M106.09,62h-4.7L93.53,50.06V62h-4.7V42.67h4.7l7.86,11.95V42.67h4.7Z"/><path class="cls-6" d="M122.3,48.77a3.47,3.47,0,0,0-1.49-1.47,4.94,4.94,0,0,0-2.3-.51,4.73,4.73,0,0,0-3.65,1.49,5.69,5.69,0,0,0-1.38,4,5.77,5.77,0,0,0,1.44,4.17,5.31,5.31,0,0,0,4,1.49,4.77,4.77,0,0,0,2.92-.88,5,5,0,0,0,1.75-2.52h-6V51.07h10.23v4.37a9,9,0,0,1-1.78,3.27,9.27,9.27,0,0,1-3.17,2.45,9.84,9.84,0,0,1-4.34.93,10.2,10.2,0,0,1-5.1-1.25A8.89,8.89,0,0,1,110,57.37a11,11,0,0,1,0-10.18,8.79,8.79,0,0,1,3.48-3.49,10.1,10.1,0,0,1,5.08-1.25,9.84,9.84,0,0,1,5.84,1.67,8,8,0,0,1,3.15,4.65Z"/><path d="M18.17,96.64a8.82,8.82,0,0,1-3.78-2.87,7.81,7.81,0,0,1-1.49-4.58H20a3.14,3.14,0,0,0,3.38,3.1,3.58,3.58,0,0,0,2.32-.68,2.44,2.44,0,0,0,.18-3.55A5.35,5.35,0,0,0,24.17,87a27.45,27.45,0,0,0-2.81-1,30.64,30.64,0,0,1-4.31-1.62A8,8,0,0,1,14.18,82,6.66,6.66,0,0,1,13,77.82a7.13,7.13,0,0,1,2.76-6,11.28,11.28,0,0,1,7.18-2.15,11.44,11.44,0,0,1,7.26,2.15,7.71,7.71,0,0,1,2.94,6H25.94a2.85,2.85,0,0,0-1-2.07A3.4,3.4,0,0,0,22.68,75a2.92,2.92,0,0,0-1.95.64A2.32,2.32,0,0,0,20,77.51a2.27,2.27,0,0,0,1.24,2,20.56,20.56,0,0,0,3.88,1.59,37.32,37.32,0,0,1,4.29,1.71,8.05,8.05,0,0,1,2.85,2.37,6.35,6.35,0,0,1,1.2,4,7.84,7.84,0,0,1-1.18,4.23,8.32,8.32,0,0,1-3.43,3,11.79,11.79,0,0,1-5.32,1.13A14,14,0,0,1,18.17,96.64Z"/><path d="M43.38,95.82a13.35,13.35,0,0,1-5.08-5,13.92,13.92,0,0,1-1.89-7.2,13.77,13.77,0,0,1,1.89-7.18,13.39,13.39,0,0,1,5.08-5,14.83,14.83,0,0,1,14.09,0,13.15,13.15,0,0,1,5,5,14.83,14.83,0,0,1,0,14.38,13.24,13.24,0,0,1-5,5,14.72,14.72,0,0,1-14.07,0Zm12.26-6.44a9.43,9.43,0,0,0,0-11.51,6.71,6.71,0,0,0-5.22-2.15,6.78,6.78,0,0,0-5.25,2.13,8.24,8.24,0,0,0-2,5.79,8.23,8.23,0,0,0,2,5.76,6.73,6.73,0,0,0,5.25,2.15A6.66,6.66,0,0,0,55.64,89.38Z"/><path d="M73.88,95.82a13.42,13.42,0,0,1-5.08-5,14,14,0,0,1-1.88-7.2,13.86,13.86,0,0,1,1.88-7.18,13.46,13.46,0,0,1,5.08-5,14.83,14.83,0,0,1,14.09,0,13.11,13.11,0,0,1,5,5,14.9,14.9,0,0,1,0,14.38,13.27,13.27,0,0,1-5,5,14.1,14.1,0,0,1-7,1.79A14.27,14.27,0,0,1,73.88,95.82Zm12.27-6.44a9.43,9.43,0,0,0,0-11.51,7.49,7.49,0,0,0-10.48,0,8.24,8.24,0,0,0-2,5.79,8.23,8.23,0,0,0,2,5.76,7.44,7.44,0,0,0,10.48,0Z"/><path d="M122.92,97.34h-6.64L105.19,80.53V97.34H98.55V70.09h6.64L116.28,87V70.09h6.64Z"/><path class="cls-5" d="M18.17,96.64a8.82,8.82,0,0,1-3.78-2.87,7.81,7.81,0,0,1-1.49-4.58H20a3.14,3.14,0,0,0,3.38,3.1,3.58,3.58,0,0,0,2.32-.68,2.44,2.44,0,0,0,.18-3.55A5.35,5.35,0,0,0,24.17,87a27.45,27.45,0,0,0-2.81-1,30.64,30.64,0,0,1-4.31-1.62A8,8,0,0,1,14.18,82,6.66,6.66,0,0,1,13,77.82a7.13,7.13,0,0,1,2.76-6,11.28,11.28,0,0,1,7.18-2.15,11.44,11.44,0,0,1,7.26,2.15,7.71,7.71,0,0,1,2.94,6H25.94a2.85,2.85,0,0,0-1-2.07A3.4,3.4,0,0,0,22.68,75a2.92,2.92,0,0,0-1.95.64A2.32,2.32,0,0,0,20,77.51a2.27,2.27,0,0,0,1.24,2,20.56,20.56,0,0,0,3.88,1.59,37.32,37.32,0,0,1,4.29,1.71,8.05,8.05,0,0,1,2.85,2.37,6.35,6.35,0,0,1,1.2,4,7.84,7.84,0,0,1-1.18,4.23,8.32,8.32,0,0,1-3.43,3,11.79,11.79,0,0,1-5.32,1.13A14,14,0,0,1,18.17,96.64Z"/><path class="cls-5" d="M43.38,95.82a13.35,13.35,0,0,1-5.08-5,13.92,13.92,0,0,1-1.89-7.2,13.77,13.77,0,0,1,1.89-7.18,13.39,13.39,0,0,1,5.08-5,14.83,14.83,0,0,1,14.09,0,13.15,13.15,0,0,1,5,5,14.83,14.83,0,0,1,0,14.38,13.24,13.24,0,0,1-5,5,14.72,14.72,0,0,1-14.07,0Zm12.26-6.44a9.43,9.43,0,0,0,0-11.51,6.71,6.71,0,0,0-5.22-2.15,6.78,6.78,0,0,0-5.25,2.13,8.24,8.24,0,0,0-2,5.79,8.23,8.23,0,0,0,2,5.76,6.73,6.73,0,0,0,5.25,2.15A6.66,6.66,0,0,0,55.64,89.38Z"/><path class="cls-5" d="M73.88,95.82a13.42,13.42,0,0,1-5.08-5,14,14,0,0,1-1.88-7.2,13.86,13.86,0,0,1,1.88-7.18,13.46,13.46,0,0,1,5.08-5,14.83,14.83,0,0,1,14.09,0,13.11,13.11,0,0,1,5,5,14.9,14.9,0,0,1,0,14.38,13.27,13.27,0,0,1-5,5,14.1,14.1,0,0,1-7,1.79A14.27,14.27,0,0,1,73.88,95.82Zm12.27-6.44a9.43,9.43,0,0,0,0-11.51,7.49,7.49,0,0,0-10.48,0,8.24,8.24,0,0,0-2,5.79,8.23,8.23,0,0,0,2,5.76,7.44,7.44,0,0,0,10.48,0Z"/><path class="cls-5" d="M122.92,97.34h-6.64L105.19,80.53V97.34H98.55V70.09h6.64L116.28,87V70.09h6.64Z"/><path class="cls-6" d="M18.17,96.64a8.82,8.82,0,0,1-3.78-2.87,7.81,7.81,0,0,1-1.49-4.58H20a3.14,3.14,0,0,0,3.38,3.1,3.58,3.58,0,0,0,2.32-.68,2.44,2.44,0,0,0,.18-3.55A5.35,5.35,0,0,0,24.17,87a27.45,27.45,0,0,0-2.81-1,30.64,30.64,0,0,1-4.31-1.62A8,8,0,0,1,14.18,82,6.66,6.66,0,0,1,13,77.82a7.13,7.13,0,0,1,2.76-6,11.28,11.28,0,0,1,7.18-2.15,11.44,11.44,0,0,1,7.26,2.15,7.71,7.71,0,0,1,2.94,6H25.94a2.85,2.85,0,0,0-1-2.07A3.4,3.4,0,0,0,22.68,75a2.92,2.92,0,0,0-1.95.64A2.32,2.32,0,0,0,20,77.51a2.27,2.27,0,0,0,1.24,2,20.56,20.56,0,0,0,3.88,1.59,37.32,37.32,0,0,1,4.29,1.71,8.05,8.05,0,0,1,2.85,2.37,6.35,6.35,0,0,1,1.2,4,7.84,7.84,0,0,1-1.18,4.23,8.32,8.32,0,0,1-3.43,3,11.79,11.79,0,0,1-5.32,1.13A14,14,0,0,1,18.17,96.64Z"/><path class="cls-6" d="M43.38,95.82a13.35,13.35,0,0,1-5.08-5,13.92,13.92,0,0,1-1.89-7.2,13.77,13.77,0,0,1,1.89-7.18,13.39,13.39,0,0,1,5.08-5,14.83,14.83,0,0,1,14.09,0,13.15,13.15,0,0,1,5,5,14.83,14.83,0,0,1,0,14.38,13.24,13.24,0,0,1-5,5,14.72,14.72,0,0,1-14.07,0Zm12.26-6.44a9.43,9.43,0,0,0,0-11.51,6.71,6.71,0,0,0-5.22-2.15,6.78,6.78,0,0,0-5.25,2.13,8.24,8.24,0,0,0-2,5.79,8.23,8.23,0,0,0,2,5.76,6.73,6.73,0,0,0,5.25,2.15A6.66,6.66,0,0,0,55.64,89.38Z"/><path class="cls-6" d="M73.88,95.82a13.42,13.42,0,0,1-5.08-5,14,14,0,0,1-1.88-7.2,13.86,13.86,0,0,1,1.88-7.18,13.46,13.46,0,0,1,5.08-5,14.83,14.83,0,0,1,14.09,0,13.11,13.11,0,0,1,5,5,14.9,14.9,0,0,1,0,14.38,13.27,13.27,0,0,1-5,5,14.1,14.1,0,0,1-7,1.79A14.27,14.27,0,0,1,73.88,95.82Zm12.27-6.44a9.43,9.43,0,0,0,0-11.51,7.49,7.49,0,0,0-10.48,0,8.24,8.24,0,0,0-2,5.79,8.23,8.23,0,0,0,2,5.76,7.44,7.44,0,0,0,10.48,0Z"/><path class="cls-6" d="M122.92,97.34h-6.64L105.19,80.53V97.34H98.55V70.09h6.64L116.28,87V70.09h6.64Z"/></g></svg>