<svg xmlns="http://www.w3.org/2000/svg" xmlns:xlink="http://www.w3.org/1999/xlink" width="633" height="600" viewBox="0 0 633 600">
  <defs>
    <clipPath id="clip-Artboard_2">
      <rect width="633" height="600"/>
    </clipPath>
  </defs>
  <g id="Artboard_2" data-name="Artboard – 2" clip-path="url(#clip-Artboard_2)">
    <rect width="633" height="600" fill="#fff"/>
    <g id="approval" transform="translate(54.286 38.291)">
      <g id="Group_956" data-name="Group 956" transform="translate(170.961 0)">
        <g id="Group_955" data-name="Group 955">
          <path id="Path_808" data-name="Path 808" d="M50.114,3A10.22,10.22,0,1,0,35.661,17.449,10.222,10.222,0,0,0,53.11,10.222,10.3,10.3,0,0,0,50.114,3Z" transform="translate(-32.666 0)" fill="#ff7900"/>
        </g>
      </g>
      <g id="Group_958" data-name="Group 958" transform="translate(0 0)">
        <g id="Group_957" data-name="Group 957">
          <path id="Path_809" data-name="Path 809" d="M523.343,190.643a10.194,10.194,0,0,0-4.211-7.774l-50.968-36.88V30.666A30.7,30.7,0,0,0,437.5,0H221.3a10.222,10.222,0,0,0,0,20.444H437.5a10.233,10.233,0,0,1,10.222,10.222v200.7L322.943,333.242l-31.3-22.649a51.012,51.012,0,0,0-59.922,0l-31.3,22.65L75.642,231.368V30.666A10.234,10.234,0,0,1,85.864,20.444h55.709a10.222,10.222,0,0,0,0-20.444H85.864A30.7,30.7,0,0,0,55.2,30.666V145.988L4.23,182.869l.01.005A10.2,10.2,0,0,0,0,191.15v281.1a51.168,51.168,0,0,0,51.109,51.109H472.252a51.168,51.168,0,0,0,51.109-51.109V191.15C523.361,190.965,523.355,190.8,523.343,190.643Zm-55.18-19.42,28.216,20.415-28.216,23.037Zm-412.965,0v43.452L26.983,191.638ZM20.444,212.691,183.281,345.643,20.444,463.468ZM472.252,502.917H51.109a30.691,30.691,0,0,1-27.272-16.671L243.7,327.156a30.608,30.608,0,0,1,35.952,0l175.1,126.7h-102.1a10.222,10.222,0,0,0,0,20.444H483.007l16.517,11.95A30.691,30.691,0,0,1,472.252,502.917Zm30.666-39.449L340.08,345.642,502.917,212.691Z" transform="translate(0)" fill="#ff7900"/>
        </g>
      </g>
      <g id="Group_960" data-name="Group 960" transform="translate(208.308 118.992)">
        <g id="Group_959" data-name="Group 959">
          <path id="Path_810" data-name="Path 810" d="M143.552,25.73a10.223,10.223,0,0,0-14.457,0L78.936,75.89,57.253,54.206A10.223,10.223,0,0,0,42.8,68.663L71.708,97.573a10.222,10.222,0,0,0,14.456,0l57.388-57.388A10.222,10.222,0,0,0,143.552,25.73Z" transform="translate(-39.802 -22.736)" fill="#ff7900"/>
        </g>
      </g>
      <g id="Group_962" data-name="Group 962" transform="translate(158.972 55.198)">
        <g id="Group_961" data-name="Group 961">
          <path id="Path_811" data-name="Path 811" d="M133.084,10.547a102.709,102.709,0,1,0,102.709,102.71A102.825,102.825,0,0,0,133.084,10.547Zm0,184.975a82.265,82.265,0,1,1,82.265-82.266A82.358,82.358,0,0,1,133.084,195.521Z" transform="translate(-30.375 -10.547)" fill="#ff7900"/>
        </g>
      </g>
      <g id="Group_964" data-name="Group 964" transform="translate(296.098 453.852)">
        <g id="Group_963" data-name="Group 963">
          <path id="Path_812" data-name="Path 812" d="M74.025,89.714a10.217,10.217,0,1,0,2.995,7.227A10.3,10.3,0,0,0,74.025,89.714Z" transform="translate(-56.576 -86.719)" fill="#ff7900"/>
        </g>
      </g>
    </g>
  </g>
</svg>
