<svg id="Layer_1" data-name="Layer 1" xmlns="http://www.w3.org/2000/svg" xmlns:xlink="http://www.w3.org/1999/xlink" viewBox="0 0 140 140"><defs><style>.cls-1{fill:#efefef;}.cls-1,.cls-2{opacity:0.45;}.cls-3{fill:#777;}.cls-4{fill:#595959;}.cls-5{fill:#393939;}.cls-6{filter:url(#filter);}.cls-7{fill:#fff;}.cls-8{fill:none;stroke:#4d4d4d;stroke-miterlimit:10;stroke-width:0.25px;}</style><filter id="filter"><feOffset dx="3" dy="2" input="SourceAlpha"/><feGaussianBlur stdDeviation="5" result="blur"/><feFlood/><feComposite operator="in" in2="blur"/><feComposite in="SourceGraphic"/></filter></defs><rect class="cls-1" width="140" height="140"/><g id="_8BuGAp.tif" data-name="8BuGAp.tif" class="cls-2"><path class="cls-3" d="M74.85,21.86c.64.43,1.23.9,1.1,1.79A1.49,1.49,0,0,1,74.88,25a3.2,3.2,0,0,1-.93.1c-2.63,0-5.26,0-7.89,0-.93,0-1.71-.18-2-1.15s.3-1.57,1-2.06Z"/><path class="cls-3" d="M21.82,65.11c.77-1.07,1.41-1.35,2.24-1a1.66,1.66,0,0,1,1,1.68c0,2.66,0,5.32,0,8,0,1-.12,1.79-1.15,2.12s-1.57-.29-2.06-1Z"/><path class="cls-4" d="M104.57,71.71a34.15,34.15,0,0,1-8.33,21c-.21.25-.54.45-.54.84a5.6,5.6,0,0,0-2.23,2.22,17.48,17.48,0,0,0-2.66,2,33.92,33.92,0,0,1-19.12,6.86,16.67,16.67,0,0,1-3.46,0A34.07,34.07,0,0,1,49,97.71a17,17,0,0,0-2.59-2,7.64,7.64,0,0,0-2.23-2.23,18.7,18.7,0,0,0-2-2.66,33.91,33.91,0,0,1-6.85-19.12,4.48,4.48,0,0,0-.12-1.36c-.11-.4-.18-.87.33-1.13a8,8,0,0,0,1.85,2.53c2.72,2.4,7.94,2,9.5-2.28a30,30,0,0,1,1.82-4.38c.5,0,.72.46,1,.76A9.46,9.46,0,0,0,64.13,53.75a6.27,6.27,0,0,0-2.45-2.37l-.57-.55a.77.77,0,0,0,.27-.07A37.82,37.82,0,0,1,69.29,47c3.52-1.35,4.48-4.12,3.62-7.48a5.87,5.87,0,0,0-3.7-3.92c.79-.41,1.65-.07,2.47-.2A33.9,33.9,0,0,1,92,43.18c.48.38.85.93,1.49,1.09a5.71,5.71,0,0,0,2.22,2.22A14.6,14.6,0,0,0,97.59,49a34.08,34.08,0,0,1,7,19.28ZM54,85.22a4.21,4.21,0,0,0,5.14,3.59,4.13,4.13,0,0,0-.66-8.07A4.22,4.22,0,0,0,54,85.22Zm23.69-28a5.57,5.57,0,0,0,7,4.41,5.74,5.74,0,0,0,4-5.39,5.62,5.62,0,0,0-4.5-5.39C80.68,49.84,76.8,53.52,77.68,57.2ZM87.83,74.7a8,8,0,0,0-7.1-1.77A9.43,9.43,0,0,0,73,83.39a6.65,6.65,0,0,0,1.85,4.29A1.2,1.2,0,0,0,75,88,9.44,9.44,0,0,0,90.73,77.78,7.18,7.18,0,0,0,87.83,74.7Z"/><path class="cls-3" d="M69.21,35.58a5.87,5.87,0,0,1,3.7,3.92c.86,3.36-.1,6.13-3.62,7.48a37.82,37.82,0,0,0-7.91,3.78.77.77,0,0,1-.27.07c-.4-.18-.79-.36-1.2-.52A9.28,9.28,0,0,0,54,49.84,9.52,9.52,0,0,0,46.84,60a7.33,7.33,0,0,0,1.86,4.59l0,.56a30,30,0,0,0-1.82,4.38c-1.56,4.3-6.78,4.68-9.5,2.28a8,8,0,0,1-1.85-2.53l-.21-1a33.13,33.13,0,0,1,5.79-17.64,28.5,28.5,0,0,1,2.7-3.49c.17-.18.37-.35.37-.63a5.54,5.54,0,0,0,2.25-2.25,8.67,8.67,0,0,0,2-1.53,34.51,34.51,0,0,1,17.1-7.15,22.24,22.24,0,0,1,2.7-.17Z"/><path class="cls-3" d="M41.75,34a1.69,1.69,0,0,1-.61,1.32c-2,2-3.93,4-5.91,5.91a1.67,1.67,0,0,1-2.43.16,1.65,1.65,0,0,1,.12-2.42c2-2,4-4,6-6a1.63,1.63,0,0,1,1.88-.45A1.49,1.49,0,0,1,41.75,34Z"/><path class="cls-3" d="M99.72,32.37a1.77,1.77,0,0,1,1.33.6c2,2,4,3.94,5.91,5.92a1.63,1.63,0,1,1-2.31,2.27c-2-2-3.94-3.94-5.92-5.91a1.67,1.67,0,0,1-.47-1.88A1.52,1.52,0,0,1,99.72,32.37Z"/><path class="cls-3" d="M33.93,98.2a1.72,1.72,0,0,1,1.32.62c2,2,4,3.93,5.91,5.91A1.63,1.63,0,1,1,38.9,107c-2-2-4-4-6-6a1.6,1.6,0,0,1-.45-1.88A1.52,1.52,0,0,1,33.93,98.2Z"/><path class="cls-3" d="M99.92,107.62a1.56,1.56,0,0,1-1.63-.94,1.62,1.62,0,0,1,.4-1.89c1.79-1.79,3.59-3.58,5.38-5.38.26-.26.52-.54.8-.78a1.62,1.62,0,0,1,2.22,0,1.55,1.55,0,0,1,.09,2.21c-2.1,2.15-4.24,4.26-6.37,6.38A1.24,1.24,0,0,1,99.92,107.62Z"/><path class="cls-3" d="M114.9,69.9c0-1.34,0-2.68,0-4,0-1.16.65-1.9,1.62-1.88a1.66,1.66,0,0,1,1.58,1.84q0,4.17,0,8.34A1.67,1.67,0,0,1,116.52,76c-1,0-1.61-.72-1.62-1.89C114.89,72.72,114.9,71.31,114.9,69.9Z"/><path class="cls-3" d="M70,118.14c-1.37,0-2.75,0-4.12,0-1.14,0-1.91-.68-1.89-1.62a1.63,1.63,0,0,1,1.83-1.58h8.34A1.64,1.64,0,0,1,76,116.51a1.68,1.68,0,0,1-1.88,1.63C72.71,118.15,71.34,118.14,70,118.14Z"/><path class="cls-5" d="M69.21,35.58l-1-.19a43,43,0,0,0,.1-4.95c0-1.57.55-2.36,1.63-2.37s1.6.8,1.63,2.37a45.2,45.2,0,0,0,.09,4.94C70.86,35.51,70,35.17,69.21,35.58Z"/><path class="cls-5" d="M104.57,71.71V68.29c1.59.18,3.19,0,4.79.08a10.51,10.51,0,0,1,1.12.06,1.55,1.55,0,0,1,1.4,1.52,1.5,1.5,0,0,1-1.4,1.6c-1.15.1-2.32,0-3.47.08A12.43,12.43,0,0,0,104.57,71.71Z"/><path class="cls-5" d="M35.34,68.25l.21,1c-.51.26-.44.73-.33,1.13a4.48,4.48,0,0,1,.12,1.36,19.72,19.72,0,0,0-3.35-.1c-.59,0-1.18,0-1.78,0C28.81,71.61,28,71,28,70s.77-1.58,2.18-1.62A39.75,39.75,0,0,0,35.34,68.25Z"/><path class="cls-5" d="M68.23,104.62a16.67,16.67,0,0,0,3.46,0,19.92,19.92,0,0,0-.1,3.37c0,.68,0,1.37,0,2.06,0,1.17-.71,1.9-1.67,1.87s-1.53-.73-1.57-1.87C68.26,108.24,68.46,106.43,68.23,104.62Z"/><path class="cls-5" d="M46.45,44.24a5.54,5.54,0,0,1-2.25,2.25c-1.26-1.25-2.53-2.49-3.78-3.76a1.61,1.61,0,1,1,2.27-2.27C44,41.7,45.2,43,46.45,44.24Z"/><path class="cls-5" d="M95.69,46.49a5.71,5.71,0,0,1-2.22-2.22C94.74,43,96,41.67,97.29,40.4a1.61,1.61,0,1,1,2.27,2.27C98.29,44,97,45.22,95.69,46.49Z"/><path class="cls-5" d="M93.47,95.73a5.6,5.6,0,0,1,2.23-2.22C97,94.78,98.29,96,99.56,97.33a1.61,1.61,0,1,1-2.27,2.27C96,98.33,94.74,97,93.47,95.73Z"/><path class="cls-5" d="M44.22,93.51a7.64,7.64,0,0,1,2.23,2.23c-1.27,1.29-2.53,2.59-3.82,3.86a1.61,1.61,0,1,1-2.27-2.27C41.63,96,42.93,94.78,44.22,93.51Z"/><path class="cls-3" d="M48.72,65.11c0-.19,0-.38,0-.56,1.72,0,1.91-.22,2.09-2A10.36,10.36,0,0,1,52,58.51a9.24,9.24,0,0,1,7.51-4.85c1.88-.17,2.19-.36,2.17-2.28a6.27,6.27,0,0,1,2.45,2.37A9.46,9.46,0,0,1,49.74,65.87C49.44,65.57,49.22,65.15,48.72,65.11Z"/><path class="cls-3" d="M87.83,74.7a7.18,7.18,0,0,1,2.9,3.08A9.44,9.44,0,0,1,75,88a1.2,1.2,0,0,1-.12-.35c1.76.13,2.24-.5,2.09-2a4.46,4.46,0,0,1,.18-1.19,9.65,9.65,0,0,1,8.66-7.69C87.59,76.61,87.82,76.44,87.83,74.7Z"/><path class="cls-5" d="M61.68,51.38c0,1.92-.29,2.11-2.17,2.28A9.24,9.24,0,0,0,52,58.51a10.36,10.36,0,0,0-1.21,4.08c-.18,1.74-.37,2-2.09,2A7.33,7.33,0,0,1,46.84,60,9.52,9.52,0,0,1,54,49.84a9.28,9.28,0,0,1,5.93.47c.41.16.8.34,1.2.52Z"/><path class="cls-5" d="M87.83,74.7c0,1.74-.24,1.91-2.06,2.08a9.65,9.65,0,0,0-8.66,7.69,4.46,4.46,0,0,0-.18,1.19c.15,1.52-.33,2.15-2.09,2A6.65,6.65,0,0,1,73,83.39a9.43,9.43,0,0,1,7.74-10.46A8,8,0,0,1,87.83,74.7Z"/><path class="cls-3" d="M84.24,50.83a5.62,5.62,0,0,1,4.5,5.39,5.74,5.74,0,0,1-4,5.39,5.57,5.57,0,0,1-7-4.41c1.7.76,2,.61,2.89-1a6,6,0,0,1,2.48-2.47C84.74,52.82,84.87,52.6,84.24,50.83Z"/><path class="cls-3" d="M58.47,80.74a4.13,4.13,0,0,1,.66,8.07A4.21,4.21,0,0,1,54,85.22a1.33,1.33,0,0,1,.35.13c1,.71,1.44.66,2.11-.39a5.82,5.82,0,0,1,1.85-1.81c.94-.6,1-1.09.36-2A2.26,2.26,0,0,1,58.47,80.74Z"/><path class="cls-5" d="M84.24,50.83c.63,1.77.5,2-1.19,2.88a6,6,0,0,0-2.48,2.47c-.89,1.63-1.19,1.78-2.89,1C76.8,53.52,80.68,49.84,84.24,50.83Z"/><path class="cls-5" d="M58.47,80.74a2.26,2.26,0,0,0,.19.42c.64.9.58,1.39-.36,2A5.82,5.82,0,0,0,56.45,85c-.67,1.05-1.09,1.1-2.11.39a1.33,1.33,0,0,0-.35-.13A4.22,4.22,0,0,1,58.47,80.74Z"/></g><g class="cls-6"><path d="M13.41,47.19a8.71,8.71,0,0,1,3.45-3.49,9.91,9.91,0,0,1,5-1.25,9.58,9.58,0,0,1,5.88,1.81,8.72,8.72,0,0,1,3.27,5H25.86a4.24,4.24,0,0,0-1.64-1.85,4.57,4.57,0,0,0-2.4-.63,4.52,4.52,0,0,0-3.52,1.51,5.85,5.85,0,0,0-1.35,4,5.84,5.84,0,0,0,1.35,4,4.48,4.48,0,0,0,3.52,1.51,4.57,4.57,0,0,0,2.4-.63,4.15,4.15,0,0,0,1.64-1.84H31a8.64,8.64,0,0,1-3.27,4.93,9.64,9.64,0,0,1-5.88,1.8,9.91,9.91,0,0,1-5-1.25,8.79,8.79,0,0,1-3.45-3.47,11.07,11.07,0,0,1,0-10.18Z"/><path d="M38,60.88a9.46,9.46,0,0,1-3.6-3.53,10.4,10.4,0,0,1,0-10.18A9.58,9.58,0,0,1,38,43.65a10.51,10.51,0,0,1,10,0,9.36,9.36,0,0,1,3.57,3.52,10.51,10.51,0,0,1,0,10.18A9.34,9.34,0,0,1,48,60.88a9.91,9.91,0,0,1-5,1.27A10,10,0,0,1,38,60.88Zm8.69-4.56a5.84,5.84,0,0,0,1.38-4.06,5.87,5.87,0,0,0-1.38-4.09,5.3,5.3,0,0,0-7.42,0,5.8,5.8,0,0,0-1.39,4.1,5.82,5.82,0,0,0,1.39,4.08A4.79,4.79,0,0,0,43,57.86,4.74,4.74,0,0,0,46.73,56.32Z"/><path d="M77.35,42.67V62h-4.7V50.39L68.34,62h-3.8L60.2,50.36V62H55.5V42.67h5.56L66.47,56l5.36-13.35Z"/><path d="M85.43,42.67V62h-4.7V42.67Z"/><path d="M106.09,62h-4.7L93.53,50.06V62h-4.7V42.67h4.7l7.86,11.95V42.67h4.7Z"/><path d="M122.3,48.77a3.47,3.47,0,0,0-1.49-1.47,4.94,4.94,0,0,0-2.3-.51,4.73,4.73,0,0,0-3.65,1.49,5.69,5.69,0,0,0-1.38,4,5.77,5.77,0,0,0,1.44,4.17,5.31,5.31,0,0,0,4,1.49,4.77,4.77,0,0,0,2.92-.88,5,5,0,0,0,1.75-2.52h-6V51.07h10.23v4.37a9,9,0,0,1-1.78,3.27,9.27,9.27,0,0,1-3.17,2.45,9.84,9.84,0,0,1-4.34.93,10.2,10.2,0,0,1-5.1-1.25A8.89,8.89,0,0,1,110,57.37a11,11,0,0,1,0-10.18,8.79,8.79,0,0,1,3.48-3.49,10.1,10.1,0,0,1,5.08-1.25,9.84,9.84,0,0,1,5.84,1.67,8,8,0,0,1,3.15,4.65Z"/><path class="cls-7" d="M13.41,47.19a8.71,8.71,0,0,1,3.45-3.49,9.91,9.91,0,0,1,5-1.25,9.58,9.58,0,0,1,5.88,1.81,8.72,8.72,0,0,1,3.27,5H25.86a4.24,4.24,0,0,0-1.64-1.85,4.57,4.57,0,0,0-2.4-.63,4.52,4.52,0,0,0-3.52,1.51,5.85,5.85,0,0,0-1.35,4,5.84,5.84,0,0,0,1.35,4,4.48,4.48,0,0,0,3.52,1.51,4.57,4.57,0,0,0,2.4-.63,4.15,4.15,0,0,0,1.64-1.84H31a8.64,8.64,0,0,1-3.27,4.93,9.64,9.64,0,0,1-5.88,1.8,9.91,9.91,0,0,1-5-1.25,8.79,8.79,0,0,1-3.45-3.47,11.07,11.07,0,0,1,0-10.18Z"/><path class="cls-7" d="M38,60.88a9.46,9.46,0,0,1-3.6-3.53,10.4,10.4,0,0,1,0-10.18A9.58,9.58,0,0,1,38,43.65a10.51,10.51,0,0,1,10,0,9.36,9.36,0,0,1,3.57,3.52,10.51,10.51,0,0,1,0,10.18A9.34,9.34,0,0,1,48,60.88a9.91,9.91,0,0,1-5,1.27A10,10,0,0,1,38,60.88Zm8.69-4.56a5.84,5.84,0,0,0,1.38-4.06,5.87,5.87,0,0,0-1.38-4.09,5.3,5.3,0,0,0-7.42,0,5.8,5.8,0,0,0-1.39,4.1,5.82,5.82,0,0,0,1.39,4.08A4.79,4.79,0,0,0,43,57.86,4.74,4.74,0,0,0,46.73,56.32Z"/><path class="cls-7" d="M77.35,42.67V62h-4.7V50.39L68.34,62h-3.8L60.2,50.36V62H55.5V42.67h5.56L66.47,56l5.36-13.35Z"/><path class="cls-7" d="M85.43,42.67V62h-4.7V42.67Z"/><path class="cls-7" d="M106.09,62h-4.7L93.53,50.06V62h-4.7V42.67h4.7l7.86,11.95V42.67h4.7Z"/><path class="cls-7" d="M122.3,48.77a3.47,3.47,0,0,0-1.49-1.47,4.94,4.94,0,0,0-2.3-.51,4.73,4.73,0,0,0-3.65,1.49,5.69,5.69,0,0,0-1.38,4,5.77,5.77,0,0,0,1.44,4.17,5.31,5.31,0,0,0,4,1.49,4.77,4.77,0,0,0,2.92-.88,5,5,0,0,0,1.75-2.52h-6V51.07h10.23v4.37a9,9,0,0,1-1.78,3.27,9.27,9.27,0,0,1-3.17,2.45,9.84,9.84,0,0,1-4.34.93,10.2,10.2,0,0,1-5.1-1.25A8.89,8.89,0,0,1,110,57.37a11,11,0,0,1,0-10.18,8.79,8.79,0,0,1,3.48-3.49,10.1,10.1,0,0,1,5.08-1.25,9.84,9.84,0,0,1,5.84,1.67,8,8,0,0,1,3.15,4.65Z"/><path class="cls-8" d="M13.41,47.19a8.71,8.71,0,0,1,3.45-3.49,9.91,9.91,0,0,1,5-1.25,9.58,9.58,0,0,1,5.88,1.81,8.72,8.72,0,0,1,3.27,5H25.86a4.24,4.24,0,0,0-1.64-1.85,4.57,4.57,0,0,0-2.4-.63,4.52,4.52,0,0,0-3.52,1.51,5.85,5.85,0,0,0-1.35,4,5.84,5.84,0,0,0,1.35,4,4.48,4.48,0,0,0,3.52,1.51,4.57,4.57,0,0,0,2.4-.63,4.15,4.15,0,0,0,1.64-1.84H31a8.64,8.64,0,0,1-3.27,4.93,9.64,9.64,0,0,1-5.88,1.8,9.91,9.91,0,0,1-5-1.25,8.79,8.79,0,0,1-3.45-3.47,11.07,11.07,0,0,1,0-10.18Z"/><path class="cls-8" d="M38,60.88a9.46,9.46,0,0,1-3.6-3.53,10.4,10.4,0,0,1,0-10.18A9.58,9.58,0,0,1,38,43.65a10.51,10.51,0,0,1,10,0,9.36,9.36,0,0,1,3.57,3.52,10.51,10.51,0,0,1,0,10.18A9.34,9.34,0,0,1,48,60.88a9.91,9.91,0,0,1-5,1.27A10,10,0,0,1,38,60.88Zm8.69-4.56a5.84,5.84,0,0,0,1.38-4.06,5.87,5.87,0,0,0-1.38-4.09,5.3,5.3,0,0,0-7.42,0,5.8,5.8,0,0,0-1.39,4.1,5.82,5.82,0,0,0,1.39,4.08A4.79,4.79,0,0,0,43,57.86,4.74,4.74,0,0,0,46.73,56.32Z"/><path class="cls-8" d="M77.35,42.67V62h-4.7V50.39L68.34,62h-3.8L60.2,50.36V62H55.5V42.67h5.56L66.47,56l5.36-13.35Z"/><path class="cls-8" d="M85.43,42.67V62h-4.7V42.67Z"/><path class="cls-8" d="M106.09,62h-4.7L93.53,50.06V62h-4.7V42.67h4.7l7.86,11.95V42.67h4.7Z"/><path class="cls-8" d="M122.3,48.77a3.47,3.47,0,0,0-1.49-1.47,4.94,4.94,0,0,0-2.3-.51,4.73,4.73,0,0,0-3.65,1.49,5.69,5.69,0,0,0-1.38,4,5.77,5.77,0,0,0,1.44,4.17,5.31,5.31,0,0,0,4,1.49,4.77,4.77,0,0,0,2.92-.88,5,5,0,0,0,1.75-2.52h-6V51.07h10.23v4.37a9,9,0,0,1-1.78,3.27,9.27,9.27,0,0,1-3.17,2.45,9.84,9.84,0,0,1-4.34.93,10.2,10.2,0,0,1-5.1-1.25A8.89,8.89,0,0,1,110,57.37a11,11,0,0,1,0-10.18,8.79,8.79,0,0,1,3.48-3.49,10.1,10.1,0,0,1,5.08-1.25,9.84,9.84,0,0,1,5.84,1.67,8,8,0,0,1,3.15,4.65Z"/><path d="M18.17,96.64a8.82,8.82,0,0,1-3.78-2.87,7.81,7.81,0,0,1-1.49-4.58H20a3.14,3.14,0,0,0,3.38,3.1,3.58,3.58,0,0,0,2.32-.68,2.44,2.44,0,0,0,.18-3.55A5.35,5.35,0,0,0,24.17,87a27.45,27.45,0,0,0-2.81-1,30.64,30.64,0,0,1-4.31-1.62A8,8,0,0,1,14.18,82,6.66,6.66,0,0,1,13,77.82a7.13,7.13,0,0,1,2.76-6,11.28,11.28,0,0,1,7.18-2.15,11.44,11.44,0,0,1,7.26,2.15,7.71,7.71,0,0,1,2.94,6H25.94a2.85,2.85,0,0,0-1-2.07A3.4,3.4,0,0,0,22.68,75a2.92,2.92,0,0,0-1.95.64A2.32,2.32,0,0,0,20,77.51a2.27,2.27,0,0,0,1.24,2,20.56,20.56,0,0,0,3.88,1.59,37.32,37.32,0,0,1,4.29,1.71,8.05,8.05,0,0,1,2.85,2.37,6.35,6.35,0,0,1,1.2,4,7.84,7.84,0,0,1-1.18,4.23,8.32,8.32,0,0,1-3.43,3,11.79,11.79,0,0,1-5.32,1.13A14,14,0,0,1,18.17,96.64Z"/><path d="M43.38,95.82a13.35,13.35,0,0,1-5.08-5,13.92,13.92,0,0,1-1.89-7.2,13.77,13.77,0,0,1,1.89-7.18,13.39,13.39,0,0,1,5.08-5,14.83,14.83,0,0,1,14.09,0,13.15,13.15,0,0,1,5,5,14.83,14.83,0,0,1,0,14.38,13.24,13.24,0,0,1-5,5,14.72,14.72,0,0,1-14.07,0Zm12.26-6.44a9.43,9.43,0,0,0,0-11.51,6.71,6.71,0,0,0-5.22-2.15,6.78,6.78,0,0,0-5.25,2.13,8.24,8.24,0,0,0-2,5.79,8.23,8.23,0,0,0,2,5.76,6.73,6.73,0,0,0,5.25,2.15A6.66,6.66,0,0,0,55.64,89.38Z"/><path d="M73.88,95.82a13.42,13.42,0,0,1-5.08-5,14,14,0,0,1-1.88-7.2,13.86,13.86,0,0,1,1.88-7.18,13.46,13.46,0,0,1,5.08-5,14.83,14.83,0,0,1,14.09,0,13.11,13.11,0,0,1,5,5,14.9,14.9,0,0,1,0,14.38,13.27,13.27,0,0,1-5,5,14.1,14.1,0,0,1-7,1.79A14.27,14.27,0,0,1,73.88,95.82Zm12.27-6.44a9.43,9.43,0,0,0,0-11.51,7.49,7.49,0,0,0-10.48,0,8.24,8.24,0,0,0-2,5.79,8.23,8.23,0,0,0,2,5.76,7.44,7.44,0,0,0,10.48,0Z"/><path d="M122.92,97.34h-6.64L105.19,80.53V97.34H98.55V70.09h6.64L116.28,87V70.09h6.64Z"/><path class="cls-7" d="M18.17,96.64a8.82,8.82,0,0,1-3.78-2.87,7.81,7.81,0,0,1-1.49-4.58H20a3.14,3.14,0,0,0,3.38,3.1,3.58,3.58,0,0,0,2.32-.68,2.44,2.44,0,0,0,.18-3.55A5.35,5.35,0,0,0,24.17,87a27.45,27.45,0,0,0-2.81-1,30.64,30.64,0,0,1-4.31-1.62A8,8,0,0,1,14.18,82,6.66,6.66,0,0,1,13,77.82a7.13,7.13,0,0,1,2.76-6,11.28,11.28,0,0,1,7.18-2.15,11.44,11.44,0,0,1,7.26,2.15,7.71,7.71,0,0,1,2.94,6H25.94a2.85,2.85,0,0,0-1-2.07A3.4,3.4,0,0,0,22.68,75a2.92,2.92,0,0,0-1.95.64A2.32,2.32,0,0,0,20,77.51a2.27,2.27,0,0,0,1.24,2,20.56,20.56,0,0,0,3.88,1.59,37.32,37.32,0,0,1,4.29,1.71,8.05,8.05,0,0,1,2.85,2.37,6.35,6.35,0,0,1,1.2,4,7.84,7.84,0,0,1-1.18,4.23,8.32,8.32,0,0,1-3.43,3,11.79,11.79,0,0,1-5.32,1.13A14,14,0,0,1,18.17,96.64Z"/><path class="cls-7" d="M43.38,95.82a13.35,13.35,0,0,1-5.08-5,13.92,13.92,0,0,1-1.89-7.2,13.77,13.77,0,0,1,1.89-7.18,13.39,13.39,0,0,1,5.08-5,14.83,14.83,0,0,1,14.09,0,13.15,13.15,0,0,1,5,5,14.83,14.83,0,0,1,0,14.38,13.24,13.24,0,0,1-5,5,14.72,14.72,0,0,1-14.07,0Zm12.26-6.44a9.43,9.43,0,0,0,0-11.51,6.71,6.71,0,0,0-5.22-2.15,6.78,6.78,0,0,0-5.25,2.13,8.24,8.24,0,0,0-2,5.79,8.23,8.23,0,0,0,2,5.76,6.73,6.73,0,0,0,5.25,2.15A6.66,6.66,0,0,0,55.64,89.38Z"/><path class="cls-7" d="M73.88,95.82a13.42,13.42,0,0,1-5.08-5,14,14,0,0,1-1.88-7.2,13.86,13.86,0,0,1,1.88-7.18,13.46,13.46,0,0,1,5.08-5,14.83,14.83,0,0,1,14.09,0,13.11,13.11,0,0,1,5,5,14.9,14.9,0,0,1,0,14.38,13.27,13.27,0,0,1-5,5,14.1,14.1,0,0,1-7,1.79A14.27,14.27,0,0,1,73.88,95.82Zm12.27-6.44a9.43,9.43,0,0,0,0-11.51,7.49,7.49,0,0,0-10.48,0,8.24,8.24,0,0,0-2,5.79,8.23,8.23,0,0,0,2,5.76,7.44,7.44,0,0,0,10.48,0Z"/><path class="cls-7" d="M122.92,97.34h-6.64L105.19,80.53V97.34H98.55V70.09h6.64L116.28,87V70.09h6.64Z"/><path class="cls-8" d="M18.17,96.64a8.82,8.82,0,0,1-3.78-2.87,7.81,7.81,0,0,1-1.49-4.58H20a3.14,3.14,0,0,0,3.38,3.1,3.58,3.58,0,0,0,2.32-.68,2.44,2.44,0,0,0,.18-3.55A5.35,5.35,0,0,0,24.17,87a27.45,27.45,0,0,0-2.81-1,30.64,30.64,0,0,1-4.31-1.62A8,8,0,0,1,14.18,82,6.66,6.66,0,0,1,13,77.82a7.13,7.13,0,0,1,2.76-6,11.28,11.28,0,0,1,7.18-2.15,11.44,11.44,0,0,1,7.26,2.15,7.71,7.71,0,0,1,2.94,6H25.94a2.85,2.85,0,0,0-1-2.07A3.4,3.4,0,0,0,22.68,75a2.92,2.92,0,0,0-1.95.64A2.32,2.32,0,0,0,20,77.51a2.27,2.27,0,0,0,1.24,2,20.56,20.56,0,0,0,3.88,1.59,37.32,37.32,0,0,1,4.29,1.71,8.05,8.05,0,0,1,2.85,2.37,6.35,6.35,0,0,1,1.2,4,7.84,7.84,0,0,1-1.18,4.23,8.32,8.32,0,0,1-3.43,3,11.79,11.79,0,0,1-5.32,1.13A14,14,0,0,1,18.17,96.64Z"/><path class="cls-8" d="M43.38,95.82a13.35,13.35,0,0,1-5.08-5,13.92,13.92,0,0,1-1.89-7.2,13.77,13.77,0,0,1,1.89-7.18,13.39,13.39,0,0,1,5.08-5,14.83,14.83,0,0,1,14.09,0,13.15,13.15,0,0,1,5,5,14.83,14.83,0,0,1,0,14.38,13.24,13.24,0,0,1-5,5,14.72,14.72,0,0,1-14.07,0Zm12.26-6.44a9.43,9.43,0,0,0,0-11.51,6.71,6.71,0,0,0-5.22-2.15,6.78,6.78,0,0,0-5.25,2.13,8.24,8.24,0,0,0-2,5.79,8.23,8.23,0,0,0,2,5.76,6.73,6.73,0,0,0,5.25,2.15A6.66,6.66,0,0,0,55.64,89.38Z"/><path class="cls-8" d="M73.88,95.82a13.42,13.42,0,0,1-5.08-5,14,14,0,0,1-1.88-7.2,13.86,13.86,0,0,1,1.88-7.18,13.46,13.46,0,0,1,5.08-5,14.83,14.83,0,0,1,14.09,0,13.11,13.11,0,0,1,5,5,14.9,14.9,0,0,1,0,14.38,13.27,13.27,0,0,1-5,5,14.1,14.1,0,0,1-7,1.79A14.27,14.27,0,0,1,73.88,95.82Zm12.27-6.44a9.43,9.43,0,0,0,0-11.51,7.49,7.49,0,0,0-10.48,0,8.24,8.24,0,0,0-2,5.79,8.23,8.23,0,0,0,2,5.76,7.44,7.44,0,0,0,10.48,0Z"/><path class="cls-8" d="M122.92,97.34h-6.64L105.19,80.53V97.34H98.55V70.09h6.64L116.28,87V70.09h6.64Z"/></g></svg>