<svg xmlns="http://www.w3.org/2000/svg" xmlns:xlink="http://www.w3.org/1999/xlink" width="652" height="600" viewBox="0 0 652 600">
  <defs>
    <clipPath id="clip-Artboard_3">
      <rect width="652" height="600"/>
    </clipPath>
  </defs>
  <g id="Artboard_3" data-name="Artboard – 3" clip-path="url(#clip-Artboard_3)">
    <rect width="652" height="600" fill="#fff"/>
    <g id="Group_1103" data-name="Group 1103" transform="translate(87.638 38.291)">
      <g id="loupe" transform="translate(0 0)">
        <g id="Group_966" data-name="Group 966" transform="translate(40.867 40.826)">
          <g id="Group_965" data-name="Group 965">
            <path id="Path_813" data-name="Path 813" d="M75.718,55.5C125.969,2.828,203.2-5.257,260.325,26.478a10.223,10.223,0,0,1-9.93,17.874c-52.252-29.031-118-18.641-159.841,25.218a133.2,133.2,0,0,0-14.635,164.7c46.007,69.879,145.373,80.409,204.949,20.822,40.144-40.13,51.775-104.848,22.776-157.512a10.224,10.224,0,1,1,17.915-9.856c.627,1.14,1.741,3.264,2.815,5.442h0a153.583,153.583,0,0,1-29.049,176.385c-68.638,68.652-183.289,56.762-236.478-24.029A153.619,153.619,0,0,1,75.718,55.5Z" transform="translate(-33.61 -7.801)" fill="#ff7900"/>
          </g>
        </g>
        <g id="Group_968" data-name="Group 968">
          <g id="Group_967" data-name="Group 967">
            <path id="Path_814" data-name="Path 814" d="M56.8,56.795c75.735-75.725,198.97-75.728,274.708,0a194.292,194.292,0,0,1,19.976,251.311l31.858,31.851a30.668,30.668,0,0,1,34.913,6l90.118,90.128A51.111,51.111,0,1,1,436.09,508.37l-90.131-90.12a30.671,30.671,0,0,1-6-34.912l-31.854-31.862A194.284,194.284,0,0,1,56.8,331.5C-18.932,255.766-18.932,132.533,56.8,56.795Zm303.622,347,90.133,90.122a30.664,30.664,0,0,0,43.363-43.368l-90.12-90.13a10.23,10.23,0,0,0-14.453,0l-28.923,28.923A10.23,10.23,0,0,0,360.418,403.792Zm-7.229-36.141,14.462-14.462-29.113-29.106c-2.284,2.534-4.629,5.018-7.033,7.42s-4.886,4.75-7.422,7.035ZM71.255,317.045A173.8,173.8,0,1,0,317.048,71.254c-67.76-67.751-178.022-67.762-245.792,0S3.5,249.281,71.255,317.045Z" transform="translate(0 0)" fill="#ff7900"/>
          </g>
        </g>
        <g id="Group_970" data-name="Group 970" transform="translate(285.138 82.718)">
          <g id="Group_969" data-name="Group 969">
            <path id="Path_815" data-name="Path 815" d="M44.354,19.062A2.893,2.893,0,0,1,44.6,18.8,10.229,10.229,0,0,1,59.065,33.262c-.092.092-.174.174-.266.256A10.225,10.225,0,0,1,44.354,19.062Z" transform="translate(-41.612 -15.805)" fill="#ff7900"/>
          </g>
        </g>
      </g>
    </g>
  </g>
</svg>
