<svg xmlns="http://www.w3.org/2000/svg" xmlns:xlink="http://www.w3.org/1999/xlink" width="693" height="632" viewBox="0 0 693 632">
  <defs>
    <clipPath id="clip-Artboard_5">
      <rect width="693" height="632"/>
    </clipPath>
  </defs>
  <g id="Artboard_5" data-name="Artboard – 5" clip-path="url(#clip-Artboard_5)">
    <rect width="693" height="632" fill="#fff"/>
    <g id="car-2" transform="translate(52.869 16)">
      <g id="Group_938" data-name="Group 938" transform="translate(507.153 122.092)">
        <g id="Group_937" data-name="Group 937">
          <path id="Path_799" data-name="Path 799" d="M168.479,57.919a28.794,28.794,0,0,1-28.762-28.762,8.805,8.805,0,1,0-17.61,0A28.794,28.794,0,0,1,93.345,57.919a8.805,8.805,0,0,0,0,17.61,28.794,28.794,0,0,1,28.762,28.762,8.805,8.805,0,1,0,17.61,0A28.794,28.794,0,0,1,168.479,75.53a8.805,8.805,0,1,0,0-17.61ZM130.913,77.134A46.842,46.842,0,0,0,120.5,66.725a46.818,46.818,0,0,0,10.409-10.409,46.841,46.841,0,0,0,10.409,10.409A46.841,46.841,0,0,0,130.913,77.134Z" transform="translate(-84.54 -20.352)" fill="#ff7900"/>
        </g>
      </g>
      <g id="Group_940" data-name="Group 940" transform="translate(0 122.092)">
        <g id="Group_939" data-name="Group 939">
          <path id="Path_800" data-name="Path 800" d="M83.94,57.919A28.8,28.8,0,0,1,55.177,29.157a8.805,8.805,0,1,0-17.61,0A28.8,28.8,0,0,1,8.8,57.919a8.805,8.805,0,1,0,0,17.61,28.8,28.8,0,0,1,28.762,28.762,8.805,8.805,0,1,0,17.61,0A28.8,28.8,0,0,1,83.94,75.53a8.805,8.805,0,1,0,0-17.61ZM46.372,77.134A46.816,46.816,0,0,0,35.963,66.725,46.79,46.79,0,0,0,46.372,56.315,46.815,46.815,0,0,0,56.781,66.725,46.866,46.866,0,0,0,46.372,77.134Z" transform="translate(0 -20.352)" fill="#ff7900"/>
        </g>
      </g>
      <g id="Group_942" data-name="Group 942" transform="translate(244.185)">
        <g id="Group_941" data-name="Group 941">
          <path id="Path_801" data-name="Path 801" d="M143.427,46.958A38.2,38.2,0,0,1,105.273,8.8a8.8,8.8,0,1,0-17.609,0A38.2,38.2,0,0,1,49.509,46.959a8.805,8.805,0,0,0,0,17.61,38.2,38.2,0,0,1,38.154,38.154,8.805,8.805,0,0,0,17.61,0A38.2,38.2,0,0,1,143.428,64.57a8.806,8.806,0,1,0,0-17.611ZM96.469,72.675A56.251,56.251,0,0,0,79.556,55.763,56.251,56.251,0,0,0,96.469,38.852a56.26,56.26,0,0,0,16.912,16.912A56.26,56.26,0,0,0,96.469,72.675Z" transform="translate(-40.704)" fill="#ff7900"/>
        </g>
      </g>
      <g id="Group_944" data-name="Group 944" transform="translate(113.796 187.834)">
        <g id="Group_943" data-name="Group 943">
          <path id="Path_802" data-name="Path 802" d="M388.438,140.495l-34.25-97.043a18.224,18.224,0,0,0-17.159-12.141H70.869A18.224,18.224,0,0,0,53.71,43.451l-34.25,97.044a8.892,8.892,0,0,0,8.3,11.736H380.135a8.806,8.806,0,0,0,8.3-11.735ZM40.206,134.62,70.315,49.312a.6.6,0,0,1,.553-.391H337.028a.606.606,0,0,1,.554.393l30.108,85.307Z" transform="translate(-18.969 -31.311)" fill="#ff7900"/>
        </g>
      </g>
      <g id="Group_946" data-name="Group 946" transform="translate(412.063 413.236)">
        <g id="Group_945" data-name="Group 945">
          <path id="Path_803" data-name="Path 803" d="M124.452,68.884c-31.27,0-55.763,16.244-55.763,36.98s24.494,36.98,55.763,36.98,55.763-16.244,55.763-36.98S155.722,68.884,124.452,68.884Zm0,56.35c-21.838,0-38.154-10.226-38.154-19.37s16.316-19.37,38.154-19.37,38.154,10.226,38.154,19.37S146.29,125.235,124.452,125.235Z" transform="translate(-68.689 -68.884)" fill="#ff7900"/>
        </g>
      </g>
      <g id="Group_948" data-name="Group 948" transform="translate(73.961 413.236)">
        <g id="Group_947" data-name="Group 947">
          <path id="Path_804" data-name="Path 804" d="M68.092,68.884c-31.27,0-55.763,16.244-55.763,36.98s24.494,36.98,55.763,36.98,55.763-16.244,55.763-36.98S99.362,68.884,68.092,68.884Zm0,56.35c-21.836,0-38.154-10.226-38.154-19.37s16.317-19.37,38.154-19.37,38.154,10.226,38.154,19.37S89.93,125.235,68.092,125.235Z" transform="translate(-12.329 -68.884)" fill="#ff7900"/>
        </g>
      </g>
      <g id="Group_950" data-name="Group 950" transform="translate(8.218 159.659)">
        <g id="Group_949" data-name="Group 949">
          <path id="Path_805" data-name="Path 805" d="M573.679,148.707H526.721a8.8,8.8,0,0,0-8.542,6.669l-6.185,24.74L468.735,57.552a46.443,46.443,0,0,0-43.728-30.938H158.847a46.443,46.443,0,0,0-43.728,30.939L71.861,180.118l-6.185-24.741a8.805,8.805,0,0,0-8.542-6.669H10.175a8.805,8.805,0,0,0-8.805,8.805V195.08a8.805,8.805,0,0,0,8.805,8.805H58.807L28.79,245.908a46.118,46.118,0,0,0-8.636,26.953V382.914a46.329,46.329,0,0,0,18.8,37.257c0,.1-.015.205-.015.309v28.175a18.216,18.216,0,0,0,18.2,18.2h56.35a18.216,18.216,0,0,0,18.2-18.2v-19.37H452.172v19.37a18.216,18.216,0,0,0,18.2,18.2h56.35a18.216,18.216,0,0,0,18.2-18.2V420.481c0-.1-.012-.206-.015-.309a46.33,46.33,0,0,0,18.8-37.257V272.862a46.114,46.114,0,0,0-8.638-26.953l-30.017-42.023h48.634a8.8,8.8,0,0,0,8.805-8.805V157.513A8.8,8.8,0,0,0,573.679,148.707ZM18.98,186.274V166.317H50.259l4.989,19.957Zm95.092,262.382a.587.587,0,0,1-.587.587H57.134a.588.588,0,0,1-.587-.587v-19.37h57.524v19.37Zm413.235,0a.588.588,0,0,1-.587.587h-56.35a.588.588,0,0,1-.587-.587v-19.37h57.525Zm-9.978-36.98H66.525a28.809,28.809,0,0,1-27.378-19.957H544.706A28.807,28.807,0,0,1,517.329,411.675ZM367.648,316.585v19.957H216.207V316.585ZM217.59,298.975a28.808,28.808,0,0,1,27.378-19.957h93.918a28.809,28.809,0,0,1,27.378,19.957Zm150.057,55.176v19.957H216.207V354.151Zm173.087-98.008a28.6,28.6,0,0,1,5.357,16.717V374.109H385.258V307.78a46.424,46.424,0,0,0-46.371-46.371H244.969A46.424,46.424,0,0,0,198.6,307.78v66.33H37.763V272.86a28.6,28.6,0,0,1,5.357-16.717l37.328-52.259H404.627a8.805,8.805,0,1,0,0-17.61H88.362l43.362-122.86a28.809,28.809,0,0,1,27.123-19.19H425.008a28.81,28.81,0,0,1,27.123,19.19l43.361,122.86h-53.3a8.805,8.805,0,0,0,0,17.61h61.212Zm24.14-69.869H528.605l4.989-19.957h31.28Z" transform="translate(-1.37 -26.614)" fill="#ff7900"/>
        </g>
      </g>
      <g id="Group_952" data-name="Group 952" transform="translate(92.744 385.061)">
        <g id="Group_951" data-name="Group 951">
          <path id="Path_806" data-name="Path 806" d="M80.615,64.188H24.265a8.805,8.805,0,1,0,0,17.61h56.35a8.805,8.805,0,1,0,0-17.61Z" transform="translate(-15.46 -64.188)" fill="#ff7900"/>
        </g>
      </g>
      <g id="Group_954" data-name="Group 954" transform="translate(430.847 385.061)">
        <g id="Group_953" data-name="Group 953">
          <path id="Path_807" data-name="Path 807" d="M136.975,64.188H80.625a8.805,8.805,0,1,0,0,17.61h56.35a8.805,8.805,0,1,0,0-17.61Z" transform="translate(-71.82 -64.188)" fill="#ff7900"/>
        </g>
      </g>
    </g>
  </g>
</svg>
