<svg id="Layer_1" data-name="Layer 1" xmlns="http://www.w3.org/2000/svg" viewBox="0 0 208 208"><defs><style>.cls-1{fill:#435a8c;}.cls-2{fill:#e4e4e4;}.cls-3{fill:#ff8e04;}.cls-4{fill:#e3e3e3;}.cls-5{fill:#ff6e00;}.cls-6{fill:#07afe2;}.cls-7{fill:#171f2c;}.cls-8{fill:#ffa753;}.cls-9{fill:#011336;}.cls-10{fill:#fdfdfd;}.cls-11{fill:#fefefe;}.cls-12{fill:#07afb6;}.cls-13{fill:#eeeff3;}.cls-14{fill:#cbcac8;}</style></defs><g id="N7dEh4"><path class="cls-1" d="M137.76,59.31q7.68-.24,15.37,0a.34.34,0,0,0,.05.26v.55c0,.41-.06.82-.06,1.23V165.8c0,.41,0,.82.06,1.23v.36c.26.76.92.46,1.41.46,6.8,0,13.6,0,20.4,0,0,2.12.09,4.23,0,6.35a4.28,4.28,0,0,1-4.24,4.22c-.27,0-.55,0-.82,0H58.13c-.46,0-.92-.05-1.37-.07-.19-.29-.37-.3-.55,0l-.32.12c-.6,0-1.19-.06-1.79-.06H21.79c-.68,0-1.37.05-2.06.08l-6.34-.08a4.37,4.37,0,0,1-4.7-4.75q0-36.78,0-73.54a4.51,4.51,0,0,1,4.8-4.87c2.07,0,4.14,0,6.21,0a.25.25,0,0,0,.08.22l0,.28q0,7.88,0,15.76a.27.27,0,0,0,.24.32l8.34,0a53.17,53.17,0,0,0,7.36,0c.5,0,1,.09,1.51.09q18.48,0,37,0c.64,0,1.28,0,1.92-.07h7.45a79.81,79.81,0,0,0,8.33,0V112c0,.23.11.25.23.05h1.1c.1.19.19.19.28,0,.51,0,1-.06,1.51-.07h26c2,0,3.94,0,5.91.06l.24.28c0,.5,0,1,0,1.51q0,23.58,0,47.15c0,.46,0,.92,0,1.38a5.21,5.21,0,0,0,5.09,5c1.33,0,2.67,0,4,0h1.1c.22,0,.32-.06.28-.28,0-.51.07-1,.07-1.52v-104c0-.46,0-.91-.07-1.37v-.55A.47.47,0,0,0,137.76,59.31ZM24.16,123c-3.13.59-4.42,2.15-4.42,5.39,0,1.91,0,3.83,0,5.75,0,10.63,0,21.27-.05,31.9,0,1,.32,1.32,1.34,1.32q34.74,0,69.47,0c1,0,1.35-.25,1.35-1.31,0-10.63,0-21.27,0-31.9,0-1.92,0-3.84,0-5.77,0-3.27-1.18-4.73-4.4-5.4.06-.13.42-.21.2-.35s-.53,0-.8,0H25.34C24.92,122.56,24.38,122.35,24.16,123Z"/><path class="cls-2" d="M153.17,167c0-.41-.06-.82-.06-1.23V61.35c0-.41,0-.82.06-1.23.29-.18.3-.37,0-.55a.34.34,0,0,1-.05-.26q20.51,0,41,0a5.3,5.3,0,0,1,5.18,5.48v96.93c0,3.61-2,5.6-5.62,5.61l-18.78,0-.46,0c-.28-.37-.56-.38-.83,0-6.72.13-13.45.11-20.17,0ZM163,86.88a8.31,8.31,0,0,0,.43,11.57,8.42,8.42,0,0,0,11.82-.1,8.29,8.29,0,0,0,.33-11.47c.26-.38.52-.75.77-1.13a8.42,8.42,0,1,0-14.61-8.3C160.15,80.84,160.8,84,163,86.88Zm.64,48c0,5.93,0,11.87,0,17.8,0,1.08.28,1.44,1.39,1.41,2.9-.07,5.8,0,8.7,0,.91,0,1.29-.2,1.29-1.21q0-18,0-36c0-.89-.27-1.21-1.18-1.19-2.9,0-5.8.08-8.69,0-1.28,0-1.52.41-1.51,1.58C163.7,123.08,163.67,129,163.67,134.86Zm21.56-32.19c0,2.44,0,4.87,0,7.31,0,1,.27,1.38,1.25,1.25a3.85,3.85,0,0,1,1,0c1.37.2,1.72-.43,1.7-1.73-.07-4.27,0-8.55,0-12.82,0-3,.56-2.5-2.64-2.6-1,0-1.24.35-1.22,1.28C185.27,97.8,185.23,100.23,185.23,102.67Zm3.86,42.85c0-2.44-.05-4.88,0-7.31,0-1.07-.35-1.43-1.36-1.29a2.82,2.82,0,0,1-.82,0c-1.33-.18-1.76.36-1.73,1.7.07,4.28,0,8.56,0,12.84,0,2.64,0,2.58,2.6,2.61,1.09,0,1.31-.4,1.28-1.37C189.05,150.31,189.09,147.91,189.09,145.52Zm-3.86-64.34c0,2,0,4,0,6.06,0,2.81-.45,2.35,2.51,2.46,1.14,0,1.38-.37,1.36-1.42-.05-4.32,0-8.63,0-13,0-2.88.51-2.43-2.57-2.53-1.07,0-1.32.36-1.3,1.35C185.28,76.49,185.23,78.84,185.23,81.18Zm0,42.84c0,2,0,4,0,6.06,0,2.78-.41,2.32,2.38,2.46,1.28.06,1.51-.42,1.5-1.58-.07-4.23,0-8.45,0-12.68,0-3,.61-2.56-2.72-2.65-1,0-1.16.36-1.14,1.22C185.26,119.24,185.23,121.63,185.23,124Z"/><path class="cls-3" d="M91.9,111.91a79.81,79.81,0,0,1-8.33,0c.32-.73,1-.39,1.45-.4,1.94,0,3.87,0,5.81,0V111h-5c-2,0-2-.06-2-2V55.56c0-.37,0-.73,0-1.1,0-.56-.31-.71-.79-.7,0-.66-.11-1.07-1-1.12A7.94,7.94,0,0,1,75,46.16c-.15-1.07-.5-1.55-1.72-1.55q-17.52.07-35.05,0c-1.16,0-1.49.46-1.66,1.46a7.71,7.71,0,0,1-6.43,6.49c-1.52.17-1.6.77-1.59,2q0,28.08,0,56.16c-2.53.55-5.16,0-7.69.64,2,.19,4.05.18,6.07.19.49,0,1-.17,1.41.33v0l-8.34,0-.24-.32q0-7.89,0-15.76l.31-.15-.33-.13a.25.25,0,0,1-.08-.22l.09-.35c.4-.48.21-1.06.21-1.59Q20,66,20,38.65c0-1.37.3-1.78,1.73-1.77q34.11.07,68.2,0c1.33,0,1.69.35,1.69,1.68q-.07,26.37,0,52.74c0,.57-.24,1.2.28,1.7,0,.76.07,1.51.11,2.27,0,.16,0,.32,0,.47s-.09.2-.13.29c-.31,0-.75,0-.77.37a27.24,27.24,0,0,0,0,3.13c0,.4.46.35.77.37,0,.3.07.59.1.89a.4.4,0,0,1-.1.22c-.39,0-.61.25-.53.63.53,2.67.12,5.36.25,8,0,.36-.07.74.29,1v.54c-.19.09-.21.19,0,.29Zm-.78-17c-.13-.16-.16-.48-.51-.47s-.41.28-.4.57.13.43.4.43S91.12,95.31,91.12,94.9Z"/><path class="cls-4" d="M137.76,59.31a.47.47,0,0,1,0,.26c-.29.18-.28.37,0,.55,0,.46.07.91.07,1.37v104c0,.51,0,1-.07,1.52l-.28.28h-.83c-.09-.19-.18-.2-.27,0-1.33,0-2.67.09-4,0a5.21,5.21,0,0,1-5.09-5c0-.46,0-.92,0-1.38q0-23.58,0-47.15c0-.5,0-1,0-1.51l0-.3V100.76l0-.3V95.29l0-29.8c0-4.12,2.06-6.2,6.13-6.2Z"/><path class="cls-5" d="M19.73,178.52c.69,0,1.38-.08,2.06-.08H54.1c.6,0,1.19,0,1.79.06,0,1.56,0,3.13,0,4.69,0,.73-.23.94-1,.93q-17.11,0-34.23,0c-.84,0-1-.31-1-1.05C19.77,181.55,19.73,180,19.73,178.52Z"/><path class="cls-6" d="M91.86,93c-.52-.5-.28-1.13-.28-1.7q0-26.37,0-52.74c0-1.33-.36-1.68-1.69-1.68q-34.09.06-68.2,0c-1.43,0-1.73.4-1.73,1.77Q20.06,66,20,93.32c0,.53.19,1.11-.21,1.59,0-.41-.06-.82-.06-1.23q0-27.84,0-55.66c0-1.07.15-1.49,1.38-1.49q34.59.06,69.19,0c1.32,0,1.68.29,1.67,1.65,0,17.77,0,35.54,0,53.3C91.92,92,91.88,92.49,91.86,93Z"/><path class="cls-1" d="M127.18,95.29v.46H92c0-.15,0-.31,0-.47Z"/><path class="cls-7" d="M153.46,167.34c6.72.1,13.45.12,20.17,0h.83l.46,0,.06.51c-6.8,0-13.6,0-20.4,0-.49,0-1.15.3-1.41-.46Z"/><path class="cls-7" d="M56.21,178.37c.18-.3.36-.29.55,0Z"/><path class="cls-8" d="M28.56,110.68q0-28.08,0-56.16c0-1.19.07-1.79,1.59-2a7.71,7.71,0,0,0,6.43-6.49c.17-1,.5-1.47,1.66-1.46q17.52.07,35.05,0c1.22,0,1.57.48,1.72,1.55a7.94,7.94,0,0,0,7.06,6.48c.86,0,1,.46,1,1.12l0,37.91,0,20.26H76.12a23.24,23.24,0,0,0-1.93-8.23A20.07,20.07,0,0,0,51.81,92.19a18.7,18.7,0,0,0-10.75,6,19.12,19.12,0,0,0-5.34,13.75,53.17,53.17,0,0,1-7.36,0v0C28.66,111.49,28.56,111.08,28.56,110.68ZM52.34,75.94c0,2.62,0,5.24,0,7.86,0,.88.23,1.25,1.16,1.21,1.56-.06,3.13,0,4.69,0,.74,0,1.08-.19,1.07-1q0-8,0-16c0-.83-.36-1-1.08-1-1.52,0-3,.07-4.55,0-1.08-.06-1.32.38-1.3,1.36C52.38,70.88,52.34,73.41,52.34,75.94Z"/><path class="cls-9" d="M91.83,134.13c0,10.63,0,21.27,0,31.9,0,1.06-.34,1.31-1.35,1.31q-34.74,0-69.47,0c-1,0-1.34-.27-1.34-1.32.05-10.63,0-21.27.05-31.9.64,0,1.28,0,1.93,0h49Q81.28,134.16,91.83,134.13Z"/><path class="cls-10" d="M91.83,134.13q-10.56,0-21.13,0h-49c-.65,0-1.29,0-1.93,0,0-1.92,0-3.84,0-5.75,0-3.24,1.29-4.8,4.42-5.39.32,0,.64,0,1,0H86.49c.32,0,.64,0,1-.07,3.22.67,4.41,2.13,4.4,5.4C91.85,130.29,91.84,132.21,91.83,134.13Z"/><path class="cls-5" d="M35.72,111.91a19.12,19.12,0,0,1,5.34-13.75,18.7,18.7,0,0,1,10.75-6A20.07,20.07,0,0,1,74.19,103.7a23.24,23.24,0,0,1,1.93,8.23c-.64,0-1.28.07-1.92.07q-18.5,0-37,0C36.72,112,36.22,111.94,35.72,111.91Z"/><path class="cls-11" d="M127.21,100.76V112l-.28,0c-2,0-3.94-.06-5.91-.06H95c-.5,0-1,0-1.51.07H92.12a.18.18,0,0,0-.23-.05v-.08c0-.14,0-.27-.05-.4H92s.08-.06.07-.09a1.66,1.66,0,0,0-.06-.21h-.12v-.54L92,102.1c.28-.37,0-.92.42-1.25l.83-.11c.5,0,1,.06,1.5.06q13.69,0,27.39,0c1.61,0,3.21,0,4.81-.06Z"/><path class="cls-12" d="M83,111.93l0-20.26,0-37.91c.48,0,.81.14.79.7,0,.37,0,.73,0,1.1V109c0,1.92.06,2,2,2h5v.56c-1.94,0-3.87,0-5.81,0-.49,0-1.13-.33-1.45.4Z"/><path class="cls-7" d="M87.45,123c-.32,0-.64.07-1,.07H25.12c-.32,0-.64,0-1,0,.22-.63.76-.42,1.18-.42H86.85c.27,0,.61-.08.8,0S87.51,122.83,87.45,123Z"/><path class="cls-12" d="M19.78,95.48l.33.13-.31.15Z"/><path class="cls-13" d="M153.18,59.57c.29.18.28.37,0,.55Z"/><path class="cls-13" d="M137.71,60.12c-.28-.18-.29-.37,0-.55Z"/><path class="cls-7" d="M93.22,112.05h.28C93.41,112.24,93.32,112.24,93.22,112.05Z"/><path class="cls-7" d="M91.89,112a.18.18,0,0,1,.23.05C92,112.24,91.93,112.22,91.89,112Z"/><path class="cls-7" d="M126.93,112.05l.28,0,0,.3Z"/><path class="cls-13" d="M136.33,167.32c.09-.2.18-.19.27,0Z"/><path class="cls-13" d="M137.43,167.32l.28-.28C137.75,167.26,137.65,167.35,137.43,167.32Z"/><path class="cls-12" d="M19.78,111.52l.24.32A.27.27,0,0,1,19.78,111.52Z"/><path class="cls-13" d="M153.46,167.34l-.29,0V167Z"/><path class="cls-14" d="M163.67,134.86c0-5.89,0-11.78,0-17.67,0-1.17.23-1.62,1.51-1.58,2.89.1,5.79.06,8.69,0,.91,0,1.18.3,1.18,1.19q0,18,0,36c0,1-.38,1.23-1.29,1.21-2.9,0-5.8-.06-8.7,0-1.11,0-1.4-.33-1.39-1.41C163.7,146.73,163.67,140.79,163.67,134.86Z"/><path class="cls-5" d="M163,86.88c-2.23-2.9-2.88-6-1.26-9.43a8.42,8.42,0,1,1,14.61,8.3c-.25.38-.51.75-.77,1.13a9.94,9.94,0,0,1-4.52,2.52A8.76,8.76,0,0,1,163,86.88Z"/><path class="cls-8" d="M163,86.88a8.76,8.76,0,0,0,8.06,2.52,9.94,9.94,0,0,0,4.52-2.52,8.29,8.29,0,0,1-.33,11.47,8.42,8.42,0,0,1-11.82.1A8.31,8.31,0,0,1,163,86.88Z"/><path class="cls-14" d="M185.23,102.67c0-2.44,0-4.87,0-7.31,0-.93.22-1.31,1.22-1.28,3.2.1,2.62-.37,2.64,2.6,0,4.27,0,8.55,0,12.82,0,1.3-.33,1.93-1.7,1.73a3.86,3.86,0,0,0-1,0c-1,.13-1.27-.3-1.25-1.25C185.27,107.54,185.23,105.11,185.23,102.67Z"/><path class="cls-14" d="M189.09,145.52c0,2.39,0,4.79,0,7.18,0,1-.19,1.39-1.28,1.37-2.6,0-2.6,0-2.6-2.61,0-4.28.05-8.56,0-12.84,0-1.34.4-1.88,1.73-1.7a2.82,2.82,0,0,0,.82,0c1-.14,1.39.22,1.36,1.29C189,140.64,189.09,143.08,189.09,145.52Z"/><path class="cls-14" d="M185.23,81.18c0-2.34.05-4.69,0-7,0-1,.23-1.39,1.3-1.35,3.08.1,2.55-.35,2.57,2.53,0,4.32,0,8.63,0,13,0,1-.22,1.47-1.36,1.42-3-.11-2.48.35-2.51-2.46C185.21,85.22,185.23,83.2,185.23,81.18Z"/><path class="cls-14" d="M185.23,124c0-2.39,0-4.78,0-7.17,0-.86.19-1.25,1.14-1.22,3.33.09,2.69-.38,2.72,2.65,0,4.23,0,8.45,0,12.68,0,1.16-.22,1.64-1.5,1.58-2.79-.14-2.35.32-2.38-2.46C185.22,128.06,185.23,126,185.23,124Z"/><path class="cls-13" d="M174.46,167.33h-.83C173.9,167,174.18,167,174.46,167.33Z"/><path class="cls-1" d="M126.93,100.74c-1.6,0-3.2.06-4.81.06q-13.7,0-27.39,0c-.5,0-1,0-1.5-.06a.67.67,0,0,0-1.1,0,.21.21,0,0,1-.18.07l-.1-.89V96c0-.09.09-.19.13-.29h35.19v4.71Z"/><path class="cls-12" d="M28.56,110.68c0,.4.1.81-.21,1.16-.38-.5-.92-.32-1.41-.33-2,0-4,0-6.07-.19C23.4,110.7,26,111.23,28.56,110.68Z"/><path class="cls-12" d="M91.85,96V99.9c-.31,0-.75,0-.77-.37a27.24,27.24,0,0,1,0-3.13C91.1,96,91.54,96.06,91.85,96Z"/><path class="cls-12" d="M92,102.1l-.12,8.58c-.36-.26-.27-.64-.29-1-.13-2.68.28-5.37-.25-8-.08-.38.14-.59.53-.63Z"/><path class="cls-12" d="M91.12,94.9c0,.41-.21.53-.51.53s-.39-.19-.4-.43,0-.56.4-.57S91,94.74,91.12,94.9Z"/><path class="cls-4" d="M92,102.1,91.85,101a.4.4,0,0,0,.1-.22.21.21,0,0,0,.18-.07l.27.13C92,101.18,92.26,101.73,92,102.1Z"/><path class="cls-12" d="M91.85,111.51c-.2-.1-.18-.2,0-.29H92v.3Z"/><path class="cls-7" d="M126.93,100.74l.24-.28,0,.3Z"/><path class="cls-5" d="M52.34,75.94c0-2.53,0-5.06,0-7.59,0-1,.22-1.42,1.3-1.36,1.51.09,3,.05,4.55,0,.72,0,1.09.16,1.08,1q0,8,0,16c0,.81-.33,1-1.07,1-1.56,0-3.13,0-4.69,0-.93,0-1.18-.33-1.16-1.21C52.37,81.18,52.34,78.56,52.34,75.94Z"/><path class="cls-7" d="M92.4,100.85l-.27-.13a.67.67,0,0,1,1.1,0Z"/><path class="cls-4" d="M92,111.52v-.3a1.66,1.66,0,0,1,.06.21S92,111.49,92,111.52Z"/></g></svg>