<svg id="Layer_1" data-name="Layer 1" xmlns="http://www.w3.org/2000/svg" viewBox="0 0 208 208"><defs><style>.cls-1{fill:#587bb7;}.cls-2{fill:#213b6e;}.cls-3{fill:#ff8e04;}.cls-4{fill:#f2f2f2;}.cls-5{fill:#fff;}</style></defs><g id="X4vAdD"><path class="cls-1" d="M65.3,197.63c-6.54,0-13.08-.1-19.61,0-1.42,0-1.92-.28-1.88-1.8.1-3.43,0-6.87-.05-10.3,0-.67.08-1.33.08-2q0-46.23,0-92.46c0-.89,0-1.78.06-2.67H117.5c1,0,1.83.21,1.81-1.35-.07-8.23,0-16.46,0-24.69,0-1-.27-1.45-1.31-1.35-.72.07-1.45,0-2.17,0l-42.89,0a38.08,38.08,0,0,0,4.7-19.73q30.3,0,60.59,0a9.05,9.05,0,0,1,1.15.15c0,7.28,0,14.56,0,21.84,0,1.52.46,1.84,1.89,1.83,7.28-.07,14.56,0,21.85,0l.08,24.29c0,.11,0,.22,0,.33,0,30.35-.07,60.7,0,91.05a16.67,16.67,0,0,0,6,13,25.5,25.5,0,0,0,6.93,3.85q-14.22,0-28.45.08c-1.66,0-3.32,0-5,.08-.49,0-1-.08-1.49-.08q-37.11,0-74.22,0C66.4,197.55,65.85,197.6,65.3,197.63Zm38.28-32.54H72.38c-2.89,0-5.79,0-8.68,0-1.59,0-2.2.75-2.13,2.32s.93,2,3,2h77.76a6.43,6.43,0,0,0,1.16,0,2.25,2.25,0,0,0,1.88-1.45c.66-1.77-.3-2.87-2.6-2.87Zm0-28.38h-38c-.67,0-1.34,0-2,0a1.89,1.89,0,0,0-1.93,2.05c0,1.65.81,2.28,3.1,2.28h77.57a6.56,6.56,0,0,0,1.33,0,2.23,2.23,0,0,0,1.78-1.33c.76-1.75-.22-3-2.45-3Zm-.16,18.4h39.55c1.5,0,2.71-1,2.68-2.12s-1.09-2.16-2.64-2.23H65a9.27,9.27,0,0,0-1.67.05,2.18,2.18,0,0,0-1.43,3.46,2.55,2.55,0,0,0,2.39.85ZM83.56,126.73c6.55,0,13.1,0,19.66,0,1.42,0,2.41-.39,2.44-2s-.81-2.33-2.57-2.33q-19.41,0-38.83,0c-1.87,0-2.69.69-2.69,2.18s.76,2.16,2.66,2.16Z"/><path class="cls-2" d="M163.15,89.23l28.18.06c1.61,0,3.23.1,4.83,0,1.44-.11,1.73.45,1.71,1.79-.08,4.73,0,9.45,0,14.18v36c0,.5,0,1,.06,1.49q0,9.67-.06,19.35c0,6.12,0,12.24,0,18.36A17.15,17.15,0,0,1,180,197.86a14.08,14.08,0,0,1-3.93-.39,25.5,25.5,0,0,1-6.93-3.85,16.67,16.67,0,0,1-6-13c-.1-30.35,0-60.7,0-91.05C163.12,89.45,163.14,89.34,163.15,89.23Z"/><path class="cls-3" d="M43.85,77.34a34.27,34.27,0,0,1-23.1-9.12,39.19,39.19,0,0,1-7.13-9.32,36.68,36.68,0,0,1-3.51-16.44c.37-15.7,12.77-29.72,28.38-31.92a32.82,32.82,0,0,1,19.93,2.94,1.3,1.3,0,0,0,.49,0,47,47,0,0,1,7.22,5A33.08,33.08,0,0,1,77.35,40.08a11.27,11.27,0,0,0,.28,1.11,38.08,38.08,0,0,1-4.7,19.73c-1.39,1.79-2.67,3.69-4.21,5.36C62,73.54,53.63,77,43.85,77.34ZM34.17,55.6a1.74,1.74,0,0,0,1.34-.44L61.93,35.91c1.39-1,1.65-2.09.84-3.25s-2.12-1.29-3.47-.29c-1.06.79-2.1,1.63-3.17,2.41-6.83,5-13.7,9.92-20.49,14.95-.94.69-1.28.4-1.82-.32-1.69-2.27-3.4-4.5-5.11-6.75a2.38,2.38,0,0,0-3.49-.55c-.94.73-1,2.09,0,3.27,2.34,3.08,4.71,6.14,7,9.25A1.94,1.94,0,0,0,34.17,55.6Z"/><path class="cls-2" d="M43.85,77.34C53.63,77,62,73.54,68.72,66.28c1.54-1.67,2.82-3.57,4.21-5.36l42.89,0c.72,0,1.45.05,2.17,0,1-.1,1.31.35,1.31,1.35,0,8.23-.06,16.46,0,24.69,0,1.56-.86,1.35-1.81,1.35H43.91Zm51.79-6.69c-4,0-4,0-4,4s0,4,4,4,4,0,4-4S99.64,70.65,95.64,70.65Zm-11.78,8c4.08,0,4.08,0,4.08-4v-.17c-.06-4.36.6-3.73-3.8-3.76-4.19,0-4.19,0-4.19,4.1C80,78.64,80,78.64,83.86,78.64Zm19.77-4c0,4,0,4,3.5,4,4.21,0,4.21,0,4.21-4.27,0-3.72,0-3.72-3.76-3.72C103.63,70.65,103.63,70.65,103.63,74.67Z"/><path class="cls-4" d="M103.58,165.09h39.21c2.3,0,3.26,1.1,2.6,2.87a2.25,2.25,0,0,1-1.88,1.45,6.43,6.43,0,0,1-1.16,0H64.59c-2.09,0-3-.58-3-2s.54-2.3,2.13-2.32c2.89,0,5.79,0,8.68,0Z"/><path class="cls-4" d="M103.53,136.71H142.9c2.23,0,3.21,1.22,2.45,3a2.23,2.23,0,0,1-1.78,1.33,6.56,6.56,0,0,1-1.33,0H64.67c-2.29,0-3.15-.63-3.1-2.28a1.89,1.89,0,0,1,1.93-2.05c.66,0,1.33,0,2,0Z"/><path class="cls-4" d="M103.37,155.11H64.32a2.55,2.55,0,0,1-2.39-.85,2.18,2.18,0,0,1,1.43-3.46,9.27,9.27,0,0,1,1.67-.05H143c1.55.07,2.61,1,2.64,2.23s-1.18,2.12-2.68,2.12Z"/><path class="cls-2" d="M139.37,41.31c3.15,2.72,6,5.79,8.93,8.71,4.6,4.52,9.15,9.1,13.71,13.65a16.2,16.2,0,0,1,1.06,1.27c-7.29,0-14.57,0-21.85,0-1.43,0-1.91-.31-1.89-1.83C139.41,55.87,139.37,48.59,139.37,41.31Z"/><path class="cls-4" d="M83.56,126.74H64.23c-1.9,0-2.67-.64-2.66-2.16s.82-2.18,2.69-2.18q19.42,0,38.83,0c1.76,0,2.6.8,2.57,2.33s-1,2-2.44,2Q93.38,126.71,83.56,126.74Z"/><path class="cls-5" d="M34.17,55.6a1.94,1.94,0,0,1-2-1c-2.31-3.11-4.68-6.17-7-9.25-.91-1.18-.89-2.54,0-3.27a2.38,2.38,0,0,1,3.49.55c1.71,2.25,3.42,4.48,5.11,6.75.54.72.88,1,1.82.32,6.79-5,13.66-10,20.49-14.95,1.07-.78,2.11-1.62,3.17-2.41,1.35-1,2.64-.88,3.47.29s.55,2.24-.84,3.25L35.51,55.16A1.74,1.74,0,0,1,34.17,55.6Z"/><path class="cls-3" d="M95.64,70.65c4,0,4,0,4,4s0,4-4,4-4,0-4-4S91.65,70.65,95.64,70.65Z"/><path class="cls-3" d="M83.86,78.64c-3.91,0-3.91,0-3.91-3.88,0-4.11,0-4.13,4.19-4.1,4.4,0,3.74-.6,3.8,3.76v.17C87.94,78.64,87.94,78.64,83.86,78.64Z"/><path class="cls-3" d="M103.63,74.67c0-4,0-4,4-4,3.76,0,3.76,0,3.76,3.72,0,4.27,0,4.27-4.21,4.27C103.62,78.64,103.62,78.64,103.63,74.67Z"/></g></svg>