<svg id="Layer_1" data-name="Layer 1" xmlns="http://www.w3.org/2000/svg" xmlns:xlink="http://www.w3.org/1999/xlink" viewBox="0 0 140 140"><defs><style>.cls-1{fill:#efefef;}.cls-1,.cls-2{opacity:0.45;}.cls-3{fill:#393939;}.cls-4{fill:#595959;}.cls-5{fill:#a1a1a1;}.cls-6{fill:#b8b8b8;}.cls-7{filter:url(#filter);}.cls-8{fill:#fff;}.cls-9{fill:none;stroke:#4d4d4d;stroke-miterlimit:10;stroke-width:0.25px;}</style><filter id="filter"><feOffset dx="3" dy="2" input="SourceAlpha"/><feGaussianBlur stdDeviation="5" result="blur"/><feFlood/><feComposite operator="in" in2="blur"/><feComposite in="SourceGraphic"/></filter></defs><rect class="cls-1" width="140" height="140"/><g id="OyaLiK" class="cls-2"><path class="cls-3" d="M99.72,108.7l-2.83,0H70.14l-1.09,0Q69,75,69,41.3l1.09,0,12.25,0a30.27,30.27,0,0,0,3.81,0l12,0,1.55,0q0,8.18,0,16.35Q99.73,83.18,99.72,108.7ZM96.15,70.15c-.08-.33-.36-.42-.59-.55-3.56-2-7.15-4-10.7-6.08-.61-.34-.84-.23-1.17.35q-5.37,9.54-10.82,19c-.43.75-.23,1,.41,1.36,3.5,2,7,3.93,10.46,6,.69.4,1,.25,1.3-.37q5.4-9.59,10.83-19.13C96,70.53,96.06,70.34,96.15,70.15Z"/><path class="cls-4" d="M69,41.3q0,33.71,0,67.4c-4.66,0-9.31,0-14,0l-14.87,0c0-.18,0-.37,0-.55V42c0-.24,0-.49,0-.73l12.44,0c.36,0,.72,0,1.09,0a30.11,30.11,0,0,0,3.8,0c.33,0,.66,0,1,0ZM58.12,51.37l-.24.1-10.21,5.1c-.36.17-.26.35-.12.64,2.51,5,5,9.94,7.48,14.94.36.72.65.71,1.29.38,3-1.57,6-3.1,9.1-4.62,1-.52,1.06-.48.55-1.51l-4.58-9.12Q60,54.6,58.66,51.93C58.54,51.7,58.49,51.39,58.12,51.37Zm.19,31.8a5.83,5.83,0,1,0,5.8,5.9A5.81,5.81,0,0,0,58.31,83.17Z"/><path class="cls-3" d="M36.84,108.7l-4.56,0H27.7c-.91,0-1.83,0-2.74,0A5.9,5.9,0,0,1,19.73,103c0-.63,0-1.27,0-1.91q0-26.65,0-53.31a6.72,6.72,0,0,1,1.45-4.41A4.91,4.91,0,0,1,25,41.33c3.95,0,7.91,0,11.86,0,0,.31,0,.61,0,.91v65.58C36.87,108.09,36.85,108.4,36.84,108.7Z"/><path class="cls-3" d="M104.31,41.3c3.53,0,7.06,0,10.59,0,2.7.06,5.12,2.7,5.3,5.61,0,.27,0,.54,0,.82q0,27.3,0,54.6a6.4,6.4,0,0,1-1.49,4.29,5.47,5.47,0,0,1-4.4,2c-.7,0-1.4,0-2.1,0l-4.6,0-3.46,0c0-.15,0-.3,0-.45v-66A1.94,1.94,0,0,1,104.31,41.3Z"/><path class="cls-5" d="M104.31,41.3a1.94,1.94,0,0,0-.16,1v66c0,.15,0,.3,0,.45H99.72q0-25.53,0-51.05,0-8.17,0-16.35Z"/><path class="cls-5" d="M36.84,108.7c0-.3,0-.61,0-.91V42.21c0-.3,0-.6,0-.91h3.4c0,.24,0,.49,0,.73v66.12c0,.18,0,.37,0,.55Z"/><path class="cls-5" d="M57.55,41.23a30.11,30.11,0,0,1-3.8,0c0-2.53,0-5,0-7.57a5.65,5.65,0,0,1,6-6l20.35,0c3.72,0,6.07,2.38,6.07,6.13q0,3.74,0,7.47a30.27,30.27,0,0,1-3.81,0c0-2.55,0-5.11,0-7.67,0-1.49-.67-2.15-2.19-2.15q-10.23,0-20.45,0c-1.55,0-2.19.66-2.2,2.24Q57.54,37.45,57.55,41.23Z"/><path class="cls-5" d="M107.63,108.74l4.6,0c0,.49,0,1,0,1.46a2.29,2.29,0,0,1-4.57,0C107.64,109.72,107.64,109.23,107.63,108.74Z"/><path class="cls-5" d="M27.7,108.72h4.58v1.36A2.12,2.12,0,0,1,30,112.37a2.15,2.15,0,0,1-2.33-2.29C27.69,109.63,27.7,109.18,27.7,108.72Z"/><path class="cls-6" d="M96.15,70.15c-.09.19-.18.38-.28.57Q90.46,80.28,85,89.85c-.35.62-.61.77-1.3.37-3.46-2-7-4-10.46-6-.64-.36-.84-.61-.41-1.36q5.46-9.5,10.82-19c.33-.58.56-.69,1.17-.35,3.55,2,7.14,4,10.7,6.08C95.79,69.73,96.07,69.82,96.15,70.15Z"/><path class="cls-5" d="M58.12,51.37c.37,0,.42.33.54.56Q60,54.6,61.39,57.28L66,66.4c.51,1,.49,1-.55,1.51-3.05,1.52-6.08,3-9.1,4.62-.64.33-.93.34-1.29-.38-2.46-5-5-10-7.48-14.94-.14-.29-.24-.47.12-.64l10.21-5.1Z"/><path class="cls-6" d="M58.31,83.17a5.83,5.83,0,1,1-.08,11.65,5.83,5.83,0,0,1,.08-11.65Z"/></g><g class="cls-7"><path d="M13.41,47.19a8.71,8.71,0,0,1,3.45-3.49,9.91,9.91,0,0,1,5-1.25,9.58,9.58,0,0,1,5.88,1.81,8.72,8.72,0,0,1,3.27,5H25.86a4.24,4.24,0,0,0-1.64-1.85,4.57,4.57,0,0,0-2.4-.63,4.52,4.52,0,0,0-3.52,1.51,5.85,5.85,0,0,0-1.35,4,5.84,5.84,0,0,0,1.35,4,4.48,4.48,0,0,0,3.52,1.51,4.57,4.57,0,0,0,2.4-.63,4.15,4.15,0,0,0,1.64-1.84H31a8.64,8.64,0,0,1-3.27,4.93,9.64,9.64,0,0,1-5.88,1.8,9.91,9.91,0,0,1-5-1.25,8.79,8.79,0,0,1-3.45-3.47,11.07,11.07,0,0,1,0-10.18Z"/><path d="M38,60.88a9.46,9.46,0,0,1-3.6-3.53,10.4,10.4,0,0,1,0-10.18A9.58,9.58,0,0,1,38,43.65a10.51,10.51,0,0,1,10,0,9.36,9.36,0,0,1,3.57,3.52,10.51,10.51,0,0,1,0,10.18A9.34,9.34,0,0,1,48,60.88a9.91,9.91,0,0,1-5,1.27A10,10,0,0,1,38,60.88Zm8.69-4.56a5.84,5.84,0,0,0,1.38-4.06,5.87,5.87,0,0,0-1.38-4.09,5.3,5.3,0,0,0-7.42,0,5.8,5.8,0,0,0-1.39,4.1,5.82,5.82,0,0,0,1.39,4.08A4.79,4.79,0,0,0,43,57.86,4.74,4.74,0,0,0,46.73,56.32Z"/><path d="M77.35,42.67V62h-4.7V50.39L68.34,62h-3.8L60.2,50.36V62H55.5V42.67h5.56L66.47,56l5.36-13.35Z"/><path d="M85.43,42.67V62h-4.7V42.67Z"/><path d="M106.09,62h-4.7L93.53,50.06V62h-4.7V42.67h4.7l7.86,11.95V42.67h4.7Z"/><path d="M122.3,48.77a3.47,3.47,0,0,0-1.49-1.47,4.94,4.94,0,0,0-2.3-.51,4.73,4.73,0,0,0-3.65,1.49,5.69,5.69,0,0,0-1.38,4,5.77,5.77,0,0,0,1.44,4.17,5.31,5.31,0,0,0,4,1.49,4.77,4.77,0,0,0,2.92-.88,5,5,0,0,0,1.75-2.52h-6V51.07h10.23v4.37a9,9,0,0,1-1.78,3.27,9.27,9.27,0,0,1-3.17,2.45,9.84,9.84,0,0,1-4.34.93,10.2,10.2,0,0,1-5.1-1.25A8.89,8.89,0,0,1,110,57.37a11,11,0,0,1,0-10.18,8.79,8.79,0,0,1,3.48-3.49,10.1,10.1,0,0,1,5.08-1.25,9.84,9.84,0,0,1,5.84,1.67,8,8,0,0,1,3.15,4.65Z"/><path class="cls-8" d="M13.41,47.19a8.71,8.71,0,0,1,3.45-3.49,9.91,9.91,0,0,1,5-1.25,9.58,9.58,0,0,1,5.88,1.81,8.72,8.72,0,0,1,3.27,5H25.86a4.24,4.24,0,0,0-1.64-1.85,4.57,4.57,0,0,0-2.4-.63,4.52,4.52,0,0,0-3.52,1.51,5.85,5.85,0,0,0-1.35,4,5.84,5.84,0,0,0,1.35,4,4.48,4.48,0,0,0,3.52,1.51,4.57,4.57,0,0,0,2.4-.63,4.15,4.15,0,0,0,1.64-1.84H31a8.64,8.64,0,0,1-3.27,4.93,9.64,9.64,0,0,1-5.88,1.8,9.91,9.91,0,0,1-5-1.25,8.79,8.79,0,0,1-3.45-3.47,11.07,11.07,0,0,1,0-10.18Z"/><path class="cls-8" d="M38,60.88a9.46,9.46,0,0,1-3.6-3.53,10.4,10.4,0,0,1,0-10.18A9.58,9.58,0,0,1,38,43.65a10.51,10.51,0,0,1,10,0,9.36,9.36,0,0,1,3.57,3.52,10.51,10.51,0,0,1,0,10.18A9.34,9.34,0,0,1,48,60.88a9.91,9.91,0,0,1-5,1.27A10,10,0,0,1,38,60.88Zm8.69-4.56a5.84,5.84,0,0,0,1.38-4.06,5.87,5.87,0,0,0-1.38-4.09,5.3,5.3,0,0,0-7.42,0,5.8,5.8,0,0,0-1.39,4.1,5.82,5.82,0,0,0,1.39,4.08A4.79,4.79,0,0,0,43,57.86,4.74,4.74,0,0,0,46.73,56.32Z"/><path class="cls-8" d="M77.35,42.67V62h-4.7V50.39L68.34,62h-3.8L60.2,50.36V62H55.5V42.67h5.56L66.47,56l5.36-13.35Z"/><path class="cls-8" d="M85.43,42.67V62h-4.7V42.67Z"/><path class="cls-8" d="M106.09,62h-4.7L93.53,50.06V62h-4.7V42.67h4.7l7.86,11.95V42.67h4.7Z"/><path class="cls-8" d="M122.3,48.77a3.47,3.47,0,0,0-1.49-1.47,4.94,4.94,0,0,0-2.3-.51,4.73,4.73,0,0,0-3.65,1.49,5.69,5.69,0,0,0-1.38,4,5.77,5.77,0,0,0,1.44,4.17,5.31,5.31,0,0,0,4,1.49,4.77,4.77,0,0,0,2.92-.88,5,5,0,0,0,1.75-2.52h-6V51.07h10.23v4.37a9,9,0,0,1-1.78,3.27,9.27,9.27,0,0,1-3.17,2.45,9.84,9.84,0,0,1-4.34.93,10.2,10.2,0,0,1-5.1-1.25A8.89,8.89,0,0,1,110,57.37a11,11,0,0,1,0-10.18,8.79,8.79,0,0,1,3.48-3.49,10.1,10.1,0,0,1,5.08-1.25,9.84,9.84,0,0,1,5.84,1.67,8,8,0,0,1,3.15,4.65Z"/><path class="cls-9" d="M13.41,47.19a8.71,8.71,0,0,1,3.45-3.49,9.91,9.91,0,0,1,5-1.25,9.58,9.58,0,0,1,5.88,1.81,8.72,8.72,0,0,1,3.27,5H25.86a4.24,4.24,0,0,0-1.64-1.85,4.57,4.57,0,0,0-2.4-.63,4.52,4.52,0,0,0-3.52,1.51,5.85,5.85,0,0,0-1.35,4,5.84,5.84,0,0,0,1.35,4,4.48,4.48,0,0,0,3.52,1.51,4.57,4.57,0,0,0,2.4-.63,4.15,4.15,0,0,0,1.64-1.84H31a8.64,8.64,0,0,1-3.27,4.93,9.64,9.64,0,0,1-5.88,1.8,9.91,9.91,0,0,1-5-1.25,8.79,8.79,0,0,1-3.45-3.47,11.07,11.07,0,0,1,0-10.18Z"/><path class="cls-9" d="M38,60.88a9.46,9.46,0,0,1-3.6-3.53,10.4,10.4,0,0,1,0-10.18A9.58,9.58,0,0,1,38,43.65a10.51,10.51,0,0,1,10,0,9.36,9.36,0,0,1,3.57,3.52,10.51,10.51,0,0,1,0,10.18A9.34,9.34,0,0,1,48,60.88a9.91,9.91,0,0,1-5,1.27A10,10,0,0,1,38,60.88Zm8.69-4.56a5.84,5.84,0,0,0,1.38-4.06,5.87,5.87,0,0,0-1.38-4.09,5.3,5.3,0,0,0-7.42,0,5.8,5.8,0,0,0-1.39,4.1,5.82,5.82,0,0,0,1.39,4.08A4.79,4.79,0,0,0,43,57.86,4.74,4.74,0,0,0,46.73,56.32Z"/><path class="cls-9" d="M77.35,42.67V62h-4.7V50.39L68.34,62h-3.8L60.2,50.36V62H55.5V42.67h5.56L66.47,56l5.36-13.35Z"/><path class="cls-9" d="M85.43,42.67V62h-4.7V42.67Z"/><path class="cls-9" d="M106.09,62h-4.7L93.53,50.06V62h-4.7V42.67h4.7l7.86,11.95V42.67h4.7Z"/><path class="cls-9" d="M122.3,48.77a3.47,3.47,0,0,0-1.49-1.47,4.94,4.94,0,0,0-2.3-.51,4.73,4.73,0,0,0-3.65,1.49,5.69,5.69,0,0,0-1.38,4,5.77,5.77,0,0,0,1.44,4.17,5.31,5.31,0,0,0,4,1.49,4.77,4.77,0,0,0,2.92-.88,5,5,0,0,0,1.75-2.52h-6V51.07h10.23v4.37a9,9,0,0,1-1.78,3.27,9.27,9.27,0,0,1-3.17,2.45,9.84,9.84,0,0,1-4.34.93,10.2,10.2,0,0,1-5.1-1.25A8.89,8.89,0,0,1,110,57.37a11,11,0,0,1,0-10.18,8.79,8.79,0,0,1,3.48-3.49,10.1,10.1,0,0,1,5.08-1.25,9.84,9.84,0,0,1,5.84,1.67,8,8,0,0,1,3.15,4.65Z"/><path d="M18.17,96.64a8.82,8.82,0,0,1-3.78-2.87,7.81,7.81,0,0,1-1.49-4.58H20a3.14,3.14,0,0,0,3.38,3.1,3.58,3.58,0,0,0,2.32-.68,2.44,2.44,0,0,0,.18-3.55A5.35,5.35,0,0,0,24.17,87a27.45,27.45,0,0,0-2.81-1,30.64,30.64,0,0,1-4.31-1.62A8,8,0,0,1,14.18,82,6.66,6.66,0,0,1,13,77.82a7.13,7.13,0,0,1,2.76-6,11.28,11.28,0,0,1,7.18-2.15,11.44,11.44,0,0,1,7.26,2.15,7.71,7.71,0,0,1,2.94,6H25.94a2.85,2.85,0,0,0-1-2.07A3.4,3.4,0,0,0,22.68,75a2.92,2.92,0,0,0-1.95.64A2.32,2.32,0,0,0,20,77.51a2.27,2.27,0,0,0,1.24,2,20.56,20.56,0,0,0,3.88,1.59,37.32,37.32,0,0,1,4.29,1.71,8.05,8.05,0,0,1,2.85,2.37,6.35,6.35,0,0,1,1.2,4,7.84,7.84,0,0,1-1.18,4.23,8.32,8.32,0,0,1-3.43,3,11.79,11.79,0,0,1-5.32,1.13A14,14,0,0,1,18.17,96.64Z"/><path d="M43.38,95.82a13.35,13.35,0,0,1-5.08-5,13.92,13.92,0,0,1-1.89-7.2,13.77,13.77,0,0,1,1.89-7.18,13.39,13.39,0,0,1,5.08-5,14.83,14.83,0,0,1,14.09,0,13.15,13.15,0,0,1,5,5,14.83,14.83,0,0,1,0,14.38,13.24,13.24,0,0,1-5,5,14.72,14.72,0,0,1-14.07,0Zm12.26-6.44a9.43,9.43,0,0,0,0-11.51,6.71,6.71,0,0,0-5.22-2.15,6.78,6.78,0,0,0-5.25,2.13,8.24,8.24,0,0,0-2,5.79,8.23,8.23,0,0,0,2,5.76,6.73,6.73,0,0,0,5.25,2.15A6.66,6.66,0,0,0,55.64,89.38Z"/><path d="M73.88,95.82a13.42,13.42,0,0,1-5.08-5,14,14,0,0,1-1.88-7.2,13.86,13.86,0,0,1,1.88-7.18,13.46,13.46,0,0,1,5.08-5,14.83,14.83,0,0,1,14.09,0,13.11,13.11,0,0,1,5,5,14.9,14.9,0,0,1,0,14.38,13.27,13.27,0,0,1-5,5,14.1,14.1,0,0,1-7,1.79A14.27,14.27,0,0,1,73.88,95.82Zm12.27-6.44a9.43,9.43,0,0,0,0-11.51,7.49,7.49,0,0,0-10.48,0,8.24,8.24,0,0,0-2,5.79,8.23,8.23,0,0,0,2,5.76,7.44,7.44,0,0,0,10.48,0Z"/><path d="M122.92,97.34h-6.64L105.19,80.53V97.34H98.55V70.09h6.64L116.28,87V70.09h6.64Z"/><path class="cls-8" d="M18.17,96.64a8.82,8.82,0,0,1-3.78-2.87,7.81,7.81,0,0,1-1.49-4.58H20a3.14,3.14,0,0,0,3.38,3.1,3.58,3.58,0,0,0,2.32-.68,2.44,2.44,0,0,0,.18-3.55A5.35,5.35,0,0,0,24.17,87a27.45,27.45,0,0,0-2.81-1,30.64,30.64,0,0,1-4.31-1.62A8,8,0,0,1,14.18,82,6.66,6.66,0,0,1,13,77.82a7.13,7.13,0,0,1,2.76-6,11.28,11.28,0,0,1,7.18-2.15,11.44,11.44,0,0,1,7.26,2.15,7.71,7.71,0,0,1,2.94,6H25.94a2.85,2.85,0,0,0-1-2.07A3.4,3.4,0,0,0,22.68,75a2.92,2.92,0,0,0-1.95.64A2.32,2.32,0,0,0,20,77.51a2.27,2.27,0,0,0,1.24,2,20.56,20.56,0,0,0,3.88,1.59,37.32,37.32,0,0,1,4.29,1.71,8.05,8.05,0,0,1,2.85,2.37,6.35,6.35,0,0,1,1.2,4,7.84,7.84,0,0,1-1.18,4.23,8.32,8.32,0,0,1-3.43,3,11.79,11.79,0,0,1-5.32,1.13A14,14,0,0,1,18.17,96.64Z"/><path class="cls-8" d="M43.38,95.82a13.35,13.35,0,0,1-5.08-5,13.92,13.92,0,0,1-1.89-7.2,13.77,13.77,0,0,1,1.89-7.18,13.39,13.39,0,0,1,5.08-5,14.83,14.83,0,0,1,14.09,0,13.15,13.15,0,0,1,5,5,14.83,14.83,0,0,1,0,14.38,13.24,13.24,0,0,1-5,5,14.72,14.72,0,0,1-14.07,0Zm12.26-6.44a9.43,9.43,0,0,0,0-11.51,6.71,6.71,0,0,0-5.22-2.15,6.78,6.78,0,0,0-5.25,2.13,8.24,8.24,0,0,0-2,5.79,8.23,8.23,0,0,0,2,5.76,6.73,6.73,0,0,0,5.25,2.15A6.66,6.66,0,0,0,55.64,89.38Z"/><path class="cls-8" d="M73.88,95.82a13.42,13.42,0,0,1-5.08-5,14,14,0,0,1-1.88-7.2,13.86,13.86,0,0,1,1.88-7.18,13.46,13.46,0,0,1,5.08-5,14.83,14.83,0,0,1,14.09,0,13.11,13.11,0,0,1,5,5,14.9,14.9,0,0,1,0,14.38,13.27,13.27,0,0,1-5,5,14.1,14.1,0,0,1-7,1.79A14.27,14.27,0,0,1,73.88,95.82Zm12.27-6.44a9.43,9.43,0,0,0,0-11.51,7.49,7.49,0,0,0-10.48,0,8.24,8.24,0,0,0-2,5.79,8.23,8.23,0,0,0,2,5.76,7.44,7.44,0,0,0,10.48,0Z"/><path class="cls-8" d="M122.92,97.34h-6.64L105.19,80.53V97.34H98.55V70.09h6.64L116.28,87V70.09h6.64Z"/><path class="cls-9" d="M18.17,96.64a8.82,8.82,0,0,1-3.78-2.87,7.81,7.81,0,0,1-1.49-4.58H20a3.14,3.14,0,0,0,3.38,3.1,3.58,3.58,0,0,0,2.32-.68,2.44,2.44,0,0,0,.18-3.55A5.35,5.35,0,0,0,24.17,87a27.45,27.45,0,0,0-2.81-1,30.64,30.64,0,0,1-4.31-1.62A8,8,0,0,1,14.18,82,6.66,6.66,0,0,1,13,77.82a7.13,7.13,0,0,1,2.76-6,11.28,11.28,0,0,1,7.18-2.15,11.44,11.44,0,0,1,7.26,2.15,7.71,7.71,0,0,1,2.94,6H25.94a2.85,2.85,0,0,0-1-2.07A3.4,3.4,0,0,0,22.68,75a2.92,2.92,0,0,0-1.95.64A2.32,2.32,0,0,0,20,77.51a2.27,2.27,0,0,0,1.24,2,20.56,20.56,0,0,0,3.88,1.59,37.32,37.32,0,0,1,4.29,1.71,8.05,8.05,0,0,1,2.85,2.37,6.35,6.35,0,0,1,1.2,4,7.84,7.84,0,0,1-1.18,4.23,8.32,8.32,0,0,1-3.43,3,11.79,11.79,0,0,1-5.32,1.13A14,14,0,0,1,18.17,96.64Z"/><path class="cls-9" d="M43.38,95.82a13.35,13.35,0,0,1-5.08-5,13.92,13.92,0,0,1-1.89-7.2,13.77,13.77,0,0,1,1.89-7.18,13.39,13.39,0,0,1,5.08-5,14.83,14.83,0,0,1,14.09,0,13.15,13.15,0,0,1,5,5,14.83,14.83,0,0,1,0,14.38,13.24,13.24,0,0,1-5,5,14.72,14.72,0,0,1-14.07,0Zm12.26-6.44a9.43,9.43,0,0,0,0-11.51,6.71,6.71,0,0,0-5.22-2.15,6.78,6.78,0,0,0-5.25,2.13,8.24,8.24,0,0,0-2,5.79,8.23,8.23,0,0,0,2,5.76,6.73,6.73,0,0,0,5.25,2.15A6.66,6.66,0,0,0,55.64,89.38Z"/><path class="cls-9" d="M73.88,95.82a13.42,13.42,0,0,1-5.08-5,14,14,0,0,1-1.88-7.2,13.86,13.86,0,0,1,1.88-7.18,13.46,13.46,0,0,1,5.08-5,14.83,14.83,0,0,1,14.09,0,13.11,13.11,0,0,1,5,5,14.9,14.9,0,0,1,0,14.38,13.27,13.27,0,0,1-5,5,14.1,14.1,0,0,1-7,1.79A14.27,14.27,0,0,1,73.88,95.82Zm12.27-6.44a9.43,9.43,0,0,0,0-11.51,7.49,7.49,0,0,0-10.48,0,8.24,8.24,0,0,0-2,5.79,8.23,8.23,0,0,0,2,5.76,7.44,7.44,0,0,0,10.48,0Z"/><path class="cls-9" d="M122.92,97.34h-6.64L105.19,80.53V97.34H98.55V70.09h6.64L116.28,87V70.09h6.64Z"/></g></svg>