<svg id="Layer_1" data-name="Layer 1" xmlns="http://www.w3.org/2000/svg" viewBox="0 0 140 140"><defs><style>.cls-1{fill:#e6f0ff;}.cls-2{fill:#dddde1;}.cls-3{fill:#fdd699;}.cls-4{fill:#ff6e00;}.cls-5{fill:#435a8c;}.cls-6{fill:#94a98a;}.cls-7{fill:#fefefe;}.cls-8{fill:#ff8e04;}.cls-9{fill:#fee9c4;}.cls-10{fill:#3a4534;}.cls-11{fill:#394433;}.cls-12{fill:#fdc272;}.cls-13{fill:#f7b461;}.cls-14{fill:#587bb7;}</style></defs><rect class="cls-1" width="140" height="140"/><g id="B7mTLv"><path class="cls-2" d="M-.11,59.86H0l0,.42a9,9,0,0,1-.16,1.94Z"/><path class="cls-3" d="M35.59,17.1c2.86,0,5.71,0,8.56,0C50.78,16.87,57.41,17,64,17c1.3,0,2.6.08,3.9.14a5.21,5.21,0,0,1,2.14.74Q76.29,21,82.25,24.62A65.1,65.1,0,0,1,91.46,31a2.75,2.75,0,0,1,.75.88c-.66.11-1.08.63-1.63.92a.24.24,0,0,0-.1.32.25.25,0,0,0,.27.19,3.31,3.31,0,0,0,1.46-1.43,1.16,1.16,0,0,1,.57.91c-.75-.06-1.12.59-1.67.9,0,0-.06.19,0,.27a.17.17,0,0,0,.23.11c.52-.37,1.24-.47,1.49-1.17A8.3,8.3,0,0,1,93,35.47c.08,3.46,0,6.92,0,10.38l-7.51-.76a51.34,51.34,0,0,0,.13-6c0-1.89-.64-2.77-2.35-3.31a4.51,4.51,0,0,0-2.06-.91c-.3-.62-1-.54-1.5-.8a19.43,19.43,0,0,0-3.37-1.39l-1.32-.57-1.31-.43a19.66,19.66,0,0,0-4.21-1.05c-1.5-.37-2.94-.6-4.22.7-1.81,1.84-2.39,3.85-1.51,6.08a25.62,25.62,0,0,0,3.56,5.89l1.49,2.2a11.41,11.41,0,0,0,1.46,2.29,12.87,12.87,0,0,0,1.14,2.29,34.63,34.63,0,0,1,1.79,4.42c.8,2.84.33,4-2.2,5.45a2,2,0,0,1-2.27,0,10.79,10.79,0,0,1-2.43-2.34c-1.86-2.3-3.45-4.8-5.27-7.13a15,15,0,0,0-4.19-4.05A20.75,20.75,0,0,0,53.3,43.9,20.15,20.15,0,0,0,50,41.45L44.57,37.6a1.54,1.54,0,0,0-1-.29h-8Q35.6,27.21,35.59,17.1ZM66.36,54.32a4.07,4.07,0,0,0,.11.79A12.49,12.49,0,0,0,68.29,58a.44.44,0,0,0,.65.09,12.78,12.78,0,0,0,3-2.34.39.39,0,0,0,0-.62,14.81,14.81,0,0,0-2.32-2.43,1.83,1.83,0,0,0-2-.24A1.88,1.88,0,0,0,66.36,54.32Zm-.88-8c0-.35-.25-.33-.43-.22l-2.78,1.76c-.15.1-.35.26-.2.49s.37.1.52,0a30.35,30.35,0,0,1,2.63-1.71A1.08,1.08,0,0,0,65.48,46.31Zm-.59-.85c-.24-.31-.49-.18-.7,0-.84.54-1.67,1.1-2.5,1.66-.13.09-.35.18-.19.39s.33.14.52,0l2.61-1.74A2.62,2.62,0,0,0,64.89,45.46Z"/><path class="cls-4" d="M.05,60.28l0-.42c0-17.5,0-24,0-47.53.44-.46,21.94.46,22.39,0,.66,0,1.32.05,2,0s.87.13.73.76a1.14,1.14,0,0,0,0,.36V45.07a7.26,7.26,0,0,0,0,1.68c0,4.2,0,8.4,0,12.6,0,1,0,1-1,1-3.95,0-7.91,0-11.86,0Z"/><path class="cls-5" d="M95.44,100c2.07,3,4.39,5.73,6.46,8.69a4.7,4.7,0,0,1,.16,5.83,48.83,48.83,0,0,1-8,9.74,7.33,7.33,0,0,1-5,1.65c-9.65.52-19.3.4-29,.13a37.58,37.58,0,0,1-4.1-.35,4.67,4.67,0,0,1-2.46-1.08,40.48,40.48,0,0,1-9-11,3.61,3.61,0,0,1,.1-4c1.59-2.64,3.57-5,5.4-7.46l1.61-2.2c.41,0,.84,0,1.24.14.74.15,1-.19,1-.86,0-1,0-2,0-3a22.41,22.41,0,0,1,.3-4.4A2.21,2.21,0,0,1,55.6,90a47.45,47.45,0,0,1,5.19-1.66,71.79,71.79,0,0,1,10.95-2.22,27.65,27.65,0,0,1,8.69.82,69.19,69.19,0,0,1,11.12,3.09,2,2,0,0,1,1.38,1.66c.06.36.13.73.18,1.09.25,2.06.08,4.12.15,6.18,0,1.32,0,1.32,1.31,1.13C94.86,100.09,95.15,100,95.44,100ZM74.23,117.07c3.2-.06,7.3.12,11.4-.13a7.69,7.69,0,0,0,5-1.62,33.64,33.64,0,0,0,5.94-6.39c.42-.62.92-1.29.59-2.1a5.92,5.92,0,0,0-.91-1.42,46.62,46.62,0,0,0-3.86-4.33,4.28,4.28,0,0,1-1.52-3.78,9.55,9.55,0,0,0-.12-3.15c-.17-.82-.32-1.69-1.17-2.1a13.33,13.33,0,0,0-1.87-.65,67.94,67.94,0,0,0-8.23-1.84A32.82,32.82,0,0,0,73,88.91a36.78,36.78,0,0,0-5,.6,69.45,69.45,0,0,0-9.86,2.29,2.2,2.2,0,0,0-1.6,1.73,23.1,23.1,0,0,0-.27,5,2,2,0,0,1-.43,1.37c-1.65,1.81-3.39,3.54-4.87,5.49-1.15,1.52-1.53,1.93-.28,3.71a32.05,32.05,0,0,0,5.77,6.15,5.56,5.56,0,0,0,2.8,1.52,42.73,42.73,0,0,0,5.42.32Z"/><path class="cls-6" d="M85.57,45.09l7.51.76c3.22.4,6.47.53,9.69,1A18.93,18.93,0,0,0,105,47c.46,0,.69.06.63.67-.26,2.31-.37,4.63-.65,6.93-.31,2.59-.48,5.2-.8,7.8-.22,1.76-.34,3.54-.51,5.32s-.36,3.45-.54,5.17c0,.07,0,.15,0,.22-.15,1.32-.15,1.31-1.47,1.17l-8.82-.88c-3-.3-6.07-.58-9.11-.89-2.67-.27-5.34-.59-8-.86-2.31-.23-4.63-.38-6.93-.61-2.6-.26-5.19-.62-7.8-.85-1.68-.14-3.36-.25-5-.47-2.23-.28-4.47-.37-6.7-.69-1.79-.26-3.6-.35-5.4-.48-.51,0-.71-.09-.64-.72.3-2.79.5-5.59.78-8.39.31-3.11.77-6.2,1-9.32.19-2.71.65-5.39.77-8.1,0-.54.23-.82.81-.77,1,.1,2,.16,2.92.25.2,0,.39.09.55-.07A20.15,20.15,0,0,1,53.3,43.9c-.32,0-.64,0-.95,0-1.17-.11-2.34-.25-3.51-.37-.37,0-.67-.07-.72.45q-.59,6.12-1.19,12.23c-.32,3.18-.62,6.35-1,9.52-.1,1-.13,1,.86,1,2.76.26,5.52.51,8.28.79,5.15.51,10.3,1.05,15.45,1.56,4.22.42,8.45.81,12.67,1.23q8.46.84,16.91,1.71c.41,0,.57-.06.61-.49.27-2.9.57-5.81.86-8.71.44-4.37.86-8.74,1.32-13.11.07-.67-.13-.9-.79-.95-1.81-.14-3.61-.33-5.42-.51l-11.2-1.12-8.35-.84-8.28-.79-1.49-2.2,3.42.28c1.76.18,3.52.43,5.3.47h.1l.32.1.61,0,5.29.55,1.35.14Z"/><path class="cls-7" d="M25.19,45.07V13.46l7.19-.05c.83,0,1.66,0,2.49,0,.54,0,.74.12.72.69,0,1,0,2,0,3q0,10.11,0,20.22c0,2.39,0,4.77,0,7.15,0,.37,0,.67-.52.67-3.22,0-6.44,0-9.65,0A.79.79,0,0,1,25.19,45.07Z"/><path class="cls-8" d="M95.44,100c-.29,0-.58.11-.87.15-1.26.19-1.27.19-1.31-1.13-.07-2.06.1-4.12-.15-6.18,0-.36-.12-.73-.18-1.09a2,2,0,0,0-1.38-1.66A69.19,69.19,0,0,0,80.43,87a27.65,27.65,0,0,0-8.69-.82,71.79,71.79,0,0,0-10.95,2.22A47.45,47.45,0,0,0,55.6,90a2.21,2.21,0,0,0-1.46,1.77,22.41,22.41,0,0,0-.3,4.4c0,1,0,2,0,3,0,.67-.21,1-1,.86-.4-.09-.83-.09-1.24-.14.05-2.37-.13-4.75.13-7.12a9,9,0,0,1,.47-2.3,3.72,3.72,0,0,1,2.12-2.29,65.3,65.3,0,0,1,12.35-3.47c1.15-.23,2.31-.4,3.47-.6l2.24-.28c.48-.2,1.31.47,1.46-.51a2.66,2.66,0,0,0-.21-1.72,1.87,1.87,0,0,1,.43-2.34A1.9,1.9,0,0,1,76.36,79a2,2,0,0,1,1.09,2.07,1.8,1.8,0,0,1-.88,1.38c-.62.35-.46.89-.39,1.36s.54.33.85.38a76.07,76.07,0,0,1,15.36,3.9,4.3,4.3,0,0,1,2.76,3.59,38.1,38.1,0,0,1,.28,6.75C95.43,99,95.44,99.46,95.44,100Z"/><path class="cls-4" d="M72.44,83.89l-2.24.28a2,2,0,0,0-.74-2,1.88,1.88,0,0,1-.1-2.66A2.09,2.09,0,0,1,71.9,79a2,2,0,0,1,.8,2.56A5.18,5.18,0,0,0,72.44,83.89Z"/><path class="cls-9" d="M92.79,32.85c-.25.7-1,.8-1.49,1.17a.17.17,0,0,1-.23-.11c0-.08,0-.24,0-.27.55-.31.92-1,1.67-.9A.14.14,0,0,1,92.79,32.85Z"/><path class="cls-6" d="M71.5,50.13a12.87,12.87,0,0,1-1.14-2.29l3.94.35,11.22,1.09c4.81.47,9.62,1,14.43,1.42.6.06.74.25.68.81-.27,2.51-.5,5-.75,7.55-.34,3.34-.7,6.68-1,10-.06.64-.32.71-.83.65-1.47-.16-2.93-.3-4.4-.44l-9.38-.92-11.5-1.15L61.94,66.16c-4.23-.42-8.45-.86-12.68-1.27-1.08-.1-1.09-.07-1-1.14C48.85,58,49.44,52.18,50,46.39c0-.44.18-.62.63-.55.29,0,.59,0,.88.08l5.42.52a15,15,0,0,1,4.19,4.05c1.82,2.33,3.41,4.83,5.27,7.13-.31.29-.15.65-.12,1a8.21,8.21,0,1,0,5.23-8.46Zm23.68,9.39A3.49,3.49,0,1,0,91.66,63,3.41,3.41,0,0,0,95.18,59.52Zm-38,.06a3.41,3.41,0,0,0,3.49-3.49,3.5,3.5,0,1,0-7,0A3.46,3.46,0,0,0,57.19,59.58Z"/><path class="cls-10" d="M56.93,46.44l-5.42-.52c-.29,0-.59,0-.88-.08-.45-.07-.58.11-.63.55-.56,5.79-1.15,11.58-1.72,17.36-.11,1.07-.1,1,1,1.14,4.23.41,8.45.85,12.68,1.27l10.84,1.07,11.5,1.15,9.38.92c1.47.14,2.93.28,4.4.44.51.06.77,0,.83-.65.29-3.35.65-6.69,1-10,.25-2.52.48-5,.75-7.55.06-.56-.08-.75-.68-.81-4.81-.45-9.62-1-14.43-1.42L74.3,48.19l-3.94-.35a11.41,11.41,0,0,1-1.46-2.29l8.28.79,8.35.84,11.2,1.12c1.81.18,3.61.37,5.42.51.66,0,.86.28.79.95-.46,4.37-.88,8.74-1.32,13.11-.29,2.9-.59,5.81-.86,8.71,0,.43-.2.53-.61.49q-8.45-.87-16.91-1.71c-4.22-.42-8.45-.81-12.67-1.23-5.15-.51-10.3-1-15.45-1.56-2.76-.28-5.52-.53-8.28-.79-1-.09-1-.08-.86-1,.33-3.17.63-6.34,1-9.52q.6-6.1,1.19-12.23c.05-.52.35-.49.72-.45,1.17.12,2.34.26,3.51.37.31,0,.63,0,.95,0A20.75,20.75,0,0,1,56.93,46.44Z"/><path class="cls-11" d="M71.5,50.13a8.21,8.21,0,1,1-5.23,8.46c0-.32-.19-.68.12-1A10.79,10.79,0,0,0,68.82,60a2,2,0,0,0,2.27,0c2.53-1.48,3-2.61,2.2-5.45A34.63,34.63,0,0,0,71.5,50.13Z"/><path class="cls-12" d="M70.83,43.63q-.51-4.93-1-9.87c-.1-1-.17-2.06-.25-3.08a19.66,19.66,0,0,1,4.21,1.05l1.31.43a10,10,0,0,1,.15,1.89c.1,1.46.23,2.92.32,4.38.13,1.9.37,3.78.56,5.67C74.35,44.06,72.59,43.81,70.83,43.63Z"/><path class="cls-12" d="M82.45,44.78l-5.29-.55c0-.75-.19-1.49-.16-2.26a23.11,23.11,0,0,0-.17-2.76c-.18-2.16-.26-4.33-.41-6.48a19.43,19.43,0,0,1,3.37,1.39c.5.26,1.2.18,1.5.8.25,2.37.46,4.75.75,7.12A12.78,12.78,0,0,0,82.45,44.78Z"/><path class="cls-9" d="M66.36,54.32a1.88,1.88,0,0,1,1.26-1.82,1.83,1.83,0,0,1,2,.24,14.81,14.81,0,0,1,2.32,2.43.39.39,0,0,1,0,.62,12.78,12.78,0,0,1-3,2.34.44.44,0,0,1-.65-.09,12.49,12.49,0,0,1-1.82-2.93A4.07,4.07,0,0,1,66.36,54.32Z"/><path class="cls-12" d="M85.57,45.09l-1.77-.17-.45-9.09c1.71.54,2.35,1.42,2.35,3.31A51.34,51.34,0,0,1,85.57,45.09Z"/><path class="cls-13" d="M83.35,35.83l.45,9.09-1.35-.14A12.78,12.78,0,0,1,82,42c-.29-2.37-.5-4.75-.75-7.12A4.51,4.51,0,0,1,83.35,35.83Z"/><path class="cls-13" d="M76.42,32.73c.15,2.15.23,4.32.41,6.48A23.11,23.11,0,0,1,77,42c0,.77.12,1.51.16,2.26l-.61,0-.32-.1h-.1c-.19-1.89-.43-3.77-.56-5.67-.09-1.46-.22-2.92-.32-4.38a10,10,0,0,0-.15-1.89Z"/><path class="cls-9" d="M65.48,46.31a1.08,1.08,0,0,1-.26.31,30.35,30.35,0,0,0-2.63,1.71c-.15.11-.37.23-.52,0s0-.39.2-.49l2.78-1.76C65.23,46,65.44,46,65.48,46.31Z"/><path class="cls-9" d="M64.89,45.46a2.62,2.62,0,0,1-.26.29L62,47.49c-.19.12-.38.17-.52,0s.06-.3.19-.39c.83-.56,1.66-1.12,2.5-1.66C64.4,45.28,64.65,45.15,64.89,45.46Z"/><path class="cls-9" d="M92.21,31.83a3.31,3.31,0,0,1-1.46,1.43.25.25,0,0,1-.27-.19.24.24,0,0,1,.1-.32c.55-.29,1-.81,1.63-.92Z"/><path class="cls-14" d="M74.23,117.07h-9.6a42.73,42.73,0,0,1-5.42-.32,5.56,5.56,0,0,1-2.8-1.52,32.05,32.05,0,0,1-5.77-6.15c-1.25-1.78-.87-2.19.28-3.71,1.48-2,3.22-3.68,4.87-5.49a2,2,0,0,0,.43-1.37,23.1,23.1,0,0,1,.27-5,2.2,2.2,0,0,1,1.6-1.73A69.45,69.45,0,0,1,68,89.51a36.78,36.78,0,0,1,5-.6,32.82,32.82,0,0,1,6.48.65,67.94,67.94,0,0,1,8.23,1.84,13.33,13.33,0,0,1,1.87.65c.85.41,1,1.28,1.17,2.1a9.55,9.55,0,0,1,.12,3.15,4.28,4.28,0,0,0,1.52,3.78,46.62,46.62,0,0,1,3.86,4.33,5.92,5.92,0,0,1,.91,1.42c.33.81-.17,1.48-.59,2.1a33.64,33.64,0,0,1-5.94,6.39,7.69,7.69,0,0,1-5,1.62C81.53,117.19,77.43,117,74.23,117.07Z"/><path class="cls-12" d="M76.23,44.1l.32.1Z"/><path class="cls-11" d="M95.18,59.52A3.49,3.49,0,1,1,91.72,56,3.42,3.42,0,0,1,95.18,59.52Z"/><path class="cls-11" d="M57.19,59.58a3.46,3.46,0,0,1-3.5-3.51,3.5,3.5,0,1,1,7,0A3.41,3.41,0,0,1,57.19,59.58Z"/></g></svg>