<svg id="Layer_1" data-name="Layer 1" xmlns="http://www.w3.org/2000/svg" viewBox="0 0 208 208"><defs><style>.cls-1{fill:#435a8c;}.cls-2{fill:#fdb59e;}.cls-3{fill:#fdb59d;}.cls-4{fill:#587bb7;}.cls-5{fill:#fd8c5f;}.cls-6{fill:#ffa753;}.cls-7{fill:#fcb67c;}.cls-8{fill:#ff8e04;}.cls-9{fill:#f9d1c3;}.cls-10{fill:#3c51d1;}.cls-11{fill:#2145b3;}.cls-12{fill:#fdfcfb;}.cls-13{fill:#090606;}.cls-14{fill:#fefefe;}</style></defs><g id="Oeli7b"><path class="cls-1" d="M99.93,121.39a64.58,64.58,0,0,1-16.53-9.31A59.65,59.65,0,0,1,60.91,72.43a56.56,56.56,0,0,1-.48-7.7q0-19.25,0-38.48c0-3.86,1.8-5.66,5.66-5.66,5.53,0,11.07.05,16.61,0,9-.09,15.61-4.17,19.94-12,.29-.53.53-1.08,1.23-1.09s1,.57,1.33,1.13c4.33,7.78,10.92,11.85,19.86,12,4.48.06,9,0,13.45,0,0,.51,0,1,0,1.52l0,20.41c-3.16,3.26-6.33,6.49-9.63,9.6A28.81,28.81,0,0,0,101,37.57a13.23,13.23,0,0,0-4.07,0,28.56,28.56,0,0,0-5.52,55.86A24.55,24.55,0,0,0,101,94.53c.39,0,.78,0,1.17,0a27.84,27.84,0,0,0,19.57-6.18A28.55,28.55,0,0,0,131,56.8q3.65-3.88,7.54-7.54c0,6.08.06,12.16,0,18.24a45.76,45.76,0,0,1-1,9.11,62.39,62.39,0,0,1-5.72,16.07,59.34,59.34,0,0,1-10.69,14.62,60.42,60.42,0,0,1-19,12.84C101.31,120.45,100.39,120.56,99.93,121.39Z"/><path class="cls-2" d="M119.61,175.89c0-8.61-.08-17.22,0-25.82a12.26,12.26,0,0,1,3.47-8.45c4.91-5.2,9.88-10.37,14.82-15.55s9.85-10.38,14.84-15.51a7.48,7.48,0,0,1,11,.17,6.5,6.5,0,0,1,1.7,3.14c-.44,0-.66.36-.93.64-1.9,2-3.81,4.1-5.73,6.13-3.21,3.38-6.45,6.74-9.64,10.14-1.38,1.46-1.59,3-.72,4.44.67,1.08.78,1.11,1.68.17,3.14-3.29,6.35-6.52,9.38-9.9,1.84-2,4-3.77,5.43-6.21,1-.39,1.46-1.34,2.13-2.06,1.43-1.53,2.74-3.17,4.14-4.73a2.42,2.42,0,0,0,.64-1.21c.42,0,.46-.37.58-.63A27.71,27.71,0,0,0,175,99.75c.11-6.68,0-13.37,0-20,0-.41.13-.87-.28-1.19A7.57,7.57,0,0,1,187,83.72a26.08,26.08,0,0,1,.15,2.79q0,13.26,0,26.51c0,.45.16.94-.18,1.35a3.69,3.69,0,0,1-.79.21,8,8,0,0,0-6.12,3.15,20.29,20.29,0,0,0-2.32,3.9c-2.69,5.22-5.33,10.46-8,15.7a3.34,3.34,0,0,1-1.09,1.18c-2.09,1.48-4.16,3-6.23,4.5l-17.63,12.8c-6.82,5-10.81,11.45-10.74,20.11Z"/><path class="cls-3" d="M20.85,114.38c0-3.78,0-7.56,0-11.34,0-6.19,0-12.38,0-18.58a7.08,7.08,0,0,1,4.37-6.86,7.18,7.18,0,0,1,7.88.91c-.44.36-.27.86-.27,1.31,0,6.1,0,12.21,0,18.31a30.13,30.13,0,0,0,1.94,10.8c.3.82.34,1.85,1.27,2.36.05.87.76,1.34,1.27,1.89,1.73,1.86,3.17,4,5.16,5.63h0a.25.25,0,0,0,.25.25h0a.42.42,0,0,0,.3.49c.89.68,1.27,1.79,2.1,2.56,1.28,1.18,2.42,2.51,3.62,3.78,3.08,3.24,6.17,6.46,9.22,9.72.65.7,1,.43,1.45-.15a3.68,3.68,0,0,0-.58-4.59L49,120.63c-1.5-1.57-3-3.14-4.48-4.73-.68-.74-1.28-1.55-1.92-2.32.38-2.49,2.12-3.9,4.21-4.74A7,7,0,0,1,55,110.47c6.46,6.69,12.85,13.45,19.28,20.17,3,3.1,6,6.16,8.92,9.24a17.86,17.86,0,0,1,4.18,6,12.44,12.44,0,0,1,.86,4.2c0,8.61,0,17.22,0,25.83H73.94a39.63,39.63,0,0,0-.69-5.3,24.43,24.43,0,0,0-5.75-10.9,48.3,48.3,0,0,0-7.3-5.95c-6.19-4.56-12.48-9-18.69-13.52-1.17-.86-2.67-1.43-3.38-2.79-2.89-5.59-5.77-11.19-8.55-16.84C27.76,116.91,25.05,114.64,20.85,114.38Z"/><path class="cls-4" d="M99.93,121.39c.46-.83,1.38-.94,2.12-1.25a60.42,60.42,0,0,0,19-12.84,59.34,59.34,0,0,0,10.69-14.62,62.39,62.39,0,0,0,5.72-16.07,45.76,45.76,0,0,0,1-9.11c.06-6.08,0-12.16,0-18.24l3-3.09a2.38,2.38,0,0,0,.81-1.5,2.23,2.23,0,0,0-.91-2.14,2.43,2.43,0,0,0-2.84,0l0-20.41c0-.51,0-1,0-1.52,1.4,0,2.81-.08,4.21,0a4.73,4.73,0,0,1,4.68,4.84c0,13.53.17,27.06,0,40.59A58.59,58.59,0,0,1,133,103.83a61.94,61.94,0,0,1-23.7,17,23.33,23.33,0,0,0-2.43,1.13C104.43,123.42,102.14,122.9,99.93,121.39Z"/><path class="cls-5" d="M20.85,114.38c4.2.26,6.91,2.53,8.73,6.21,2.78,5.65,5.66,11.25,8.55,16.84.71,1.36,2.21,1.93,3.38,2.79,6.21,4.54,12.5,9,18.69,13.52a48.3,48.3,0,0,1,7.3,5.95,24.43,24.43,0,0,1,5.75,10.9,39.63,39.63,0,0,1,.69,5.3h0l-1.17.06h-14l-.32,0a26.26,26.26,0,0,0-8.65-19.48q-7.53-7-15.11-13.93a4.38,4.38,0,0,1-.92-1.47q-6.41-13-12.77-26A2.48,2.48,0,0,1,20.85,114.38Z"/><path class="cls-5" d="M134.07,175.92c-.07-8.66,3.92-15.14,10.74-20.11L162.44,143c2.07-1.5,4.14-3,6.23-4.5a3.34,3.34,0,0,0,1.09-1.18c2.66-5.24,5.3-10.48,8-15.7a20.29,20.29,0,0,1,2.32-3.9,8,8,0,0,1,6.12-3.15,3.69,3.69,0,0,0,.79-.21,1.92,1.92,0,0,1-.36,1.09q-6.36,13-12.7,25.91a4.55,4.55,0,0,1-1,1.37c-5.22,4.8-10.55,9.49-15.61,14.46a25.22,25.22,0,0,0-7.79,18.67h0l-1.79.08H134.57l-.49,0Z"/><path class="cls-6" d="M144.11,200.37c-1.59,0-3.18.06-4.77.06-6.22,0-12.43,0-18.64,0-.34,0-1,.43-1.07-.41l.07-.06a.46.46,0,0,0-.07-.16v-4.44h2.57a16.28,16.28,0,0,0,11.85-5.08,16,16,0,0,0,4.72-11.74h5.36Z"/><path class="cls-6" d="M88.18,195.33c0,1.4,0,2.8.06,4.2,0,.71-.18.93-.91.92-3.19,0-6.38,0-9.57,0l-13.88-.07c-.12-7.29.27-14.58-.22-21.87H69a14,14,0,0,0,1.12,6.11,16.79,16.79,0,0,0,4.76,6.64,17.08,17.08,0,0,0,6.24,3.42A24.43,24.43,0,0,0,88.18,195.33Z"/><path class="cls-7" d="M138.78,178.51a16,16,0,0,1-4.72,11.74,16.28,16.28,0,0,1-11.85,5.08h-2.57l0-16.84Z"/><path class="cls-7" d="M88.18,195.33a24.43,24.43,0,0,1-7-.65,17.08,17.08,0,0,1-6.24-3.42,16.79,16.79,0,0,1-4.76-6.64A14,14,0,0,1,69,178.51H88.21Z"/><path class="cls-8" d="M63.66,178.5c.49,7.29.1,14.58.22,21.87H55.23a.17.17,0,0,0-.18-.12c0-2.64-.06-5.27-.06-7.91,0-4.62,0-9.24,0-13.86Zm-4.45,1.82a1.94,1.94,0,0,0-2.1,2,2.16,2.16,0,0,0,2,2.18,2.23,2.23,0,0,0,2.19-2.13A2.07,2.07,0,0,0,59.21,180.32Z"/><path class="cls-8" d="M144.11,200.37l0-21.86,8.67,0c0,7.26.11,14.52,0,21.78l-.18.12Zm6.6-18.08a2.08,2.08,0,0,0-2.09-2.07,2.29,2.29,0,0,0-2.11,2.11,2.19,2.19,0,0,0,2.08,2.12A2.09,2.09,0,0,0,150.71,182.29Z"/><path class="cls-5" d="M42.59,113.58c.64.77,1.24,1.58,1.92,2.32,1.47,1.59,3,3.16,4.48,4.73l9.73,10.22a3.68,3.68,0,0,1,.58,4.59c-.43.58-.8.85-1.45.15-3.05-3.26-6.14-6.48-9.22-9.72-1.2-1.27-2.34-2.6-3.62-3.78-.83-.77-1.21-1.88-2.1-2.56,0-.2,0-.42-.3-.49h0c0-.15,0-.3-.25-.25h0a17.85,17.85,0,0,1-.29-3.86C42.19,114.46,42.17,114,42.59,113.58Z"/><path class="cls-5" d="M165,119.28c-1.38,2.44-3.59,4.17-5.43,6.21-3,3.38-6.24,6.61-9.38,9.9-.9.94-1,.91-1.68-.17-.87-1.42-.66-3,.72-4.44,3.19-3.4,6.43-6.76,9.64-10.14,1.92-2,3.83-4.08,5.73-6.13.27-.28.49-.61.93-.64A7.37,7.37,0,0,1,165,119.28Z"/><path class="cls-5" d="M36,111.29c-.93-.51-1-1.54-1.27-2.36a30.13,30.13,0,0,1-1.94-10.8c0-6.1,0-12.21,0-18.31,0-.45-.17-.95.27-1.31A7.29,7.29,0,0,1,36,84.69C36,93.56,36,102.42,36,111.29Z"/><path class="cls-5" d="M174.76,78.51c.41.32.28.78.28,1.19,0,6.68.07,13.37,0,20a27.71,27.71,0,0,1-2.56,10.9c-.12.26-.16.63-.58.63,0-8.85,0-17.7,0-26.55A7.49,7.49,0,0,1,174.76,78.51Z"/><path class="cls-9" d="M63.66,178.5l-8.65,0c-.06-2.56-.06-2.56,2.48-2.57h.93l.32,0a.66.66,0,0,0,.95,0H72.78a.83.83,0,0,0,1.17-.06H88.2c0,.87,0,1.74,0,2.61H63.66Z"/><path class="cls-9" d="M152.81,178.47l-8.67,0H119.61v-2.61l14.46,0h0c.15.22.31.22.49,0h13.09a1.58,1.58,0,0,0,1.79-.07h0a16.21,16.21,0,0,0,2.09,0c1.05-.12,1.41.3,1.27,1.31A9,9,0,0,0,152.81,178.47Z"/><path class="cls-10" d="M119.63,199.78a.46.46,0,0,1,.07.16l-.07.06Z"/><path class="cls-11" d="M55.05,200.25a.17.17,0,0,1,.18.12C55.08,200.45,55,200.38,55.05,200.25Z"/><path class="cls-11" d="M152.59,200.37l.18-.12C152.78,200.39,152.74,200.46,152.59,200.37Z"/><path class="cls-12" d="M131,56.8a28.55,28.55,0,0,1-9.23,31.56,27.84,27.84,0,0,1-19.57,6.18c-.39,0-.78,0-1.17,0l-1.8-.29c-18-3-28.74-22-21.76-38.88C81.79,44.91,89.87,39.12,101,37.57a28.81,28.81,0,0,1,27.9,14.58c-1.63,1.81-3.36,3.52-5.15,5.16-.1-.21-.2-.42-.31-.63a21.68,21.68,0,1,0-20.62,31c10.68.3,19.76-6.5,22.13-16.61a18.14,18.14,0,0,0,.22-8.54C127.08,60.58,129,58.63,131,56.8Z"/><path class="cls-8" d="M123.79,57.31c1.79-1.64,3.52-3.35,5.15-5.16,3.3-3.11,6.47-6.34,9.63-9.6a2.43,2.43,0,0,1,2.84,0,2.23,2.23,0,0,1,.91,2.14,2.38,2.38,0,0,1-.81,1.5l-3,3.09q-3.89,3.66-7.54,7.54c-2,1.83-3.9,3.78-5.77,5.75-.31.29-.64.57-.94.87L106.82,80.86c-1.53,1.54-2.65,1.55-4.17,0L88.76,67a5.21,5.21,0,0,1-.71-.78A2.28,2.28,0,0,1,90,62.64a2.7,2.7,0,0,1,2,1.06l12.77,12.81,7.22-7.26Z"/><path class="cls-13" d="M101,37.57c-11.17,1.55-19.25,7.34-23.59,17.79-7,16.84,3.77,35.9,21.76,38.88l1.8.29a24.55,24.55,0,0,1-9.56-1.07A28.56,28.56,0,0,1,97,37.6,13.23,13.23,0,0,1,101,37.57Z"/><path class="cls-14" d="M42.61,119c.25.07.25.29.3.49A.42.42,0,0,1,42.61,119Z"/><path class="cls-14" d="M42.37,118.8c.22,0,.24.1.25.25A.25.25,0,0,1,42.37,118.8Z"/><path class="cls-3" d="M74,175.89a.83.83,0,0,1-1.17.06Z"/><path class="cls-3" d="M59.69,176a.66.66,0,0,1-.95,0Z"/><path class="cls-2" d="M149.45,175.87a1.58,1.58,0,0,1-1.79.07Z"/><path class="cls-2" d="M134.57,176c-.18.19-.34.19-.49,0Z"/><path class="cls-13" d="M59.21,180.32a2.07,2.07,0,0,1,2.09,2,2.23,2.23,0,0,1-2.19,2.13,2.16,2.16,0,0,1-2-2.18A1.94,1.94,0,0,1,59.21,180.32Zm1,2a1,1,0,0,0-1-1,1.06,1.06,0,1,0,0,2.11C59.88,183.39,60.18,183,60.26,182.33Z"/><path class="cls-13" d="M150.71,182.29a2.09,2.09,0,0,1-2.12,2.16,2.19,2.19,0,0,1-2.08-2.12,2.29,2.29,0,0,1,2.11-2.11A2.08,2.08,0,0,1,150.71,182.29Zm-2.05-1a1,1,0,0,0-1.07,1,1.06,1.06,0,0,0,2.11.15A1,1,0,0,0,148.66,181.27Z"/><path class="cls-1" d="M123.79,57.31,111.94,69.25l-7.22,7.26L92,63.7a2.7,2.7,0,0,0-2-1.06,2.28,2.28,0,0,0-1.91,3.58,5.21,5.21,0,0,0,.71.78l13.89,13.89c1.52,1.52,2.64,1.51,4.17,0l17.45-17.44c.3-.3.63-.58.94-.87a18.14,18.14,0,0,1-.22,8.54C122.62,81.2,113.54,88,102.86,87.7a21.69,21.69,0,1,1,20.62-31C123.59,56.89,123.69,57.1,123.79,57.31Z"/><path class="cls-9" d="M60.26,182.33c-.08.65-.38,1.06-1,1.07a1.06,1.06,0,1,1,0-2.11A1,1,0,0,1,60.26,182.33Z"/><path class="cls-9" d="M148.66,181.27a1,1,0,0,1,1,1.15,1.06,1.06,0,0,1-2.11-.15A1,1,0,0,1,148.66,181.27Z"/></g></svg>