<svg id="Layer_1" data-name="Layer 1" xmlns="http://www.w3.org/2000/svg" viewBox="0 0 140 140"><defs><style>.cls-1{fill:#e6f0ff;}.cls-2{fill:#213b6e;}.cls-3{fill:#d9effd;}.cls-4{fill:#2f9d6b;}.cls-5{fill:#3db37b;}.cls-6{fill:#ff8e04;}</style></defs><rect class="cls-1" width="140" height="140"/><g id="XrjX9h"><g id="MWKga6.tif"><path class="cls-2" d="M70.1,113.27H23.68c-4.19,0-4.62-.42-4.62-4.51q0-38.78,0-77.57c0-4,.49-4.45,4.35-4.46h93.15c3.75,0,4.3.54,4.3,4.19q0,39.11,0,78.21c0,3.6-.57,4.13-4.34,4.14Q93.3,113.29,70.1,113.27Zm19.56-12.83c4.72,0,9.44.17,14.15.07,3.1-.06,6.25.55,9.31-.42q0-31.8.14-63.6c0-2.06-1-2.15-2.58-2.14-6.57,0-13.15,0-19.72,0H29.89c-1.7,0-3.27-.32-3.25,2.43.13,21.1.13,42.19.16,63.29a5,5,0,0,0,1.44.44Q58.95,100.51,89.66,100.44Z"/><path class="cls-3" d="M26.8,100.08c0-21.1,0-42.19-.16-63.29,0-2.75,1.55-2.43,3.25-2.43H91c6.57,0,13.15,0,19.72,0,1.54,0,2.59.08,2.58,2.14q-.14,31.8-.14,63.6c-1.23-1.31-2.49-2.59-3.67-4-5.89-6.81-11.79-13.61-17.61-20.48-1.33-1.58-2.22-1.83-3.6,0-2.84,3.69-5.84,7.25-8.78,10.86-1.14-.28-1.63-1.29-2.27-2.11C71.41,76.94,65.6,69.52,59.91,62c-1.36-1.79-2.15-1.77-3.47,0-3.27,4.43-6.69,8.74-10.08,13.08Q36.6,87.61,26.8,100.08ZM89.46,59.76A8.88,8.88,0,0,0,89.07,42a8.89,8.89,0,0,0,.39,17.75Z"/><path class="cls-4" d="M26.8,100.08q9.78-12.48,19.56-25c3.39-4.34,6.81-8.65,10.08-13.08,1.32-1.78,2.11-1.8,3.47,0,5.69,7.51,11.5,14.93,17.28,22.36.64.82,1.13,1.83,2.28,2.11,2.58,5.24,6.89,9.24,10.19,14q-30.7,0-61.42.08A5,5,0,0,1,26.8,100.08Z"/><path class="cls-5" d="M89.66,100.44c-3.3-4.72-7.61-8.72-10.19-14,2.93-3.61,5.93-7.17,8.77-10.86,1.38-1.79,2.27-1.54,3.6,0,5.82,6.87,11.72,13.67,17.61,20.48,1.18,1.36,2.44,2.64,3.67,4-3.06,1-6.21.36-9.31.42C99.1,100.61,94.38,100.47,89.66,100.44Z"/><path class="cls-6" d="M89.46,59.76A8.88,8.88,0,1,1,98,50.84,8.78,8.78,0,0,1,89.46,59.76Z"/></g></g></svg>