<svg id="Layer_1" data-name="Layer 1" xmlns="http://www.w3.org/2000/svg" viewBox="0 0 140 140"><defs><style>.cls-1{fill:#e6f0ff;}.cls-2{fill:#435a8c;}.cls-3{fill:#587bb7;}.cls-4{fill:#ffa753;}</style></defs><rect class="cls-1" width="140" height="140"/><rect class="cls-2" x="29.92" y="46.43" width="80.08" height="58.73" rx="8.13"/><path class="cls-2" d="M81.82,35.36H58.11a5.18,5.18,0,0,0-5.18,5.18V53.06H87V40.54A5.18,5.18,0,0,0,81.82,35.36Zm.28,16.1H57.82V42.1a3.26,3.26,0,0,1,3.26-3.26H78.85A3.25,3.25,0,0,1,82.1,42.1Z"/><rect class="cls-3" x="38.2" y="52.4" width="63.53" height="9.1" rx="4.55"/><rect class="cls-4" x="41.44" y="46.43" width="5.91" height="58.8"/><rect class="cls-4" x="93.68" y="46.43" width="5.91" height="58.8"/><rect class="cls-4" x="64.79" y="68.59" width="10.35" height="23.43" rx="2.21"/><rect class="cls-4" x="64.79" y="68.59" width="10.35" height="23.43" rx="2.21" transform="translate(150.27 10.35) rotate(90)"/></svg>