<svg id="Layer_1" data-name="Layer 1" xmlns="http://www.w3.org/2000/svg" viewBox="0 0 140 140"><defs><style>.cls-1{fill:#e6f0ff;}.cls-2{fill:#435a8c;}</style></defs><rect class="cls-1" width="140" height="140"/><g id="lbiwJ4.tif"><path class="cls-2" d="M89.73,72.33l-3.15-7.4c-.18-.43-.36-.87-.55-1.3a1.83,1.83,0,0,0-1.9-1.26,1.85,1.85,0,0,0-1.61,1.54c-.35,1.39-.66,2.78-1,4.17L78.47,81.36c0,.15-.09.3-.18.62-.41-1.24-.76-2.31-1.1-3.38q-4.38-13.75-8.77-27.5c-.5-1.57-2-2.09-3.07-1.05a2.48,2.48,0,0,0-.6,1.25L59.34,72.46c0,.13-.09.26-.13.39-.25,0-.25-.28-.33-.43C58,70.5,57,68.6,56.12,66.65a2.34,2.34,0,0,0-2.42-1.5c-7.74,0-15.49,0-23.23,0a1,1,0,0,1-1.12-.76,28.81,28.81,0,0,1-2-6.42,20.52,20.52,0,0,1,.57-9.66,23.51,23.51,0,0,1,12.83-15,22.27,22.27,0,0,1,13.91-1.9,18.52,18.52,0,0,1,10,5.44,24.86,24.86,0,0,1,5.2,8.1c.23,0,.21-.17.26-.29a23.69,23.69,0,0,1,6.5-9.13,18.9,18.9,0,0,1,13.9-4.45,23.44,23.44,0,0,1,11.3,3.66,24,24,0,0,1,7.72,7.94,22.71,22.71,0,0,1,3.33,11.62A23.61,23.61,0,0,1,111.54,62c-.14.42-.45.34-.74.34h-8.38c-2.25,0-4.5,0-6.75,0a2.18,2.18,0,0,0-2.24,1.46c-1.08,2.56-2.21,5.11-3.32,7.66Z"/><path class="cls-2" d="M66.94,58c.34,1,.68,2.07,1,3.11Q72.41,75.07,76.84,89A2.1,2.1,0,0,0,78,90.47,1.82,1.82,0,0,0,80.48,89c.42-1.75.81-3.51,1.21-5.27Q83.24,77,84.8,70.25c.32,0,.3.3.37.47,1,2.22,1.89,4.44,2.85,6.65a1.77,1.77,0,0,0,2,1.27,1.94,1.94,0,0,0,1.49-1.35l3-6.76c.59-1.37,1.21-2.74,1.79-4.12A.62.62,0,0,1,97,66q6.12,0,12.25,0c.66,0,.48.26.29.61a47.6,47.6,0,0,1-6.7,9.35c-4.11,4.59-8.69,8.69-13.17,12.89-6.26,5.86-12.09,12.13-17.9,18.41-.45.48-.92.94-1.33,1.45s-.51.39-.85,0c-1.81-2-3.64-3.92-5.46-5.88Q55,93,45.09,84A91.78,91.78,0,0,1,33.63,71.72c-.64-.84-1.19-1.74-1.8-2.6-.29-.4-.18-.52.28-.5s.89,0,1.33,0c6.32,0,12.63,0,18.94,0a1,1,0,0,1,1,.63c1.49,3.13,3,6.24,4.54,9.35.61,1.27,1.53,1.69,2.59,1.2a2.07,2.07,0,0,0,1.06-1.56q2.16-8.37,4.33-16.73c.3-1.15.6-2.31.89-3.46Z"/></g></svg>