<svg id="Layer_1" data-name="Layer 1" xmlns="http://www.w3.org/2000/svg" xmlns:xlink="http://www.w3.org/1999/xlink" viewBox="0 0 140 140"><defs><style>.cls-1{fill:#efefef;}.cls-1,.cls-2{opacity:0.45;}.cls-3{fill:#595959;}.cls-4{fill:#dedede;}.cls-5{fill:#b8b8b8;}.cls-6{fill:#c3c3c3;}.cls-7{fill:#c8c8c8;}.cls-8{filter:url(#filter);}.cls-9{fill:#fff;}.cls-10{fill:none;stroke:#4d4d4d;stroke-miterlimit:10;stroke-width:0.25px;}</style><filter id="filter"><feOffset dx="3" dy="2" input="SourceAlpha"/><feGaussianBlur stdDeviation="5" result="blur"/><feFlood/><feComposite operator="in" in2="blur"/><feComposite in="SourceGraphic"/></filter></defs><rect class="cls-1" width="140" height="140"/><g id="A3UKhl" class="cls-2"><path class="cls-3" d="M89.28,105.16l-.74.88a7.43,7.43,0,0,1-5.33,1.81c-9,0-18,0-27,0a6.29,6.29,0,0,1-6.63-6.57q0-31.44,0-62.89a6.27,6.27,0,0,1,6.58-6.54c9.06,0,18.13.07,27.2,0a6.74,6.74,0,0,1,7,5.19c0,.06,0,.11,0,.16,0,.57,0,1.14,0,1.72q0,31.19,0,62.38c0,.43.07.77,0,1.2,0,0,0,.25,0,.3A4.37,4.37,0,0,1,89.28,105.16Zm-37.41-36c0,9.73,0,19.47,0,29.2,0,.67.19.81.83.81q17.28,0,34.56,0c.72,0,.9-.15.9-.88q0-28.43,0-56.84c0-.54,0-1.09,0-1.64A4.79,4.79,0,0,0,83.24,35c-.4,0-.81,0-1.21,0-.57-.07-.77.1-.76.72,0,1.75-.58,2.33-2.35,2.33H61.57c-2.43,0-2.68-.23-2.86-2.63,0-.23,0-.42-.33-.42a13,13,0,0,0-3.05.17,4.91,4.91,0,0,0-3.46,4.94Zm17.28-33.4h5.78c.38,0,.77,0,.78-.51s-.35-.61-.77-.61H63.45c-.43,0-.88,0-.86.61s.47.51.85.51Zm.85,69.7a2,2,0,0,0,2-2.07,2,2,0,0,0-2-2.06,2.14,2.14,0,0,0-2.12,2.07A2.07,2.07,0,0,0,70,105.42Zm7.29-70.3a.91.91,0,0,0,.92,1,.88.88,0,0,0,.87-.87.9.9,0,0,0-.89-.91A.86.86,0,0,0,77.29,35.12Z"/><path class="cls-4" d="M90.15,35a6.39,6.39,0,0,0-5.88-3.7q-14.31,0-28.63,0a4.81,4.81,0,0,0-.85,0A7,7,0,0,0,49,38.17v62.69a12.73,12.73,0,0,0,.12,1.84,6.92,6.92,0,0,0,6.53,5.7q14.2,0,28.41,0a7.68,7.68,0,0,0,2.84-.41,7.87,7.87,0,0,0,3.48-3.24,8.34,8.34,0,0,0,.6-3.54V38.74A7.66,7.66,0,0,0,90.15,35Zm.24,3.87q0,31.19,0,62.38c0,.43,0,.86-.05,1.29a7.48,7.48,0,0,1-.14.81,2.78,2.78,0,0,1-.17.56,5.32,5.32,0,0,1-.76,1.26l-.74.88h0a7.43,7.43,0,0,1-5.33,1.81c-9,0-18,0-27,0a6.29,6.29,0,0,1-6.63-6.57q0-31.44,0-62.89a6.27,6.27,0,0,1,6.58-6.54c9.06,0,18.13.07,27.2,0a6.72,6.72,0,0,1,7,5.19l.12.1-.1.06C90.37,37.71,90.39,38.28,90.39,38.86Z"/><path class="cls-4" d="M90.34,102.69a.81.81,0,0,1,0-.16l.1.06Z"/><path class="cls-4" d="M90.35,37.14s0-.1,0-.16l.11.1Z"/><path class="cls-5" d="M51.87,69.12v-29a4.91,4.91,0,0,1,3.46-4.94A13,13,0,0,1,58.38,35c.32,0,.32.19.33.42.18,2.4.43,2.63,2.86,2.63H78.92c1.77,0,2.39-.58,2.35-2.33,0-.62.19-.79.76-.72.4,0,.81,0,1.21,0a4.79,4.79,0,0,1,4.88,4.75c0,.55,0,1.1,0,1.64q0,28.43,0,56.84c0,.73-.18.88-.9.88q-17.28,0-34.56,0c-.64,0-.83-.14-.83-.81C51.88,88.59,51.87,78.85,51.87,69.12Z"/><path class="cls-6" d="M69.15,35.72H63.44c-.38,0-.83,0-.85-.51s.43-.61.86-.61H74.94c.42,0,.79.11.77.61s-.4.51-.78.51Z"/><path class="cls-7" d="M70,105.42a2.07,2.07,0,0,1-2.1-2.06A2.14,2.14,0,0,1,70,101.29a2,2,0,0,1,2,2.06A2,2,0,0,1,70,105.42Z"/><path class="cls-6" d="M77.29,35.12a.86.86,0,0,1,.9-.83.9.9,0,0,1,.89.91.88.88,0,0,1-.87.87A.91.91,0,0,1,77.29,35.12Z"/></g><g class="cls-8"><path d="M13.41,47.19a8.71,8.71,0,0,1,3.45-3.49,9.91,9.91,0,0,1,5-1.25,9.58,9.58,0,0,1,5.88,1.81,8.72,8.72,0,0,1,3.27,5H25.86a4.24,4.24,0,0,0-1.64-1.85,4.57,4.57,0,0,0-2.4-.63,4.52,4.52,0,0,0-3.52,1.51,5.85,5.85,0,0,0-1.35,4,5.84,5.84,0,0,0,1.35,4,4.48,4.48,0,0,0,3.52,1.51,4.57,4.57,0,0,0,2.4-.63,4.15,4.15,0,0,0,1.64-1.84H31a8.64,8.64,0,0,1-3.27,4.93,9.64,9.64,0,0,1-5.88,1.8,9.91,9.91,0,0,1-5-1.25,8.79,8.79,0,0,1-3.45-3.47,11.07,11.07,0,0,1,0-10.18Z"/><path d="M38,60.88a9.46,9.46,0,0,1-3.6-3.53,10.4,10.4,0,0,1,0-10.18A9.58,9.58,0,0,1,38,43.65a10.51,10.51,0,0,1,10,0,9.36,9.36,0,0,1,3.57,3.52,10.51,10.51,0,0,1,0,10.18A9.34,9.34,0,0,1,48,60.88a9.91,9.91,0,0,1-5,1.27A10,10,0,0,1,38,60.88Zm8.69-4.56a5.84,5.84,0,0,0,1.38-4.06,5.87,5.87,0,0,0-1.38-4.09,5.3,5.3,0,0,0-7.42,0,5.8,5.8,0,0,0-1.39,4.1,5.82,5.82,0,0,0,1.39,4.08A4.79,4.79,0,0,0,43,57.86,4.74,4.74,0,0,0,46.73,56.32Z"/><path d="M77.35,42.67V62h-4.7V50.39L68.34,62h-3.8L60.2,50.36V62H55.5V42.67h5.56L66.47,56l5.36-13.35Z"/><path d="M85.43,42.67V62h-4.7V42.67Z"/><path d="M106.09,62h-4.7L93.53,50.06V62h-4.7V42.67h4.7l7.86,11.95V42.67h4.7Z"/><path d="M122.3,48.77a3.47,3.47,0,0,0-1.49-1.47,4.94,4.94,0,0,0-2.3-.51,4.73,4.73,0,0,0-3.65,1.49,5.69,5.69,0,0,0-1.38,4,5.77,5.77,0,0,0,1.44,4.17,5.31,5.31,0,0,0,4,1.49,4.77,4.77,0,0,0,2.92-.88,5,5,0,0,0,1.75-2.52h-6V51.07h10.23v4.37a9,9,0,0,1-1.78,3.27,9.27,9.27,0,0,1-3.17,2.45,9.84,9.84,0,0,1-4.34.93,10.2,10.2,0,0,1-5.1-1.25A8.89,8.89,0,0,1,110,57.37a11,11,0,0,1,0-10.18,8.79,8.79,0,0,1,3.48-3.49,10.1,10.1,0,0,1,5.08-1.25,9.84,9.84,0,0,1,5.84,1.67,8,8,0,0,1,3.15,4.65Z"/><path class="cls-9" d="M13.41,47.19a8.71,8.71,0,0,1,3.45-3.49,9.91,9.91,0,0,1,5-1.25,9.58,9.58,0,0,1,5.88,1.81,8.72,8.72,0,0,1,3.27,5H25.86a4.24,4.24,0,0,0-1.64-1.85,4.57,4.57,0,0,0-2.4-.63,4.52,4.52,0,0,0-3.52,1.51,5.85,5.85,0,0,0-1.35,4,5.84,5.84,0,0,0,1.35,4,4.48,4.48,0,0,0,3.52,1.51,4.57,4.57,0,0,0,2.4-.63,4.15,4.15,0,0,0,1.64-1.84H31a8.64,8.64,0,0,1-3.27,4.93,9.64,9.64,0,0,1-5.88,1.8,9.91,9.91,0,0,1-5-1.25,8.79,8.79,0,0,1-3.45-3.47,11.07,11.07,0,0,1,0-10.18Z"/><path class="cls-9" d="M38,60.88a9.46,9.46,0,0,1-3.6-3.53,10.4,10.4,0,0,1,0-10.18A9.58,9.58,0,0,1,38,43.65a10.51,10.51,0,0,1,10,0,9.36,9.36,0,0,1,3.57,3.52,10.51,10.51,0,0,1,0,10.18A9.34,9.34,0,0,1,48,60.88a9.91,9.91,0,0,1-5,1.27A10,10,0,0,1,38,60.88Zm8.69-4.56a5.84,5.84,0,0,0,1.38-4.06,5.87,5.87,0,0,0-1.38-4.09,5.3,5.3,0,0,0-7.42,0,5.8,5.8,0,0,0-1.39,4.1,5.82,5.82,0,0,0,1.39,4.08A4.79,4.79,0,0,0,43,57.86,4.74,4.74,0,0,0,46.73,56.32Z"/><path class="cls-9" d="M77.35,42.67V62h-4.7V50.39L68.34,62h-3.8L60.2,50.36V62H55.5V42.67h5.56L66.47,56l5.36-13.35Z"/><path class="cls-9" d="M85.43,42.67V62h-4.7V42.67Z"/><path class="cls-9" d="M106.09,62h-4.7L93.53,50.06V62h-4.7V42.67h4.7l7.86,11.95V42.67h4.7Z"/><path class="cls-9" d="M122.3,48.77a3.47,3.47,0,0,0-1.49-1.47,4.94,4.94,0,0,0-2.3-.51,4.73,4.73,0,0,0-3.65,1.49,5.69,5.69,0,0,0-1.38,4,5.77,5.77,0,0,0,1.44,4.17,5.31,5.31,0,0,0,4,1.49,4.77,4.77,0,0,0,2.92-.88,5,5,0,0,0,1.75-2.52h-6V51.07h10.23v4.37a9,9,0,0,1-1.78,3.27,9.27,9.27,0,0,1-3.17,2.45,9.84,9.84,0,0,1-4.34.93,10.2,10.2,0,0,1-5.1-1.25A8.89,8.89,0,0,1,110,57.37a11,11,0,0,1,0-10.18,8.79,8.79,0,0,1,3.48-3.49,10.1,10.1,0,0,1,5.08-1.25,9.84,9.84,0,0,1,5.84,1.67,8,8,0,0,1,3.15,4.65Z"/><path class="cls-10" d="M13.41,47.19a8.71,8.71,0,0,1,3.45-3.49,9.91,9.91,0,0,1,5-1.25,9.58,9.58,0,0,1,5.88,1.81,8.72,8.72,0,0,1,3.27,5H25.86a4.24,4.24,0,0,0-1.64-1.85,4.57,4.57,0,0,0-2.4-.63,4.52,4.52,0,0,0-3.52,1.51,5.85,5.85,0,0,0-1.35,4,5.84,5.84,0,0,0,1.35,4,4.48,4.48,0,0,0,3.52,1.51,4.57,4.57,0,0,0,2.4-.63,4.15,4.15,0,0,0,1.64-1.84H31a8.64,8.64,0,0,1-3.27,4.93,9.64,9.64,0,0,1-5.88,1.8,9.91,9.91,0,0,1-5-1.25,8.79,8.79,0,0,1-3.45-3.47,11.07,11.07,0,0,1,0-10.18Z"/><path class="cls-10" d="M38,60.88a9.46,9.46,0,0,1-3.6-3.53,10.4,10.4,0,0,1,0-10.18A9.58,9.58,0,0,1,38,43.65a10.51,10.51,0,0,1,10,0,9.36,9.36,0,0,1,3.57,3.52,10.51,10.51,0,0,1,0,10.18A9.34,9.34,0,0,1,48,60.88a9.91,9.91,0,0,1-5,1.27A10,10,0,0,1,38,60.88Zm8.69-4.56a5.84,5.84,0,0,0,1.38-4.06,5.87,5.87,0,0,0-1.38-4.09,5.3,5.3,0,0,0-7.42,0,5.8,5.8,0,0,0-1.39,4.1,5.82,5.82,0,0,0,1.39,4.08A4.79,4.79,0,0,0,43,57.86,4.74,4.74,0,0,0,46.73,56.32Z"/><path class="cls-10" d="M77.35,42.67V62h-4.7V50.39L68.34,62h-3.8L60.2,50.36V62H55.5V42.67h5.56L66.47,56l5.36-13.35Z"/><path class="cls-10" d="M85.43,42.67V62h-4.7V42.67Z"/><path class="cls-10" d="M106.09,62h-4.7L93.53,50.06V62h-4.7V42.67h4.7l7.86,11.95V42.67h4.7Z"/><path class="cls-10" d="M122.3,48.77a3.47,3.47,0,0,0-1.49-1.47,4.94,4.94,0,0,0-2.3-.51,4.73,4.73,0,0,0-3.65,1.49,5.69,5.69,0,0,0-1.38,4,5.77,5.77,0,0,0,1.44,4.17,5.31,5.31,0,0,0,4,1.49,4.77,4.77,0,0,0,2.92-.88,5,5,0,0,0,1.75-2.52h-6V51.07h10.23v4.37a9,9,0,0,1-1.78,3.27,9.27,9.27,0,0,1-3.17,2.45,9.84,9.84,0,0,1-4.34.93,10.2,10.2,0,0,1-5.1-1.25A8.89,8.89,0,0,1,110,57.37a11,11,0,0,1,0-10.18,8.79,8.79,0,0,1,3.48-3.49,10.1,10.1,0,0,1,5.08-1.25,9.84,9.84,0,0,1,5.84,1.67,8,8,0,0,1,3.15,4.65Z"/><path d="M18.17,96.64a8.82,8.82,0,0,1-3.78-2.87,7.81,7.81,0,0,1-1.49-4.58H20a3.14,3.14,0,0,0,3.38,3.1,3.58,3.58,0,0,0,2.32-.68,2.44,2.44,0,0,0,.18-3.55A5.35,5.35,0,0,0,24.17,87a27.45,27.45,0,0,0-2.81-1,30.64,30.64,0,0,1-4.31-1.62A8,8,0,0,1,14.18,82,6.66,6.66,0,0,1,13,77.82a7.13,7.13,0,0,1,2.76-6,11.28,11.28,0,0,1,7.18-2.15,11.44,11.44,0,0,1,7.26,2.15,7.71,7.71,0,0,1,2.94,6H25.94a2.85,2.85,0,0,0-1-2.07A3.4,3.4,0,0,0,22.68,75a2.92,2.92,0,0,0-1.95.64A2.32,2.32,0,0,0,20,77.51a2.27,2.27,0,0,0,1.24,2,20.56,20.56,0,0,0,3.88,1.59,37.32,37.32,0,0,1,4.29,1.71,8.05,8.05,0,0,1,2.85,2.37,6.35,6.35,0,0,1,1.2,4,7.84,7.84,0,0,1-1.18,4.23,8.32,8.32,0,0,1-3.43,3,11.79,11.79,0,0,1-5.32,1.13A14,14,0,0,1,18.17,96.64Z"/><path d="M43.38,95.82a13.35,13.35,0,0,1-5.08-5,13.92,13.92,0,0,1-1.89-7.2,13.77,13.77,0,0,1,1.89-7.18,13.39,13.39,0,0,1,5.08-5,14.83,14.83,0,0,1,14.09,0,13.15,13.15,0,0,1,5,5,14.83,14.83,0,0,1,0,14.38,13.24,13.24,0,0,1-5,5,14.72,14.72,0,0,1-14.07,0Zm12.26-6.44a9.43,9.43,0,0,0,0-11.51,6.71,6.71,0,0,0-5.22-2.15,6.78,6.78,0,0,0-5.25,2.13,8.24,8.24,0,0,0-2,5.79,8.23,8.23,0,0,0,2,5.76,6.73,6.73,0,0,0,5.25,2.15A6.66,6.66,0,0,0,55.64,89.38Z"/><path d="M73.88,95.82a13.42,13.42,0,0,1-5.08-5,14,14,0,0,1-1.88-7.2,13.86,13.86,0,0,1,1.88-7.18,13.46,13.46,0,0,1,5.08-5,14.83,14.83,0,0,1,14.09,0,13.11,13.11,0,0,1,5,5,14.9,14.9,0,0,1,0,14.38,13.27,13.27,0,0,1-5,5,14.1,14.1,0,0,1-7,1.79A14.27,14.27,0,0,1,73.88,95.82Zm12.27-6.44a9.43,9.43,0,0,0,0-11.51,7.49,7.49,0,0,0-10.48,0,8.24,8.24,0,0,0-2,5.79,8.23,8.23,0,0,0,2,5.76,7.44,7.44,0,0,0,10.48,0Z"/><path d="M122.92,97.34h-6.64L105.19,80.53V97.34H98.55V70.09h6.64L116.28,87V70.09h6.64Z"/><path class="cls-9" d="M18.17,96.64a8.82,8.82,0,0,1-3.78-2.87,7.81,7.81,0,0,1-1.49-4.58H20a3.14,3.14,0,0,0,3.38,3.1,3.58,3.58,0,0,0,2.32-.68,2.44,2.44,0,0,0,.18-3.55A5.35,5.35,0,0,0,24.17,87a27.45,27.45,0,0,0-2.81-1,30.64,30.64,0,0,1-4.31-1.62A8,8,0,0,1,14.18,82,6.66,6.66,0,0,1,13,77.82a7.13,7.13,0,0,1,2.76-6,11.28,11.28,0,0,1,7.18-2.15,11.44,11.44,0,0,1,7.26,2.15,7.71,7.71,0,0,1,2.94,6H25.94a2.85,2.85,0,0,0-1-2.07A3.4,3.4,0,0,0,22.68,75a2.92,2.92,0,0,0-1.95.64A2.32,2.32,0,0,0,20,77.51a2.27,2.27,0,0,0,1.24,2,20.56,20.56,0,0,0,3.88,1.59,37.32,37.32,0,0,1,4.29,1.71,8.05,8.05,0,0,1,2.85,2.37,6.35,6.35,0,0,1,1.2,4,7.84,7.84,0,0,1-1.18,4.23,8.32,8.32,0,0,1-3.43,3,11.79,11.79,0,0,1-5.32,1.13A14,14,0,0,1,18.17,96.64Z"/><path class="cls-9" d="M43.38,95.82a13.35,13.35,0,0,1-5.08-5,13.92,13.92,0,0,1-1.89-7.2,13.77,13.77,0,0,1,1.89-7.18,13.39,13.39,0,0,1,5.08-5,14.83,14.83,0,0,1,14.09,0,13.15,13.15,0,0,1,5,5,14.83,14.83,0,0,1,0,14.38,13.24,13.24,0,0,1-5,5,14.72,14.72,0,0,1-14.07,0Zm12.26-6.44a9.43,9.43,0,0,0,0-11.51,6.71,6.71,0,0,0-5.22-2.15,6.78,6.78,0,0,0-5.25,2.13,8.24,8.24,0,0,0-2,5.79,8.23,8.23,0,0,0,2,5.76,6.73,6.73,0,0,0,5.25,2.15A6.66,6.66,0,0,0,55.64,89.38Z"/><path class="cls-9" d="M73.88,95.82a13.42,13.42,0,0,1-5.08-5,14,14,0,0,1-1.88-7.2,13.86,13.86,0,0,1,1.88-7.18,13.46,13.46,0,0,1,5.08-5,14.83,14.83,0,0,1,14.09,0,13.11,13.11,0,0,1,5,5,14.9,14.9,0,0,1,0,14.38,13.27,13.27,0,0,1-5,5,14.1,14.1,0,0,1-7,1.79A14.27,14.27,0,0,1,73.88,95.82Zm12.27-6.44a9.43,9.43,0,0,0,0-11.51,7.49,7.49,0,0,0-10.48,0,8.24,8.24,0,0,0-2,5.79,8.23,8.23,0,0,0,2,5.76,7.44,7.44,0,0,0,10.48,0Z"/><path class="cls-9" d="M122.92,97.34h-6.64L105.19,80.53V97.34H98.55V70.09h6.64L116.28,87V70.09h6.64Z"/><path class="cls-10" d="M18.17,96.64a8.82,8.82,0,0,1-3.78-2.87,7.81,7.81,0,0,1-1.49-4.58H20a3.14,3.14,0,0,0,3.38,3.1,3.58,3.58,0,0,0,2.32-.68,2.44,2.44,0,0,0,.18-3.55A5.35,5.35,0,0,0,24.17,87a27.45,27.45,0,0,0-2.81-1,30.64,30.64,0,0,1-4.31-1.62A8,8,0,0,1,14.18,82,6.66,6.66,0,0,1,13,77.82a7.13,7.13,0,0,1,2.76-6,11.28,11.28,0,0,1,7.18-2.15,11.44,11.44,0,0,1,7.26,2.15,7.71,7.71,0,0,1,2.94,6H25.94a2.85,2.85,0,0,0-1-2.07A3.4,3.4,0,0,0,22.68,75a2.92,2.92,0,0,0-1.95.64A2.32,2.32,0,0,0,20,77.51a2.27,2.27,0,0,0,1.24,2,20.56,20.56,0,0,0,3.88,1.59,37.32,37.32,0,0,1,4.29,1.71,8.05,8.05,0,0,1,2.85,2.37,6.35,6.35,0,0,1,1.2,4,7.84,7.84,0,0,1-1.18,4.23,8.32,8.32,0,0,1-3.43,3,11.79,11.79,0,0,1-5.32,1.13A14,14,0,0,1,18.17,96.64Z"/><path class="cls-10" d="M43.38,95.82a13.35,13.35,0,0,1-5.08-5,13.92,13.92,0,0,1-1.89-7.2,13.77,13.77,0,0,1,1.89-7.18,13.39,13.39,0,0,1,5.08-5,14.83,14.83,0,0,1,14.09,0,13.15,13.15,0,0,1,5,5,14.83,14.83,0,0,1,0,14.38,13.24,13.24,0,0,1-5,5,14.72,14.72,0,0,1-14.07,0Zm12.26-6.44a9.43,9.43,0,0,0,0-11.51,6.71,6.71,0,0,0-5.22-2.15,6.78,6.78,0,0,0-5.25,2.13,8.24,8.24,0,0,0-2,5.79,8.23,8.23,0,0,0,2,5.76,6.73,6.73,0,0,0,5.25,2.15A6.66,6.66,0,0,0,55.64,89.38Z"/><path class="cls-10" d="M73.88,95.82a13.42,13.42,0,0,1-5.08-5,14,14,0,0,1-1.88-7.2,13.86,13.86,0,0,1,1.88-7.18,13.46,13.46,0,0,1,5.08-5,14.83,14.83,0,0,1,14.09,0,13.11,13.11,0,0,1,5,5,14.9,14.9,0,0,1,0,14.38,13.27,13.27,0,0,1-5,5,14.1,14.1,0,0,1-7,1.79A14.27,14.27,0,0,1,73.88,95.82Zm12.27-6.44a9.43,9.43,0,0,0,0-11.51,7.49,7.49,0,0,0-10.48,0,8.24,8.24,0,0,0-2,5.79,8.23,8.23,0,0,0,2,5.76,7.44,7.44,0,0,0,10.48,0Z"/><path class="cls-10" d="M122.92,97.34h-6.64L105.19,80.53V97.34H98.55V70.09h6.64L116.28,87V70.09h6.64Z"/></g></svg>