<svg id="Layer_1" data-name="Layer 1" xmlns="http://www.w3.org/2000/svg" viewBox="0 0 140 140"><defs><style>.cls-1{fill:#e6f0ff;}.cls-2{fill:#435a8c;}.cls-3{fill:#dedede;}.cls-4{fill:#ffa753;}.cls-5{fill:#c2c3c5;}.cls-6{fill:#c7c8ca;}</style></defs><rect class="cls-1" width="140" height="140"/><g id="A3UKhl"><path class="cls-2" d="M89.28,105.16l-.74.88a7.43,7.43,0,0,1-5.33,1.81c-9,0-18,0-27,0a6.29,6.29,0,0,1-6.63-6.57q0-31.44,0-62.89a6.27,6.27,0,0,1,6.58-6.54c9.06,0,18.13.07,27.2,0a6.74,6.74,0,0,1,7,5.19c0,.06,0,.11,0,.16,0,.57,0,1.14,0,1.72q0,31.19,0,62.38c0,.43.07.77,0,1.2,0,0,0,.25,0,.3A4.37,4.37,0,0,1,89.28,105.16Zm-37.41-36c0,9.73,0,19.47,0,29.2,0,.67.19.81.83.81q17.28,0,34.56,0c.72,0,.9-.15.9-.88q0-28.43,0-56.84c0-.54,0-1.09,0-1.64A4.79,4.79,0,0,0,83.24,35c-.4,0-.81,0-1.21,0-.57-.07-.77.1-.76.72,0,1.75-.58,2.33-2.35,2.33H61.57c-2.43,0-2.68-.23-2.86-2.63,0-.23,0-.42-.33-.42a13,13,0,0,0-3.05.17,4.91,4.91,0,0,0-3.46,4.94Zm17.28-33.4h5.78c.38,0,.77,0,.78-.51s-.35-.61-.77-.61H63.45c-.43,0-.88,0-.86.61s.47.51.85.51Zm.85,69.7a2,2,0,0,0,2-2.07,2,2,0,0,0-2-2.06,2.14,2.14,0,0,0-2.12,2.07A2.07,2.07,0,0,0,70,105.42Zm7.29-70.3a.91.91,0,0,0,.92,1,.88.88,0,0,0,.87-.87.9.9,0,0,0-.89-.91A.86.86,0,0,0,77.29,35.12Z"/><path class="cls-3" d="M90.15,35a6.39,6.39,0,0,0-5.88-3.7q-14.31,0-28.63,0a4.81,4.81,0,0,0-.85,0A7,7,0,0,0,49,38.17v62.69a12.73,12.73,0,0,0,.12,1.84,6.92,6.92,0,0,0,6.53,5.7q14.2,0,28.41,0a7.68,7.68,0,0,0,2.84-.41,7.87,7.87,0,0,0,3.48-3.24,8.34,8.34,0,0,0,.6-3.54V38.74A7.66,7.66,0,0,0,90.15,35Zm.24,3.87q0,31.19,0,62.38c0,.43,0,.86-.05,1.29a7.48,7.48,0,0,1-.14.81,2.78,2.78,0,0,1-.17.56,5.32,5.32,0,0,1-.76,1.26l-.74.88h0a7.43,7.43,0,0,1-5.33,1.81c-9,0-18,0-27,0a6.29,6.29,0,0,1-6.63-6.57q0-31.44,0-62.89a6.27,6.27,0,0,1,6.58-6.54c9.06,0,18.13.07,27.2,0a6.72,6.72,0,0,1,7,5.19l.12.1-.1.06C90.37,37.71,90.39,38.28,90.39,38.86Z"/><path class="cls-3" d="M90.34,102.69a.81.81,0,0,1,0-.16l.1.06Z"/><path class="cls-3" d="M90.35,37.14s0-.1,0-.16l.11.1Z"/><path class="cls-4" d="M51.87,69.12v-29a4.91,4.91,0,0,1,3.46-4.94A13,13,0,0,1,58.38,35c.32,0,.32.19.33.42.18,2.4.43,2.63,2.86,2.63H78.92c1.77,0,2.39-.58,2.35-2.33,0-.62.19-.79.76-.72.4,0,.81,0,1.21,0a4.79,4.79,0,0,1,4.88,4.75c0,.55,0,1.1,0,1.64q0,28.43,0,56.84c0,.73-.18.88-.9.88q-17.28,0-34.56,0c-.64,0-.83-.14-.83-.81C51.88,88.59,51.87,78.85,51.87,69.12Z"/><path class="cls-5" d="M69.15,35.72H63.44c-.38,0-.83,0-.85-.51s.43-.61.86-.61H74.94c.42,0,.79.11.77.61s-.4.51-.78.51Z"/><path class="cls-6" d="M70,105.42a2.07,2.07,0,0,1-2.1-2.06A2.14,2.14,0,0,1,70,101.29a2,2,0,0,1,2,2.06A2,2,0,0,1,70,105.42Z"/><path class="cls-5" d="M77.29,35.12a.86.86,0,0,1,.9-.83.9.9,0,0,1,.89.91.88.88,0,0,1-.87.87A.91.91,0,0,1,77.29,35.12Z"/></g></svg>