<svg xmlns="http://www.w3.org/2000/svg" width="205.225" height="38" viewBox="0 0 205.225 38">
  <g id="Logo_tokopolis_FIX-03" data-name="Logo tokopolis FIX-03" transform="translate(-90.29 -492.294)">
    <path id="Path_985" data-name="Path 985" d="M118.464,538.5v-6.928c0-1.483,0-1.483-1.6-2.013q-1.191-.392-2.4-.707a1.981,1.981,0,1,1-3.879-.8,41.446,41.446,0,0,0-10.28-.26c-.767.075-1.529.169-2.282.285a1.981,1.981,0,0,1-3.879.8,33.313,33.313,0,0,0-3.334,1.07c-.361.137-.527.3-.525.685.021,4.9.011,10.248.021,15.147a2.223,2.223,0,0,0,.164.819,12.161,12.161,0,0,0,2.364,3.651c3.058,3.373,6.983,5.3,11.279,7.245a.9.9,0,0,0,.623-.041,36.415,36.415,0,0,0,8.393-4.575A16.988,16.988,0,0,0,118.111,547a3.4,3.4,0,0,0,.331-1.353C118.48,543.261,118.464,540.881,118.464,538.5Zm-3.14,8.386a1,1,0,0,1-.164-.016,14.4,14.4,0,0,1-3.667,4.071,27.429,27.429,0,0,1-6.33,3.494l-.4.18a1.059,1.059,0,0,1-.4.082.685.685,0,0,1-.269-.05c-3.5-1.584-6.6-3.115-9.052-5.823a9.869,9.869,0,0,1-1.924-2.966,1.976,1.976,0,0,1-.146-.733v-9.474a.8.8,0,1,1,.424,0v9.477a1.567,1.567,0,0,0,.116.575,9.385,9.385,0,0,0,1.844,2.836c2.4,2.647,5.454,4.158,8.911,5.721a.537.537,0,0,0,.322-.032l.4-.18a27.136,27.136,0,0,0,6.236-3.439,14,14,0,0,0,3.555-3.934.8.8,0,1,1,.541.212Zm.262-3a.8.8,0,0,1-.2-1.568c0-.511,0-1.022,0-1.522V533.81c0-.525,0-.812-.114-.956a2.739,2.739,0,0,0-1.013-.456,31.785,31.785,0,0,0-13.087-1.387,29.616,29.616,0,0,0-5.994,1.182v.075a.8.8,0,1,1-.167-.477,30.223,30.223,0,0,1,6.106-1.209A32.189,32.189,0,0,1,114.389,532c1.369.456,1.419.518,1.419,1.8v8.516a.8.8,0,0,1-.228,1.559Z" transform="translate(0 -27.241)" fill="#11224e"/>
    <path id="Path_986" data-name="Path 986" d="M129.737,501.332h0a.89.89,0,0,1-.885-.792,7.259,7.259,0,0,0-14.431,0,.89.89,0,0,1-.885.792h0a.89.89,0,0,1-.885-.99,9.041,9.041,0,0,1,17.972,0,.892.892,0,0,1-.885.99Z" transform="translate(-17.254)" fill="#ff7900"/>
    <path id="Path_987" data-name="Path 987" d="M124.65,599.749a8.322,8.322,0,0,1-4.714-1.552,11.064,11.064,0,0,1-3.245-3.546.806.806,0,0,1,1.392-.808,9.584,9.584,0,0,0,2.777,3.03,6.346,6.346,0,0,0,7.663-.036,9.5,9.5,0,0,0,2.772-3.117.8.8,0,1,1,1.406.78,11.145,11.145,0,0,1-3.27,3.651,8.34,8.34,0,0,1-4.781,1.6Z" transform="translate(-20.306 -77.962)" fill="#ff7900"/>
    <path id="Path_988" data-name="Path 988" d="M140.111,564.893l-3.879,3.879-3.879-3.879A2.582,2.582,0,0,1,136,561.242l.244.242.242-.242a2.582,2.582,0,0,1,3.651,3.651Z" transform="translate(-31.881 -52.631)" fill="#ff7900"/>
    <path id="Path_989" data-name="Path 989" d="M251.86,542.774a9.833,9.833,0,0,1-7.156-2.93,9.57,9.57,0,0,1-2.978-7.085V518a5.144,5.144,0,0,1,3.8,1.346,4.383,4.383,0,0,1,1.346,3.217v10.2a4.968,4.968,0,0,0,1.451,3.578,4.737,4.737,0,0,0,3.532,1.5h1.826a4.233,4.233,0,0,1,3.083,1.276,4.935,4.935,0,0,1,1.287,3.662Zm2.61-12.886a4.208,4.208,0,0,1-3.083,1.287h-.851a2.416,2.416,0,0,1-1.759-.707,2.36,2.36,0,0,1-.721-1.748,2.462,2.462,0,0,1,2.48-2.48h5.221a4.935,4.935,0,0,1-1.287,3.649Z" transform="translate(-116.88 -19.84)" fill="#ff7900"/>
    <path id="Path_990" data-name="Path 990" d="M327.014,558.657a9.837,9.837,0,0,1-7.158-2.93,9.954,9.954,0,0,1,0-14.2,10.163,10.163,0,0,1,14.326,0,10.028,10.028,0,0,1-7.167,17.125Zm0-15.14a4.705,4.705,0,0,0-3.544,1.511,5.057,5.057,0,0,0-1.44,3.615,5,5,0,1,0,9.99,0,5.02,5.02,0,0,0-1.465-3.615A4.753,4.753,0,0,0,327.014,543.517Z" transform="translate(-174.886 -35.723)" fill="#ff7900"/>
    <path id="Path_991" data-name="Path 991" d="M427.8,542.774v-2.245a5.047,5.047,0,0,0-1.454-3.589,4.7,4.7,0,0,0-3.53-1.536h-4.655v7.37H413V518a5.146,5.146,0,0,1,3.8,1.346,4.374,4.374,0,0,1,1.355,3.217v7.914h4.655a4.7,4.7,0,0,0,3.53-1.524,5.047,5.047,0,0,0,1.454-3.6v-2.371h5.148v2.362a9.6,9.6,0,0,1-3.519,7.606,10.04,10.04,0,0,1,2.585,3.423,9.726,9.726,0,0,1,.933,4.169v2.245Z" transform="translate(-249.072 -19.84)" fill="#ff7900"/>
    <path id="Path_992" data-name="Path 992" d="M513.844,558.657a9.837,9.837,0,0,1-7.158-2.93,9.954,9.954,0,0,1,0-14.2,10.163,10.163,0,0,1,14.326,0,10.028,10.028,0,0,1-7.167,17.125Zm0-15.14a4.71,4.71,0,0,0-3.544,1.511,5.057,5.057,0,0,0-1.44,3.615,5,5,0,1,0,9.99,0,5.02,5.02,0,0,0-1.465-3.615A4.753,4.753,0,0,0,513.844,543.517Z" transform="translate(-319.083 -35.723)" fill="#ff7900"/>
    <path id="Path_993" data-name="Path 993" d="M610.024,558.659h-5.006v.164a4.392,4.392,0,0,1-1.346,3.213,5.161,5.161,0,0,1-3.8,1.346V548.644a9.634,9.634,0,0,1,3-7.11,10.2,10.2,0,0,1,14.351,0,10.023,10.023,0,0,1-7.19,17.126Zm0-15.14a4.726,4.726,0,0,0-3.553,1.511,5.05,5.05,0,0,0-1.442,3.615v5.077h4.995a4.753,4.753,0,0,0,3.539-1.5,4.961,4.961,0,0,0,1.456-3.578,5.053,5.053,0,0,0-1.444-3.615,4.724,4.724,0,0,0-3.562-1.511Z" transform="translate(-393.297 -35.725)" fill="#11224e"/>
    <path id="Path_994" data-name="Path 994" d="M706.372,558.657a9.832,9.832,0,0,1-7.156-2.93,9.953,9.953,0,0,1,0-14.2,10.163,10.163,0,0,1,14.326,0,10.028,10.028,0,0,1-7.17,17.125Zm0-15.14a4.7,4.7,0,0,0-3.541,1.511,5.059,5.059,0,0,0-1.442,3.615,5,5,0,1,0,9.992,0,5.02,5.02,0,0,0-1.465-3.615A4.76,4.76,0,0,0,706.372,543.517Z" transform="translate(-467.68 -35.723)" fill="#11224e"/>
    <path id="Path_995" data-name="Path 995" d="M802.443,542.774a9.878,9.878,0,0,1-7.17-2.93,9.555,9.555,0,0,1-2.987-7.085V518a5.144,5.144,0,0,1,3.8,1.346,4.383,4.383,0,0,1,1.346,3.211v10.2a4.94,4.94,0,0,0,1.463,3.578,4.774,4.774,0,0,0,3.544,1.5h1.826a4.2,4.2,0,0,1,3.071,1.276,4.967,4.967,0,0,1,1.273,3.662Z" transform="translate(-541.808 -19.84)" fill="#11224e"/>
    <path id="Path_996" data-name="Path 996" d="M858.125,557.32a4.383,4.383,0,0,1-1.346-3.213V538.59a5.141,5.141,0,0,1,3.8,1.346,4.392,4.392,0,0,1,1.346,3.213v15.517A5.136,5.136,0,0,1,858.125,557.32Z" transform="translate(-591.585 -35.732)" fill="#11224e"/>
    <path id="Path_997" data-name="Path 997" d="M910.168,542.24a4.258,4.258,0,0,1-3.106,1.276h-.819a3.61,3.61,0,0,0-2.693,1.141,3.786,3.786,0,0,0-1.109,2.738v3.284a7.629,7.629,0,0,1-2.373,5.657,7.859,7.859,0,0,1-5.7,2.328H888.34A4.957,4.957,0,0,1,889.616,555a4.2,4.2,0,0,1,3.071-1.276h.851a3.613,3.613,0,0,0,2.711-1.132,3.788,3.788,0,0,0,1.1-2.738v-3.293a7.605,7.605,0,0,1,2.387-5.657,7.9,7.9,0,0,1,5.7-2.328h6.022A4.915,4.915,0,0,1,910.168,542.24Z" transform="translate(-615.945 -35.721)" fill="#11224e"/>
  </g>
</svg>
