<svg xmlns="http://www.w3.org/2000/svg" width="664.559" height="214.63" viewBox="0 0 664.559 214.63"><g transform="translate(-1255.001 -433)"><path d="M98.66,127.16H287.31A22.64,22.64,0,0,1,310,149.8h0v18.69A23.49,23.49,0,0,0,333.44,192h0a23.48,23.48,0,0,0,23.49-23.49V46.14A46.14,46.14,0,0,1,403.07,0h0a46.14,46.14,0,0,1,46.14,46.14V111a16.16,16.16,0,0,0,16.16,16.17H664.56V149.8H460.79a33.93,33.93,0,0,1-33.93-33.711l-.15-70a23.57,23.57,0,0,0-23.57-23.42h0a23.57,23.57,0,0,0-23.56,23.57V168.49a46.14,46.14,0,0,1-46.14,46.14h0a46.13,46.13,0,0,1-46.13-46.14v-8.3a10.39,10.39,0,0,0-10.39-10.39H98.66Z" transform="translate(1255 433)" fill="#fdc795"/><path d="M31.17,76.39c37.28,0,67.49,27.89,67.49,62.28S68.45,201,31.17,201Z" transform="translate(1255 433)" fill="#ff9331"/><rect width="124.55" height="26.64" rx="3.02" transform="translate(1281.641 509.39) rotate(90)" fill="#ff9331"/><ellipse cx="5.08" cy="6.4" rx="5.08" ry="6.4" transform="translate(1258.16 523.3)" fill="#fff"/><ellipse cx="5.08" cy="6.4" rx="5.08" ry="6.4" transform="translate(1258.16 602.38)" fill="#fff"/></g></svg>