<svg id="Layer_1" data-name="Layer 1" xmlns="http://www.w3.org/2000/svg" viewBox="0 0 245.95 46.07"><defs><style>.cls-1{fill:#181816;}.cls-2{fill:#191916;}.cls-3{fill:#181817;}.cls-4{fill:#f0c224;}.cls-5{fill:#171716;}.cls-6{fill:#090908;}</style></defs><title>Untitled-1 [Recovered]</title><path class="cls-1" d="M53.83,7.89c.82-3,.21-4.37,0-6.53-.11-.93,0-1.3,1-1.29,10.53.06,21.07,0,31.6.19A17.51,17.51,0,0,1,93,1.69c5.93,2.5,6.58,7.12,4.14,12-3.49,7-9.55,10.53-16.85,12.41a61.68,61.68,0,0,1-15.2,1.5c-10.6.06-21.2,0-31.79.05-1.4,0-1.89-.43-2-1.75a26,26,0,0,0-.86-3.45q7.41-2.5,15-4.33l1.25,5.39c-.14.5.48,1.52,1,1.09C48.05,23.81,53.28,9.73,53.83,7.89Zm13.3,14.2c6,0,13.11-5,15.14-10.65,1-2.79-.18-4.8-3.15-5.3-1.88-.32-3.78-.28-5.67-.43S70.89,6.38,70.34,8c-1.4,4.08-3,8.11-4.48,12.15C65.11,22.11,65.06,22.1,67.13,22.09Z"/><path class="cls-2" d="M45,16.16c-5.33.15-10.66.21-16,0a35.71,35.71,0,0,0-1.09-5.23c-.18-.91-.54-1-1.11-.3-1.51,1.89-3.31,3.55-4.63,5.59a88.64,88.64,0,0,0-9.58,11c-.32.15-.64.43-.95.43-3.74,0-7.48,0-11.64,0,1.61-1.71,2.94-3.16,4.31-4.58Q13.58,13.51,22.88,4c3-3,6.87-3.8,10.94-3.89,2.5,0,5,0,7.5,0C41.75,1.35,45,15.9,45,16.16Z"/><path class="cls-3" d="M102.29,27.66c-2.39,0-4.77,0-7.15,0-.92,0-1.31-.16-.9-1.23q4.86-12.61,9.58-25.27c.31-.84.67-1.11,1.49-1.1,4.65,0,9.3,0,13.94,0,1.24,0,1.43.44,1,1.49q-3,7.82-5.88,15.64c-1.06,2.83-2.15,5.65-3.1,8.52-.47,1.42-1.11,2.14-2.76,2C106.47,27.53,104.37,27.66,102.29,27.66Z"/><path class="cls-4" d="M12.59,27.19a88.64,88.64,0,0,1,9.58-11c2.37-.06,3.92-.06,6.83-.06,5.33.24,10.66.18,16,0,.84,0,1.39,0,1.74,0a2.89,2.89,0,0,1,2.26.74c-1.31.45-1.66.64-3.58,1.23q-7.6,1.82-15,4.33c-4.16,1.15-8.31,2.34-12.49,3.43C16.14,26.38,14.5,27.36,12.59,27.19Z"/><path class="cls-5" d="M161.67,39.32c0-1.19.08-2.39,0-3.57s.45-1.66,1.65-1.6c1.48.07,3,0,4.46,0,3,.07,4.2,2.15,2.74,4.78-.19.35-.56.67-.17,1.1.87,1,.79,2.2.82,3.38,0,.42.74,1.13-.27,1.19-.71.05-1.74.6-2.07-.66a12.61,12.61,0,0,1-.25-1.39,2.62,2.62,0,0,0-3.78-1.81c-.83.56-.42,1.55-.36,2.31.11,1.4-.44,1.77-1.75,1.64-.78-.08-1-.4-1-1.11,0-1.43,0-2.86,0-4.28Zm4.4-.54c1-.18,2.4.34,2.44-1.31S167.24,36,166.16,36c-.9,0-1.92-.29-1.92,1.3C164.24,38.74,165,38.86,166.07,38.78Z"/><path class="cls-5" d="M206.23,34.67c.43-1,1.23-.46,1.82-.36s.51.83.51,1.35c0,2.5,0,5,0,7.5,0,.52.34,1.39-.54,1.44s-1.87.54-2.54-.63c-.75-1.33-1.66-2.58-2.52-3.85-.31-.46-.48-1.08-1.34-1.23-.07,1.39-.14,2.72-.21,4.06,0,.83.31,1.8-1.22,1.77s-1.09-.93-1.1-1.69c0-2.38,0-4.76,0-7.14,0-.58-.39-1.45.57-1.64s1.8-.29,2.41.62l3,4.41c.2.29.43.55.79,1,.51-1.88,0-3.59.34-5.24C206.42,35,206.51,34.85,206.23,34.67Z"/><path class="cls-5" d="M237.34,39.2c.23-1.42-.79-3.58.41-4.7s3.18-.22,4.83-.31c.71,0,1.43.05,2.14,0,.88-.08.95.41,1,1.08s-.21,1-.93.91c-1.19-.06-2.38,0-3.57,0-.88,0-1.14.32-1.13,1.13s.29,1.06,1.06,1c1,0,2,0,3,0,.73,0,1.08.15,1.09,1s-.48.93-1.13.91c-.9,0-1.79,0-2.68,0s-1.4.18-1.4,1.25.63,1.21,1.49,1.18c1.07,0,2.14,0,3.21,0,.83,0,1.18.29,1.22,1.12s-.45,1.05-1.22,1c-2.08,0-4.17,0-6.25,0-.85,0-1.17-.27-1.14-1.12C237.37,42.21,237.34,40.84,237.34,39.2Z"/><path class="cls-5" d="M131.16,38.56c-1.59-.53-2.63-.92-3.78-1.21-.12,0-.35-.64,0-1l0-.06a2,2,0,0,1,2.95.19c.22.13.4.36.62.48.56.18,1.66.7,1.9-.32a1.49,1.49,0,0,0-.51-1.46,5.55,5.55,0,0,0-5.75-.87,2.84,2.84,0,0,0-2.07,2.95,2.67,2.67,0,0,0,2.34,2.54c1.09.25,2.16.61,3.24,1a1.08,1.08,0,0,1,.88,1c0,.58-.61.85-1.08.94a3,3,0,0,1-3.14-1,1.64,1.64,0,0,0-2.43-.36c-.63.53,0,1.38.53,2a5.35,5.35,0,0,0,4.64,1.83,4.07,4.07,0,0,0,4.06-3C134,40.58,133.32,39.59,131.16,38.56Z"/><path class="cls-5" d="M142.55,38.16c0-.83,0-1.67,0-2.49-.07-1,.12-1.52,1.32-1.54s1.29.64,1.27,1.56c0,1.6,0,3.21,0,4.81a2,2,0,0,0,2.36,2.24c1.56,0,2-.91,2-2.33,0-1.66,0-3.33,0-5,0-.94.41-1.25,1.29-1.26s1.5.22,1.47,1.28c-.05,1.9,0,3.81-.09,5.71a3.57,3.57,0,0,1-3.85,3.56h-1.78A3.56,3.56,0,0,1,142.6,41c-.07-.94,0-1.9,0-2.85Z"/><path class="cls-5" d="M223.31,44.7c-2.74,0-4.66-1.21-5.25-3.14-.78-2.55,0-5.44,1.7-6.64a6.8,6.8,0,0,1,6.76-.05,2.83,2.83,0,0,1,.24.25c.72.71,1.72,1.73,1,2.5s-1.86.25-2.7-.71a2.59,2.59,0,0,0-4.54,1.17,4.65,4.65,0,0,0,0,2.64,2.55,2.55,0,0,0,2.26,2,2.3,2.3,0,0,0,2.63-1.34c.17-.39.26-.81.81-.78s1.32-.27,1.72.17,0,1.14-.28,1.65A4,4,0,0,1,223.31,44.7Z"/><path class="cls-5" d="M190.29,43.92a.5.5,0,0,1-.37.68,2,2,0,0,1-2.72-1.54c-.47-1.47-1.82-1.08-2.88-1-.69,0-1.46.26-1.6,1.1-.27,1.66-1.27,1.69-2.52,1.5a.5.5,0,0,1-.39-.68c1.21-3.06,2.36-6.06,3.62-9,.46-1.08,2.7-1.17,3.14-.14C187.87,37.8,189.06,40.86,190.29,43.92Zm-5-6.43a.33.33,0,0,0-.55-.1,6.32,6.32,0,0,0-.71,1.78c-.21.63-.63,1.16.2,1.43a2.07,2.07,0,0,0,.78.1c1.8-.11,1.08-1,.9-1.56S185.58,38.12,185.33,37.49Z"/><path class="cls-3" d="M96.33,39.41c0,1.31-.08,2.62,0,3.91s-.6,1.42-1.62,1.38S93,44.82,93,43.4c.09-2.6.07-5.21,0-7.82,0-1.29.62-1.44,1.65-1.44s1.78,0,1.69,1.37S96.34,38.11,96.33,39.41Zm-.91,4.14h.19V35.07h-.19Z"/><path class="cls-6" d="M161.53.79c-.19.25-.29.12-.36-.09Z"/><path class="cls-5" d="M206.23,34.67c.28.18.19.29-.06.38Z"/><path class="cls-6" d="M204.22,26.21q-2.82-12.42-5.55-24.87c-.19-.89-.61-1.21-1.58-1.27-2.69-.15-4.65,0-7,0a15.5,15.5,0,0,0-11.56,5c-5.65,6.06-11.51,11.93-17.27,17.89-.68.7-1.2,1.15-1.74-.15-.82-2-1.72-3.89-2.64-5.8-.34-.72,0-1,.47-1.51,2-2.06,4.07-4.13,6-6.26,2.77-3,1.86-7.06-1.87-8.5-.19.25-.29.12-.36-.09a4.66,4.66,0,0,0-2.41-.5q-16.31,0-32.62,0c-.52,0-1.68-.16-2,.72-3.21,8.4-6.24,16.87-9.39,25.3-.44,1.15-.18,1.45,1,1.44q7-.06,14,0a1.66,1.66,0,0,0,1.79-1.33c2.22-6.12,4.58-12.2,6.72-18.35.64-1.83,1.51-2.24,3.43-2.27,1.73,0,3.32-.09,5-.06.45,0,1.22-.16,1.43.37s-.32.82-.65,1.16c-2.55,2.65-5.08,5.31-7.65,8-.5.51-.77.92-.39,1.68,1.61,3.22,3.17,6.47,4.72,9.72a1.75,1.75,0,0,0,1.8,1.13q11,0,22,0a2.58,2.58,0,0,0,2.14-1q6.54-7.71,13.14-15.4c.34-.39.84-1,1.17-1,.67.11.57.91.7,1.48,1.1,4.86,2.23,9.7,3.29,14.57.21,1,.64,1.33,1.68,1.32q6.53-.09,13.05,0C204.27,27.69,204.47,27.32,204.22,26.21Z"/><path class="cls-3" d="M115.13,43.11c.06-2.5,0-5,.06-7.49,0-.84,0-1.5-1.18-1.47s-1.35.45-1.28,1.42.26,3.85-.21,4.16c-.18.11-3.25-4-3.39-4.25-1.2-1.61-1.56-1.28-2.54-1.29a.88.88,0,0,0-1,1c0,2.9,0,5.8,0,8.69,0,.61.31.81.87.8s1.47.15,1.47-.69c0-1.6,0-3.11,0-4.91,0-.38.48-.32.91.21.82,1,3.2,4.23,3.54,4.78a2,2,0,0,0,2,.61C115.15,44.56,115.12,43.63,115.13,43.11Z"/><path class="cls-3" d="M95.42,43.55V35.08h.19v8.48Z"/></svg>