<?xml version="1.0" encoding="UTF-8"?>
<!DOCTYPE svg PUBLIC "-//W3C//DTD SVG 1.1//EN" "http://www.w3.org/Graphics/SVG/1.1/DTD/svg11.dtd">
<!-- Creator: CorelDRAW 2019 (64-Bit) -->
<svg xmlns="http://www.w3.org/2000/svg" xml:space="preserve" width="734px" height="240px" version="1.1" style="shape-rendering:geometricPrecision; text-rendering:geometricPrecision; image-rendering:optimizeQuality; fill-rule:evenodd; clip-rule:evenodd"
viewBox="0 0 734 240.01"
 xmlns:xlink="http://www.w3.org/1999/xlink"
 xmlns:xodm="http://www.corel.com/coreldraw/odm/2003">
 <defs>
  <style type="text/css">
   <![CDATA[
    .fil0 {fill:#FEFEFE}
    .fil2 {fill:#003399}
    .fil1 {fill:#003399;fill-rule:nonzero}
   ]]>
  </style>
 </defs>
 <g id="Layer_x0020_1">
  <metadata id="CorelCorpID_0Corel-Layer"/>
  <path class="fil0" d="M121.69 8.21c-0.24,0 -0.48,0 -0.72,0 -32.24,0 -63.26,7.48 -93.32,22.57 -12.2,28.98 -19.08,58.44 -19.44,88.5 -0.48,29.82 5.67,60.36 19.31,91.51 31.39,13.64 62.78,20.64 94.17,21.01 31.39,-0.37 62.78,-7.37 94.16,-21.01 13.65,-31.15 19.8,-61.69 19.32,-91.51 -0.36,-30.06 -7.24,-59.52 -19.44,-88.5 -30.06,-15.09 -61.08,-22.57 -93.32,-22.57 -0.24,0 -0.48,0 -0.72,0z"/>
  <path class="fil1" d="M22.58 24.15l0 0c31.63,-16.18 64.46,-24.15 98.39,-24.15 0.24,0 0.48,0 0.72,0 0.24,0 0.48,0 0.72,0 33.93,0 66.76,7.97 98.39,24.15l0 0 1.94 2.05c12.91,30.42 20.28,61.45 20.64,92.96 0,0.6 0,1.08 0,1.69l0 2.17c-0.12,30.3 -6.64,61.21 -20.64,92.6l-2.18 2.05c-32.95,14.61 -65.91,21.97 -98.87,22.34 -32.96,-0.37 -65.92,-7.73 -98.87,-22.34l-2.18 -2.05c-14,-31.39 -20.52,-62.3 -20.64,-92.6l0 -2.17c0,-0.61 0,-1.09 0,-1.69 0.36,-31.51 7.73,-62.54 20.64,-92.96l1.94 -2.05zm99.11 -15.94c-0.24,0 -0.48,0 -0.72,0 -32.24,0 -63.26,7.48 -93.32,22.57 -12.2,28.98 -19.08,58.44 -19.44,88.5 -0.48,29.82 5.67,60.36 19.31,91.51 31.39,13.64 62.78,20.64 94.17,21.01 31.39,-0.37 62.78,-7.37 94.16,-21.01 13.65,-31.15 19.8,-61.69 19.32,-91.51 -0.36,-30.06 -7.24,-59.52 -19.44,-88.5 -30.06,-15.09 -61.08,-22.57 -93.32,-22.57 -0.24,0 -0.48,0 -0.72,0z"/>
  <path class="fil2" d="M123.86 187.01c-1.69,-23.06 -0.6,-47.09 -7.48,-69.06 -6.4,-20.52 -30.67,-32.23 -31.15,-54.81 -0.48,-17.63 12.92,-38.03 38.03,-38.03 23.54,-0.12 38.15,17.02 39.84,36.1 2.05,22.09 -24.75,36.94 -31.75,57.95 -7.25,21.49 -5.19,45.27 -7.49,67.85z"/>
  <path class="fil2" d="M133.16 181.45c-0.97,-20.04 -0.97,-39.23 4.59,-56.26 6.15,-19.31 18.95,-35.61 38.51,-40.92 13.4,-3.62 33.07,12.07 29.94,28.13 -2.66,12.92 -15.58,28.13 -36.34,29.82 -9.66,0.84 -13.76,8.57 -19.8,13.04 27.04,-2.66 44.55,-13.28 56.74,-24.39 1.81,9.41 3.02,25.23 -4.35,30.66 -14.48,10.26 -27.88,1.93 -44.91,6.76 -9.53,2.78 -15.45,8.82 -24.38,13.16z"/>
  <path class="fil2" d="M114.69 181.45c1.08,-20.04 0.96,-39.23 -4.47,-56.26 -6.16,-19.31 -18.95,-35.61 -38.51,-40.92 -13.4,-3.62 -33.2,12.07 -29.94,28.13 2.66,12.92 15.57,28.13 36.34,29.82 9.54,0.84 13.76,8.57 19.8,13.04 -27.17,-2.66 -44.55,-13.28 -56.74,-24.39 -1.81,9.41 -3.02,25.23 4.34,30.66 14.49,10.26 27.89,1.93 44.91,6.76 9.54,2.78 15.33,8.82 24.27,13.16z"/>
  <path class="fil2" d="M179.03 211.27l0 -3.26 2.42 -0.6 -2.42 -3.62 0 -6.04 10.87 15.09 -3.86 0.97 -2.66 -3.75 -4.35 1.21zm0 -13.52l0 0 0 6.04 -1.69 -2.42 -0.72 7.25 2.41 -0.61 0 3.26 -2.77 0.61 -0.49 4.46 -3.86 0.97 2.54 -19.68 3.86 -0.97 0.72 1.09zm-35.97 24.03l0 0 0 -3.14 0.84 0c1.33,-0.12 2.18,-0.24 2.54,-0.37 0.48,-0.12 0.96,-0.48 1.21,-0.84 0.36,-0.48 0.48,-0.97 0.48,-1.57 -0.12,-0.6 -0.24,-1.09 -0.61,-1.45 -0.24,-0.36 -0.72,-0.6 -1.2,-0.72 -0.48,-0.12 -1.57,-0.12 -3.26,0l0 -3.14c0.96,0 1.57,-0.12 1.81,-0.12 0.6,-0.12 1.09,-0.49 1.45,-0.85 0.36,-0.36 0.48,-0.84 0.36,-1.45 0,-0.6 -0.24,-1.08 -0.6,-1.33 -0.24,-0.36 -0.73,-0.6 -1.45,-0.6 -0.24,0 -0.73,0 -1.57,0.12l0 -3.14c1.33,-0.12 2.29,-0.12 2.9,0 0.72,0 1.44,0.25 2.05,0.61 0.6,0.24 1.08,0.72 1.57,1.32 0.36,0.61 0.6,1.33 0.72,2.18 0.12,0.84 -0.12,1.69 -0.48,2.41 -0.36,0.73 -0.97,1.33 -1.81,1.81 1.2,0.25 2.17,0.73 2.77,1.45 0.73,0.73 1.09,1.57 1.21,2.66 0,0.84 -0.12,1.69 -0.36,2.53 -0.36,0.85 -0.85,1.45 -1.45,2.06 -0.72,0.48 -1.45,0.84 -2.41,1.08 -0.61,0.12 -2.18,0.24 -4.47,0.49l-0.24 0zm22.81 -10.15l0 0 3.75 0.49c-0.24,2.05 -0.85,3.74 -1.93,4.95 -1.09,1.08 -2.66,1.93 -4.59,2.29 -2.42,0.36 -4.59,-0.12 -6.4,-1.45 -1.93,-1.45 -3.02,-3.5 -3.62,-6.4 -0.49,-3.01 -0.12,-5.55 1.2,-7.48 1.21,-1.93 3.14,-3.14 5.68,-3.62 2.29,-0.37 4.1,0 5.79,1.08 0.97,0.61 1.81,1.57 2.42,3.02l-3.5 1.45c-0.36,-0.85 -0.97,-1.57 -1.69,-1.93 -0.85,-0.48 -1.69,-0.6 -2.66,-0.48 -1.33,0.24 -2.29,0.96 -3.02,2.05 -0.72,1.2 -0.84,2.78 -0.48,4.95 0.48,2.29 1.21,3.86 2.17,4.71 0.97,0.84 2.18,1.2 3.5,0.96 0.97,-0.24 1.7,-0.72 2.3,-1.45 0.6,-0.72 0.96,-1.81 1.08,-3.14zm-22.81 -8.45l0 0 0 3.14c-0.48,0 -0.97,0.12 -1.57,0.12l-2.17 0.25 0.36 4.22 2.53 -0.24c0.24,0 0.61,0 0.85,-0.12l0 3.14c0,0 0,0 -0.12,0l-2.9 0.24 0.36 4.95 2.66 -0.24 0 3.14 -6.04 0.6 -1.69 -18.47 7.37 -0.6c0.12,-0.13 0.24,-0.13 0.36,-0.13zm-23.3 12.2l0 0 0 -3.14c0.84,0 1.33,-0.12 1.69,-0.24 0.48,-0.12 0.84,-0.49 1.21,-0.85 0.24,-0.48 0.36,-0.96 0.36,-1.45 0.12,-0.72 -0.12,-1.2 -0.49,-1.69 -0.36,-0.48 -0.84,-0.72 -1.44,-0.84 -0.37,0 -0.73,-0.12 -1.33,-0.12l0 -3.14c1.81,0 2.9,0.12 3.5,0.36 1.09,0.24 1.93,0.84 2.66,1.81 0.72,0.97 1.08,2.17 0.96,3.62 0,1.09 -0.24,2.06 -0.6,2.9 -0.49,0.72 -0.97,1.33 -1.57,1.81 -0.73,0.36 -1.33,0.6 -2.05,0.85 -0.73,0.12 -1.69,0.12 -2.9,0.12zm0 -11.47l0 0 0 3.14c-0.36,0 -0.85,0 -1.45,0l-1.81 -0.12 0 5.31 1.93 0c0.48,0 0.97,0 1.33,0l0 3.14c-0.24,0 -0.61,0 -0.97,0l-2.41 0 -0.12 7 -3.75 -0.12 0.37 -18.47 5.91 0.12c0.36,0 0.73,0 0.97,0zm-34.89 9.66l0 0 0 -5.68c1.09,0.24 1.81,0.24 2.17,0.24 0.49,-0.12 0.85,-0.24 1.21,-0.6 0.24,-0.36 0.48,-0.73 0.6,-1.33 0.12,-0.6 0,-1.09 -0.24,-1.57 -0.24,-0.48 -0.72,-0.72 -1.33,-0.96 -0.24,-0.12 -1.08,-0.24 -2.41,-0.49l0 -3.14 1.57 0.25c1.93,0.36 3.26,0.72 4.1,1.2 0.85,0.49 1.45,1.21 1.81,2.18 0.37,0.84 0.49,1.93 0.25,3.02 -0.25,1.32 -0.85,2.41 -1.81,3.13 -0.85,0.73 -2.18,1.09 -3.87,1.09 0.73,0.6 1.33,1.21 1.69,1.81 0.48,0.73 0.97,1.81 1.57,3.38l1.57 3.99 -4.35 -0.85 -1.93 -4.47c-0.24,-0.36 -0.36,-0.84 -0.6,-1.2zm10.62 -11.47l0 0 3.62 0.36 -0.84 10.02c-0.12,1.57 -0.12,2.66 -0.12,3.02 0.12,0.84 0.48,1.45 0.96,1.93 0.61,0.6 1.33,0.84 2.42,0.97 1.09,0.12 1.93,-0.13 2.41,-0.49 0.61,-0.36 0.97,-0.84 1.21,-1.45 0.12,-0.6 0.24,-1.69 0.36,-3.14l0.85 -10.26 3.74 0.37 -0.84 9.65c-0.12,2.3 -0.37,3.87 -0.73,4.71 -0.24,0.85 -0.72,1.69 -1.21,2.17 -0.6,0.61 -1.44,1.09 -2.41,1.33 -0.85,0.37 -2.05,0.37 -3.5,0.24 -1.81,-0.12 -3.14,-0.48 -3.99,-0.96 -0.84,-0.48 -1.57,-1.09 -2.05,-1.69 -0.48,-0.73 -0.72,-1.45 -0.84,-2.17 -0.12,-1.09 -0.12,-2.66 0,-4.71l0.96 -9.9zm-29.33 5.43l0 0 0.72 -3.02 7.85 2.05 -1.93 7.13c-0.97,0.6 -2.18,0.96 -3.87,1.08 -1.57,0.12 -3.01,0 -4.46,-0.36 -1.94,-0.48 -3.5,-1.33 -4.59,-2.41 -1.21,-1.21 -1.93,-2.66 -2.29,-4.23 -0.25,-1.69 -0.25,-3.38 0.24,-5.07 0.48,-1.81 1.32,-3.38 2.53,-4.71 1.09,-1.2 2.54,-1.93 4.23,-2.29 1.33,-0.36 2.89,-0.24 4.59,0.24 2.17,0.6 3.86,1.45 4.82,2.78 0.97,1.2 1.45,2.77 1.33,4.46l-3.74 -0.24c0,-0.96 -0.24,-1.81 -0.85,-2.53 -0.6,-0.61 -1.32,-1.21 -2.41,-1.45 -1.57,-0.36 -2.9,-0.24 -4.11,0.48 -1.2,0.73 -2.05,2.17 -2.65,4.11 -0.6,2.17 -0.48,3.86 0.12,5.19 0.72,1.32 1.81,2.17 3.26,2.53 0.84,0.24 1.57,0.24 2.41,0.24 0.85,-0.12 1.57,-0.36 2.3,-0.6l0.6 -2.29 -4.1 -1.09zm18.71 -7.49l0 0 -6.28 -1.08 -3.14 18.23 3.62 0.6 1.33 -7.6 0.85 0.12c0.84,0.12 1.45,0.36 1.81,0.48 0.36,0.24 0.6,0.6 0.96,0.97 0.12,0.36 0.49,0.96 0.85,1.81l0 -5.68c-0.36,0 -0.73,-0.12 -1.21,-0.12l-2.65 -0.48 0.72 -4.59 2.9 0.48c0.12,0 0.24,0 0.24,0l0 -3.14z"/>
  <path class="fil2" d="M660.24 177.47l0 -34.05 14.97 0 0 -59.88 -14.97 29.94 0 -74.73 58.79 0 14.97 172.16 -58.79 0 0 -33.44 -14.97 0zm0 -138.72l0 0 0 74.73 -14.97 29.94 14.97 0 0 34.05 -28.25 0 -11.59 31.63 -36.46 0 0 -39.36 40.68 -87.77 -8.33 0 23.18 -43.22 20.77 0zm-76.3 57.35l0 0 18.23 -43.22 -18.23 -10.14 0 53.36zm-144.99 -16.54l0 0c0.85,-4.95 0.85,-9.78 0,-14.37l0 14.37zm144.99 -36.82l0 0 0 53.36 -2.41 5.79c-35.98,-25.71 -89.1,-2.29 -92.12,24.87 -3.01,28.37 18.6,51.31 73.77,34.17l-18.96 50.7c-72.79,8.09 -101.04,-20.76 -105.27,-54.44l0 -19.08c1.09,-8.81 3.38,-17.38 6.52,-25.35 35.86,-89.1 94.04,-69.06 116.14,-70.75l3.26 -9.9 19.07 10.63zm0 127l0 0 -18.23 39.36 18.23 0 0 -39.36zm-210.42 38.27l0 0c38.99,-7.72 77.26,-54.57 38.87,-91.87 14.97,-7.97 24.27,-22.33 26.56,-36.58l0 -14.37c-2.65,-14.85 -14.12,-26.92 -35.73,-27.28l-29.7 -0.61 0 33.08 12.31 0c13.16,0 11.47,34.05 -4.95,34.05l-7.36 0 0 26.08c17.75,3.38 11.47,28 0,35.61l0 41.89zm65.43 -69.9l0 0 0 19.08c-0.72,-6.28 -0.72,-12.68 0,-19.08zm-116.86 -101.89l0 0 -24.02 46.6 10.74 -0.85 -28.97 127.13 82.94 0c3.62,0 7.12,-0.36 10.74,-1.09l0 -41.89c-2.05,1.45 -4.35,2.29 -6.64,2.29l-29.82 0 9.9 -38.27 22.33 0c1.57,0 3.02,0.12 4.23,0.37l0 -26.08 -20.77 0 8.33 -34.05 12.44 0 0 -33.08 -51.43 -1.08z"/>
 </g>
</svg>
