<svg xmlns="http://www.w3.org/2000/svg" width="679.391" height="214.63" viewBox="0 0 679.391 214.63">
  <g id="Group_1097" data-name="Group 1097" transform="translate(0 -433)">
    <path id="Path_3" data-name="Path 3" d="M512.49,127.16H323.85A22.65,22.65,0,0,0,301.2,149.8h0v18.69A23.49,23.49,0,0,1,277.71,192h0a23.49,23.49,0,0,1-23.49-23.49V46.14A46.14,46.14,0,0,0,208.08,0h0A46.13,46.13,0,0,0,162,46.14V111a16.17,16.17,0,0,1-16.17,16.17H0V149.8H150.36a33.93,33.93,0,0,0,33.93-33.711l.15-70A23.57,23.57,0,0,1,208,22.64h0a23.58,23.58,0,0,1,23.57,23.57V168.49a46.132,46.132,0,0,0,46.14,46.14h-.01a46.14,46.14,0,0,0,46.14-46.14v-8.3a10.39,10.39,0,0,1,10.38-10.39H512.49Z" transform="translate(0 433)" fill="#b9b4da"/>
    <path id="Path_4" data-name="Path 4" d="M580,76.39c-37.27,0-67.49,27.89-67.49,62.28S542.71,201,580,201Z" transform="translate(0 433)" fill="#8780b2"/>
    <rect id="Rectangle_4" data-name="Rectangle 4" width="124.55" height="26.64" rx="3.02" transform="translate(611.15 509.4) rotate(90)" fill="#8780b2"/>
    <rect id="Rectangle_5" data-name="Rectangle 5" width="62.12" height="20.8" rx="6.61" transform="translate(679.391 541.03) rotate(180)" fill="#8780b2"/>
    <rect id="Rectangle_6" data-name="Rectangle 6" width="62.12" height="20.8" rx="6.61" transform="translate(679.391 619.18) rotate(180)" fill="#8780b2"/>
  </g>
</svg>
