<svg xmlns="http://www.w3.org/2000/svg" width="195.524" height="195.52" viewBox="0 0 195.524 195.52">
  <g id="satisfied" transform="translate(0 -0.005)">
    <g id="Group_1074" data-name="Group 1074" transform="translate(0 0.005)">
      <g id="Group_1073" data-name="Group 1073">
        <path id="Path_840" data-name="Path 840" d="M195.522,70.485a5.732,5.732,0,0,0-8.149-5.191l-11.59,5.4a30.209,30.209,0,0,1-24.072.6c-.066-.027-.132-.052-.2-.076l-24.144-8.788A28.642,28.642,0,0,0,95.243,71.4l-7.266-7.6A45.823,45.823,0,1,0,63.6,88.069l14.637,15.475-14.172,6.608a17.185,17.185,0,0,0,.495,31.371,17.183,17.183,0,0,0,19.367,21.9,17.176,17.176,0,0,0,20.058,15.932,17.2,17.2,0,0,0,24.423,14.557L158.256,180a106.5,106.5,0,0,0,35.7-26.953l.167-.192a5.728,5.728,0,0,0,1.4-3.749C195.524,132.576,195.524,93.164,195.522,70.485ZM45.826,80.2A34.369,34.369,0,1,1,80.2,45.831,34.408,34.408,0,0,1,45.826,80.2Zm27.932,1.933a46.228,46.228,0,0,0,8.156-8.091l18.379,19.216L89.181,98.441Zm79.656,87.481-29.846,13.918a5.728,5.728,0,1,1-4.842-10.383l10.383-4.842a5.728,5.728,0,1,0-4.842-10.383L103.5,167.609a5.728,5.728,0,1,1-4.842-10.383l10.383-4.842A5.728,5.728,0,1,0,104.2,142l-20.766,9.683A5.728,5.728,0,1,1,78.592,141.3l20.766-9.683a5.728,5.728,0,0,0-4.842-10.383L73.75,130.919a5.728,5.728,0,1,1-4.842-10.383L123.477,95.09a5.728,5.728,0,1,0-4.841-10.383l-7.38,3.442-7.98-8.344a17.1,17.1,0,0,1,20.174-6.6L147.5,81.958a41.7,41.7,0,0,0,33.127-.875l3.442-1.605c0,21.9,0,52.112,0,67.463A95.063,95.063,0,0,1,153.414,169.615Z" transform="translate(0 -0.005)" fill="#5144c7"/>
      </g>
    </g>
    <g id="Group_1076" data-name="Group 1076" transform="translate(22.913 28.646)">
      <g id="Group_1075" data-name="Group 1075">
        <path id="Path_841" data-name="Path 841" d="M104.148,76.683a5.728,5.728,0,0,0-8.1,0L77.184,95.546,69.778,88.14a5.728,5.728,0,0,0-8.1,8.1L73.134,107.7a5.728,5.728,0,0,0,8.1,0l22.913-22.913A5.728,5.728,0,0,0,104.148,76.683Z" transform="translate(-60 -75.006)" fill="#5144c7"/>
      </g>
    </g>
  </g>
</svg>
