<svg xmlns="http://www.w3.org/2000/svg" width="188.634" height="189.526" viewBox="0 0 188.634 189.526">
  <g id="healthcare-covid19-coronavirus-hand-hearth" transform="translate(-2.24 -2.199)">
    <path id="Path_822" data-name="Path 822" d="M66.2,21.677H56.693V12.169A3.169,3.169,0,0,0,53.523,9H40.846a3.169,3.169,0,0,0-3.169,3.169v9.508H28.169A3.169,3.169,0,0,0,25,24.846V37.523a3.169,3.169,0,0,0,3.169,3.169h9.508V50.2a3.169,3.169,0,0,0,3.169,3.169H53.523A3.169,3.169,0,0,0,56.693,50.2V40.693H66.2a3.169,3.169,0,0,0,3.169-3.169V24.846A3.169,3.169,0,0,0,66.2,21.677ZM63.031,34.354H53.523a3.169,3.169,0,0,0-3.169,3.169v9.508H44.016V37.523a3.169,3.169,0,0,0-3.169-3.169H31.339V28.016h9.508a3.169,3.169,0,0,0,3.169-3.169V15.339h6.339v9.508a3.169,3.169,0,0,0,3.169,3.169h9.508Z" transform="translate(49.372 14.754)" fill="#5144c7"/>
    <path id="Path_823" data-name="Path 823" d="M117.714,28.149a14.514,14.514,0,0,0,.1-1.68,12.74,12.74,0,0,0-10.078-12.392,12.9,12.9,0,0,0-14.9,9.413L78.891,63.612a5.17,5.17,0,0,0-.6.285L50.272,80.314a28.577,28.577,0,0,0-14.1,24.593v29.854A3.169,3.169,0,0,0,33,137.931v25.354a3.169,3.169,0,0,0,3.169,3.169h44.37a3.169,3.169,0,0,0,3.169-3.169V137.931a3.169,3.169,0,0,0-3.169-3.169V127.79a9.631,9.631,0,0,1,3.169-7.1l21.424-19.047a15.628,15.628,0,0,0,4.817-7.765L123.7,42.442a12.535,12.535,0,0,0,.444-3.3,12.737,12.737,0,0,0-6.434-11ZM98.889,25.36a6.7,6.7,0,0,1,7.543-5.071,6.339,6.339,0,0,1,5.039,6.18v.063a12.994,12.994,0,0,0-12.328,9.7L90.3,63.517a13.311,13.311,0,0,0-4.247-1.2ZM77.369,160.116H39.339V141.1H77.369ZM117.587,40.794,103.8,92.262a9.447,9.447,0,0,1-2.852,4.627L79.493,115.937A16.024,16.024,0,0,0,74.2,127.79v6.972H42.508V104.908A22.35,22.35,0,0,1,53.473,85.766L81.458,69.38a6.339,6.339,0,0,1,8.684,2.314,6.529,6.529,0,0,1,.634,4.817A6.339,6.339,0,0,1,87.8,80.346l-18.16,10.49a3.169,3.169,0,0,0,3.169,5.483l18.16-10.49a12.512,12.512,0,0,0,5.926-7.7,12.7,12.7,0,0,0-1.268-9.6l-.19-.285,9.793-30.2a6.7,6.7,0,0,1,7.543-5.071,6.338,6.338,0,0,1,5.039,6.18A5.458,5.458,0,0,1,117.587,40.794Z" transform="translate(66.726 25.269)" fill="#5144c7"/>
    <path id="Path_824" data-name="Path 824" d="M90.218,134.755V104.9a28.577,28.577,0,0,0-14.1-24.593L48.1,63.859c-.19-.1-.412-.158-.6-.254L33.647,23.7A13.016,13.016,0,0,0,18.657,14.07,12.74,12.74,0,0,0,8.578,26.461a14.509,14.509,0,0,0,.1,1.68,12.737,12.737,0,0,0-6.434,11,14.011,14.011,0,0,0,.412,3.3L16.438,93.84a15.58,15.58,0,0,0,4.817,7.8l21.392,19.047a9.546,9.546,0,0,1,3.2,7.1v6.972a3.169,3.169,0,0,0-3.169,3.169v25.354a3.169,3.169,0,0,0,3.169,3.169h44.37a3.169,3.169,0,0,0,3.169-3.169V137.924A3.169,3.169,0,0,0,90.218,134.755ZM14.917,26.461a6.339,6.339,0,0,1,5.007-6.18,6.849,6.849,0,0,1,7.67,5.293l12.74,36.732a13.311,13.311,0,0,0-4.247,1.2L27.309,36.381a13.149,13.149,0,0,0-12.392-9.856Zm31.946,89.468L25.439,96.882a9.4,9.4,0,0,1-2.852-4.659L8.769,40.786a6.722,6.722,0,0,1-.19-1.648,6.338,6.338,0,0,1,5.007-6.18,6.8,6.8,0,0,1,7.638,5.229l9.73,30.044-.19.285a12.7,12.7,0,0,0-1.268,9.6,12.512,12.512,0,0,0,5.926,7.7l18.16,10.49a3.169,3.169,0,0,0,3.169-5.483l-18.16-10.49A6.338,6.338,0,0,1,35.612,76.5a6.529,6.529,0,0,1,.634-4.817A6.338,6.338,0,0,1,44.9,69.341L72.914,85.758A22.35,22.35,0,0,1,83.88,104.9v29.854H52.187v-6.972A15.941,15.941,0,0,0,46.863,115.929Zm40.186,44.179H49.018V141.093H87.049Z" transform="translate(0 25.277)" fill="#5144c7"/>
    <path id="Path_825" data-name="Path 825" d="M113.862,11.5a31.674,31.674,0,0,0-44.834,0l0,0h0A31.688,31.688,0,1,0,24.194,56.293L66.789,98.887a3.169,3.169,0,0,0,4.481,0l42.595-42.595a31.712,31.712,0,0,0,0-44.8ZM69.027,92.165,28.672,51.811A25.354,25.354,0,0,1,46.62,8.541,25.088,25.088,0,0,1,64.536,15.98l2.25,2.25a3.169,3.169,0,0,0,4.481,0l2.257-2.257A25.346,25.346,0,0,1,109.381,51.8Z" transform="translate(27.53 0)" fill="#5144c7"/>
  </g>
</svg>
