<svg xmlns="http://www.w3.org/2000/svg" xmlns:xlink="http://www.w3.org/1999/xlink" viewBox="0 0 64 64">
  <defs>
    <clipPath id="clip-path">
      <rect id="Rectangle_721" data-name="Rectangle 721" width="64" height="64" transform="translate(280 1150)" fill="#fff" stroke="#707070" stroke-width="1"/>
    </clipPath>
  </defs>
  <g id="Mask_Group_16" data-name="Mask Group 16" transform="translate(-280 -1150)" clip-path="url(#clip-path)">
    <g id="dollar-2" transform="translate(280 1150)">
      <path id="Path_518" data-name="Path 518" d="M64,41.831v7.287c0,2.475-6.6,4.537-14.711,4.537s-14.573-1.994-14.573-4.468v-.825l-.138-5.774h.069c1.1,2.131,7.149,3.781,14.436,3.781s14.78-2.062,14.78-4.537H64Z" fill="#e2a63b"/>
      <path id="Path_519" data-name="Path 519" d="M48.877,14.746v7.218h-.138c0,2.544-6.805,4.537-14.848,4.537a35.28,35.28,0,0,1-9.28-1.031l-.137.137a16.062,16.062,0,0,0-5.087-2.818v-.137l-.206-7.63c.481,2.337,6.874,4.193,14.642,4.193s14.917-1.994,14.917-4.468h.138Z" fill="#f4b844"/>
      <path id="Path_520" data-name="Path 520" d="M48.877,14.884h0c0,2.475-6.805,4.468-14.917,4.468S19.73,17.5,19.249,15.159c0-.069-.069-.206-.069-.275,0-2.475,6.6-4.537,14.78-4.537C42.14,10.278,48.877,12.34,48.877,14.884Z" fill="#fedb41"/>
      <path id="Path_521" data-name="Path 521" d="M34.647,42.587h0l-.069-1.512-.138-6.187c.481,2.337,6.874,4.193,14.642,4.193s14.642-1.994,14.848-4.4H64v7.149h-.138c0,2.475-6.668,4.537-14.78,4.537S35.747,44.718,34.647,42.587Z" fill="#f4b844"/>
      <path id="Path_522" data-name="Path 522" d="M24.817,47.193a14.75,14.75,0,0,0,4.056-6.324h.344c1.512.138,3.025.206,4.675.206h.687v1.512l.138,5.774h-.756a35.619,35.619,0,0,1-8.937-.962Z" fill="#e2a63b"/>
      <path id="Path_523" data-name="Path 523" d="M34.647,34.338v.344l.138,6.393H34.1c-1.719,0-3.3-.069-4.812-.206h-.344a14.107,14.107,0,0,0,.687-4.468,13.913,13.913,0,0,0-.344-2.956h.344c1.444.138,2.887.206,4.468.206l.619.344A.747.747,0,0,0,34.647,34.338Z" fill="#f4b844"/>
      <path id="Path_524" data-name="Path 524" d="M24.61,25.47a35.28,35.28,0,0,0,9.28,1.031c8.043,0,14.848-1.994,14.848-4.537h.138v8.112c-7.493,0-13.611,1.787-14.367,4.056l-.619-.344q-2.269,0-4.331-.206h-.344a13.875,13.875,0,0,0-4.743-8.043Z" fill="#e2a63b"/>
      <g id="Group_714" data-name="Group 714">
        <path id="Path_525" data-name="Path 525" d="M29.354,33.582h0a15.046,15.046,0,0,0-4.881-8.18,13.062,13.062,0,0,0-5.224-2.887,13.279,13.279,0,0,0-4.331-.687,14.78,14.78,0,1,0-.275,29.559,15.079,15.079,0,0,0,10.174-3.918,14.928,14.928,0,0,0,4.125-6.531,13.69,13.69,0,0,0,.687-4.4C29.629,35.575,29.354,34.544,29.354,33.582Z" fill="#fedb41"/>
        <path id="Path_526" data-name="Path 526" d="M63.931,34.544v.138c-.206,2.406-6.874,4.4-14.848,4.4s-14.161-1.856-14.642-4.193v-.344a.873.873,0,0,1,.069-.412c.756-2.269,6.874-4.056,14.367-4.056h.206C57.195,30.076,63.931,32.07,63.931,34.544Z" fill="#fedb41"/>
      </g>
      <path id="Path_527" data-name="Path 527" d="M14.918,34.75a2.269,2.269,0,1,1,2.269-2.269,1.375,1.375,0,1,0,2.75,0,5.074,5.074,0,0,0-3.643-4.812v-.55a1.375,1.375,0,1,0-2.75,0v.55A4.8,4.8,0,0,0,9.9,32.482,5.046,5.046,0,0,0,14.918,37.5a2.269,2.269,0,0,1,0,4.537h0a2.289,2.289,0,0,1-2.269-2.269,1.375,1.375,0,0,0-2.75,0,5.011,5.011,0,0,0,3.643,4.812v1.1a1.375,1.375,0,1,0,2.75,0v-1.1a4.957,4.957,0,0,0,3.368-6.256A5.012,5.012,0,0,0,14.918,34.75Z" fill="#e2a63b"/>
    </g>
  </g>
</svg>
