<svg id="money" xmlns="http://www.w3.org/2000/svg" viewBox="0 0 26.821 24.725">
  <path id="Path_262" data-name="Path 262" d="M26.334,28.459l-5.775-3.851V20.786A.786.786,0,0,0,19.773,20H7.047a.786.786,0,0,0-.786.786v3.822L.35,28.55A.786.786,0,0,0,0,29.2V43.94a.786.786,0,0,0,.786.786H26.035a.786.786,0,0,0,.786-.786V29.186A.786.786,0,0,0,26.334,28.459ZM25.249,42.453l-8.068-5.5,8.068-6.176ZM1.572,30.791l8.076,6.156L1.572,42.453Zm10.363-9.219h2.951a4.962,4.962,0,0,0,4.1,4.1v7.918l-3.174,2.43-1.961-1.337a.786.786,0,0,0-.885,0l-1.951,1.33L7.833,33.588V25.673a4.962,4.962,0,0,0,4.1-4.1ZM20.559,26.5l4.113,2.742-4.113,3.149ZM6.261,32.39,2.138,29.247,6.261,26.5Zm7.149,3.894,10.077,6.87H3.333Zm5.577-12.213a3.389,3.389,0,0,1-2.5-2.5h2.5Zm-8.655-2.5a3.389,3.389,0,0,1-2.5,2.5v-2.5Z" transform="translate(0 -20)" fill="#fff"/>
  <path id="Path_263" data-name="Path 263" d="M177.95,192.487h.12a2.233,2.233,0,0,0,1.721,1.412,2.194,2.194,0,0,0,.364.031,2.01,2.01,0,0,0,1.913-1.4,5.17,5.17,0,0,1,.573-1.25.324.324,0,0,1,.237,0,.34.34,0,0,1,.233.214.823.823,0,0,1-.1.747.786.786,0,1,0,1.259.941,2.374,2.374,0,0,0,.35-.7h.028a.786.786,0,0,0,0-1.572h-.073a1.925,1.925,0,0,0-1.456-1.189,1.737,1.737,0,0,0-1.708.585,6.145,6.145,0,0,0-.821,1.7.445.445,0,0,1-.535.338.653.653,0,0,1-.555-.654,1.272,1.272,0,0,1,.242-.941.786.786,0,0,0-1.315-.86,2.745,2.745,0,0,0-.443,1.021h-.031A.786.786,0,0,0,177.95,192.487Z" transform="translate(-167.888 -180.658)" fill="#fff"/>
</svg>
