<svg id="download" xmlns="http://www.w3.org/2000/svg" viewBox="0 0 28.965 25.344">
  <path id="Path_254" data-name="Path 254" d="M19.638,26.482a.606.606,0,0,1-.427-.176l-6.034-6.034a.6.6,0,0,1,.427-1.031h3.017V13.207A1.208,1.208,0,0,1,17.828,12h3.621a1.208,1.208,0,0,1,1.207,1.207v6.034h3.017a.6.6,0,0,1,.427,1.031l-6.034,6.034A.606.606,0,0,1,19.638,26.482ZM15.06,20.448l4.578,4.578,4.578-4.578H22.052a.6.6,0,0,1-.6-.6V13.207H17.828v6.638a.6.6,0,0,1-.6.6Z" transform="translate(2.689 -1.138)" fill="#fff"/>
  <path id="Path_255" data-name="Path 255" d="M13.879,24.723H3.017A3.021,3.021,0,0,1,0,21.706V6.017A3.021,3.021,0,0,1,3.017,3h22.93a3.021,3.021,0,0,1,3.017,3.017V18.086a.6.6,0,1,1-1.207,0V6.017a1.812,1.812,0,0,0-1.81-1.81H3.017a1.812,1.812,0,0,0-1.81,1.81V21.706a1.812,1.812,0,0,0,1.81,1.81H13.879a.6.6,0,0,1,0,1.207Z" transform="translate(0 -3)" fill="#fff"/>
  <path id="Path_256" data-name="Path 256" d="M9.051,17.655H.6a.6.6,0,0,1-.6-.6V8.6A.6.6,0,0,1,.6,8H9.051a3.021,3.021,0,0,1,3.017,3.017v3.621A3.021,3.021,0,0,1,9.051,17.655ZM1.207,16.448H9.051a1.812,1.812,0,0,0,1.81-1.81V11.017a1.812,1.812,0,0,0-1.81-1.81H1.207Z" transform="translate(0 -1.966)" fill="#fff"/>
  <path id="Path_257" data-name="Path 257" d="M5.414,14.827a2.414,2.414,0,1,1,2.414-2.414A2.416,2.416,0,0,1,5.414,14.827Zm0-3.621a1.207,1.207,0,1,0,1.207,1.207A1.208,1.208,0,0,0,5.414,11.207Z" transform="translate(0.621 -1.552)" fill="#fff"/>
</svg>
