<svg xmlns="http://www.w3.org/2000/svg" viewBox="0 0 498.873 495.88">
  <g id="Group_1135" data-name="Group 1135" transform="translate(-1762.259 456.496)">
    <g id="Group_1162" data-name="Group 1162" transform="translate(1762.259 -456.496)">
      <path id="Path_1181" data-name="Path 1181" d="M2244.021,299.615s-59.047-.412-70.776,58.552c-6.835,34.361-88.767,58.168-130.681,35.068l-26.3,52.673s48.581,70.006,120.194,81.81c28.115,4.635,61.5,3.277,107.562-35.319Z" transform="translate(-1947.849 -95.955)" fill="#213b6e"/>
      <path id="Path_1182" data-name="Path 1182" d="M2580.794,827.077s-8.88,44.456-18.745,67.047c-7.813,17.893-22.6,20.854-22.6,20.854a95.941,95.941,0,0,0,44.006-9.53Z" transform="translate(-2330.113 -481.344)" fill="#0b2351" opacity="0.34"/>
      <path id="Path_1183" data-name="Path 1183" d="M3139.454,228.047s17.71,17.765,43.841,20.412c0,0,40.395-1.237,54.13,30.753,10.232,23.832,26.611,77.982,29.952,126.056l-99.538-43.363Z" transform="translate(-2768.503 -43.664)" fill="#213b6e"/>
      <path id="Path_1184" data-name="Path 1184" d="M2671.3,271.1l-28.638,22.241a3.565,3.565,0,0,0-1.368,2.552s-33.061,198.094-40.274,233.742c0,0-5.17,24.193-6.651,36.646a3.562,3.562,0,0,0,3.54,3.98h109.623a3.564,3.564,0,0,0,3.54-3.976L2677.025,273.5A3.564,3.564,0,0,0,2671.3,271.1Z" transform="translate(-2370.219 -74.567)" fill="#213b6e"/>
      <path id="Path_1185" data-name="Path 1185" d="M2763.4-444.462s-8.08-15.682-38.8-11.242c-37.225,5.381-46.232,26.441-53.261,45.971s-42.671,84.657-22.734,119.076c22.585,38.99,82.842,20.46,96.068,9.108,10.134-8.7,31.009,12.585,48.192,13.5s37.4-134.667-17.442-175.059A25.353,25.353,0,0,0,2763.4-444.462Z" transform="translate(-2405.49 456.496)"/>
      <path id="Path_1186" data-name="Path 1186" d="M2854.526-310.207a18.586,18.586,0,0,0-13.944-3.447c-9.429,1.471-27.5,5.093-41.4,12.717-18.481,10.137-16.082,18.082-20.54,41.592-1.946,10.267-4.367,20.416-2.328,31.545s17.356,51.7,38.732,54.079,49.286-12.237,56.292-19.042,21.819-31.333,17.547-61.736C2885.437-279.042,2866.959-300.978,2854.526-310.207Z" transform="translate(-2502.611 352.291)" fill="#ffc090"/>
      <path id="Path_1187" data-name="Path 1187" d="M2898.6,104v37.086l4.945,61.5,60.265-60.574V81.753Z" transform="translate(-2592.523 63.226)" fill="#ffc090"/>
      <path id="Path_1188" data-name="Path 1188" d="M2836.5,300.654s2.6,27.075-4.291,44.712c0,0,13.7-30.658,16.771-45.781l51.3-15.124,4.134,73.857-81.506,145.786-23.217-72.2V305.614l23.217-9.026Z" transform="translate(-2520.254 -84.883)" fill="#fff"/>
      <path id="Path_1189" data-name="Path 1189" d="M2909.989,324.908s5.169,61.246,7.955,94.747c4.608,55.423,21.211,119.083,39.9,186.381a3.224,3.224,0,0,1-3.1,4.09H2799.36s-11.174-12.82-4.883-42.114Z" transform="translate(-2515.043 -114.435)" fill="#213b6e"/>
      <path id="Path_1190" data-name="Path 1190" d="M3143.237,661.144l6.065,52.55s-18.325,18.033-47.107,0c0,0,23.554,1.181,33.638-12.631C3142.841,691.462,3143.237,661.144,3143.237,661.144Z" transform="translate(-2741.279 -360.105)" fill="#0b2351" opacity="0.34"/>
      <path id="Path_1191" data-name="Path 1191" d="M2595.782,1321.066a2.312,2.312,0,0,1,2.153-1.078c5.441-.091,34.944-.52,36.567.288,1.958.975.073,13.823.073,16.76h-36.838a3.563,3.563,0,0,1-3.546-3.92c.1-.993.234-2.227.41-3.755C2594.856,1327.141,2595.377,1322.076,2595.782,1321.066Z" transform="translate(-2370.095 -841.346)" fill="#152e56"/>
      <path id="Path_1192" data-name="Path 1192" d="M3046.364,1339.246a3.128,3.128,0,0,0-2.739,2.977c-.13,3.071-.1,8.145,1.485,8.44,2.282.426,61.375,0,61.375,0s1.825-9.157,0-10.754C3104.867,1338.493,3058.06,1337.794,3046.364,1339.246Z" transform="translate(-2698.451 -854.972)" fill="#152e56"/>
      <circle id="Ellipse_157" data-name="Ellipse 157" cx="7.614" cy="7.614" r="7.614" transform="translate(283.737 461.012)" fill="#152e56"/>
      <path id="Path_1193" data-name="Path 1193" d="M2981.528,306.812l-.427,1.923,8.7,30.989a3.054,3.054,0,0,0,3.891,2.175c8.846-2.989,34.765-12.584,44.444-25.327L3011.1,294.352S2989.337,306.926,2981.528,306.812Z" transform="translate(-2652.803 -92.109)" fill="#dbdbdb"/>
      <path id="Path_1194" data-name="Path 1194" d="M2891.574,258.736l.087,12.749s-2.91-2.909-2.662-6.374C2889.331,260.478,2891.574,258.736,2891.574,258.736Z" transform="translate(-2585.499 -66.087)" fill="#c6c2c2"/>
      <path id="Path_1195" data-name="Path 1195" d="M3061.139-411.349s-15.687-1.448-20.21,14.233c0,0-1.7,6.162-.9,11.365,0,0,21.515,8.716,37.438,43.614,0,0,18.04,39.347-13.039,78.13,0,0-11.374,19.2,8.134,28.629s46.207,1.261,52.361-30.457c4.39-22.621,5.44-49.928-10.721-90.455S3074.493-410.492,3061.139-411.349Z" transform="translate(-2695.705 423.535)"/>
      <path id="Path_1196" data-name="Path 1196" d="M2885.41,228.047s25.546,24.565,26.455,27.682,8.173,29.475,12.656,35.318c0,0,4.484,9.738-4.346,11.556s-21.425,5.324-21.295,6.882,8.829,1.039,24.8,3.506c0,0,11.53,2.536-2.57,20.7-13.183,16.985-104.836,141.6-125.444,164.284-1.773,1.951-3,13.27-1.773,24.269.874,7.807,5.18,16.872,4.883,17.106,0,0-5.3-5.662-6.8-17.792-.919-7.414,1.37-23.052,1.921-24.321,9.774-22.494,53.124-116.073,66.469-163.573,2.588-9.214,11.869-34.052,16.33-45.207,8.232-20.584,20.543-38.268,18.017-46.81A28.79,28.79,0,0,0,2885.41,228.047Z" transform="translate(-2514.459 -43.664)" fill="#0b2351" opacity="0.34"/>
      <path id="Path_1197" data-name="Path 1197" d="M3023.811,223.527s2.954,2.964,2.289,6.509-7.414,13.6-43.415,25.027l9.038,29.168a3.079,3.079,0,0,0,3.9,2.016c8.171-2.681,30.957-10.733,40.688-20.1C3048.277,254.62,3037.564,237.4,3023.811,223.527Z" transform="translate(-2653.961 -40.361)" fill="#fff"/>
      <path id="Path_1198" data-name="Path 1198" d="M2890.558,225.3s23.222,21.363,24.642,26.83c.816,3.142,8.172,29.475,12.656,35.318,0,0,4.483,9.738-4.346,11.556s-21.425,5.324-21.295,6.882,8.83,1.039,24.8,3.506c0,0,11.53,2.536-2.57,20.7s-113.77,156.489-124.758,165.138c0,0,48.681-110.6,64.01-165.165,2.588-9.214,11.869-34.052,16.33-45.207,8.232-20.584,20.371-38.219,18.017-46.81C2896.135,231.085,2890.558,225.3,2890.558,225.3Z" transform="translate(-2520.254 -41.655)" fill="#213b6e"/>
      <path id="Path_1199" data-name="Path 1199" d="M2847.828,344.578s.172,2.337.189,2.636S2828.482,378,2824.908,378s-12.232-7.543-9.008-22.17l4.8-10.7Z" transform="translate(-2531.583 -128.807)" fill="#dbdbdb"/>
      <path id="Path_1200" data-name="Path 1200" d="M2720.568,265.736s-57.6,42.733-60.319,51.465,10.948,20.5,10.568,23.538-13.667,1.9-13.667,8.732,52.45,158.657,52.45,158.657l14.39-18.682s-25.408-70.119-27.735-89.481-5.887-56.055,2.556-100.268C2698.81,299.7,2710.945,271.991,2720.568,265.736Z" transform="translate(-2416.109 -71.201)" fill="#0b2351" opacity="0.34"/>
      <path id="Path_1201" data-name="Path 1201" d="M2839.576,258.736a9.5,9.5,0,0,0-2.511,7.831c.559,5.035,12.68,15.29,12.68,15.29s-19.952,31.359-23.308,31.063-14.171-10.179-5.035-28.452S2839.576,258.736,2839.576,258.736Z" transform="translate(-2533.5 -66.087)" fill="#fff"/>
      <path id="Path_1202" data-name="Path 1202" d="M2726.569,258.736s-57.6,42.733-60.319,51.465,10.948,20.5,10.568,23.538-13.667,1.9-13.667,8.732,52.45,158.657,52.45,158.657l14.39-18.682s-25.408-70.119-27.735-89.481-5.887-56.055,2.556-100.268C2704.81,292.7,2716.945,264.991,2726.569,258.736Z" transform="translate(-2420.493 -66.087)" fill="#213b6e"/>
      <g id="Group_1159" data-name="Group 1159" transform="translate(261.348 314.367)" opacity="0.34">
        <path id="Path_1203" data-name="Path 1203" d="M2812.729,762.756s-17.077-15.163-13.06-30.341,5.093-21.642-3.948-21.788c-9.816-.158-16.141,15.681-16.284,29.174,0,0-31.681-13.377-38.352-2.823-5.983,9.465.766,15.947.766,15.947s-11.372,4.792-3.586,18.653c0,0-7.282,2.1-5.419,11.749,1.516,7.857,15.145,11.161,23.952,10.174,0,0,6.752,5.628,19.593,9.694,8.3,2.63,22.552,3.51,22.552,3.51s11.025-8.1,14.91-20.528S2816.771,770.054,2812.729,762.756Z" transform="translate(-2732.541 -710.627)" fill="#0b2351"/>
      </g>
      <g id="Group_1160" data-name="Group 1160" transform="translate(0 111.607)">
        <path id="Path_1204" data-name="Path 1204" d="M1790.273-35.011s-89.984,175.572,52.593,335.651c0,0,149.583-91.613,169.557-276.961C2012.423,23.68,1922.046-60.53,1790.273-35.011Z" transform="translate(-1762.259 40.45)" fill="#ff6e00"/>
        <path id="Path_1205" data-name="Path 1205" d="M1809.844,59.979s-76.707,149.668,44.833,286.128c0,0,127.514-78.1,144.54-236.1C1999.217,110.01,1922.174,38.225,1809.844,59.979Z" transform="translate(-1779.578 -29.473)" fill="#ff8431"/>
        <path id="Path_1206" data-name="Path 1206" d="M1878.982-40.661s-65.729,113.418-16.231,236.75c0,0-11.338-160.7,58.365-236.883C1921.117-40.794,1903.958-43.914,1878.982-40.661Z" transform="translate(-1822.198 42.142)" fill="#fcceae" opacity="0.28"/>
      </g>
      <path id="Path_1207" data-name="Path 1207" d="M3062.193,1146.686s26.77,21.13,35.819,29.778c.65.622,1.919.119,1.661-.66-2.613-7.894-8.659-32.455-9.218-40.8l-101.513-31.338-2.449,15.187c-.461,1.557.482,3.161,2.292,3.891,7.207,2.906,30.066,12.315,37.463,14.43C3047.553,1143.265,3062.193,1146.686,3062.193,1146.686Z" transform="translate(-2656.658 -683.433)" fill="#0b2351" opacity="0.34"/>
      <path id="Path_1208" data-name="Path 1208" d="M2924.711,344.578s2.486,29.952-4.291,44.712a90.756,90.756,0,0,0,5.58-28.62S2926.205,348.006,2924.711,344.578Z" transform="translate(-2608.467 -128.807)" fill="#f7ad7c"/>
      <path id="Path_1209" data-name="Path 1209" d="M2982.685,255.064s37.532-15.036,41.125-31.537c0,0,2.409,2.392,2.653,3.884a7.393,7.393,0,0,1-1.134,4.611S3019.456,244.082,2982.685,255.064Z" transform="translate(-2653.961 -40.361)" fill="#f7ad7c"/>
      <g id="Group_1161" data-name="Group 1161" transform="translate(261.348 311.256)">
        <path id="Path_1210" data-name="Path 1210" d="M2812.729,751.2s-17.077-15.163-13.06-30.341,5.093-21.642-3.948-21.788c-9.816-.158-16.141,15.681-16.284,29.174,0,0-31.681-13.377-38.352-2.823-5.983,9.465.766,15.947.766,15.947s-11.372,4.792-3.586,18.653c0,0-7.282,2.1-5.419,11.749,1.516,7.857,13.312,11.017,24.673,11.792,0,0,6.032,4.009,18.873,8.076,8.3,2.63,22.552,3.51,22.552,3.51s11.025-8.1,14.91-20.528S2816.771,758.5,2812.729,751.2Z" transform="translate(-2732.541 -699.075)" fill="#ffc090"/>
      </g>
      <path id="Path_1211" data-name="Path 1211" d="M2968.561,922.988l-8.61-4.01a2.541,2.541,0,0,1-1.434-2.72c1.257-7.568,6.8-36.1,22.078-58.756a2.544,2.544,0,0,1,3-.961l2.746,1.021Z" transform="translate(-2636.276 -502.754)" fill="#fff"/>
      <path id="Path_1212" data-name="Path 1212" d="M3158.176,752.918c2.371,34.115-3.122,65.719-26.06,83.229-49.594,37.859-119.065-.7-138.1-7.2a4.686,4.686,0,0,1-3.128-5.084c1.752-12.59,8.077-53.338,19.09-74.21a4.68,4.68,0,0,1,4.679-2.459c12.226,1.409,21.334,5.492,40.7,3.278,0,0,5.545-1.393,6.372-6.856.653-4.32,1.627-34.925,1.627-34.925Z" transform="translate(-2659.924 -394.843)" fill="#213b6e"/>
      <path id="Path_1213" data-name="Path 1213" d="M2767.109,856.114s9.939,5.369,25.394,4.824C2792.5,860.938,2776.442,863.836,2767.109,856.114Z" transform="translate(-2496.45 -502.56)" fill="#eaa271"/>
      <path id="Path_1214" data-name="Path 1214" d="M2750.443,923.639s9.939,5.369,25.394,4.824C2775.837,928.463,2759.777,931.361,2750.443,923.639Z" transform="translate(-2484.274 -551.896)" fill="#eaa271"/>
      <path id="Path_1215" data-name="Path 1215" d="M2936.135,717.961l12.073,3.789s2.893-10.2,1.641-13.549a5.03,5.03,0,0,0-4.953-3.686C2943.514,704.43,2938.77,707.376,2936.135,717.961Z" transform="translate(-2619.949 -391.792)" fill="#fff" opacity="0.55"/>
    </g>
    <path id="Path_1216" data-name="Path 1216" d="M2840.865-179.657a1.841,1.841,0,0,1,.793,1.455c.044,1.391-.294,3.835-3.243,3.674-4.105-.224-20.369-6.888-25.114,2.772,0,0-1.136-9.43,12.994-11.517C2826.3-183.273,2835.34-183.508,2840.865-179.657Z" transform="translate(-767.925 -199.628)"/>
    <path id="Path_1217" data-name="Path 1217" d="M3031.6-176.694s-4.011-8.762-16.333-11.066c-10.782-2.015-21.5,1.7-23.365,5.561-.481.993.255,2.03.429,2.484,1.271,3.333,8.114-1.2,19.247-2.229C3020.929-182.8,3029.091-175.855,3031.6-176.694Z" transform="translate(-898.319 -195.937)"/>
    <ellipse id="Ellipse_158" data-name="Ellipse 158" cx="5.079" cy="8.728" rx="5.079" ry="8.728" transform="translate(2055.458 -367.026)"/>
    <ellipse id="Ellipse_159" data-name="Ellipse 159" cx="5.079" cy="8.728" rx="5.079" ry="8.728" transform="translate(2106.633 -367.026)"/>
    <path id="Path_1218" data-name="Path 1218" d="M2933.835-67.636s-7.162,7.8-7.162,12.851,10.886,3.642,10.886,3.642" transform="translate(-850.777 -284.119)" fill="none" stroke="#000" stroke-linecap="round" stroke-linejoin="round" stroke-width="5.352"/>
    <path id="Path_1219" data-name="Path 1219" d="M2887.176,46.774a362.6,362.6,0,0,0,38.141-1.658s-1.935,21.724-19.07,21.448S2887.176,46.774,2887.176,46.774Z" transform="translate(-821.917 -366.501)" fill="#91231d"/>
    <ellipse id="Ellipse_160" data-name="Ellipse 160" cx="13.948" cy="5.798" rx="13.948" ry="5.798" transform="translate(2031.922 -343.418)" fill="#f79b77"/>
    <ellipse id="Ellipse_161" data-name="Ellipse 161" cx="13.948" cy="5.798" rx="13.948" ry="5.798" transform="translate(2106.438 -343.418)" fill="#f79b77"/>
    <path id="Path_1220" data-name="Path 1220" d="M2917.671,91.331s12.038-10.6,26.439-6.174a18.594,18.594,0,0,1-11.784,9.876A15.007,15.007,0,0,1,2917.671,91.331Z" transform="translate(-844.199 -394.968)" fill="#f4493b"/>
    <path id="Path_1221" data-name="Path 1221" d="M2887.176,46.774s2.074,4.219,5.912,4.219,25.643-.164,28.742-1.763a6.193,6.193,0,0,0,3.487-4.115S2894.33,46.934,2887.176,46.774Z" transform="translate(-821.917 -366.501)" fill="#fff"/>
    <g id="Group_1176" data-name="Group 1176" transform="translate(1841.161 -451.192)" opacity="0.19">
      <g id="Group_1163" data-name="Group 1163" transform="translate(341.877 204.054)">
        <path id="Path_1222" data-name="Path 1222" d="M3327.68,327.246a17.171,17.171,0,0,1,2.864.142l-.859-.116a17.176,17.176,0,0,1,4.256,1.17l-.772-.326a17.517,17.517,0,0,1,1.611.789,3.38,3.38,0,0,0,2.491.326,3.3,3.3,0,0,0,1.931-1.485,3.263,3.263,0,0,0,.326-2.491,3.316,3.316,0,0,0-1.486-1.932,20.1,20.1,0,0,0-10.363-2.542,3.382,3.382,0,0,0-2.286.947,3.232,3.232,0,0,0,2.286,5.518Z" transform="translate(-3324.446 -320.77)" fill="#fff"/>
      </g>
      <g id="Group_1164" data-name="Group 1164" transform="translate(359.399 209.71)">
        <path id="Path_1223" data-name="Path 1223" d="M3391.84,348.089a6.725,6.725,0,0,1,1.372.4l-.772-.326a29.079,29.079,0,0,1,3.759,2.113c.449.279.893.568,1.325.873q.4.282.789.582l-.654-.505a23.828,23.828,0,0,1,3.452,3.307q.547.636,1.06,1.3l-.505-.654a44.065,44.065,0,0,1,2.983,4.445c1.2,2.03,2.284,4.131,3.291,6.264q1.042,2.207,1.986,4.459l-.326-.772c1.308,3.1,2.506,6.255,3.634,9.429,1.412,3.972,2.715,7.982,3.951,12.012,1.512,4.932,2.922,9.9,4.265,14.877q2.447,9.073,4.631,18.215,2.624,10.894,5,21.847.326,1.5.648,2.991a3.256,3.256,0,0,0,3.976,2.258,3.308,3.308,0,0,0,2.257-3.976q-2.639-12.241-5.545-24.423c-1.6-6.664-3.281-13.309-5.081-19.922-1.463-5.374-3.006-10.727-4.678-16.04-1.322-4.2-2.724-8.378-4.261-12.5-1.288-3.458-2.671-6.884-4.2-10.244-1.076-2.373-2.233-4.713-3.53-6.975a46.31,46.31,0,0,0-3.206-4.918,33.651,33.651,0,0,0-3.366-3.925,27.646,27.646,0,0,0-3.237-2.657c-.824-.585-1.688-1.106-2.557-1.621a14.811,14.811,0,0,0-4.746-2.147,3.484,3.484,0,0,0-2.49.326,3.294,3.294,0,0,0-1.486,1.932c-.359,1.579.478,3.656,2.258,3.976Z" transform="translate(-3389.501 -341.768)" fill="#fff"/>
      </g>
      <g id="Group_1165" data-name="Group 1165" transform="translate(167.437 231.953)">
        <path id="Path_1224" data-name="Path 1224" d="M2684.107,424.778a20.186,20.186,0,0,0-5.981,5.349,8.171,8.171,0,0,0-1.292,4.163,4.977,4.977,0,0,0,.655,2.907,29.789,29.789,0,0,0,1.879,2.794q1.266,1.758,2.589,3.472c.548.711,1.094,1.423,1.66,2.12a6.358,6.358,0,0,0,.665.767,3.413,3.413,0,0,0,2.285.947,3.291,3.291,0,0,0,2.286-.947,3.233,3.233,0,0,0,0-4.571,5.959,5.959,0,0,1-.624-.715c-.386-.474-.763-.957-1.137-1.441l.505.654c-1.434-1.858-2.871-3.737-4.143-5.712a6.712,6.712,0,0,1-.541-.937l.326.772a.634.634,0,0,1-.048-.155l.116.859a5.289,5.289,0,0,1,.022-1.127l-.115.859a6.2,6.2,0,0,1,.346-1.4l-.326.772a4.866,4.866,0,0,1,.624-1.026l-.505.654a15.587,15.587,0,0,1,2.788-2.684l-.654.506a21.494,21.494,0,0,1,1.883-1.3,3.371,3.371,0,0,0,1.486-1.932,3.3,3.3,0,0,0-.326-2.491,3.262,3.262,0,0,0-1.932-1.486,3.323,3.323,0,0,0-2.49.326Z" transform="translate(-2676.818 -424.349)" fill="#fff"/>
      </g>
      <g id="Group_1166" data-name="Group 1166" transform="translate(304.446 265.12)">
        <path id="Path_1225" data-name="Path 1225" d="M3187.83,553.831a7.677,7.677,0,0,0,1.817.19c.69.029,1.381.048,2.072.07,2.007.065,4.013.145,6.016.29,1.177.086,2.355.193,3.525.349l-.859-.115a14.841,14.841,0,0,1,3.733.844l-.772-.326a3.151,3.151,0,0,1,.663.365l-.654-.506a1.394,1.394,0,0,1,.247.239l-.505-.654a.869.869,0,0,1,.108.183l-.326-.772a.723.723,0,0,1,.042.154l-.115-.859a.716.716,0,0,1,0,.162l.116-.859a.856.856,0,0,1-.059.212l.326-.772a22.607,22.607,0,0,1-1.8,3.06c-.8,1.243-1.649,2.459-2.507,3.665-1.793,2.519-3.652,4.989-5.449,7.5-.833,1.164-1.657,2.337-2.417,3.551a3.233,3.233,0,0,0,5.582,3.263c2.016-3.222,4.375-6.231,6.606-9.3,1.2-1.648,2.381-3.3,3.5-5.006.485-.738.958-1.484,1.4-2.248a8.844,8.844,0,0,0,1.048-2.185,4.165,4.165,0,0,0-2.321-4.673,12.682,12.682,0,0,0-3.4-1.066,66.547,66.547,0,0,0-8.611-.84c-1.926-.09-3.864-.083-5.787-.222-.086-.006-.172-.013-.258-.024l.859.115a.629.629,0,0,1-.1-.019,3.233,3.233,0,0,0-1.719,6.233Z" transform="translate(-3185.48 -547.482)" fill="#fff"/>
      </g>
      <g id="Group_1167" data-name="Group 1167" transform="translate(207.659)">
        <path id="Path_1226" data-name="Path 1226" d="M2872.864-436.587c-2.146-.054-4.289-.171-6.436-.206a62.828,62.828,0,0,0-7.531.287,51.167,51.167,0,0,0-9.37,1.8,52.357,52.357,0,0,0-10.172,4.294,66.643,66.643,0,0,0-10.909,7.653q-.682.579-1.351,1.173a3.273,3.273,0,0,0-.947,2.285,3.289,3.289,0,0,0,.947,2.285,3.251,3.251,0,0,0,2.286.947,3.545,3.545,0,0,0,2.285-.947q1.882-1.669,3.868-3.212l-.654.505a58.314,58.314,0,0,1,9.742-6.154q1.3-.641,2.631-1.206l-.772.326a46.139,46.139,0,0,1,9.359-2.834q1.236-.233,2.483-.4l-.859.116a73,73,0,0,1,12.443-.355c.986.037,1.971.078,2.957.1a3.3,3.3,0,0,0,2.286-.947,3.286,3.286,0,0,0,.947-2.286,3.3,3.3,0,0,0-3.232-3.232Z" transform="translate(-2826.149 436.803)" fill="#fff"/>
      </g>
      <g id="Group_1168" data-name="Group 1168" transform="translate(192.286 21.718)">
        <path id="Path_1227" data-name="Path 1227" d="M2778.7-355.224a34.912,34.912,0,0,0-5.009,6.182,35.931,35.931,0,0,0-3.152,6.734c-.491,1.343-.926,2.706-1.346,4.073a3.315,3.315,0,0,0,.326,2.491,3.293,3.293,0,0,0,1.931,1.485,3.3,3.3,0,0,0,3.976-2.258,63.533,63.533,0,0,1,2.107-6.017l-.326.772a28.05,28.05,0,0,1,3.6-6.226l-.505.654a35.326,35.326,0,0,1,2.962-3.321,3.332,3.332,0,0,0,.947-2.285,3.288,3.288,0,0,0-.947-2.285,3.251,3.251,0,0,0-2.286-.947,3.372,3.372,0,0,0-2.285.947Z" transform="translate(-2769.075 356.173)" fill="#fff"/>
      </g>
      <g id="Group_1169" data-name="Group 1169" transform="translate(306.731 26.998)">
        <path id="Path_1228" data-name="Path 1228" d="M3195.574-330.554a17.684,17.684,0,0,1,1.822,1.223l-.654-.505a18.838,18.838,0,0,1,3.351,3.38l-.505-.654a26.511,26.511,0,0,1,2.735,4.47,3.269,3.269,0,0,0,1.931,1.485,3.3,3.3,0,0,0,2.491-.326,3.264,3.264,0,0,0,1.485-1.932,3.593,3.593,0,0,0-.326-2.491,29.252,29.252,0,0,0-3.518-5.475,21.322,21.322,0,0,0-3.759-3.558,17.763,17.763,0,0,0-1.791-1.2,3.349,3.349,0,0,0-2.49-.326,3.3,3.3,0,0,0-1.932,1.485,3.263,3.263,0,0,0-.326,2.491,3.379,3.379,0,0,0,1.486,1.932Z" transform="translate(-3193.965 336.57)" fill="#fff"/>
      </g>
      <g id="Group_1170" data-name="Group 1170" transform="translate(320.085 45.656)">
        <path id="Path_1229" data-name="Path 1229" d="M3243.954-262.444a34.335,34.335,0,0,0,2.082,3.172,58.906,58.906,0,0,1,3.558,6.094c.921,1.812,1.765,3.663,2.556,5.536l-.326-.772c1.074,2.547,2.051,5.134,2.962,7.744,1.182,3.384,2.254,6.805,3.255,10.247q1.023,3.518,1.951,7.063a3.332,3.332,0,0,0,1.485,1.932,3.3,3.3,0,0,0,2.491.326,3.294,3.294,0,0,0,2.257-3.976c-1.368-5.2-2.86-10.375-4.576-15.474-1.3-3.857-2.739-7.661-4.363-11.392a75.184,75.184,0,0,0-3.389-6.888c-.8-1.423-1.667-2.807-2.585-4.157-.557-.819-1.159-1.618-1.647-2.481q-.066-.117-.128-.236a3.291,3.291,0,0,0-1.932-1.485,3.3,3.3,0,0,0-2.491.326,3.306,3.306,0,0,0-1.16,4.422Z" transform="translate(-3243.543 267.301)" fill="#fff"/>
      </g>
      <path id="Path_1230" data-name="Path 1230" d="M3139.454,888.979" transform="translate(-2847.406 -531.876)" fill="none" stroke="#fff" stroke-miterlimit="10" stroke-width="8"/>
      <g id="Group_1171" data-name="Group 1171" transform="translate(295.338 339.925)">
        <path id="Path_1231" data-name="Path 1231" d="M3154.9,846.87c3.1.159,6.161.64,9.238,1.007a44.151,44.151,0,0,0,9.483.267,40.376,40.376,0,0,0,6.214-1.067c1.014-.262,2.017-.565,3.008-.9a24.506,24.506,0,0,0,3.341-1.33,12.129,12.129,0,0,0,4.042-3.662,17.25,17.25,0,0,0,2.206-4.3,33.8,33.8,0,0,0,1.68-7.81q.039-.313.076-.626a3.22,3.22,0,0,0-.947-2.285,3.232,3.232,0,0,0-4.571,0l-.506.654a3.221,3.221,0,0,0-.441,1.631c-.049.408-.1.817-.153,1.224l.115-.859a27.637,27.637,0,0,1-1.736,6.977l.326-.772a13.676,13.676,0,0,1-1.7,3l.505-.654a9.406,9.406,0,0,1-1.626,1.65l.654-.506a8,8,0,0,1-1.692,1l.772-.326a36.455,36.455,0,0,1-9.221,2.483l.859-.115a37.925,37.925,0,0,1-8.049.142c-2.51-.206-5-.59-7.5-.888-1.455-.173-2.914-.315-4.377-.39a3.232,3.232,0,0,0-2.286,5.518,3.509,3.509,0,0,0,2.286.947Z" transform="translate(-3151.665 -825.206)" fill="#fff"/>
      </g>
      <g id="Group_1172" data-name="Group 1172" transform="translate(113.343 184.971)">
        <path id="Path_1232" data-name="Path 1232" d="M2514.4,253.155q-.4,6.1-1.205,12.161c-.013.1-.063.478,0,0,.066-.5,0-.015-.016.11q-.045.324-.09.647-.114.808-.235,1.615-.226,1.506-.475,3.009-.5,3-1.084,5.992a240.18,240.18,0,0,1-5.922,23.537c-2.375,7.823-5.1,15.538-8.051,23.16q-2.225,5.74-4.616,11.414c-.079.188-.406.955-.058.141-.086.2-.171.405-.257.608q-.322.76-.647,1.519-.605,1.417-1.219,2.831-1.206,2.777-2.439,5.542c-3.342,7.5-6.82,14.931-10.345,22.342q-.659,1.385-1.319,2.769a3.469,3.469,0,0,0-.326,2.491,3.3,3.3,0,0,0,1.485,1.932c1.441.761,3.645.469,4.422-1.16,3.548-7.435,7.061-14.888,10.448-22.4,3.476-7.71,6.822-15.483,9.941-23.346,3.043-7.672,5.862-15.436,8.343-23.309,2.455-7.792,4.579-15.692,6.252-23.689a202.675,202.675,0,0,0,3.651-24.865q.126-1.526.225-3.054a3.251,3.251,0,0,0-3.232-3.232,3.308,3.308,0,0,0-3.232,3.232Z" transform="translate(-2475.991 -249.92)" fill="#fff"/>
      </g>
      <g id="Group_1173" data-name="Group 1173" transform="translate(100.171 139.639)">
        <path id="Path_1233" data-name="Path 1233" d="M2429.451,87.985q1.044.427,2.084.865l-.772-.326q9.76,4.121,19.086,9.183c5.8,3.141,11.475,6.532,16.95,10.217q4.135,2.783,8.092,5.817l-.654-.505c1.892,1.461,3.744,2.973,5.536,4.555a3.42,3.42,0,0,0,2.286.947,3.29,3.29,0,0,0,2.286-.947,3.232,3.232,0,0,0,0-4.571c-2.649-2.339-5.431-4.527-8.268-6.633-2.985-2.215-6.054-4.316-9.179-6.328q-5.122-3.3-10.436-6.284-5.544-3.126-11.262-5.933-6.173-3.031-12.524-5.669-.751-.314-1.506-.622a3.239,3.239,0,0,0-2.491.326,3.231,3.231,0,0,0-1.159,4.422l.505.654a3.231,3.231,0,0,0,1.426.831Z" transform="translate(-2427.089 -81.621)" fill="#fff"/>
      </g>
      <g id="Group_1174" data-name="Group 1174" transform="translate(0 347.337)">
        <path id="Path_1234" data-name="Path 1234" d="M2060.048,939.428a194.86,194.86,0,0,0,18.306-13.194c5.848-4.714,11.452-9.728,16.855-14.944,5.464-5.276,10.724-10.762,15.818-16.4q7.605-8.409,14.756-17.214,7.214-8.84,14.079-17.958.8-1.062,1.6-2.126a3.248,3.248,0,0,0,.326-2.491,3.3,3.3,0,0,0-1.485-1.932,3.262,3.262,0,0,0-2.491-.326l-.772.326a3.245,3.245,0,0,0-1.16,1.16q-2.822,3.756-5.692,7.475l.505-.654q-5.155,6.671-10.5,13.193-5.456,6.643-11.152,13.083-5.763,6.5-11.821,12.729-5.985,6.135-12.306,11.929c-4.191,3.824-8.5,7.515-12.959,11.027q-.805.635-1.616,1.262l.654-.505c-3.582,2.765-7.253,5.415-11.026,7.914q-1.581,1.048-3.187,2.059a3.389,3.389,0,0,0-1.485,1.932,3.233,3.233,0,0,0,4.748,3.65Z" transform="translate(-2055.192 -852.724)" fill="#fff"/>
      </g>
      <g id="Group_1175" data-name="Group 1175" transform="translate(66.557 395.854)">
        <path id="Path_1235" data-name="Path 1235" d="M2303.7,1038.113c4.228,2.01,8.481,3.969,12.779,5.826,4.472,1.932,8.986,3.772,13.565,5.437,4.386,1.595,8.83,3.033,13.336,4.25a124.575,124.575,0,0,0,13.534,2.892,106.425,106.425,0,0,0,14.468,1.288q.873.014,1.747.011a2.92,2.92,0,0,0,2-.828,2.828,2.828,0,0,0-2-4.828,99.425,99.425,0,0,1-13.377-.9l.752.1a122.975,122.975,0,0,1-15.74-3.225c-5.212-1.413-10.34-3.12-15.392-5.024q-4.292-1.617-8.516-3.408l.676.285c-3.933-1.661-7.827-3.412-11.7-5.218q-1.643-.767-3.281-1.546a3.036,3.036,0,0,0-2.179-.285,2.83,2.83,0,0,0-1.975,3.479,2.784,2.784,0,0,0,1.3,1.69Z" transform="translate(-2302.293 -1032.849)" fill="#fff"/>
      </g>
    </g>
  </g>
</svg>
