<svg id="Layer_1" data-name="Layer 1" xmlns="http://www.w3.org/2000/svg" viewBox="0 0 745.39 740.92"><defs><style>.cls-1{fill:#ffc090;}.cls-2{fill:#435a8c;}.cls-18,.cls-3{opacity:0.2;}.cls-4{fill:#1a1a1a;}.cls-5{fill:none;stroke:#000;stroke-linecap:round;stroke-linejoin:round;stroke-width:1.74px;}.cls-6{fill:#91231d;}.cls-7{fill:#f79b77;}.cls-8{fill:#f4493b;}.cls-13,.cls-16,.cls-9{fill:#fff;}.cls-10{fill:#213b6e;}.cls-11{fill:#ff6e00;}.cls-12{fill:#ff8431;}.cls-13{opacity:0.28;}.cls-14{fill:#efa878;}.cls-15{fill:#eaa271;}.cls-16{opacity:0.55;}.cls-17{fill:#011336;}</style></defs><polygon class="cls-1" points="443.33 240.92 443.33 358.86 552.08 358.86 552.08 209.07 443.33 240.92"/><path class="cls-2" d="M443.33,240.92s-4.23,45.5,14.63,60.7c0,0,12.06,12.06,7.87,37.22,0,0,16.25-39.31,29.35-46.13s52.94-29.27,52.41-38.74,4.49-24.86,4.49-24.86l19.63,38.31s50.29,37.67,94.11,43.05,56.22,39,56.91,95.94-3.4,140.88-8.48,141.51c0,0,7,26-11.43,47S673.62,619,666,610.14s62.9-78.09-28.19-90.15l4.73,214.69H296l19.58-221L211.42,566.33s-29.83-15.23-26-67.93,44.45-57.77,44.45-57.77l60.31-130.79s8.89-18.41,26-20.32,102.22-14.6,102.22-14.6,3.91-32.81,29.85-43.19Z"/><path class="cls-3" d="M443.33,240.92s-1.84,16.88,1.73,32.12c0,0,77.85,0,107-58.1Z"/><path class="cls-3" d="M434.66,598.81s165.48,48.86,207.88,135.87l-3.7-167.84Z"/><path class="cls-4" d="M563.32,104.85V170l-15.73,47.59s43.35-20.65,48.24-81.38C595.83,136.16,587,108.58,563.32,104.85Z"/><path class="cls-1" d="M563.32,104.85V154.7s5-25.93,19.84-23.28a7.58,7.58,0,0,1,5.61,4.55c4,9.53,12.21,38.24-25.45,55.78,0,0-24.61,62.22-88.27,62.22-57.74,0-79.45-108.08-50.83-164.34C424.22,89.63,498.6,74.67,563.32,104.85Z"/><path d="M456.05,129.74a2.18,2.18,0,0,1,.95,1.75c.06,1.68-.35,4.63-3.91,4.43-4.95-.27-24.57-8.31-30.29,3.35,0,0-1.37-11.38,15.67-13.9C438.47,125.37,449.38,125.09,456.05,129.74Z"/><path d="M528.84,137.76s-4.84-10.57-19.7-13.35c-13-2.43-25.93,2-28.19,6.71-.58,1.2.31,2.45.52,3,1.53,4,9.79-1.46,23.22-2.69C516,130.39,525.81,138.77,528.84,137.76Z"/><ellipse cx="441.09" cy="155.05" rx="6.13" ry="10.53"/><ellipse cx="502.82" cy="155.05" rx="6.13" ry="10.53"/><path class="cls-5" d="M468.25,162.94s-8.63,9.41-8.63,15.51,13.13,4.39,13.13,4.39"/><path class="cls-6" d="M446.78,201.58s24.7.35,46-2c0,0-2.33,26.21-23,25.87S446.78,201.58,446.78,201.58Z"/><ellipse class="cls-7" cx="423.39" cy="180" rx="16.83" ry="6.99"/><ellipse class="cls-7" cx="513.28" cy="180" rx="16.83" ry="6.99"/><path class="cls-8" d="M456.69,221s14.52-12.78,31.89-7.45c0,0-3.93,9.28-14.21,11.92A18.1,18.1,0,0,1,456.69,221Z"/><path class="cls-9" d="M446.78,201.58s2.5,5.09,7.13,5.09,30.94-.2,34.67-2.13a7.46,7.46,0,0,0,4.21-5S455.41,201.77,446.78,201.58Z"/><path class="cls-2" d="M419.6,82.29s3-52.63,71.86-66.09c0,0,34.69-6.93,71.86,19.19v69.46Z"/><path class="cls-10" d="M563.32,35.39s32.51,25.39,32.51,48.17v52.6s-19.51-23-32.51-31.31Z"/><path class="cls-11" d="M400.49,390.75V287.61c0-22.08,0-22.08-21.54-29.95q-16.08-5.88-32.31-10.53C265.38,225.21,202.87,226.37,156,231.34c-10.35,1.1-30.73,3.7-83,16.19A417.93,417.93,0,0,0,28,263.46c-4.88,2.05-7.11,4.45-7.08,10.22.26,72.93.14,152.53.27,225.46a37,37,0,0,0,2.2,12.21c7.2,20,18.41,37.8,31.88,54.22,41.18,50.2,94.07,78.93,152,107.83,2.17,1.09,6,.56,8.4-.6,41-20.11,79-37.94,113.1-68.13,28.1-24.91,52.37-52.8,67.06-87.54A54.77,54.77,0,0,0,400.28,497C400.72,461.58,400.49,426.16,400.49,390.75Z"/><path class="cls-12" d="M369.55,400.6V314.28c0-18.48,0-18.48-18-25.07q-13.45-4.92-27-8.81c-68-18.34-120.33-17.38-159.59-13.21-8.66.92-25.72,3.09-69.49,13.54a350.15,350.15,0,0,0-37.59,13.34c-4.08,1.72-5.94,3.72-5.92,8.55.22,61,.12,127.66.23,188.7A30.7,30.7,0,0,0,54,501.53c6,16.73,15.4,31.64,26.68,45.38,34.46,42,78.73,66.06,127.19,90.26,1.82.9,5,.46,7-.51,34.32-16.83,66.17-31.75,94.67-57,23.52-20.85,43.83-44.19,56.12-73.27a45.8,45.8,0,0,0,3.74-16.85C369.74,459.88,369.55,430.24,369.55,400.6Z"/><path class="cls-9" d="M269.59,358.06h0A6.58,6.58,0,0,1,263,352.2a53.66,53.66,0,0,0-106.67,0,6.57,6.57,0,0,1-6.54,5.86h0a6.59,6.59,0,0,1-6.55-7.31,66.83,66.83,0,0,1,132.86,0A6.59,6.59,0,0,1,269.59,358.06Z"/><path class="cls-9" d="M313.8,431.47V380.24c0-11,0-11-11.81-14.87q-8.82-2.92-17.73-5.23a14.64,14.64,0,1,1-28.62-5.92,306,306,0,0,0-76-1.92q-8.51.81-16.9,2.1a14.64,14.64,0,1,1-28.64,5.94,247.08,247.08,0,0,0-24.65,7.91c-2.67,1-3.89,2.21-3.88,5.08.14,36.22.08,75.75.15,112a16.91,16.91,0,0,0,1.21,6.06c4,9.92,10.1,18.77,17.49,26.93C147,543.22,176,557.49,207.8,571.84a6.58,6.58,0,0,0,4.6-.3c22.5-10,43.37-18.84,62-33.83,15.42-12.37,28.74-26.22,36.79-43.48a25.2,25.2,0,0,0,2.45-10C313.93,466.64,313.8,449.05,313.8,431.47Zm-23.22,62a6.06,6.06,0,0,1-1.21-.12c-5.87,10.38-14.61,20.06-27.11,30.09-14.21,11.41-30,18.42-46.79,25.84l-3,1.32a7.69,7.69,0,0,1-3,.61,4.9,4.9,0,0,1-2-.37c-25.88-11.7-48.78-23-66.92-43-6.61-7.29-11.26-14.46-14.23-21.92a14.77,14.77,0,0,1-1.07-5.41c0-11.38,0-21.62,0-31.62,0-12.71,0-24.84,0-38.42a5.88,5.88,0,1,1,3.14,0c0,13.58,0,25.72,0,38.43,0,10,0,20.24,0,31.62a11.71,11.71,0,0,0,.85,4.25c2.82,7.11,7.28,14,13.63,21,17.74,19.58,40.34,30.74,65.89,42.29a4,4,0,0,0,2.39-.25l3-1.32c16.56-7.33,32.2-14.26,46.1-25.42,12.14-9.74,20.61-19.1,26.29-29.09a5.88,5.88,0,1,1,4,1.57ZM181.33,488c8.88,6.12,18.59,9.36,28.09,9.36,9.69,0,19.57-3.33,28.55-9.63a70.27,70.27,0,0,0,20.6-23.06,5.95,5.95,0,0,1,10.4,5.78,82.55,82.55,0,0,1-24.17,27c-11,7.72-23.23,11.79-35.38,11.79-11.92,0-24-4-34.85-11.47a81.8,81.8,0,0,1-24.07-26.23,5.94,5.94,0,0,1,10.28-6A71.09,71.09,0,0,0,181.33,488Zm-.64-76.11a19.07,19.07,0,0,1,26.93,0l1.8,1.8,1.79-1.8a19,19,0,1,1,26.94,26.94l-28.73,28.73-28.73-28.73A19.07,19.07,0,0,1,180.69,411.92Zm111.84,59.34a5.89,5.89,0,0,1-1.45-11.59c0-3.78,0-7.56,0-11.26s0-7.23,0-10.84v-40.8c0-3.87,0-6-.83-7.06s-3.24-1.89-7.5-3.3c-30.53-10.1-63.09-13.57-96.8-10.34a220.42,220.42,0,0,0-44.31,8.74,5.25,5.25,0,0,1,0,.56,5.92,5.92,0,1,1-1.16-3.49A223.38,223.38,0,0,1,185.62,373c34.14-3.28,67.14.25,98.08,10.48,10.1,3.34,10.49,3.84,10.49,13.34v40.8c0,3.61,0,7.22,0,10.83s0,7.52,0,11.33a5.89,5.89,0,0,1-1.69,11.53Z"/><path class="cls-13" d="M59.2,291.81V508.74a104.42,104.42,0,0,0,25.67,69A118.48,118.48,0,0,0,98.7,591.19s-20-34.28-19.75-89.72S79,285,79,285Z"/><path class="cls-12" d="M343.77,562.6c-13,12.08-26.46,23.77-40.5,34.69l-.51.4c-.16.13-.91.71-.25.2l-.77.59-2.76,2.1q-2.6,2-5.22,3.89-5.34,3.9-10.79,7.65-10.91,7.47-22.33,14.19-12.93,7.56-26.49,14c-2.85,1.33-3.8,5.65-2.16,8.2,1.89,2.94,5.16,3.59,8.21,2.16a344.72,344.72,0,0,0,46.32-26.44,488.74,488.74,0,0,0,43.13-33c7.69-6.54,15.2-13.26,22.61-20.11a6.06,6.06,0,0,0,0-8.49A6.13,6.13,0,0,0,343.77,562.6Z"/><path class="cls-12" d="M391.5,291.16c-.16-3.36-.43-6.7-.9-10-.42-2.93-1.1-5.82-3.74-7.59a29.66,29.66,0,0,0-4.58-2.2c-3.48-1.54-7-3-10.53-4.42a218.58,218.58,0,0,0-25.58-9c-3-.81-6.66,1-7.38,4.19a6.1,6.1,0,0,0,4.19,7.38,204.21,204.21,0,0,1,22,7.6q2.76,1.08,5.49,2.21l2.38,1,.3.12.92.39c1.55.67,3.13,1.33,4.66,2.06,0,.16.07.32.09.48l.06.34c.06.59.13,1.19.19,1.79.13,1.43.23,2.87.31,4.31.41,7.21.45,14.46.4,21.68-.05,6.63-.11,13.28-.57,19.89-.22,3.14,2.91,6.14,6,6a6.14,6.14,0,0,0,6-6c.41-5.88.49-11.79.55-17.67C391.89,306.16,391.87,298.65,391.5,291.16Zm-11-7.44a1.06,1.06,0,0,0,.21.11A1.08,1.08,0,0,1,380.48,283.72Z"/><path class="cls-10" d="M384.47,119.69c23.12-7.92,89.77-16.47,153.42,11.08a2.62,2.62,0,0,0,2.43-.18l23-11.83V104.85S499.81,60.14,419.6,82.29a354.73,354.73,0,0,0-37.83,33.17A2.58,2.58,0,0,0,384.47,119.69Z"/><path class="cls-3" d="M414.71,304.68s21.89-8.83,32.57-2.34,11.51,11.09,13.81,20.72A138.6,138.6,0,0,1,464,344.21s20.84-35.8,26.64-35.59,29.24,6.64,40,12.74a74.73,74.73,0,0,0-40-25.21s-14.24,14.08-24.83,42.69c0,0,3.28-17.87-4.71-32.84a21.9,21.9,0,0,0-5.37-6.4c-3.08-2.19-4.85-6.68-4.85-6.68S437.16,292.42,414.71,304.68Z"/><path class="cls-10" d="M438.32,235.73s-28,18.37-23.61,69c0,0,25.07-12.41,36.19-11.76,0,0-10.12-22.12-7.57-52Z"/><path class="cls-10" d="M490.66,296.15s25.64,6.68,40,25.21c0,0,39.93-38,41-53.94s-3.91-38.23-19.63-42.7Z"/><path class="cls-5" d="M581.16,151.49s5.64,17.44-11.58,19.4"/><path class="cls-1" d="M576.86,497s2.48,59.42-131.6,28.06l-10.6,73.74s77.75,38.54,183.88,24.37C709,611.1,712.75,522.53,712.75,522.53Z"/><path class="cls-14" d="M434.66,598.81s166,46,222-15.17c0,0,11.81,10.11,11.81,21.24,0,0-9.87,9.94-42.57,17.11-14.64,3.21-33.2,3.94-57.31,4.31C504.94,627.28,441.2,603.12,434.66,598.81Z"/><path class="cls-1" d="M445.26,525.07s-31.2-19.77-28.72-45,2.51-35.87-12-33.76c-15.71,2.3-21.7,29.22-18.42,50.8,0,0-54.05-13.13-62,5.45-7.09,16.66,5.36,25.26,5.36,25.26s-16.91,10.6-.88,30.71c0,0-11.08,5.24-5.6,20.16,4.46,12.15,24.11,14.13,42.45,12.42,0,0,10.67,4.83,32.22,8,13.94,2,36.91-.25,36.91-.25s15.5-15.8,18.48-36.64S453.61,535.67,445.26,525.07Z"/><path class="cls-15" d="M329.56,527.78s17.26,6,41.79,1.11C371.35,528.89,346.47,537.68,329.56,527.78Z"/><path class="cls-15" d="M327.12,558s17.26,6,41.79,1.11C368.91,559.09,344,567.88,327.12,558Z"/><path class="cls-16" d="M395.13,472.24l20.26,2.92s2-17-.9-22.06-6.63-4.82-8.86-4.6S396.59,454.66,395.13,472.24Z"/><rect class="cls-17" x="497.7" y="388.97" width="91.84" height="20.27" rx="6"/><path class="cls-17" d="M503.39,406.38h81.2a0,0,0,0,1,0,0v67.48A11.12,11.12,0,0,1,573.46,485h-59a11.12,11.12,0,0,1-11.12-11.12V406.38A0,0,0,0,1,503.39,406.38Z"/><path class="cls-3" d="M685.22,315.5s-50.15-6.73-101.7,113.06c0,0-19.55,38.23-28.23,44s-3.8,39.89,14.37,42.9S685.22,315.5,685.22,315.5Z"/><path class="cls-10" d="M719.33,366c7.55,43.89,5.42,114.07,2.13,153.34-2.23,26.63-7.21,28.54-7.21,28.54,8.63,43.86-29.58,67.65-40.59,66.88s-12.07-17.34-12.07-17.34c-19.53-69.25-91.93-82-91.93-82s-9-1.45-9-24.6,7,2.13,43.61-78.9,81-96.48,81-96.48S711.92,323,719.33,366Z"/><g class="cls-18"><path class="cls-9" d="M572.22,289.75c13.46,6.42,25.17,15.86,38.42,22.65a91,91,0,0,0,12.24,5.23,4.53,4.53,0,0,0,5.53-3.15,4.6,4.6,0,0,0-3.14-5.53l-2.37-.84-1.36-.53c-.22-.09-1.38-.57-.67-.27-1.67-.72-3.31-1.49-4.94-2.3-3.27-1.64-6.44-3.46-9.57-5.36-6.26-3.8-12.32-7.91-18.59-11.68-3.58-2.16-7.23-4.19-11-6-2.12-1-5-.65-6.16,1.62-1.06,2-.65,5.07,1.61,6.15Z"/></g><g class="cls-18"><path class="cls-9" d="M639.86,321.17a45.22,45.22,0,0,1,10.07.18l-1.19-.16a45.48,45.48,0,0,1,6,1.24,4.5,4.5,0,0,0,2.39-8.68,48.11,48.11,0,0,0-17.26-1.58,4.92,4.92,0,0,0-3.19,1.32,4.52,4.52,0,0,0-1.31,3.18c.1,2.25,2,4.74,4.5,4.5Z"/></g><g class="cls-18"><path class="cls-9" d="M683.49,335.2c-.78-.6.25.2.33.27.31.25.61.51.9.77.59.52,1.17,1.06,1.72,1.61a43.26,43.26,0,0,1,3.13,3.52c-.62-.77.19.25.25.34l.7,1c.41.59.81,1.2,1.2,1.81.9,1.39,1.72,2.83,2.5,4.3.68,1.3,1.32,2.62,1.93,4,.16.36.33.73.49,1.1,0,.1.55,1.33.17.4.34.81.66,1.62,1,2.43,1.15,3,2.18,6,3.13,9a173.67,173.67,0,0,1,4.74,18.81c.57,3,1.07,6,1.49,8.95,0,.15.2,1.45.05.36l.15,1.17c.1.77.2,1.55.29,2.33.17,1.55.33,3.11.47,4.67,2.31,25.39-.07,50.91-2.19,76.23-1.35,16.14-2.62,32.29-3.16,48.48a4.53,4.53,0,0,0,4.5,4.5,4.59,4.59,0,0,0,4.5-4.5c.94-28.11,4.36-56,5.78-84.12,1.3-25.71.22-51.68-7.1-76.52-4.26-14.42-10-29.25-22.4-38.63-1.88-1.42-5.11-.35-6.16,1.62-1.25,2.37-.39,4.63,1.62,6.16Z"/></g><g class="cls-18"><path class="cls-9" d="M699.81,553.1a42.08,42.08,0,0,1,.11,6.92c0,.58-.1,1.15-.16,1.73s-.07.57,0,.09c0,.28-.09.57-.13.85-.19,1.14-.43,2.27-.71,3.39s-.62,2.23-1,3.32c-.19.55-.4,1.08-.6,1.63s-.22.53,0,.12c-.12.27-.23.53-.35.79a41.18,41.18,0,0,1-3.29,5.87c-.6.9-1.23,1.79-1.9,2.65.48-.62-.56.67-.65.79-.37.45-.75.89-1.13,1.33-1.53,1.76-3.15,3.44-4.8,5.09a116.29,116.29,0,0,1-10.45,9.65c-1.87,1.45-1.64,4.86,0,6.36,2,1.82,4.36,1.55,6.36,0a103.86,103.86,0,0,0,8.58-7.8,101.56,101.56,0,0,0,7.8-8.27,48.3,48.3,0,0,0,10.57-21,45.88,45.88,0,0,0,.78-13.48c-.23-2.33-1.91-4.61-4.5-4.5-2.25.1-4.75,2-4.5,4.5Z"/></g><g class="cls-18"><path class="cls-9" d="M432.91,65.44a3,3,0,0,0-2.31-.3,3.31,3.31,0,0,0-1.79,1.37,13.77,13.77,0,0,0-2.34,7.84,3.1,3.1,0,0,0,.88,2.12,3,3,0,0,0,5.12-2.12c0-.37,0-.73,0-1.1a11.18,11.18,0,0,1,.58-2.13,9.84,9.84,0,0,1,.89-1.58,3,3,0,0,0-1.08-4.1Z"/><path class="cls-9" d="M507.09,18.42a110.66,110.66,0,0,0-34.36,6.88,78.64,78.64,0,0,0-15.17,7.76,100.16,100.16,0,0,0-12.81,9.44A73.05,73.05,0,0,0,432,58c-2.07,3.27,3.12,6.28,5.19,3a68.27,68.27,0,0,1,10.35-12.92,76.69,76.69,0,0,1,11.57-8.88,78.75,78.75,0,0,1,13.5-7.45,104.75,104.75,0,0,1,16.64-5,98.77,98.77,0,0,1,17.86-2.36C510.94,24.29,511,18.29,507.09,18.42Z"/><path class="cls-9" d="M552,111.14c-3.67,2.13-7.43,4.1-11.28,5.87l-.4.19c-.21.06-.43.16-.64.23q-1,.36-2,.66l-.7.19c-4.6-1.18-9.11-2.78-13.58-4.39-1.75-.63-3.48-1.28-5.21-1.94l-2.36-.93-2.12-.87a3.1,3.1,0,0,0-4.11,1.07c-.74,1.26-.42,3.47,1.08,4.11,6.14,2.61,12.43,4.91,18.78,7a60.43,60.43,0,0,0,6,1.79c2.25.48,4.41-.33,6.49-1.14A95.26,95.26,0,0,0,555,116.32C558.31,114.38,555.29,109.19,552,111.14Z"/></g></svg>