<svg xmlns="http://www.w3.org/2000/svg" viewBox="0 0 740.275 362.919">
  <g id="Group_1177" data-name="Group 1177" transform="translate(-1877.294 1682.073)">
    <g id="Group_1199" data-name="Group 1199" transform="translate(1877.294 -1682.073)">
      <g id="Group_1198" data-name="Group 1198" transform="translate(0 0)">
        <path id="Path_1289" data-name="Path 1289" d="M3479.858-1067.8s-4.46,9.656-7.64,12.95-60.683,17.521-60.683,17.521l-186.3,40.775-22.577-2.416-78.9,2.525s-15.744-38.512,1.448-76.452,103.15-52.761,127.456-45.054,81.215,32.6,122.12,18.97,73.509-40.311,87.144-36.754,20.156,25.491,20.156,34.976S3479.858-1067.8,3479.858-1067.8Z" transform="translate(-2741.805 1301.364)" fill="#071223"/>
        <g id="Group_1192" data-name="Group 1192" transform="translate(337.453 209.435)">
          <path id="Path_1290" data-name="Path 1290" d="M2992.022-899.956c1.625-39.16,27.819-70.968,58.509-71.047h33.27l-.582,14.028c13,12.9,20.9,33.5,19.938,56.735s-10.58,43.882-24.65,56.849l-.589,14.2h-33.27C3013.958-829.115,2990.4-860.8,2992.022-899.956Z" transform="translate(-2991.943 976.84)" fill="#071223"/>
          <ellipse id="Ellipse_163" data-name="Ellipse 163" cx="71.073" cy="55.43" rx="71.073" ry="55.43" transform="translate(26.002 141.284) rotate(-83.682)" fill="#878787"/>
          <path id="Path_1291" data-name="Path 1291" d="M3136.513-847.917v-.005q-.817-2.628-1.427-5.388v0q-.609-2.759-1-5.635h0a73.773,73.773,0,0,1-.6-12.98,73.792,73.792,0,0,1,6.023-26.44l.1-.217q1.164-2.64,2.519-5.12c.056-.1.11-.205.167-.308q1.357-2.454,2.885-4.733c.054-.081.106-.164.16-.244,8.988-13.253,22.2-21.744,36.609-21.781,12.341-.031,23.28,6.149,31.125,16.217h0q.779,1,1.517,2.05v0q.735,1.045,1.427,2.139l.011.017q.681,1.078,1.32,2.2c.011.02.022.039.034.059q.623,1.1,1.2,2.241l.057.111q.563,1.111,1.085,2.26c.027.061.056.121.084.182q.5,1.113.961,2.259c.036.088.073.176.108.265q.442,1.11.842,2.25c.041.116.084.23.125.346.254.732.492,1.475.723,2.224.046.15.1.3.14.448.215.719.414,1.447.606,2.181.049.186.1.37.149.557.177.7.339,1.415.5,2.131.049.223.1.443.149.667.143.686.268,1.38.39,2.076.046.26.1.516.141.777.111.671.2,1.351.294,2.031.04.292.086.58.122.874.081.66.143,1.329.205,2,.03.318.068.634.094.954.052.66.087,1.328.122,1.995.018.334.045.664.058,1,.028.7.035,1.414.042,2.125,0,.3.017.6.016.907q0,1.524-.064,3.068c-.051,1.247-.144,2.482-.255,3.709-.027.3-.059.589-.089.883q-.163,1.585-.387,3.145c-.023.16-.043.32-.067.479a74.294,74.294,0,0,1-1.55,7.565v0h0c-3.175,12.234-9.3,22.862-17.239,30.5-.1.095-.2.191-.295.285q-1.456,1.381-2.991,2.626c-.069.056-.139.11-.209.166-7.444,5.969-16.162,9.46-25.376,9.483a37.455,37.455,0,0,1-24.741-9.478h0C3145.234-828.907,3139.712-837.619,3136.513-847.917Z" transform="translate(-3090.585 948.79)" fill="#fff"/>
          <g id="Group_1191" data-name="Group 1191" transform="translate(48.112 29.816)">
            <path id="Path_1292" data-name="Path 1292" d="M3150.91-774.867a62.048,62.048,0,0,1,3.871-19.26l18.284,11.456a28.925,28.925,0,0,0-1.405,7.762c-.016.391,0,.772,0,1.158l-20.766,3.38C3150.848-771.853,3150.848-773.35,3150.91-774.867Z" transform="translate(-3150.861 823.696)" fill="#071223"/>
            <path id="Path_1293" data-name="Path 1293" d="M3216.468-860.5a19.511,19.511,0,0,0-5.18,4.2L3198.414-876.1a39.733,39.733,0,0,1,15.509-10.694Z" transform="translate(-3184.018 888.312)" fill="#071223"/>
            <path id="Path_1294" data-name="Path 1294" d="M3183.982-688.052a20.553,20.553,0,0,0,3.419,4.943l-10.571,23.66a43.7,43.7,0,0,1-12.042-16.9Z" transform="translate(-3160.571 749.735)" fill="#071223"/>
            <path id="Path_1295" data-name="Path 1295" d="M3330.944-801.214l18.644-12.97a57.04,57.04,0,0,1,4.454,21.5l-20.842.6A25.956,25.956,0,0,0,3330.944-801.214Z" transform="translate(-3276.425 837.681)" fill="#071223"/>
            <path id="Path_1296" data-name="Path 1296" d="M3298.528-863.217a14.873,14.873,0,0,0-4.979-2.285l3.05-26.3a32.979,32.979,0,0,1,17.482,9.352Z" transform="translate(-3250.351 891.798)" fill="#071223"/>
            <path id="Path_1297" data-name="Path 1297" d="M3260.5-657.831a14.238,14.238,0,0,0,1.979.142,14.887,14.887,0,0,0,5.5-1.084l10.22,22.662a33.049,33.049,0,0,1-16.8,4.773,30.617,30.617,0,0,1-4.773-.378Z" transform="translate(-3224.602 729.32)" fill="#071223"/>
            <path id="Path_1298" data-name="Path 1298" d="M3325.29-698.474l20.615,4.611a55.961,55.961,0,0,1-10.058,19.823l-13.231-19.522A25.692,25.692,0,0,0,3325.29-698.474Z" transform="translate(-3270.618 757.002)" fill="#071223"/>
          </g>
        </g>
        <path id="Path_1299" data-name="Path 1299" d="M4022.768-1004.209c.762-32.813,13.053-59.466,27.453-59.532h33.191l-2.76,118.826h-33.191C4033.061-944.849,4022.006-971.4,4022.768-1004.209Z" transform="translate(-3373.212 1250.938)" fill="#071223"/>
        <path id="Path_1300" data-name="Path 1300" d="M4132.4-1004.209c-.762,32.813,10.293,59.36,24.692,59.294s26.691-26.719,27.454-59.532-10.293-59.359-24.693-59.293S4133.162-1037.022,4132.4-1004.209Z" transform="translate(-3449.654 1250.938)" fill="#878787"/>
        <path id="Path_1301" data-name="Path 1301" d="M4148.633-960.6v0q-.383-2.2-.669-4.515v0q-.286-2.313-.469-4.722h0c-.266-3.5-.37-7.136-.284-10.877a104.229,104.229,0,0,1,2.826-22.154c.014-.061.03-.121.045-.182q.546-2.212,1.182-4.29c.026-.086.052-.172.078-.258q.636-2.056,1.354-3.966c.025-.068.05-.137.076-.2,4.217-11.105,10.415-18.22,17.178-18.251,5.79-.027,10.922,5.152,14.6,13.588h0q.365.838.712,1.718h0q.344.876.668,1.792s0,.009.006.014q.32.9.619,1.844c0,.017.011.033.016.05q.293.922.566,1.878c.009.031.017.062.026.093q.264.931.509,1.894l.04.153q.235.932.45,1.892c.017.074.035.148.052.222q.207.93.395,1.886l.059.29c.12.613.231,1.235.34,1.863.021.126.044.25.065.376.1.6.194,1.213.284,1.827.023.156.048.31.07.467.083.589.159,1.186.232,1.786.022.187.048.371.07.559.067.575.126,1.156.184,1.74.021.218.045.433.065.652.052.562.1,1.132.139,1.7.019.244.041.486.057.732.038.553.067,1.113.1,1.673.013.267.032.531.044.8.025.553.041,1.112.057,1.671.008.28.021.556.027.837.013.589.016,1.185.021,1.78,0,.254.007.505.007.76q0,1.277-.03,2.571c-.024,1.045-.068,2.079-.12,3.108-.013.248-.028.493-.042.74q-.077,1.328-.182,2.635c-.011.134-.021.268-.031.4q-.275,3.242-.728,6.339h0c-1.49,10.251-4.365,19.157-8.088,25.558-.046.079-.092.16-.139.238q-.683,1.158-1.4,2.2c-.032.047-.065.092-.1.139-3.493,5-7.584,7.927-11.907,7.947-4.353.02-8.334-2.908-11.608-7.942h0C4152.725-944.675,4150.134-951.975,4148.633-960.6Z" transform="translate(-3459.984 1227.433)" fill="#fff"/>
        <path id="Path_1302" data-name="Path 1302" d="M1933.672-974.906c1.624-39.16,27.82-70.968,58.509-71.047h33.27c30.689-.078,54.25,31.6,52.626,70.763s-27.82,70.968-58.509,71.047H1986.3C1955.609-904.065,1932.047-935.746,1933.672-974.906Z" transform="translate(-1916.548 1238.535)" fill="#071223"/>
        <g id="Group_1196" data-name="Group 1196">
          <path id="Path_1303" data-name="Path 1303" d="M2516.223-1662.867s14.869,4.336,16.727,8.673,3.1,7.434,3.1,7.434l44.606,65.05s16.107-1.239,21.063,12.391,3.1,32.215,3.1,32.215,11.771,29.118,12.39,50.8a231.789,231.789,0,0,1-1.859,37.791s3.1-39.65-6.2-52.04-28.5-3.1-35.933,19.205-16.108,63.811-16.108,63.811l-196.39,40.269s9.913-52.04-3.1-81.777-73.723-27.879-84.875,26.02-7.434,63.811-7.434,63.811-41.508,8.673-167.891,6.815-195.77-16.727-214.356-21.683c0,0-4.336-22.923-5.575-36.552s3.717-22.922,3.717-22.922,1.239-24.781,4.337-33.454,12.39-21.683,12.39-21.683,9.293-21.683,24.781-35.313,40.889-27.259,47.084-30.357,14.249-4.956,26.02-13.01,84.875-58.855,107.8-72.485,72.485-20.444,82.4-22.3,123.9-9.913,163.554-9.913S2471-1680.214,2516.223-1662.867Z" transform="translate(-1877.294 1682.073)" fill="#213b6e"/>
          <path id="Path_1304" data-name="Path 1304" d="M2360.722-1095.352s9.913-52.04-3.1-81.777-73.723-27.879-84.875,26.02-7.435,63.811-7.435,63.811-41.508,8.673-167.891,6.815-195.77-16.727-214.356-21.684c0,0-4.336-22.922-5.575-36.552s3.717-22.923,3.717-22.923.4-7.929,1.3-16.387c77.518,22.873,216.223,24.416,254.905,21,44.436-3.921,123.277-14.67,126.772-27.446s33.981-41.822,54.892-49.664c17.924-6.721,225.957-35.526,285.027-43.618a100.329,100.329,0,0,1,.708,22.563s11.771,29.118,12.39,50.8a231.792,231.792,0,0,1-1.859,37.791s3.1-39.65-6.2-52.04-28.5-3.1-35.933,19.205-16.108,63.811-16.108,63.811" transform="translate(-1877.294 1400.159)" opacity="0.15"/>
          <g id="Group_1193" data-name="Group 1193" transform="translate(454.26 17.563)">
            <path id="Path_1305" data-name="Path 1305" d="M3426.763-1602.463c24.921-17.878,46.525-20.6,56.527-21.41,9.615,17.252,25.31,49.892,28.49,83.739-52.707,8.22-111.656,17.59-111.656,17.59s-13.629,4.956-18.586,0a12.726,12.726,0,0,1-3.717-4.956C3376.582-1530.6,3398.264-1582.019,3426.763-1602.463Z" transform="translate(-3377.77 1623.93)" fill="#fff" stroke="#fff" stroke-miterlimit="10" stroke-width="1"/>
            <path id="Path_1306" data-name="Path 1306" d="M3782.375-1624.06c12.112.7,29.148,2.489,42.352,5.359,14.249,3.1,19.205,3.717,21.683,6.2s26.639,32.835,35.313,54.518c0,0-1.239,5.576-6.815,5.576-2.027,0-28.049,3.931-60.343,8.933C3809.164-1562.7,3798.3-1596.574,3782.375-1624.06Z" transform="translate(-3659.883 1624.06)" fill="#fff" stroke="#fff" stroke-miterlimit="10" stroke-width="1"/>
            <path id="Path_1307" data-name="Path 1307" d="M3968.9-1533.632s-10.445-40.685-31.888-64.875" transform="translate(-3767.702 1606.243)" fill="none"/>
          </g>
          <path id="Path_1308" data-name="Path 1308" d="M3812.517-1258.064l17.622-3.182s4.313,1.371,3.007,5.686-3.639,3.843-3.639,3.843l-14.673,2.363a3.9,3.9,0,0,1-4.239-3.1C3809.848-1255.939,3808.858-1256.389,3812.517-1258.064Z" transform="translate(-3224.803 1388.649)" fill="none"/>
          <path id="Path_1309" data-name="Path 1309" d="M4108.263-1307.4l13.455-2.584a3.663,3.663,0,0,1,2.3,4.618c-1,3.5-2.78,3.121-2.78,3.121l-11.2,1.919a2.976,2.976,0,0,1-3.237-2.521C4106.225-1305.677,4105.469-1306.042,4108.263-1307.4Z" transform="translate(-3431.448 1422.634)" fill="none"/>
          <path id="Path_1310" data-name="Path 1310" d="M3756.838-1630.378s25.124,46.721,29.531,85.509" transform="translate(-3187.817 1646.028)" fill="none"/>
          <path id="Path_1311" data-name="Path 1311" d="M3461.291-1464.406s8.815,25.565,11.459,39.228" transform="translate(-2981.745 1530.303)" fill="none"/>
          <path id="Path_1312" data-name="Path 1312" d="M3694.817-900.973s-3.085,8.815-9.7,11.019-167.05,33.057-167.05,33.057" transform="translate(-3021.335 1137.447)" fill="none"/>
          <path id="Path_1313" data-name="Path 1313" d="M2178.563-837.141s-122.861,1.691-168.511-12.4c0,0,4.509,30.434,12.963,36.633s69.9,12.531,99.755,13.526c33.815,1.127,52.977-2.254,52.977-2.254Z" transform="translate(-1969.86 1101.585)" fill="#ff6e00"/>
          <path id="Path_1314" data-name="Path 1314" d="M2230.4-1081.9l-12.4,25.361s-69.321,1.691-77.211,2.255-16.344,4.508-25.361,0-47.905-9.581-52.414-9.581-10.144,3.945-10.144,3.945,10.144-25.362,14.09-27.616,7.89-1.691,9.581-1.691S2160.513-1095.426,2230.4-1081.9Z" transform="translate(-1999.714 1269.696)" fill="#ff6e00"/>
          <path id="Path_1315" data-name="Path 1315" d="M2878.322-1234.032s29.474-4.535,40.81-.567,5.668,19.272-13.6,33.442-35.142,27.774-54.98,30.041-53.847,9.636-55.547,3.4,4.534-28.907,27.207-45.345S2878.322-1234.032,2878.322-1234.032Z" transform="translate(-2516.987 1371.204)" fill="#fff"/>
          <path id="Path_1316" data-name="Path 1316" d="M2288.252-1537.429l5.658,1.71s10.514.317,27.341.781c14.421.422,33.464.95,54.514,1.5,29.052.781,61.9,1.583,91.567,2.217,45.351.95,83.312,1.436,89.013.591a58.462,58.462,0,0,0,30.93-13.892,73.637,73.637,0,0,0,16.109-20.67c13.618-24.955,48.18-55.548,48.18-55.548-54.408-6.249-184.211-3.969-198.948-3.4a98.877,98.877,0,0,0-13.618,1.647c-15.729,2.787-36.251,8.973-48.159,17.059-2.111,1.436-5.511,3.695-9.775,6.545-9.966,6.65-24.744,16.447-39.587,26.285-8.952,5.912-17.925,11.845-25.885,17.123C2299.969-1545.177,2288.252-1537.429,2288.252-1537.429Z" transform="translate(-2163.837 1642.29)" fill="#fff" stroke="#fff" stroke-miterlimit="10" stroke-width="1"/>
          <g id="Group_1194" data-name="Group 1194" transform="translate(151.756 19.796)">
            <path id="Path_1317" data-name="Path 1317" d="M2604.6-1599.624c-2.111,1.436-5.511,3.695-9.775,6.545l86.268,67.667c45.351.95,83.312,1.436,89.012.591a58.463,58.463,0,0,0,30.931-13.892l-148.276-77.97C2637.029-1613.9,2616.507-1607.71,2604.6-1599.624Z" transform="translate(-2529.352 1616.683)" fill="#e0dada"/>
            <path id="Path_1318" data-name="Path 1318" d="M2378.563-1434.768l5.658,20.543c14.42.422,33.465.95,54.514,1.5l-34.287-39.165C2395.5-1445.979,2386.523-1440.046,2378.563-1434.768Z" transform="translate(-2378.563 1501.781)" fill="#e0dada"/>
          </g>
          <path id="Path_1319" data-name="Path 1319" d="M2855.52-799.566c0,6.574,6.344,11.9,14.17,11.9s14.17-5.329,14.17-11.9-6.344-11.9-14.17-11.9S2855.52-806.14,2855.52-799.566Z" transform="translate(-2559.368 1075.039)" fill="#fff"/>
          <path id="Path_1320" data-name="Path 1320" d="M1885.336-862.974c1.2,5.666,5.024,9.656,8.547,8.911s5.406-5.942,4.208-11.608-5.024-9.655-8.547-8.911S1884.138-868.64,1885.336-862.974Z" transform="translate(-1882.65 1119.107)" fill="#fff"/>
          <g id="Group_1195" data-name="Group 1195" transform="translate(449.139 90.521)">
            <path id="Path_1321" data-name="Path 1321" d="M3386.269-1360.838s11.771-19.825,19.206-21.064,39.03-2.478,45.844,1.859,4.956,18.586,2.478,22.3-12.39,5.575-21.064,4.956-37.791,1.859-37.791,1.859-17.347,12.391-23.542,11.152-14.249-14.869-8.673-22.3S3376.976-1367.653,3386.269-1360.838Z" transform="translate(-3360.853 1383.07)" fill="#ff6e00"/>
            <line id="Line_2" data-name="Line 2" x1="20.444" y2="4.337" transform="translate(4.971 22.232)" fill="none"/>
          </g>
          <path id="Path_1322" data-name="Path 1322" d="M1992.315-1245.828s12.47,4.535,9.069,9.069-22.106,16.438-30.608,31.174-10.2,22.105-14.17,22.105-12.55-7.343-11.376-11.04S1952.638-1231.658,1992.315-1245.828Z" transform="translate(-1924.586 1377.898)" fill="#fff"/>
        </g>
        <g id="Group_1197" data-name="Group 1197" transform="translate(691.373 202.098)">
          <path id="Path_1323" data-name="Path 1323" d="M4161-910.251a102.5,102.5,0,0,1,1.775-17.174l8.38,10.215a48.054,48.054,0,0,0-.643,6.922c-.008.349,0,.688,0,1.032L4161-906.241C4160.975-907.562,4160.974-908.9,4161-910.251Z" transform="translate(-4160.98 953.793)" fill="#071223"/>
          <path id="Path_1324" data-name="Path 1324" d="M4191.053-986.607a13.926,13.926,0,0,0-2.374,3.745l-5.9-17.663c2.05-4.361,4.472-7.657,7.109-9.536Z" transform="translate(-4176.178 1011.411)" fill="#071223"/>
          <path id="Path_1325" data-name="Path 1325" d="M4176.162-832.836a23.6,23.6,0,0,0,1.567,4.408l-4.846,21.1a48.8,48.8,0,0,1-5.519-15.069Z" transform="translate(-4165.432 887.84)" fill="#071223"/>
          <path id="Path_1326" data-name="Path 1326" d="M4243.524-933.744l8.545-11.565a93.7,93.7,0,0,1,2.042,19.169l-9.553.531A41.887,41.887,0,0,0,4243.524-933.744Z" transform="translate(-4218.535 966.262)" fill="#071223"/>
          <path id="Path_1327" data-name="Path 1327" d="M4228.667-989.034a6.348,6.348,0,0,0-2.282-2.038l1.4-23.448c3.023,1.042,5.759,3.985,8.014,8.34Z" transform="translate(-4206.584 1014.52)" fill="#071223"/>
          <path id="Path_1328" data-name="Path 1328" d="M4211.236-805.888a3.422,3.422,0,0,0,.907.127,4.135,4.135,0,0,0,2.52-.967l4.685,20.208c-2.364,2.716-4.977,4.245-7.7,4.256a7.419,7.419,0,0,1-2.187-.337Z" transform="translate(-4194.782 869.636)" fill="#071223"/>
          <path id="Path_1329" data-name="Path 1329" d="M4240.932-842.129l9.45,4.112a75.261,75.261,0,0,1-4.61,17.677l-6.064-17.408A33.628,33.628,0,0,0,4240.932-842.129Z" transform="translate(-4215.873 894.319)" fill="#071223"/>
        </g>
      </g>
    </g>
    <g id="Group_1200" data-name="Group 1200" transform="translate(2392.456 -1424.159)" opacity="0.05">
      <path id="Path_1330" data-name="Path 1330" d="M3583.536-804.3q8.554-1.7,17.1-3.447t17.076-3.548q8.533-1.8,17.054-3.65T3651.8-818.7q8.51-1.9,17.01-3.853l2.114-.486a3.664,3.664,0,0,0,2.538-4.469,3.713,3.713,0,0,0-4.469-2.537q-8.5,1.958-17.007,3.866t-17.03,3.764q-8.521,1.857-17.052,3.663t-17.073,3.561q-8.542,1.755-17.094,3.459l-2.128.423a3.671,3.671,0,0,0-2.171,1.67,3.709,3.709,0,0,0-.367,2.8,3.676,3.676,0,0,0,1.67,2.171,4.027,4.027,0,0,0,2.8.366Z" transform="translate(-3578.934 830.151)" fill="#fff"/>
    </g>
    <g id="Group_1201" data-name="Group 1201" transform="translate(2498.766 -1434.674)" opacity="0.05">
      <path id="Path_1331" data-name="Path 1331" d="M3933.723-851.968a159.245,159.245,0,0,0,25.091-3.976q3.395-.824,6.75-1.8a3.784,3.784,0,0,0,2.171-1.669,3.712,3.712,0,0,0,.366-2.8,3.676,3.676,0,0,0-1.67-2.171,3.742,3.742,0,0,0-2.8-.366,153.133,153.133,0,0,1-17.442,4q-2.511.423-5.038.761l.966-.13q-4.185.559-8.4.89a3.879,3.879,0,0,0-2.568,1.064,3.69,3.69,0,0,0-1.064,2.569,3.671,3.671,0,0,0,1.064,2.569,3.578,3.578,0,0,0,2.568,1.064Z" transform="translate(-3930.088 864.884)" fill="#fff"/>
    </g>
    <g id="Group_1202" data-name="Group 1202" transform="translate(2224.968 -1406.161)" opacity="0.05">
      <path id="Path_1332" data-name="Path 1332" d="M3029.791-737.506a50.989,50.989,0,0,0,13.651-.885,46.562,46.562,0,0,0,6.093-1.63q.73-.249,1.451-.523a9.261,9.261,0,0,0,2.14-.991,5.855,5.855,0,0,0,2.393-3.177,10.439,10.439,0,0,0,.278-2.354c.1-2.035.355-4.069.625-6.088l-.146,1.087c.654-4.853,1.482-9.678,2.022-14.547a4.081,4.081,0,0,0-1.2-2.89,4.152,4.152,0,0,0-2.89-1.2,4.13,4.13,0,0,0-2.89,1.2l-.639.827a4.068,4.068,0,0,0-.558,2.063q-.2,1.84-.451,3.674l.146-1.086c-.636,4.723-1.481,9.42-1.963,14.163q-.092.907-.163,1.814c-.05.637-.045,1.286-.127,1.918l.146-1.086a2.631,2.631,0,0,1-.112.439l.412-.976a2.029,2.029,0,0,1-.16.3l.639-.827a2.107,2.107,0,0,1-.316.329l.827-.639a3.513,3.513,0,0,1-.707.4l.976-.412a43.479,43.479,0,0,1-10.769,2.791l1.086-.146a47.181,47.181,0,0,1-9.8.281,4.116,4.116,0,0,0-2.89,1.2,4.153,4.153,0,0,0-1.2,2.89,4.131,4.131,0,0,0,1.2,2.89l.827.639a4.072,4.072,0,0,0,2.063.558Z" transform="translate(-3025.701 770.704)" fill="#fff"/>
    </g>
    <g id="Group_1210" data-name="Group 1210" transform="translate(1919.889 -1592.757)" opacity="0.05">
      <g id="Group_1203" data-name="Group 1203" transform="translate(558.66 16.748)">
        <path id="Path_1333" data-name="Path 1333" d="M3875.156-1199.175a3.015,3.015,0,0,1-.457-.035,3.026,3.026,0,0,1-2.54-3.446c2.169-14.315,3.523-92.857,3.057-99.84-.286-4.289-7.2-17.406-11.486-24.666a3.028,3.028,0,0,1,1.066-4.146,3.027,3.027,0,0,1,4.146,1.066c1.21,2.049,11.84,20.22,12.315,27.344.471,7.066-.912,86.625-3.113,101.149A3.028,3.028,0,0,1,3875.156-1199.175Z" transform="translate(-3863.309 1331.73)" fill="#fff"/>
      </g>
      <g id="Group_1204" data-name="Group 1204" transform="translate(437.45 44.516)">
        <path id="Path_1334" data-name="Path 1334" d="M3476.983-1107.895a3.028,3.028,0,0,1-3.027-3c0-.454-.446-45.663-.881-69.615-.429-23.551-9.914-55.282-10.01-55.6a3.027,3.027,0,0,1,2.025-3.772,3.027,3.027,0,0,1,3.772,2.025c.1.333,2.484,8.276,4.959,19.33,3.334,14.9,5.12,27.649,5.306,37.906.436,23.977.877,69.213.883,69.667a3.028,3.028,0,0,1-3,3.057Z" transform="translate(-3462.936 1240.009)" fill="#fff"/>
      </g>
      <g id="Group_1205" data-name="Group 1205" transform="translate(631.827 0)">
        <path id="Path_1335" data-name="Path 1335" d="M4130.056-1296.811l-.129,0a3.027,3.027,0,0,1-2.9-3.151c.844-20.261,1.741-53.952.554-58.105-.634-2.219-7.758-11.045-21.611-23.721a3.028,3.028,0,0,1-.19-4.277,3.027,3.027,0,0,1,4.278-.19c.052.048,5.3,4.858,10.7,10.362,10.162,10.369,12.086,14.19,12.65,16.163,1.806,6.32.044,51.106-.327,60.02A3.028,3.028,0,0,1,4130.056-1296.811Z" transform="translate(-4104.988 1387.052)" fill="#fff"/>
      </g>
      <g id="Group_1206" data-name="Group 1206" transform="translate(191.015 78.495)">
        <path id="Path_1336" data-name="Path 1336" d="M2651.96-1110.608a3.013,3.013,0,0,1-1.9-.672,3.027,3.027,0,0,1-.453-4.257c3.117-3.859,6.533-7.674,10.153-11.338a3.028,3.028,0,0,1,4.281-.026,3.027,3.027,0,0,1,.026,4.281c-3.479,3.521-6.759,7.184-9.75,10.886A3.022,3.022,0,0,1,2651.96-1110.608Z" transform="translate(-2648.934 1127.774)" fill="#fff"/>
      </g>
      <g id="Group_1207" data-name="Group 1207" transform="translate(206.922 28.39)">
        <path id="Path_1337" data-name="Path 1337" d="M2704.5-1242.845a3.02,3.02,0,0,1-2.235-.984,3.028,3.028,0,0,1,.19-4.277c18.212-16.659,38.643-28.011,52.576-34.6a198.8,198.8,0,0,1,26.23-10.446,3.027,3.027,0,0,1,3.759,2.05,3.027,3.027,0,0,1-2.05,3.759,197.14,197.14,0,0,0-25.467,10.166c-13.524,6.4-33.343,17.422-50.961,33.538A3.017,3.017,0,0,1,2704.5-1242.845Z" transform="translate(-2701.476 1293.276)" fill="#fff"/>
      </g>
      <g id="Group_1208" data-name="Group 1208" transform="translate(0 88.605)">
        <path id="Path_1338" data-name="Path 1338" d="M2021.021-1061.248a3.035,3.035,0,0,1-.613-.063,3.027,3.027,0,0,1-2.356-3.575,104.278,104.278,0,0,1,10.054-27.883,3.027,3.027,0,0,1,4.094-1.255,3.027,3.027,0,0,1,1.255,4.093,98.233,98.233,0,0,0-9.472,26.264A3.029,3.029,0,0,1,2021.021-1061.248Z" transform="translate(-2017.989 1094.378)" fill="#fff"/>
      </g>
      <g id="Group_1209" data-name="Group 1209" transform="translate(14.593 30.658)">
        <path id="Path_1339" data-name="Path 1339" d="M2069.218-1229.976a3.017,3.017,0,0,1-1.648-.49,3.027,3.027,0,0,1-.886-4.189c12.06-18.539,28.313-31.386,39.825-38.9a133.57,133.57,0,0,1,22.411-12.028,3.028,3.028,0,0,1,3.917,1.73,3.027,3.027,0,0,1-1.728,3.916h0a130.512,130.512,0,0,0-21.427,11.542c-10.981,7.183-26.473,19.44-37.923,37.042A3.026,3.026,0,0,1,2069.218-1229.976Z" transform="translate(-2066.193 1285.786)" fill="#fff"/>
      </g>
    </g>
  </g>
</svg>
