<svg id="Layer_1" data-name="Layer 1" xmlns="http://www.w3.org/2000/svg" viewBox="0 0 33.56 31.46"><title>Untitled-1 [Recovered]</title><g id="Zl2vCx.tif"><path d="M18.92,11.49a9.53,9.53,0,0,1,2.59-1.91,8.57,8.57,0,0,1,7.57,0,8.22,8.22,0,0,1,4.26,6,16.78,16.78,0,0,1,.21,3.09q0,6.12,0,12.25c0,.4-.12.47-.49.46-1.8,0-3.61,0-5.41,0-.3,0-.38-.08-.38-.37,0-4,0-8,0-12.06a7.29,7.29,0,0,0-.73-3.67,3.07,3.07,0,0,0-2.43-1.61,4.49,4.49,0,0,0-4,1.5A4.86,4.86,0,0,0,19,17.74a7.34,7.34,0,0,0-.07,1.48q0,5.91,0,11.82c0,.33-.07.43-.41.42-1.86,0-3.72,0-5.57,0-.29,0-.36-.07-.36-.36q0-10.83,0-21.66c0-.3.06-.4.37-.39h5.61c.3,0,.37.09.36.36C18.91,10.07,18.92,10.73,18.92,11.49Z"/><path d="M6.78,20.24c0,3.6,0,7.2,0,10.79,0,.36-.11.44-.44.43q-2.74,0-5.49,0c-.27,0-.35-.06-.35-.33q0-10.87,0-21.74c0-.27.08-.34.35-.34H6.39c.31,0,.4.07.4.39Q6.78,14.84,6.78,20.24Z"/><path d="M0,3.66A3.62,3.62,0,0,1,3.79,0a3.69,3.69,0,1,1-.32,7.37A3.62,3.62,0,0,1,0,3.66Z"/></g></svg>