<svg id="Layer_1" data-name="Layer 1" xmlns="http://www.w3.org/2000/svg" viewBox="0 0 237.81 46.89"><defs><style>.cls-1{fill:#fe4000;}.cls-2{fill:#fe3600;}.cls-3{fill:#fe6500;}.cls-4{fill:#fe3a01;}.cls-5{fill:#fe6501;}.cls-6{fill:#fe4801;}.cls-7{fill:#fe5301;}.cls-8{fill:#fe5e01;}.cls-9{fill:#fe4e01;}.cls-10{fill:#fe6704;}.cls-11{fill:#fe5701;}.cls-12{fill:#fe3c01;}.cls-13{fill:#fefdfd;}</style></defs><title>Untitled-1 [Recovered]</title><path class="cls-1" d="M204.51,45.71c-1.92,0-3.84.24-5.73-.24a9.73,9.73,0,0,1-7.32-8.86c-.07-1.32,0-2.65,0-4,0-7.17,0-14.35,0-21.53a9.8,9.8,0,0,1,7.28-9.61c.33-.09.72,0,1-.32h7.81V13.8a1.89,1.89,0,0,0,.21,1c-1.34,2-2.71,3.87-4,5.84a12.79,12.79,0,0,0-2,10.33,13.14,13.14,0,0,0,2.88,5.41,1.51,1.51,0,0,0-.13.86Z"/><path class="cls-2" d="M227.68,1.18a6.89,6.89,0,0,0,1.48.4,9.8,9.8,0,0,1,7,9.27q0,12.65,0,25.28a9.83,9.83,0,0,1-8.49,9.58l-.28,0-7.54,0q0-3.52,0-7.05l1.89-1.32c.55.34.38-.14.43-.37.05-.07.1-.15.16-.22a12,12,0,0,0,3.38-11,11.83,11.83,0,0,0-3.14-6.1,8.09,8.09,0,0,0,.15-1.07c0-3.16,0-6.32,0-9.48a1.31,1.31,0,0,0-.3-1l1-1.56-.72-.07V1.18Z"/><path class="cls-3" d="M1.14,9.38c2.4,0,4.8,0,7.2,0,.51,0,.63.14.63.64,0,6.4,0,12.8,0,19.19,0,.64.13.84.81.83,4.18,0,8.36,0,12.54,0,.5,0,.66.1.65.63,0,2.12,0,4.24,0,6.35,0,.66-.22.72-.77.72h-21Z"/><path class="cls-4" d="M222.74,1.18V6.5c-2.85,0-5.71,0-8.56,0a.94.94,0,0,0-.87.48L211,10.24l-3.27,4.61a1.89,1.89,0,0,1-.21-1V1.18Z"/><path class="cls-5" d="M40.93,23.5c0-4.49,0-9,0-13.46,0-.53.12-.69.67-.69,5,0,9.92.09,14.88,0,5.39-.09,8.44,3.59,9.26,8.11a11.29,11.29,0,0,1-.44,5.59c-1.28,3.87-3.94,6.42-9.09,6.4-2.36,0-4.71,0-7.06,0-.51,0-.66.11-.66.64,0,2.3,0,4.6,0,6.9,0,.59-.17.7-.72.69q-3.09,0-6.17,0c-.59,0-.71-.17-.7-.73C40.94,32.48,40.93,28,40.93,23.5Zm11.38-1.57v0h3.36a4.39,4.39,0,0,0,.61-.07,2.08,2.08,0,0,0,1.56-1A2.44,2.44,0,0,0,55.9,17c-2.32-.18-4.65,0-7-.07-.4,0-.44.2-.44.51,0,1.32,0,2.64,0,4,0,.42.13.55.55.54C50.12,21.91,51.22,21.93,52.31,21.93Z"/><path class="cls-5" d="M94.11,18.61c0,2.8.08,5.6,0,8.4a10.55,10.55,0,0,1-5.77,9.22,12.45,12.45,0,0,1-5.47,1.38,14.19,14.19,0,0,1-8.17-1.43,10.51,10.51,0,0,1-5.54-8.73c-.09-1-.11-2-.11-3,0-4.83,0-9.66,0-14.49,0-.47.11-.61.6-.61,1.92,0,3.84,0,5.76,0,.53,0,.63.16.63.66,0,5,0,10.06,0,15.1a8.47,8.47,0,0,0,.21,2.24,4.9,4.9,0,0,0,4.52,3.56c3,.3,5.42-1.19,6-3.75a8.72,8.72,0,0,0,.17-2.1c0-5,0-10,0-15,0-.61.16-.75.75-.74,2,0,3.93,0,5.9,0,.45,0,.57.13.56.57,0,2.89,0,5.78,0,8.68Z"/><path class="cls-6" d="M165.47,13.9c1.34,1.51,2.58,3.1,3.85,4.67,1.65,2,3.37,4,5.16,6.09,0-.37,0-.61,0-.84,0-4.58,0-9.15,0-13.73,0-.61.16-.75.75-.74,2.11,0,4.21,0,6.31,0,.49,0,.59.14.59.61q0,13.56,0,27.11c0,.46-.09.62-.59.61-2,0-3.92,0-5.89,0a.86.86,0,0,1-.77-.31L165.33,25.8a.67.67,0,0,1-.06-.12,3.8,3.8,0,0,0,.16-1.21q0-2.38,0-4.77C165.43,17.76,165.45,15.83,165.47,13.9Z"/><path class="cls-7" d="M135.12,9.39c1.69,0,3.38,0,5.07,0,.5,0,.53.35.66.64l5.45,12.72q3.06,7.14,6.11,14.29a1.33,1.33,0,0,1,.21.67c-2.56,0-5.11,0-7.67,0-.35,0-.4-.24-.49-.46-.61-1.47-1.24-2.93-1.81-4.41a.86.86,0,0,0-1-.62c-2.19,0-4.38,0-6.57,0V24.69h4.12c-.87-2.11-1.69-4.12-2.56-6.22l-1.41,3.24a1.66,1.66,0,0,1-.15-.93Z"/><path class="cls-8" d="M113.73,37.65c-2,0-4.07,0-6.1,0-.4,0-.44-.17-.44-.49,0-1.42,0-2.83,0-4.24,0-5.1,0-10.2,0-15.3,0-.65-.19-.78-.79-.77-2.7,0-5.39,0-8.09,0-.48,0-.67-.07-.66-.61,0-2.12,0-4.24,0-6.36,0-.29-.08-.57.41-.57,5.21,0,10.42,0,15.63,0Z"/><path class="cls-9" d="M165.47,13.9c0,1.93,0,3.86,0,5.8q0,2.39,0,4.77a3.8,3.8,0,0,1-.16,1.21c-.92-1.09-1.85-2.17-2.89-3.39v.85c0,4.63,0,9.25,0,13.87,0,.54-.14.68-.68.67-2.12,0-4.24,0-6.37,0-.47,0-.61-.11-.61-.6q0-13.56,0-27.12c0-.48.13-.61.61-.61,2,0,3.93,0,5.89,0a.8.8,0,0,1,.73.26C163.12,11.06,164.3,12.48,165.47,13.9Z"/><path class="cls-10" d="M27.1,23.45c0-4.46,0-8.92,0-13.39,0-.58.16-.72.72-.71,2.1,0,4.21,0,6.31,0,.44,0,.59.1.58.56q0,13.59,0,27.2c0,.45-.13.57-.58.56-2.14,0-4.29,0-6.44,0-.51,0-.59-.18-.59-.63C27.11,32.52,27.1,28,27.1,23.45Z"/><path class="cls-11" d="M135.12,24.69v7.49c-1.21,0-2.42,0-3.63,0a.63.63,0,0,0-.71.47c-.6,1.52-1.23,3-1.86,4.54-.09.22-.13.47-.48.47-2.56,0-5.11,0-7.75,0,.34-.81.66-1.56,1-2.31Q127,22.7,132.36,10a.89.89,0,0,1,1-.67c.56.05,1.14,0,1.71,0V20.78a1.66,1.66,0,0,0,.15.93c-.25.65-.5,1.3-.76,1.94C134.12,24.62,134.11,24.62,135.12,24.69Z"/><path class="cls-11" d="M113.73,37.65V9.39c3.51,0,7,0,10.54,0,.33,0,.43.1.43.43q0,3.35,0,6.69c0,.48-.27.42-.57.42h-8.69c-.23,0-.58-.19-.64.27-.43.13-.24.49-.24.75q0,9.87,0,19.73Z"/><path class="cls-12" d="M219.87,38.66q0,3.53,0,7.05H204.51V37.29a1.51,1.51,0,0,1,.13-.86,7.7,7.7,0,0,0,.54.6,12.56,12.56,0,0,0,14.69,1.63Z"/><path class="cls-8" d="M114.55,37.65q0-9.87,0-19.73c0-.26-.19-.62.24-.75q0,4.68,0,9.36,0,5.26,0,10.52C114.81,37.24,115.08,37.65,114.55,37.65Z"/><path class="cls-13" d="M219.87,38.66A12.56,12.56,0,0,1,205.18,37a7.7,7.7,0,0,1-.54-.6A13.14,13.14,0,0,1,201.76,31a12.79,12.79,0,0,1,2-10.33c1.31-2,2.68-3.89,4-5.84L211,10.24,213.31,7a.94.94,0,0,1,.87-.48c2.85,0,5.71,0,8.56,0l.72.07-1,1.56q-2.66,3.72-5.32,7.42l-.71,1a11.87,11.87,0,0,1,6.18,3.13,11.83,11.83,0,0,1,3.14,6.1,12,12,0,0,1-3.38,11c-.06.07-.11.15-.16.22l-.43.37Zm-2.16-10.91a3.89,3.89,0,0,0-.83-2.44A4,4,0,0,0,212.35,24a4.2,4.2,0,0,0-2.74,4.14,4.3,4.3,0,0,0,2.91,4.12C215.23,33,217.77,31,217.71,27.75Z"/><path class="cls-4" d="M222.59,19.69a11.87,11.87,0,0,0-6.18-3.13l.71-1q2.65-3.71,5.32-7.42a1.31,1.31,0,0,1,.3,1c0,3.16,0,6.32,0,9.48A8.09,8.09,0,0,1,222.59,19.69Z"/><path class="cls-12" d="M221.76,37.34l.43-.37C222.14,37.2,222.31,37.68,221.76,37.34Z"/><path class="cls-12" d="M217.71,27.75c.06,3.2-2.48,5.29-5.19,4.46a4.3,4.3,0,0,1-2.91-4.12A4.2,4.2,0,0,1,212.35,24a4,4,0,0,1,4.53,1.36A3.89,3.89,0,0,1,217.71,27.75Z"/></svg>