<svg width="898" height="167" viewBox="0 0 898 167" fill="none" xmlns="http://www.w3.org/2000/svg">
<path d="M97.4101 40C96.4513 39.9984 95.5266 39.6438 94.8127 39.0037C94.0988 38.3636 93.6458 37.483 93.5401 36.53C92.6861 28.7618 88.9954 21.582 83.1753 16.3666C77.3552 11.1512 69.8151 8.26715 62.0001 8.26715C54.1851 8.26715 46.645 11.1512 40.8249 16.3666C35.0047 21.582 31.314 28.7618 30.4601 36.53C30.3544 37.483 29.9013 38.3636 29.1874 39.0037C28.4735 39.6438 27.5489 39.9984 26.5901 40V40C26.0422 39.9991 25.5006 39.8828 25.0006 39.6586C24.5007 39.4344 24.0536 39.1074 23.6884 38.6989C23.3233 38.2904 23.0484 37.8095 22.8815 37.2876C22.7147 36.7657 22.6597 36.2145 22.7201 35.67C23.7803 25.9916 28.3758 17.0453 35.6255 10.5463C42.8752 4.0474 52.2688 0.453369 62.0051 0.453369C71.7413 0.453369 81.1349 4.0474 88.3846 10.5463C95.6343 17.0453 100.23 25.9916 101.29 35.67C101.349 36.2151 101.293 36.7665 101.125 37.2884C100.956 37.8103 100.681 38.291 100.315 38.6993C99.9488 39.1076 99.5011 39.4345 99.0007 39.6585C98.5003 39.8826 97.9584 39.9989 97.4101 40Z" fill="white"/>
<path d="M123.56 83.4099V53.1199C123.56 46.6399 123.56 46.6399 116.56 44.3299C113.08 43.1766 109.587 42.1432 106.08 41.2299C105.751 43.381 104.624 45.3295 102.923 46.6874C101.223 48.0452 99.0732 48.7131 96.9026 48.5581C94.7319 48.403 92.6992 47.4364 91.2089 45.8506C89.7186 44.2648 88.88 42.176 88.8599 39.9999C88.8566 39.2331 88.9575 38.4695 89.1599 37.7299C74.2891 35.4813 59.1957 35.0984 44.2299 36.5899C40.8699 36.9099 37.5399 37.3299 34.2299 37.8299C34.5229 38.9652 34.5824 40.148 34.4046 41.3069C34.2269 42.4658 33.8157 43.5766 33.196 44.5718C32.5762 45.5671 31.7608 46.4261 30.7992 47.0969C29.8376 47.7677 28.7498 48.2362 27.6018 48.474C26.4537 48.7119 25.2693 48.7142 24.1204 48.4807C22.9714 48.2473 21.8818 47.7829 20.9176 47.1159C19.9534 46.4488 19.1348 45.5929 18.5112 44.6001C17.8876 43.6072 17.4721 42.4981 17.2899 41.3399C12.3557 42.6394 7.49242 44.1948 2.71992 45.9999C1.13992 46.5999 0.419922 47.3099 0.419922 48.9999C0.509922 70.4199 0.419926 93.7999 0.509926 115.22C0.529743 116.447 0.773755 117.66 1.22993 118.8C3.69342 124.687 7.19586 130.083 11.5699 134.73C24.9299 149.47 42.0899 157.91 60.8699 166.4C61.7687 166.669 62.7344 166.605 63.5899 166.22C76.8999 160.31 89.2399 155.08 100.29 146.22C109.4 138.91 117.29 130.71 122.04 120.51C122.926 118.661 123.419 116.649 123.49 114.6C123.63 104.22 123.56 93.8099 123.56 83.4099ZM109.83 120.07C109.588 120.067 109.347 120.044 109.11 120C105.64 126.13 100.47 131.86 93.1099 137.79C84.6999 144.54 75.3399 148.68 65.4399 153.07L63.6799 153.85C63.1237 154.088 62.5249 154.211 61.9199 154.21C61.5186 154.222 61.1195 154.147 60.7499 153.99C45.4399 147.07 31.8999 140.38 21.1699 128.54C17.6074 124.748 14.7585 120.344 12.7599 115.54C12.3524 114.522 12.1387 113.437 12.1299 112.34C12.1299 105.61 12.1299 99.5599 12.1299 93.6399C12.1299 86.1299 12.1299 78.9499 12.1299 70.9199C11.3216 70.695 10.6221 70.185 10.161 69.484C9.69989 68.7831 9.50833 67.9388 9.6218 67.1075C9.73528 66.2762 10.1461 65.5142 10.7782 64.9626C11.4103 64.4109 12.2209 64.1068 13.0599 64.1068C13.8989 64.1068 14.7095 64.4109 15.3416 64.9626C15.9737 65.5142 16.3846 66.2762 16.498 67.1075C16.6115 67.9388 16.42 68.7831 15.9588 69.484C15.4977 70.185 14.7982 70.695 13.9899 70.9199C13.9899 78.9199 13.9899 86.1199 13.9899 93.6399C13.9899 99.5499 13.9899 105.64 13.9899 112.34C14.0009 113.2 14.1704 114.051 14.4899 114.85C16.4088 119.44 19.1429 123.644 22.5599 127.26C33.0499 138.83 46.4099 145.43 61.5599 152.26C62.0331 152.359 62.5255 152.311 62.9699 152.12L64.7299 151.34C74.5299 147 83.7299 142.9 91.9999 136.34C99.1799 130.58 104.19 125.05 107.54 119.14C106.946 118.588 106.563 117.847 106.458 117.043C106.352 116.239 106.53 115.424 106.962 114.738C107.393 114.052 108.051 113.538 108.82 113.284C109.59 113.031 110.425 113.054 111.179 113.35C111.934 113.646 112.561 114.197 112.954 114.906C113.346 115.615 113.478 116.439 113.328 117.236C113.177 118.032 112.753 118.751 112.129 119.269C111.505 119.786 110.72 120.069 109.91 120.07H109.83ZM45.2199 116.86C50.0599 120.484 55.9505 122.429 61.9968 122.4C68.0431 122.371 73.9148 120.37 78.7199 116.7C83.7371 113.112 87.8968 108.457 90.8999 103.07C91.3521 102.256 92.1092 101.654 93.0047 101.398C93.9002 101.142 94.8607 101.253 95.6749 101.705C96.4891 102.157 97.0904 102.914 97.3464 103.81C97.6023 104.705 97.4921 105.666 97.0399 106.48C93.5245 112.809 88.6429 118.275 82.7499 122.48C76.7674 126.971 69.497 129.415 62.0164 129.449C54.5358 129.483 47.2433 127.106 41.2199 122.67C35.3994 118.598 30.5449 113.296 26.9999 107.14C26.7389 106.74 26.562 106.291 26.4801 105.82C26.3982 105.35 26.4129 104.867 26.5233 104.403C26.6338 103.938 26.8376 103.5 27.1226 103.117C27.4075 102.734 27.7674 102.412 28.1805 102.172C28.5936 101.932 29.0512 101.779 29.5255 101.722C29.9997 101.665 30.4806 101.704 30.939 101.839C31.3973 101.973 31.8235 102.2 32.1916 102.504C32.5597 102.809 32.8619 103.185 33.0799 103.61C36.1204 108.853 40.2624 113.373 45.2199 116.86V116.86ZM44.8399 71.8599C46.9544 69.7513 49.8187 68.5672 52.8049 68.5672C55.7911 68.5672 58.6554 69.7513 60.7699 71.8599L61.8299 72.9199L62.8899 71.8599C65.0024 69.7474 67.8675 68.5607 70.8549 68.5607C73.8424 68.5607 76.7075 69.7474 78.8199 71.8599C80.9324 73.9723 82.1191 76.8375 82.1191 79.8249C82.1191 82.8124 80.9324 85.6774 78.8199 87.7899L61.8199 104.79L44.8199 87.7899C42.714 85.6727 41.5335 82.8069 41.5372 79.8208C41.541 76.8346 42.7287 73.9717 44.8399 71.8599V71.8599ZM111 107C110.146 107.008 109.32 106.702 108.677 106.14C108.034 105.578 107.621 104.8 107.515 103.953C107.408 103.106 107.617 102.25 108.101 101.547C108.585 100.844 109.311 100.343 110.14 100.14C110.14 97.9099 110.14 95.6699 110.14 93.4799C110.14 91.2899 110.14 89.2099 110.14 87.0699V62.8999C110.14 60.6099 110.14 59.3499 109.65 58.7199C109.16 58.0899 107.74 57.5999 105.22 56.7199C86.7731 50.7056 67.2706 48.6242 47.9699 50.6099C39.0816 51.4248 30.3015 53.1574 21.7699 55.7799C21.7755 55.8899 21.7755 56 21.7699 56.1099C21.7747 56.9451 21.4815 57.7546 20.943 58.393C20.4045 59.0314 19.6561 59.4568 18.8321 59.5929C18.0081 59.7291 17.1625 59.5669 16.4474 59.1357C15.7322 58.7044 15.1942 58.0322 14.9301 57.2398C14.666 56.4475 14.6931 55.587 15.0064 54.8129C15.3198 54.0388 15.8989 53.4017 16.6398 53.0162C17.3807 52.6307 18.2348 52.522 19.0486 52.7096C19.8624 52.8973 20.5826 53.3689 21.0799 54.0399C29.7739 51.3635 38.7216 49.5941 47.7799 48.7599C67.3341 46.7535 87.0917 48.8656 105.78 54.9599C111.78 56.9599 111.98 57.2299 111.98 62.8399V86.9999C111.98 89.1399 111.98 91.2699 111.98 93.4099V100.11C112.786 100.346 113.479 100.864 113.932 101.571C114.385 102.278 114.568 103.124 114.446 103.955C114.324 104.785 113.907 105.544 113.27 106.091C112.633 106.637 111.819 106.935 110.98 106.93L111 107Z" fill="white"/>
<path d="M195.76 134.44C189.952 134.53 184.186 133.442 178.81 131.242C173.434 129.042 168.559 125.776 164.48 121.64C160.288 117.653 156.968 112.839 154.73 107.503C152.492 102.167 151.386 96.4252 151.48 90.64V26.13C158.627 26.13 164.167 28.09 168.1 32.01C169.982 33.8207 171.475 35.996 172.488 38.4031C173.5 40.8103 174.012 43.3986 173.99 46.01V90.61C173.948 93.5092 174.488 96.3875 175.579 99.074C176.67 101.761 178.289 104.201 180.34 106.25C182.31 108.363 184.701 110.038 187.359 111.168C190.017 112.298 192.882 112.858 195.77 112.81H203.72C206.228 112.777 208.716 113.255 211.034 114.214C213.351 115.174 215.449 116.594 217.2 118.39C220.954 122.097 222.827 127.43 222.82 134.39L195.76 134.44ZM207.17 78.12C205.428 79.9274 203.334 81.3586 201.017 82.3252C198.701 83.2918 196.21 83.7733 193.7 83.74H190C188.576 83.7701 187.161 83.5119 185.839 82.9809C184.518 82.4499 183.317 81.657 182.31 80.65C181.286 79.6612 180.477 78.471 179.935 77.1545C179.393 75.8379 179.129 74.4234 179.16 73C179.15 71.5735 179.423 70.1591 179.964 68.8392C180.505 67.5192 181.303 66.3199 182.311 65.3112C183.32 64.3025 184.519 63.5044 185.839 62.9634C187.159 62.4224 188.574 62.1493 190 62.16H212.8C212.8 69.0466 210.924 74.3667 207.17 78.12Z" fill="white"/>
<path d="M270.72 134.44C264.912 134.53 259.146 133.442 253.77 131.242C248.394 129.042 243.519 125.776 239.44 121.64C235.32 117.59 232.048 112.761 229.814 107.433C227.581 102.106 226.43 96.3869 226.43 90.61C226.43 84.8331 227.581 79.1141 229.814 73.7865C232.048 68.4589 235.32 63.6296 239.44 59.58C247.762 51.3105 259.018 46.6691 270.75 46.6691C282.482 46.6691 293.738 51.3105 302.06 59.58C306.195 63.6212 309.48 68.4479 311.723 73.7766C313.966 79.1052 315.121 84.8285 315.121 90.61C315.121 96.3915 313.966 102.115 311.723 107.443C309.48 112.772 306.195 117.599 302.06 121.64C297.967 125.774 293.082 129.039 287.696 131.239C282.311 133.438 276.537 134.527 270.72 134.44V134.44ZM270.72 68.25C267.819 68.1973 264.941 68.759 262.273 69.8983C259.605 71.0375 257.208 72.7284 255.24 74.86C253.199 76.9476 251.592 79.4185 250.511 82.1302C249.429 84.842 248.896 87.7409 248.94 90.66C248.898 93.5592 249.438 96.4375 250.529 99.124C251.62 101.811 253.239 104.251 255.29 106.3C257.295 108.375 259.697 110.024 262.353 111.151C265.009 112.278 267.865 112.859 270.75 112.859C273.635 112.859 276.491 112.278 279.147 111.151C281.803 110.024 284.205 108.375 286.21 106.3C288.274 104.257 289.904 101.82 291.004 99.1322C292.103 96.4449 292.65 93.5633 292.61 90.66C292.653 87.7324 292.108 84.8261 291.009 82.1124C289.91 79.3987 288.278 76.9327 286.21 74.86C284.232 72.7391 281.832 71.0555 279.164 69.9171C276.496 68.7788 273.62 68.2109 270.72 68.25V68.25Z" fill="white"/>
<path d="M387 134.44V124.63C387.033 121.717 386.489 118.827 385.399 116.125C384.309 113.424 382.695 110.965 380.65 108.89C378.692 106.753 376.304 105.055 373.643 103.908C370.982 102.76 368.108 102.188 365.21 102.23H344.86V134.44H322.35V26.13C329.51 26.13 335.05 28.09 338.97 32.01C340.854 33.8193 342.348 35.9943 343.361 38.4018C344.374 40.8092 344.884 43.3983 344.86 46.01V80.6H365.2C368.093 80.6495 370.965 80.0872 373.625 78.9498C376.286 77.8124 378.677 76.1257 380.64 74C382.689 71.9237 384.306 69.4618 385.398 66.7567C386.49 64.0516 387.034 61.1569 387 58.24V47.91H409.5V58.24C409.5 71.5733 404.37 82.6567 394.11 91.49C398.91 95.5916 402.768 100.681 405.42 106.41C408.113 112.106 409.506 118.329 409.5 124.63V134.44H387Z" fill="white"/>
<path d="M457.1 134.44C451.29 134.531 445.522 133.444 440.144 131.244C434.767 129.044 429.89 125.777 425.81 121.64C421.69 117.591 418.418 112.761 416.184 107.434C413.951 102.106 412.8 96.3869 412.8 90.61C412.8 84.8332 413.951 79.1141 416.184 73.7866C418.418 68.459 421.69 63.6296 425.81 59.5801C434.134 51.3099 445.391 46.6682 457.125 46.6682C468.859 46.6682 480.116 51.3099 488.44 59.5801C492.575 63.6212 495.86 68.4479 498.103 73.7766C500.346 79.1053 501.501 84.8285 501.501 90.61C501.501 96.3916 500.346 102.115 498.103 107.443C495.86 112.772 492.575 117.599 488.44 121.64C484.347 125.773 479.461 129.038 474.076 131.237C468.691 133.436 462.917 134.526 457.1 134.44V134.44ZM457.1 68.2501C454.198 68.1972 451.318 68.7588 448.648 69.898C445.978 71.0372 443.58 72.7282 441.61 74.86C439.569 76.9476 437.962 79.4186 436.881 82.1303C435.799 84.8421 435.266 87.741 435.31 90.66C435.271 93.5589 435.812 96.4363 436.903 99.1225C437.993 101.809 439.611 104.249 441.66 106.3C443.666 108.375 446.069 110.025 448.726 111.152C451.383 112.279 454.239 112.86 457.125 112.86C460.011 112.86 462.868 112.279 465.525 111.152C468.181 110.025 470.584 108.375 472.59 106.3C474.652 104.256 476.281 101.818 477.381 99.1309C478.48 96.4439 479.028 93.5631 478.99 90.66C479.028 87.7331 478.482 84.828 477.383 82.115C476.284 79.4019 474.654 76.9354 472.59 74.86C470.611 72.7397 468.211 71.0564 465.544 69.9181C462.876 68.7798 460 68.2116 457.1 68.2501V68.2501Z" fill="white"/>
<path d="M553.12 134.44H531.23V135.16C531.26 137.779 530.754 140.377 529.742 142.793C528.731 145.209 527.236 147.393 525.35 149.21C521.416 153.13 515.873 155.09 508.72 155.09V90.6599C508.641 84.8586 509.761 79.1036 512.01 73.7554C514.259 68.4073 517.589 63.5813 521.79 59.58C530.131 51.3091 541.403 46.6685 553.15 46.6685C564.897 46.6685 576.168 51.3091 584.51 59.58C588.662 63.6162 591.962 68.4442 594.216 73.7783C596.47 79.1123 597.631 84.8443 597.631 90.6349C597.631 96.4256 596.47 102.157 594.216 107.492C591.962 112.826 588.662 117.654 584.51 121.69C580.399 125.81 575.502 129.062 570.109 131.252C564.717 133.442 558.939 134.527 553.12 134.44V134.44ZM553.12 68.2499C550.213 68.196 547.328 68.757 544.653 69.8961C541.979 71.0353 539.575 72.7268 537.6 74.8599C535.554 76.9449 533.942 79.4149 532.857 82.127C531.772 84.839 531.236 87.7393 531.28 90.6599V112.86H553.12C556.013 112.908 558.885 112.348 561.55 111.219C564.214 110.089 566.612 108.413 568.59 106.3C570.646 104.253 572.269 101.814 573.363 99.127C574.458 96.4402 575.001 93.5607 574.96 90.6599C575.003 87.7393 574.467 84.839 573.382 82.127C572.297 79.4149 570.686 76.9449 568.64 74.8599C566.659 72.7205 564.247 71.0252 561.563 69.8858C558.88 68.7464 555.985 68.1889 553.07 68.2499H553.12Z" fill="white"/>
<path d="M649.15 134.44C643.34 134.531 637.572 133.444 632.194 131.244C626.816 129.044 621.94 125.777 617.86 121.64C613.74 117.591 610.468 112.761 608.234 107.434C606 102.106 604.85 96.3869 604.85 90.61C604.85 84.8332 606 79.1141 608.234 73.7866C610.468 68.459 613.74 63.6296 617.86 59.5801C626.184 51.3099 637.441 46.6682 649.175 46.6682C660.909 46.6682 672.166 51.3099 680.49 59.5801C684.625 63.6212 687.91 68.4479 690.153 73.7766C692.396 79.1053 693.551 84.8285 693.551 90.61C693.551 96.3916 692.396 102.115 690.153 107.443C687.91 112.772 684.625 117.599 680.49 121.64C676.397 125.773 671.511 129.038 666.126 131.237C660.74 133.436 654.966 134.526 649.15 134.44ZM649.15 68.2501C646.248 68.1972 643.367 68.7588 640.698 69.898C638.028 71.0372 635.63 72.7282 633.66 74.86C631.619 76.9476 630.012 79.4186 628.93 82.1303C627.849 84.8421 627.315 87.741 627.36 90.66C627.32 93.5589 627.862 96.4363 628.953 99.1225C630.043 101.809 631.661 104.249 633.71 106.3C635.716 108.375 638.119 110.025 640.776 111.152C643.433 112.279 646.289 112.86 649.175 112.86C652.061 112.86 654.917 112.279 657.574 111.152C660.231 110.025 662.634 108.375 664.64 106.3C666.702 104.256 668.331 101.818 669.43 99.1309C670.53 96.4439 671.077 93.5631 671.04 90.66C671.078 87.7331 670.531 84.828 669.432 82.115C668.334 79.4019 666.704 76.9354 664.64 74.86C662.662 72.7392 660.261 71.0555 657.594 69.9172C654.926 68.7788 652.05 68.211 649.15 68.2501V68.2501Z" fill="white"/>
<path d="M745.07 134.44C739.254 134.526 733.48 133.436 728.094 131.237C722.709 129.037 717.823 125.773 713.73 121.64C709.524 117.66 706.191 112.849 703.942 107.512C701.694 102.176 700.58 96.4302 700.67 90.64V26.13C707.83 26.13 713.373 28.09 717.3 32.01C719.181 33.8212 720.672 35.9968 721.683 38.404C722.694 40.8112 723.203 43.3993 723.18 46.01V90.61C723.14 93.5133 723.687 96.3948 724.786 99.0822C725.886 101.769 727.516 104.207 729.58 106.25C731.564 108.361 733.966 110.034 736.633 111.164C739.3 112.294 742.174 112.854 745.07 112.81H753C755.5 112.773 757.98 113.249 760.289 114.209C762.597 115.169 764.684 116.592 766.42 118.39C770.14 122.097 772 127.43 772 134.39L745.07 134.44Z" fill="white"/>
<path d="M770.88 128.56C768.999 126.749 767.508 124.573 766.497 122.166C765.486 119.759 764.977 117.171 765 114.56V46.6699C772.16 46.6699 777.7 48.6333 781.62 52.5599C783.504 54.3685 784.999 56.5434 786.012 58.951C787.025 61.3587 787.535 63.948 787.51 66.5599V134.4C780.35 134.427 774.806 132.48 770.88 128.56Z" fill="white"/>
<path d="M892 62.68C890.234 64.482 888.118 65.9052 885.784 66.8628C883.449 67.8205 880.943 68.2924 878.42 68.25H874.81C872.608 68.2146 870.423 68.6413 868.395 69.5025C866.368 70.3637 864.544 71.6403 863.04 73.25C861.474 74.8127 860.237 76.6736 859.402 78.7227C858.567 80.7718 858.152 82.9675 858.18 85.18V99.53C858.258 104.145 857.376 108.727 855.591 112.984C853.806 117.24 851.157 121.08 847.81 124.26C844.552 127.547 840.664 130.143 836.378 131.891C832.093 133.638 827.498 134.502 822.87 134.43H796.49C796.49 127.477 798.35 122.143 802.07 118.43C803.807 116.632 805.894 115.209 808.202 114.249C810.51 113.289 812.991 112.813 815.49 112.85H819.21C821.421 112.89 823.615 112.466 825.651 111.605C827.687 110.744 829.52 109.464 831.03 107.85C832.593 106.273 833.824 104.399 834.648 102.337C835.473 100.276 835.875 98.0697 835.83 95.8499V81.57C835.754 76.9507 836.642 72.3663 838.438 68.1098C840.234 63.8533 842.898 60.0183 846.26 56.85C849.53 53.5612 853.429 50.9649 857.724 49.2159C862.02 47.4668 866.623 46.601 871.26 46.67H897.59C897.584 53.63 895.72 58.9666 892 62.68Z" fill="white"/>
</svg>
