<svg xmlns="http://www.w3.org/2000/svg" width="66" height="66" viewBox="0 0 66 66">
  <g id="Group_876" data-name="Group 876" transform="translate(-810 -603)">
    <circle id="Ellipse_111" data-name="Ellipse 111" cx="33" cy="33" r="33" transform="translate(810 603)" fill="#fff" opacity="0.878"/>
    <g id="Group_642" data-name="Group 642" transform="translate(-118 -437)">
      <g id="Solid" transform="translate(945.552 1057.552)">
        <path id="Path_442" data-name="Path 442" d="M11.011,9.382,14,6.393V22.207a1.448,1.448,0,0,0,2.9,0V6.393l2.989,2.989a1.448,1.448,0,1,0,2.048-2.048L16.472,1.872a1.448,1.448,0,0,0-2.048,0L8.962,7.334a1.448,1.448,0,1,0,2.048,2.048Z" fill="#5043c5"/>
        <path id="Path_443" data-name="Path 443" d="M28,14a1.448,1.448,0,0,0-1.448,1.448v11.1H4.345v-11.1a1.448,1.448,0,0,0-2.9,0V27.034a2.414,2.414,0,0,0,2.414,2.414H27.034a2.414,2.414,0,0,0,2.414-2.414V15.448A1.448,1.448,0,0,0,28,14Z" fill="#5043c5"/>
      </g>
    </g>
  </g>
</svg>
