<svg id="approved-icon" xmlns="http://www.w3.org/2000/svg" viewBox="0 0 51.104 51.104">
  <g id="Group_956" data-name="Group 956" transform="translate(16.694 0)">
    <g id="Group_955" data-name="Group 955">
      <path id="Path_808" data-name="Path 808" d="M34.37.292A1,1,0,1,0,32.958,1.7,1,1,0,0,0,34.662,1,1,1,0,0,0,34.37.292Z" transform="translate(-32.666 0)" fill="currentColor"/>
    </g>
  </g>
  <g id="Group_958" data-name="Group 958" transform="translate(0 0)">
    <g id="Group_957" data-name="Group 957">
      <path id="Path_809" data-name="Path 809" d="M51.1,18.616a1,1,0,0,0-.411-.759l-4.977-3.6V2.994A3,3,0,0,0,42.72,0H21.61a1,1,0,0,0,0,2H42.72a1,1,0,0,1,1,1v19.6L31.534,32.54l-3.056-2.212a4.981,4.981,0,0,0-5.851,0L19.57,32.54,7.386,22.592V2.994a1,1,0,0,1,1-1h5.44a1,1,0,0,0,0-2H8.384A3,3,0,0,0,5.39,2.994V14.255l-4.977,3.6h0A1,1,0,0,0,0,18.665V46.114A5,5,0,0,0,4.991,51.1H46.114A5,5,0,0,0,51.1,46.114V18.665C51.1,18.647,51.1,18.631,51.1,18.616Zm-5.388-1.9,2.755,1.993-2.755,2.249Zm-40.325,0v4.243L2.635,18.713ZM2,20.769,17.9,33.751,2,45.256Zm44.118,28.34H4.991A3,3,0,0,1,2.328,47.48L23.8,31.946a2.989,2.989,0,0,1,3.511,0l17.1,12.371h-9.97a1,1,0,0,0,0,2H47.164l1.613,1.167A3,3,0,0,1,46.114,49.108Zm2.994-3.852-15.9-11.505,15.9-12.982Z" transform="translate(0)" fill="currentColor"/>
    </g>
  </g>
  <g id="Group_960" data-name="Group 960" transform="translate(20.341 11.619)">
    <g id="Group_959" data-name="Group 959">
      <path id="Path_810" data-name="Path 810" d="M49.933,23.029a1,1,0,0,0-1.412,0l-4.9,4.9-2.117-2.117a1,1,0,0,0-1.412,1.412l2.823,2.823a1,1,0,0,0,1.412,0l5.6-5.6A1,1,0,0,0,49.933,23.029Z" transform="translate(-39.802 -22.736)" fill="currentColor"/>
    </g>
  </g>
  <g id="Group_962" data-name="Group 962" transform="translate(15.523 5.39)">
    <g id="Group_961" data-name="Group 961">
      <path id="Path_811" data-name="Path 811" d="M40.4,10.547A10.029,10.029,0,1,0,50.434,20.576,10.041,10.041,0,0,0,40.4,10.547Zm0,18.062a8.033,8.033,0,1,1,8.033-8.033A8.042,8.042,0,0,1,40.4,28.609Z" transform="translate(-30.375 -10.547)" fill="currentColor"/>
    </g>
  </g>
  <g id="Group_964" data-name="Group 964" transform="translate(28.913 44.317)">
    <g id="Group_963" data-name="Group 963">
      <path id="Path_812" data-name="Path 812" d="M58.28,87.011a1,1,0,1,0,.292.706A1.006,1.006,0,0,0,58.28,87.011Z" transform="translate(-56.576 -86.719)" fill="currentColor"/>
    </g>
  </g>
</svg>
