<svg xmlns="http://www.w3.org/2000/svg" xmlns:xlink="http://www.w3.org/1999/xlink" viewBox="0 0 42 42">
  <g id="Mask_Group_25" data-name="Mask Group 25" transform="translate(-1182 -816)" clip-path="url(#clip-path)">
    <g id="Calendar" transform="translate(1182 816)">
      <path id="Path_967" data-name="Path 967" d="M39.474,4.781h-3.54V3.365a2.832,2.832,0,0,0-5.664,0V4.781H24.606V3.365a2.832,2.832,0,0,0-5.664,0V4.781H13.277V3.365a2.832,2.832,0,0,0-5.664,0V4.781H4.073a3.54,3.54,0,0,0-3.54,3.54v28.32a3.54,3.54,0,0,0,3.54,3.54H23.9a.708.708,0,1,0,0-1.416H4.073a2.13,2.13,0,0,1-2.124-2.124V14.693H41.6V26.73a.708.708,0,0,0,1.416,0V8.321a3.54,3.54,0,0,0-3.54-3.54ZM31.686,3.365a1.416,1.416,0,1,1,2.832,0V7.613a1.416,1.416,0,1,1-2.832,0Zm-11.328,0a1.416,1.416,0,1,1,2.832,0V7.613a1.416,1.416,0,0,1-2.832,0Zm-11.328,0a1.416,1.416,0,1,1,2.832,0V7.613a1.416,1.416,0,0,1-2.832,0ZM41.6,13.277H1.949V8.321A2.13,2.13,0,0,1,4.073,6.2h3.54V7.613a2.832,2.832,0,0,0,5.664,0V6.2h5.664V7.613a2.832,2.832,0,0,0,5.664,0V6.2H30.27V7.613a2.832,2.832,0,0,0,5.664,0V6.2h3.54A2.13,2.13,0,0,1,41.6,8.321Z" transform="translate(-0.533 -0.533)" fill="currentColor"/>
      <path id="Path_968" data-name="Path 968" d="M11.531,8.616A1.416,1.416,0,0,0,10.115,7.2H7.283A1.416,1.416,0,0,0,5.867,8.616V10.74a1.416,1.416,0,0,0,1.416,1.416h2.832a1.416,1.416,0,0,0,1.416-1.416ZM7.283,10.74V8.616h2.832V10.74Z" transform="translate(8.293 10.5)" fill="currentColor"/>
      <path id="Path_969" data-name="Path 969" d="M8.331,8.616A1.416,1.416,0,0,0,6.915,7.2H4.083A1.416,1.416,0,0,0,2.667,8.616V10.74a1.416,1.416,0,0,0,1.416,1.416H6.915A1.416,1.416,0,0,0,8.331,10.74ZM4.083,10.74V8.616H6.915V10.74Z" transform="translate(2.997 10.5)" fill="currentColor"/>
      <path id="Path_970" data-name="Path 970" d="M16.515,12.156a1.416,1.416,0,0,0,1.416-1.416V8.616A1.416,1.416,0,0,0,16.515,7.2H13.683a1.416,1.416,0,0,0-1.416,1.416V10.74a1.416,1.416,0,0,0,1.416,1.416Zm-2.832-3.54h2.832V10.74H13.683Z" transform="translate(18.886 10.5)" fill="currentColor"/>
      <path id="Path_971" data-name="Path 971" d="M11.531,11.016A1.416,1.416,0,0,0,10.115,9.6H7.283a1.416,1.416,0,0,0-1.416,1.416V13.14a1.416,1.416,0,0,0,1.416,1.416h2.832a1.416,1.416,0,0,0,1.416-1.416ZM7.283,13.14V11.016h2.832V13.14Z" transform="translate(8.293 14.472)" fill="currentColor"/>
      <path id="Path_972" data-name="Path 972" d="M8.331,11.016A1.416,1.416,0,0,0,6.915,9.6H4.083a1.416,1.416,0,0,0-1.416,1.416V13.14a1.416,1.416,0,0,0,1.416,1.416H6.915A1.416,1.416,0,0,0,8.331,13.14ZM4.083,13.14V11.016H6.915V13.14Z" transform="translate(2.997 14.472)" fill="currentColor"/>
      <path id="Path_973" data-name="Path 973" d="M10.115,12H7.283a1.416,1.416,0,0,0-1.416,1.416V15.54a1.416,1.416,0,0,0,1.416,1.416h2.832a1.416,1.416,0,0,0,1.416-1.416V13.416A1.416,1.416,0,0,0,10.115,12ZM7.283,15.54V13.416h2.832V15.54Z" transform="translate(8.293 18.444)" fill="currentColor"/>
      <path id="Path_974" data-name="Path 974" d="M10.483,12.156h2.832a1.416,1.416,0,0,0,1.416-1.416V8.616A1.416,1.416,0,0,0,13.315,7.2H10.483A1.416,1.416,0,0,0,9.067,8.616V10.74A1.416,1.416,0,0,0,10.483,12.156Zm0-3.54h2.832V10.74H10.483Z" transform="translate(13.59 10.5)" fill="currentColor"/>
      <path id="Path_975" data-name="Path 975" d="M9.067,13.14a1.416,1.416,0,0,0,1.416,1.416.708.708,0,1,0,0-1.416V11.016h2.832a.708.708,0,1,0,0-1.416H10.483a1.416,1.416,0,0,0-1.416,1.416Z" transform="translate(13.59 14.472)" fill="currentColor"/>
      <path id="Path_976" data-name="Path 976" d="M6.915,12H4.083a1.416,1.416,0,0,0-1.416,1.416V15.54a1.416,1.416,0,0,0,1.416,1.416H6.915A1.416,1.416,0,0,0,8.331,15.54V13.416A1.416,1.416,0,0,0,6.915,12ZM4.083,15.54V13.416H6.915V15.54Z" transform="translate(2.997 18.444)" fill="currentColor"/>
      <path id="Path_977" data-name="Path 977" d="M18.8,9.6a9.2,9.2,0,1,0,9.2,9.2A9.2,9.2,0,0,0,18.8,9.6Zm0,16.992A7.788,7.788,0,1,1,26.592,18.8,7.788,7.788,0,0,1,18.8,26.592Z" transform="translate(14.472 14.472)" fill="currentColor"/>
      <path id="Path_978" data-name="Path 978" d="M20.354,12.078l-5.507,5.507-2.5-2.5a.708.708,0,1,0-1,1l3,3a.708.708,0,0,0,1,0l6.007-6.007a.708.708,0,1,0-1-1Z" transform="translate(17.014 18.23)" fill="currentColor"/>
    </g>
  </g>
</svg>
