<svg id="checked-icon" xmlns="http://www.w3.org/2000/svg" viewBox="0 0 61.048 58.578">
  <g id="Group_871" data-name="Group 871">
    <g id="Group_870" data-name="Group 870">
      <path id="Path_733" data-name="Path 733" d="M57.12,25.411a8.8,8.8,0,0,1-2.051-2,9.221,9.221,0,0,1,.474-2.909c.563-2.192,1.264-4.919-.308-7.066-1.564-2.132-4.377-2.318-6.637-2.47a9.386,9.386,0,0,1-2.9-.457,9.561,9.561,0,0,1-1.365-2.667c-.891-2.207-1.9-4.71-4.379-5.507s-4.713.621-6.693,1.874a8.99,8.99,0,0,1-2.737,1.383A8.9,8.9,0,0,1,27.834,4.19c-1.9-1.239-4.286-2.773-6.8-1.92-2.47.84-3.474,3.327-4.364,5.517a9.471,9.471,0,0,1-1.362,2.656,9.322,9.322,0,0,1-2.949.464c-2.384.161-5.086.343-6.6,2.492-1.491,2.112-.822,4.715-.232,7.013a9.712,9.712,0,0,1,.484,2.9,9.354,9.354,0,0,1-2.028,1.98C2.207,26.756,0,28.575,0,31.3c0,2.707,2.165,4.506,3.9,5.949a8.774,8.774,0,0,1,2.046,2.041,9,9,0,0,1-.479,2.873c-.575,2.212-1.294,4.967.338,7.132,1.592,2.1,4.392,2.291,6.645,2.442a9.321,9.321,0,0,1,2.9.457,9.619,9.619,0,0,1,1.36,2.664c.893,2.207,1.9,4.71,4.382,5.51a4.659,4.659,0,0,0,1.468.235c1.9,0,3.648-1.11,5.227-2.1a8.945,8.945,0,0,1,2.732-1.383A8.741,8.741,0,0,1,33.2,58.482c1.892,1.2,4.253,2.712,6.758,1.854,2.467-.84,3.471-3.325,4.362-5.52a9.507,9.507,0,0,1,1.362-2.656,9.272,9.272,0,0,1,2.937-.464c2.366-.161,5.051-.341,6.592-2.457s.885-4.758.3-7.076a9.634,9.634,0,0,1-.474-2.871,9.391,9.391,0,0,1,2.026-1.98c1.776-1.463,3.983-3.285,3.983-6.009C61.048,28.6,58.868,26.831,57.12,25.411Zm-3.262,8.01c-1.476,1.213-3,2.472-3.6,4.276-.613,1.837-.114,3.8.368,5.706a16.621,16.621,0,0,1,.575,2.8,9.191,9.191,0,0,1-2.911.457c-1.874.126-4,.267-5.58,1.428-1.567,1.148-2.326,3.022-3.06,4.834a14.842,14.842,0,0,1-1.213,2.616,9.142,9.142,0,0,1-2.513-1.314c-1.587-1.009-3.386-2.157-5.4-2.157s-3.827,1.15-5.431,2.165a20.377,20.377,0,0,1-2.356,1.377,9.563,9.563,0,0,1-1.345-2.641c-.742-1.834-1.509-3.729-3.09-4.866s-3.575-1.266-5.515-1.4a12.521,12.521,0,0,1-2.916-.383,8.927,8.927,0,0,1,.479-2.881c.467-1.8,1-3.837.4-5.7s-2.2-3.194-3.62-4.369A10.236,10.236,0,0,1,5.04,31.337c.114-.474,1.438-1.567,2.149-2.149,1.476-1.216,3-2.475,3.6-4.279.618-1.849.109-3.832-.381-5.749a20.524,20.524,0,0,1-.605-2.77,9.539,9.539,0,0,1,2.894-.447c1.97-.131,4.011-.27,5.593-1.428,1.567-1.148,2.326-3.02,3.06-4.831a16.235,16.235,0,0,1,1.2-2.614,9.342,9.342,0,0,1,2.538,1.352c1.6,1.039,3.416,2.218,5.437,2.218s3.83-1.15,5.429-2.162A20,20,0,0,1,38.311,7.1a9.632,9.632,0,0,1,1.345,2.641c.742,1.832,1.509,3.726,3.09,4.864s3.577,1.269,5.52,1.4a13.814,13.814,0,0,1,2.866.356,9.123,9.123,0,0,1-.474,2.891c-.462,1.806-.986,3.852-.383,5.719s2.235,3.2,3.671,4.362a9.672,9.672,0,0,1,2.051,1.98A9.89,9.89,0,0,1,53.858,33.421Z" transform="translate(0 -2.023)" fill="currentColor"/>
    </g>
  </g>
  <g id="Group_873" data-name="Group 873" transform="translate(17.911 19.184)">
    <g id="Group_872" data-name="Group 872">
      <path id="Path_734" data-name="Path 734" d="M53.233,34.036a2.518,2.518,0,0,0-3.552.315L38.432,47.8l-4.786-4.783a2.522,2.522,0,1,0-3.567,3.567l6.736,6.736a2.505,2.505,0,0,0,1.784.739.787.787,0,0,0,.109-.005,2.514,2.514,0,0,0,1.824-.9L53.548,37.588A2.52,2.52,0,0,0,53.233,34.036Z" transform="translate(-29.339 -33.447)" fill="currentColor"/>
    </g>
  </g>
</svg>
