<svg id="report-icon" xmlns="http://www.w3.org/2000/svg" viewBox="0 0 51.067 51.104">
  <path id="Path_722" data-name="Path 722" d="M49.159,11.333a4.2,4.2,0,0,0-5.726,1.534L39.714,19.31V13.974a1,1,0,1,0-2,0v8.793L26.755,41.754a.988.988,0,0,0-.128.392l-.751,6.962H2.184V2H37.718V4.991a1,1,0,1,0,2,0V1a1,1,0,0,0-1-1H1.186a1,1,0,0,0-1,1V50.106a1,1,0,0,0,1,1h37.53a1,1,0,0,0,1-1V36.078l10.98-19.018a4.2,4.2,0,0,0-1.535-5.726ZM28.448,43.884l2.878,1.661-3.318,2.423Zm9.27,5.224H29.833l3.909-2.856a1.012,1.012,0,0,0,.275-.306l3.7-6.41Zm-4.931-5.025-3.8-2.2,14.61-25.3,3.8,2.2ZM48.965,16.061l-.571.99-3.8-2.2.571-.99a2.2,2.2,0,1,1,3.8,2.2Z" transform="translate(-0.188)" fill="currentColor"/>
  <path id="Path_723" data-name="Path 723" d="M377.186,85a1,1,0,1,0,.706.292A1,1,0,0,0,377.186,85Z" transform="translate(-338.658 -76.516)" fill="currentColor"/>
  <path id="Path_724" data-name="Path 724" d="M108.348,106H88.186a1,1,0,1,0,0,2h20.162a1,1,0,1,0,0-2Z" transform="translate(-78.504 -95.42)" fill="currentColor"/>
  <path id="Path_725" data-name="Path 725" d="M108.348,162H88.186a1,1,0,0,0,0,2h20.162a1,1,0,0,0,0-2Z" transform="translate(-78.504 -145.83)" fill="currentColor"/>
  <path id="Path_726" data-name="Path 726" d="M223.347,218h-7.411a1,1,0,0,0,0,2h7.411a1,1,0,1,0,0-2Z" transform="translate(-193.503 -196.241)" fill="currentColor"/>
  <path id="Path_727" data-name="Path 727" d="M109.347,275a1,1,0,0,0-1-1H88.186a1,1,0,1,0,0,2h20.162A1,1,0,0,0,109.347,275Z" transform="translate(-78.504 -246.651)" fill="currentColor"/>
  <path id="Path_728" data-name="Path 728" d="M191.923,331a1,1,0,0,0-1-1h-6.238a1,1,0,1,0,0,2h6.238A1,1,0,0,0,191.923,331Z" transform="translate(-165.372 -297.062)" fill="currentColor"/>
  <path id="Path_729" data-name="Path 729" d="M88.186,388H96.97a1,1,0,1,0,0-2H88.186a1,1,0,1,0,0,2Z" transform="translate(-78.504 -347.472)" fill="currentColor"/>
  <path id="Path_730" data-name="Path 730" d="M88.186,220H94.84a1,1,0,0,0,0-2H88.186a1,1,0,0,0,0,2Z" transform="translate(-78.504 -196.241)" fill="currentColor"/>
  <path id="Path_731" data-name="Path 731" d="M88.186,332h5.14a1,1,0,1,0,0-2h-5.14a1,1,0,1,0,0,2Z" transform="translate(-78.504 -297.062)" fill="currentColor"/>
</svg>
