<svg id="survey-icon" xmlns="http://www.w3.org/2000/svg" viewBox="0 0 51.105 51.104">
  <g id="Group_966" data-name="Group 966" transform="translate(3.991 3.986)">
    <g id="Group_965" data-name="Group 965">
      <path id="Path_813" data-name="Path 813" d="M37.721,12.459A15,15,0,0,1,55.748,9.625a1,1,0,0,1-.97,1.745,12.977,12.977,0,1,0,5.2,5.2,1,1,0,1,1,1.749-.962c.061.111.17.319.275.531h0a14.975,14.975,0,1,1-24.28-3.678Z" transform="translate(-33.61 -7.801)" fill="currentColor"/>
    </g>
  </g>
  <g id="Group_968" data-name="Group 968">
    <g id="Group_967" data-name="Group 967">
      <path id="Path_814" data-name="Path 814" d="M5.546,5.546a18.969,18.969,0,0,1,28.775,24.54l3.111,3.11a3,3,0,0,1,3.409.586l8.8,8.8a4.991,4.991,0,1,1-7.058,7.058l-8.8-8.8a3,3,0,0,1-.586-3.409l-3.11-3.111A18.968,18.968,0,0,1,5.546,5.546ZM35.194,39.429l8.8,8.8a2.994,2.994,0,0,0,4.234-4.235l-8.8-8.8a1,1,0,0,0-1.411,0l-2.824,2.824A1,1,0,0,0,35.194,39.429ZM34.488,35.9,35.9,34.488l-2.843-2.842c-.223.247-.452.49-.687.725s-.477.464-.725.687ZM6.958,30.958a16.971,16.971,0,1,0,0-24A16.944,16.944,0,0,0,6.958,30.958Z" transform="translate(0 0)" fill="currentColor"/>
    </g>
  </g>
  <g id="Group_970" data-name="Group 970" transform="translate(27.843 8.077)">
    <g id="Group_969" data-name="Group 969">
      <path id="Path_815" data-name="Path 815" d="M41.879,16.123A.283.283,0,0,1,41.9,16.1a1,1,0,0,1,1.413,1.413l-.026.025a1,1,0,0,1-1.411-1.412Z" transform="translate(-41.612 -15.805)" fill="currentColor"/>
    </g>
  </g>
</svg>
