<svg viewBox="0 0 900 136" fill="none" xmlns="http://www.w3.org/2000/svg">
<g clip-path="url(#clip0_804_13)">
<path d="M123.14 47.7111V17.421C123.14 10.941 123.14 10.9411 116.14 8.63105C112.66 7.47805 109.167 6.44405 105.66 5.53105C104.652 12.121 96.888 15.1481 91.685 10.9801C89.655 9.35405 88.464 6.90205 88.44 4.30105C88.437 3.53405 88.538 2.77105 88.74 2.03105C73.869 -0.217952 58.776 -0.599951 43.81 0.891049C40.45 1.21105 37.12 1.63105 33.81 2.13105C35.476 8.58605 29.53 14.4241 23.106 12.6391C19.836 11.7301 17.397 8.99505 16.87 5.64105C11.936 6.94005 7.072 8.49605 2.3 10.3011C0.719999 10.9011 0 11.6111 0 13.3011C0.09 34.7211 1.49012e-07 58.1011 0.0900002 79.5211C0.11 80.7481 0.353999 81.9621 0.809999 83.1011C3.273 88.9881 6.776 94.3841 11.15 99.0311C24.51 113.771 41.67 122.211 60.45 130.701C61.349 130.97 62.314 130.906 63.17 130.521C76.48 124.611 88.82 119.381 99.87 110.521C108.98 103.211 116.87 95.0111 121.62 84.8111C122.506 82.9621 122.999 80.9501 123.07 78.9011C123.21 68.5211 123.14 58.1111 123.14 47.7111ZM44.8 81.1611C54.745 88.6081 68.426 88.5421 78.3 81.0011C83.317 77.4131 87.477 72.7591 90.48 67.3711C91.792 65.0081 95.171 64.9521 96.562 67.2701C97.207 68.3461 97.229 69.6841 96.62 70.7811C93.105 77.1101 88.223 82.5761 82.33 86.7811C70.046 96.0031 53.168 96.0801 40.8 86.9711C34.979 82.8991 30.125 77.5971 26.58 71.4411C25.099 69.1721 26.631 66.1501 29.336 66.0031C30.724 65.9271 32.026 66.6751 32.66 67.9111C35.7 73.1541 39.842 77.6751 44.8 81.1611ZM44.42 36.1611C48.823 31.7711 55.947 31.7711 60.35 36.1611L61.41 37.2211L62.47 36.1611C68.601 30.0301 79.071 32.8351 81.315 41.2111C82.357 45.0981 81.246 49.245 78.4 52.091L61.4 69.0911L44.4 52.091C40.015 47.683 40.024 40.5581 44.42 36.1611Z" fill="white"/>
<path d="M197.77 114.537C186.033 114.719 174.733 110.094 166.49 101.737C158.014 93.6751 153.299 82.4331 153.49 70.7371V6.22705C160.637 6.22705 166.177 8.18706 170.11 12.1071C173.913 15.7661 176.043 20.8291 176 26.1071V70.7071C175.915 76.5651 178.205 82.2071 182.35 86.3471C186.333 90.6191 191.94 93.0031 197.78 92.9071H205.73C210.798 92.8411 215.671 94.8581 219.21 98.4871C222.963 102.194 224.837 107.527 224.83 114.487L197.77 114.537ZM209.18 58.2171C205.659 61.8701 200.783 63.9041 195.71 63.8371H192.01C189.133 63.8981 186.355 62.7821 184.32 60.7471C182.249 58.7481 181.107 55.9751 181.17 53.0971C181.125 47.0921 186.005 42.212 192.01 42.257H214.81C214.81 49.144 212.933 54.4641 209.18 58.2171Z" fill="white"/>
<path d="M272.73 114.537C260.993 114.719 249.693 110.094 241.45 101.737C224.103 84.687 224.103 56.727 241.45 39.677C258.774 22.462 286.746 22.462 304.07 39.677C321.485 56.699 321.485 84.716 304.07 101.737C295.8 110.091 284.483 114.713 272.73 114.537ZM272.73 48.347C266.863 48.24 261.23 50.646 257.25 54.957C253.128 59.174 250.86 64.861 250.95 70.757C250.865 76.615 253.155 82.257 257.3 86.397C265.752 95.142 279.768 95.142 288.22 86.397C292.39 82.27 294.7 76.623 294.62 70.757C294.706 64.843 292.398 59.145 288.22 54.957C284.219 50.668 278.594 48.268 272.73 48.347Z" fill="white"/>
<path d="M389.01 114.537V104.727C389.076 98.8441 386.79 93.1781 382.66 88.9871C378.699 84.6661 373.081 82.2421 367.22 82.3271H346.87V114.537H324.36V6.22705C331.52 6.22705 337.06 8.18706 340.98 12.1071C344.787 15.7641 346.918 20.8291 346.87 26.1071V60.6971H367.21C373.062 60.7971 378.679 58.3961 382.65 54.0971C386.789 49.9031 389.079 44.2291 389.01 38.3371V28.007H411.51V38.3371C411.51 51.6701 406.38 62.7541 396.12 71.5871C400.92 75.6891 404.777 80.7781 407.43 86.5071C410.123 92.2031 411.516 98.4271 411.51 104.727V114.537H389.01Z" fill="white"/>
<path d="M459.11 114.537C447.37 114.721 436.065 110.097 427.82 101.737C410.473 84.687 410.473 56.727 427.82 39.677C445.147 22.461 473.122 22.461 490.45 39.677C507.865 56.699 507.865 84.716 490.45 101.737C482.179 110.089 470.863 114.711 459.11 114.537ZM459.11 48.347C453.24 48.24 447.604 50.645 443.62 54.957C439.498 59.174 437.23 64.861 437.32 70.757C437.24 76.614 439.53 82.254 443.67 86.397C452.125 95.143 466.145 95.143 474.6 86.397C478.766 82.267 481.076 76.623 481 70.757C481.077 64.844 478.77 59.15 474.6 54.957C470.599 50.67 464.974 48.269 459.11 48.347Z" fill="white"/>
<path d="M555.13 114.537H533.24V115.257C533.301 120.551 531.173 125.635 527.36 129.307C523.427 133.227 517.883 135.187 510.73 135.187V70.757C510.57 59.029 515.307 47.766 523.8 39.677C541.163 22.462 569.157 22.462 586.52 39.677C604.015 56.684 604.015 84.78 586.52 101.787C578.214 110.111 566.888 114.712 555.13 114.537ZM555.13 48.347C549.251 48.238 543.605 50.643 539.61 54.957C535.478 59.168 533.202 64.858 533.29 70.757V92.957H555.13C560.982 93.053 566.601 90.67 570.6 86.397C574.754 82.262 577.052 76.618 576.97 70.757C577.058 64.858 574.782 59.168 570.65 54.957C566.643 50.63 560.976 48.224 555.08 48.347H555.13Z" fill="white"/>
<path d="M651.16 114.537C639.42 114.721 628.115 110.097 619.87 101.737C602.523 84.687 602.523 56.727 619.87 39.677C637.197 22.461 665.172 22.461 682.5 39.677C699.915 56.699 699.915 84.716 682.5 101.737C674.229 110.089 662.913 114.711 651.16 114.537ZM651.16 48.347C645.29 48.24 639.654 50.645 635.67 54.957C631.548 59.174 629.28 64.861 629.37 70.757C629.29 76.614 631.58 82.254 635.72 86.397C644.175 95.143 658.195 95.143 666.65 86.397C670.816 82.267 673.126 76.623 673.05 70.757C673.127 64.844 670.82 59.15 666.65 54.957C662.649 50.668 657.024 48.268 651.16 48.347Z" fill="white"/>
<path d="M747.08 114.537C735.327 114.711 724.011 110.089 715.74 101.737C707.235 93.6901 702.497 82.4441 702.68 70.7371V6.22705C709.84 6.22705 715.383 8.18706 719.31 12.1071C723.11 15.7681 725.237 20.8311 725.19 26.1071V70.7071C725.11 76.5731 727.42 82.2201 731.59 86.3471C735.601 90.6151 741.224 92.9961 747.08 92.9071H755.01C760.062 92.8321 764.92 94.8521 768.43 98.4871C772.15 102.194 774.01 107.527 774.01 114.487L747.08 114.537Z" fill="white"/>
<path d="M772.89 108.657C769.089 104.997 766.963 99.933 767.01 94.657V26.767C774.17 26.767 779.71 28.73 783.63 32.657C787.439 36.312 789.57 41.378 789.52 46.657V114.497C782.36 114.524 776.817 112.577 772.89 108.657Z" fill="white"/>
<path d="M894.01 42.777C890.44 46.419 885.529 48.433 880.43 48.347H876.82C872.366 48.276 868.09 50.092 865.05 53.347C861.885 56.504 860.132 60.807 860.19 65.277V79.627C860.347 88.958 856.586 97.929 849.82 104.357C843.237 111 834.231 114.672 824.88 114.527H798.5C798.5 107.574 800.36 102.24 804.08 98.527C807.59 94.892 812.448 92.872 817.5 92.947H821.22C825.69 93.029 829.986 91.212 833.04 87.947C836.198 84.762 837.93 80.432 837.84 75.947V61.667C837.685 52.327 841.471 43.353 848.27 36.947C854.877 30.302 863.901 26.628 873.27 26.767H899.6C899.593 33.727 897.73 39.064 894.01 42.777Z" fill="white"/>
</g>
<defs>
<clipPath id="clip0_804_13">
<rect width="899.6" height="135.187" fill="white"/>
</clipPath>
</defs>
</svg>
