<svg id="Layer_1" data-name="Layer 1" xmlns="http://www.w3.org/2000/svg" viewBox="0 0 1080 1151.09"><defs><style>.cls-1{fill:#11224e;}.cls-2{fill:#ff7900;}</style></defs><path class="cls-1" d="M213.76,575.41V545.05c0-6.5,0-6.5-7-8.82q-5.22-1.72-10.51-3.1a8.68,8.68,0,1,1-17-3.51,181.63,181.63,0,0,0-45.05-1.14c-3.36.33-6.7.74-10,1.25a8.68,8.68,0,1,1-17,3.52,146,146,0,0,0-14.61,4.69c-1.58.6-2.31,1.31-2.3,3,.09,21.47.05,44.91.09,66.38a9.74,9.74,0,0,0,.72,3.59,53.29,53.29,0,0,0,10.36,16c13.4,14.78,30.6,23.24,49.43,31.75a3.93,3.93,0,0,0,2.73-.18c13.33-5.92,25.71-11.17,36.78-20.05,9.14-7.34,17-15.55,21.81-25.78a14.91,14.91,0,0,0,1.45-5.93C213.83,596.27,213.76,585.84,213.76,575.41ZM200,612.16a4.39,4.39,0,0,1-.72-.07c-3.48,6.15-8.66,11.89-16.07,17.84-8.42,6.76-17.81,10.91-27.74,15.31l-1.76.79a4.64,4.64,0,0,1-1.76.36,3,3,0,0,1-1.18-.22c-15.34-6.94-28.91-13.65-39.67-25.52a43.25,43.25,0,0,1-8.43-13,8.66,8.66,0,0,1-.64-3.21c0-6.74,0-12.81,0-18.74,0-7.54,0-14.73,0-22.78a3.49,3.49,0,1,1,1.86,0c0,8.06,0,15.25,0,22.78,0,5.93,0,12,0,18.75a6.87,6.87,0,0,0,.51,2.52,41.13,41.13,0,0,0,8.08,12.43C123,631,136.38,637.62,151.53,644.47a2.35,2.35,0,0,0,1.41-.14l1.77-.79c9.82-4.35,19.09-8.46,27.33-15.07,7.19-5.77,12.22-11.32,15.58-17.24a3.49,3.49,0,1,1,2.37.93ZM201.15,599a3.49,3.49,0,0,1-.86-6.87c0-2.24,0-4.48,0-6.67s0-4.29,0-6.43V554.85c0-2.3,0-3.56-.5-4.19s-1.91-1.12-4.44-2A139.29,139.29,0,0,0,138,542.58a129.79,129.79,0,0,0-26.27,5.18c0,.11,0,.22,0,.33A3.51,3.51,0,1,1,111,546a132.43,132.43,0,0,1,26.76-5.3,141.06,141.06,0,0,1,58.14,6.22c6,2,6.22,2.27,6.22,7.9V579q0,3.21,0,6.42c0,2.21,0,4.46,0,6.72a3.49,3.49,0,0,1-1,6.83Z"/><path class="cls-2" d="M187.55,531.9h0a3.9,3.9,0,0,1-3.88-3.47,31.81,31.81,0,0,0-63.24,0,3.9,3.9,0,0,1-3.88,3.47h0a3.9,3.9,0,0,1-3.88-4.34,39.62,39.62,0,0,1,78.76,0A3.91,3.91,0,0,1,187.55,531.9Z"/><path class="cls-2" d="M151.88,621.54a36.47,36.47,0,0,1-20.66-6.8A48.49,48.49,0,0,1,117,599.2a3.53,3.53,0,0,1,6.1-3.54,42,42,0,0,0,12.17,13.28,27.81,27.81,0,0,0,33.58-.16A41.64,41.64,0,0,0,181,595.12a3.52,3.52,0,0,1,6.16,3.42,48.84,48.84,0,0,1-14.33,16A36.55,36.55,0,0,1,151.88,621.54Z"/><path class="cls-2" d="M168.91,579.8l-17,17-17-17a11.29,11.29,0,0,1,16-16l1.07,1.06,1.06-1.06a11.29,11.29,0,0,1,16,16Z"/><path class="cls-2" d="M286.14,626.57a43.09,43.09,0,0,1-31.36-12.84,41.94,41.94,0,0,1-13.05-31.05V518q10.77,0,16.67,5.9A19.21,19.21,0,0,1,264.3,538v44.72a21.77,21.77,0,0,0,6.36,15.68,20.76,20.76,0,0,0,15.48,6.57h8a18.55,18.55,0,0,1,13.51,5.59q5.64,5.6,5.64,16.05Zm11.44-56.47a18.44,18.44,0,0,1-13.51,5.64h-3.73a10.59,10.59,0,0,1-7.71-3.1,10.34,10.34,0,0,1-3.16-7.66,10.79,10.79,0,0,1,10.87-10.87h22.88Q303.22,564.46,297.58,570.1Z"/><path class="cls-2" d="M361.29,626.57a43.11,43.11,0,0,1-31.37-12.84,43.62,43.62,0,0,1,0-62.21,44.54,44.54,0,0,1,62.78,0,43.5,43.5,0,0,1,0,62.21A43.27,43.27,0,0,1,361.29,626.57Zm0-66.35a20.62,20.62,0,0,0-15.53,6.62,22.16,22.16,0,0,0-6.31,15.84,21.77,21.77,0,0,0,6.36,15.68,21.57,21.57,0,0,0,31,0,21.66,21.66,0,0,0,6.42-15.68,22,22,0,0,0-6.42-15.84A20.83,20.83,0,0,0,361.29,560.22Z"/><path class="cls-2" d="M477.84,626.57v-9.84A22.12,22.12,0,0,0,471.47,601,20.58,20.58,0,0,0,456,594.27H435.6v32.3H413V518q10.75,0,16.66,5.9A19.17,19.17,0,0,1,435.6,538v34.68H456A20.58,20.58,0,0,0,471.47,566a22.12,22.12,0,0,0,6.37-15.78V539.83H500.4v10.35q0,20.09-15.42,33.33a44,44,0,0,1,11.33,15,42.62,42.62,0,0,1,4.09,18.27v9.84Z"/><path class="cls-2" d="M548.12,626.57a43.11,43.11,0,0,1-31.37-12.84,43.62,43.62,0,0,1,0-62.21,44.54,44.54,0,0,1,62.78,0,43.48,43.48,0,0,1,0,62.21A43.27,43.27,0,0,1,548.12,626.57Zm0-66.35a20.64,20.64,0,0,0-15.53,6.62,22.16,22.16,0,0,0-6.31,15.84,21.77,21.77,0,0,0,6.36,15.68,21.57,21.57,0,0,0,31,0,21.66,21.66,0,0,0,6.42-15.68,22,22,0,0,0-6.42-15.84A20.83,20.83,0,0,0,548.12,560.22Z"/><path class="cls-1" d="M644.38,626.57H622.44v.72a19.25,19.25,0,0,1-5.9,14.08q-5.91,5.89-16.67,5.9V582.68A42.22,42.22,0,0,1,613,551.52a44.68,44.68,0,0,1,62.89,0,43.45,43.45,0,0,1,0,62.26A43.55,43.55,0,0,1,644.38,626.57Zm0-66.35a20.71,20.71,0,0,0-15.57,6.62,22.13,22.13,0,0,0-6.32,15.84v22.25h21.89a20.83,20.83,0,0,0,15.51-6.57,21.74,21.74,0,0,0,6.38-15.68,22.14,22.14,0,0,0-6.33-15.84A20.7,20.7,0,0,0,644.33,560.22Z"/><path class="cls-1" d="M740.64,626.57a43.09,43.09,0,0,1-31.36-12.84,43.62,43.62,0,0,1,0-62.21,44.54,44.54,0,0,1,62.78,0,43.5,43.5,0,0,1,0,62.21A43.28,43.28,0,0,1,740.64,626.57Zm0-66.35a20.6,20.6,0,0,0-15.52,6.62,22.17,22.17,0,0,0-6.32,15.84,21.73,21.73,0,0,0,6.37,15.68,21.57,21.57,0,0,0,31,0,21.66,21.66,0,0,0,6.42-15.68,22,22,0,0,0-6.42-15.84A20.86,20.86,0,0,0,740.64,560.22Z"/><path class="cls-1" d="M836.8,626.57a43.29,43.29,0,0,1-31.42-12.84,41.87,41.87,0,0,1-13.09-31.05V518q10.77,0,16.67,5.9a19.21,19.21,0,0,1,5.9,14.07v44.72a21.65,21.65,0,0,0,6.41,15.68,20.92,20.92,0,0,0,15.53,6.57h8a18.39,18.39,0,0,1,13.46,5.59q5.58,5.6,5.58,16.05Z"/><path class="cls-1" d="M862.68,620.67a19.21,19.21,0,0,1-5.9-14.08v-68q10.76,0,16.66,5.9a19.25,19.25,0,0,1,5.9,14.08v68Q868.57,626.57,862.68,620.67Z"/><path class="cls-1" d="M984,554.63a18.66,18.66,0,0,1-13.61,5.59H966.8a15.82,15.82,0,0,0-11.8,5,16.59,16.59,0,0,0-4.86,12v14.39a33.43,33.43,0,0,1-10.4,24.79,34.44,34.44,0,0,1-25,10.2h-26.4q0-10.46,5.59-16.05a18.39,18.39,0,0,1,13.46-5.59h3.73A15.83,15.83,0,0,0,923,600a16.6,16.6,0,0,0,4.81-12V573.57a33.33,33.33,0,0,1,10.46-24.79,34.6,34.6,0,0,1,25-10.2h26.39Q989.68,549,984,554.63Z"/></svg>