<svg id="Layer_1" data-name="Layer 1" xmlns="http://www.w3.org/2000/svg" viewBox="0 0 1080 1151.09"><defs><style>.cls-1{fill:#fff;}</style></defs><path class="cls-1" d="M188.41,532h0a3.9,3.9,0,0,1-3.87-3.47,31.73,31.73,0,0,0-63.08,0,3.9,3.9,0,0,1-3.87,3.47h0a3.9,3.9,0,0,1-3.87-4.33,39.52,39.52,0,0,1,78.57,0A3.91,3.91,0,0,1,188.41,532Z"/><path class="cls-1" d="M214.56,575.41V545.12c0-6.48,0-6.48-7-8.79q-5.22-1.73-10.48-3.1A8.66,8.66,0,0,1,179.86,532a8.46,8.46,0,0,1,.3-2.27,180.67,180.67,0,0,0-44.93-1.14c-3.36.32-6.69.74-10,1.24a8.66,8.66,0,1,1-16.94,3.51A147,147,0,0,0,93.72,538c-1.58.6-2.3,1.31-2.3,3,.09,21.42,0,44.8.09,66.22a10.07,10.07,0,0,0,.72,3.58,53.21,53.21,0,0,0,10.34,15.93c13.36,14.74,30.52,23.18,49.3,31.67a3.9,3.9,0,0,0,2.72-.18c13.31-5.91,25.65-11.14,36.7-20,9.11-7.31,17-15.51,21.75-25.71a14.86,14.86,0,0,0,1.45-5.91C214.63,596.22,214.56,585.81,214.56,575.41Zm-13.73,36.66a4.18,4.18,0,0,1-.72-.07c-3.47,6.13-8.64,11.86-16,17.79-8.41,6.75-17.77,10.89-27.67,15.28l-1.76.78a4.46,4.46,0,0,1-1.76.36,2.78,2.78,0,0,1-1.17-.22c-15.31-6.92-28.85-13.61-39.58-25.45a43.25,43.25,0,0,1-8.41-13,8.8,8.8,0,0,1-.63-3.2c0-6.73,0-12.78,0-18.7,0-7.51,0-14.69,0-22.72a3.47,3.47,0,1,1,1.86,0c0,8,0,15.2,0,22.72,0,5.91,0,12,0,18.7a7,7,0,0,0,.5,2.51,41.21,41.21,0,0,0,8.07,12.41c10.49,11.57,23.85,18.17,39,25a2.35,2.35,0,0,0,1.41-.14l1.76-.78c9.8-4.34,19-8.44,27.27-15,7.18-5.76,12.19-11.29,15.54-17.2a3.48,3.48,0,1,1,2.37.93Zm-64.61-3.21a27.77,27.77,0,0,0,33.5-.16,41.74,41.74,0,0,0,12.18-13.63,3.51,3.51,0,1,1,6.14,3.41,48.72,48.72,0,0,1-14.29,16,34.8,34.8,0,0,1-41.53.19A48.48,48.48,0,0,1,118,599.14a3.52,3.52,0,1,1,6.08-3.53A41.89,41.89,0,0,0,136.22,608.86Zm-.38-45a11.28,11.28,0,0,1,15.93,0l1.06,1.06,1.06-1.06a11.26,11.26,0,0,1,15.93,15.93l-17,17-17-17A11.28,11.28,0,0,1,135.84,563.86ZM202,599a3.48,3.48,0,0,1-.86-6.86c0-2.23,0-4.47,0-6.66s0-4.27,0-6.41V554.9c0-2.29,0-3.55-.49-4.18s-1.91-1.12-4.43-2a138.85,138.85,0,0,0-57.25-6.11,129.37,129.37,0,0,0-26.2,5.17,3.25,3.25,0,0,1,0,.33,3.51,3.51,0,1,1-.69-2.07,131.84,131.84,0,0,1,26.7-5.28,140.74,140.74,0,0,1,58,6.2c6,2,6.2,2.27,6.2,7.88V579c0,2.14,0,4.27,0,6.41v6.7a3.48,3.48,0,0,1-1,6.82Z"/><path class="cls-1" d="M286.76,626.44a43,43,0,0,1-31.28-12.8,41.84,41.84,0,0,1-13-31V518.13q10.72,0,16.62,5.88a19.21,19.21,0,0,1,5.89,14v44.6a21.66,21.66,0,0,0,6.35,15.64,20.63,20.63,0,0,0,15.43,6.56h7.95a18.49,18.49,0,0,1,13.48,5.58q5.63,5.56,5.62,16Zm11.41-56.32a18.37,18.37,0,0,1-13.47,5.62H281a10.56,10.56,0,0,1-7.69-3.09,10.32,10.32,0,0,1-3.15-7.65A10.76,10.76,0,0,1,281,554.16H303.8Q303.8,564.49,298.17,570.12Z"/><path class="cls-1" d="M361.72,626.44a43,43,0,0,1-31.28-12.8,43.51,43.51,0,0,1,0-62.06,44.42,44.42,0,0,1,62.62,0,43.39,43.39,0,0,1,0,62.06A43.19,43.19,0,0,1,361.72,626.44Zm0-66.19a20.56,20.56,0,0,0-15.48,6.61,22.12,22.12,0,0,0-6.3,15.8,21.66,21.66,0,0,0,6.35,15.64,21.5,21.5,0,0,0,30.92,0,21.59,21.59,0,0,0,6.4-15.64,21.92,21.92,0,0,0-6.4-15.8A20.8,20.8,0,0,0,361.72,560.25Z"/><path class="cls-1" d="M478,626.44v-9.81a22.07,22.07,0,0,0-6.35-15.74,20.54,20.54,0,0,0-15.44-6.66H435.86v32.21H413.35V518.13q10.74,0,16.62,5.88a19.17,19.17,0,0,1,5.89,14v34.59H456.2A20.54,20.54,0,0,0,471.64,566,22.07,22.07,0,0,0,478,550.24V539.91H500.5v10.33q0,20-15.39,33.25a43.87,43.87,0,0,1,11.31,14.92,42.53,42.53,0,0,1,4.08,18.22v9.81Z"/><path class="cls-1" d="M548.1,626.44a43,43,0,0,1-31.29-12.8,43.51,43.51,0,0,1,0-62.06,44.43,44.43,0,0,1,62.63,0,43.39,43.39,0,0,1,0,62.06A43.21,43.21,0,0,1,548.1,626.44Zm0-66.19a20.58,20.58,0,0,0-15.49,6.61,22.12,22.12,0,0,0-6.3,15.8,21.71,21.71,0,0,0,6.35,15.64,21.51,21.51,0,0,0,30.93,0,21.63,21.63,0,0,0,6.4-15.64,22,22,0,0,0-6.4-15.8A20.81,20.81,0,0,0,548.1,560.25Z"/><path class="cls-1" d="M644.12,626.44H622.23v.72a19.2,19.2,0,0,1-5.88,14.05q-5.9,5.88-16.63,5.88V582.66a42.13,42.13,0,0,1,13.07-31.08,44.54,44.54,0,0,1,62.72,0,43.31,43.31,0,0,1,0,62.11A43.43,43.43,0,0,1,644.12,626.44Zm0-66.19a20.63,20.63,0,0,0-15.52,6.61,22.09,22.09,0,0,0-6.32,15.8v22.2h21.84a20.72,20.72,0,0,0,15.47-6.56,21.64,21.64,0,0,0,6.37-15.64,22.09,22.09,0,0,0-6.32-15.8A20.63,20.63,0,0,0,644.07,560.25Z"/><path class="cls-1" d="M740.15,626.44a43,43,0,0,1-31.29-12.8,43.51,43.51,0,0,1,0-62.06,44.43,44.43,0,0,1,62.63,0,43.39,43.39,0,0,1,0,62.06A43.21,43.21,0,0,1,740.15,626.44Zm0-66.19a20.58,20.58,0,0,0-15.49,6.61,22.12,22.12,0,0,0-6.3,15.8,21.71,21.71,0,0,0,6.35,15.64,21.51,21.51,0,0,0,30.93,0,21.63,21.63,0,0,0,6.4-15.64,22,22,0,0,0-6.4-15.8A20.8,20.8,0,0,0,740.15,560.25Z"/><path class="cls-1" d="M836.07,626.44a43.21,43.21,0,0,1-31.34-12.8,41.78,41.78,0,0,1-13.06-31V518.13q10.74,0,16.63,5.88a19.2,19.2,0,0,1,5.88,14v44.6a21.59,21.59,0,0,0,6.4,15.64,20.82,20.82,0,0,0,15.49,6.56H844a18.28,18.28,0,0,1,13.42,5.58q5.58,5.56,5.58,16Z"/><path class="cls-1" d="M861.88,620.56a19.2,19.2,0,0,1-5.88-14V538.67q10.74,0,16.62,5.89a19.15,19.15,0,0,1,5.89,14v67.84Q867.77,626.44,861.88,620.56Z"/><path class="cls-1" d="M983,554.68a18.58,18.58,0,0,1-13.58,5.57h-3.61a15.76,15.76,0,0,0-11.77,5,16.55,16.55,0,0,0-4.86,11.93v14.35a33.34,33.34,0,0,1-10.37,24.73,34.36,34.36,0,0,1-24.94,10.17H887.49q0-10.43,5.58-16a18.28,18.28,0,0,1,13.42-5.58h3.72a15.79,15.79,0,0,0,11.82-5,16.57,16.57,0,0,0,4.8-12V573.57a33.21,33.21,0,0,1,10.43-24.72,34.53,34.53,0,0,1,25-10.18h26.33Q988.58,549.11,983,554.68Z"/></svg>