<svg xmlns="http://www.w3.org/2000/svg" xmlns:xlink="http://www.w3.org/1999/xlink" viewBox="0 0 573 499">
  <g id="Mask_Group_22" data-name="Mask Group 22" transform="translate(-1103 -1796)" clip-path="url(#clip-path)">
    <g id="steps" transform="translate(1140 1796)">
      <path id="Path_744" data-name="Path 744" d="M125.013,284.65,74.782,260.84v52.906l50.231-23.811A2.924,2.924,0,0,0,125.013,284.65Z" fill="#f4c2e8"/>
      <path id="Path_745" data-name="Path 745" d="M74.781,260.84v52.906L84.791,309V265.585Z" fill="#eaa0d8"/>
      <path id="Path_746" data-name="Path 746" d="M68.447,369.417a61.54,61.54,0,0,1,7.31.45V254.955a7.31,7.31,0,0,0-14.619,0V369.867A61.527,61.527,0,0,1,68.447,369.417Z" fill="#3675bb"/>
      <g id="Group_883" data-name="Group 883">
        <g id="Group_882" data-name="Group 882">
          <path id="Path_747" data-name="Path 747" d="M349.7,75.755h7.8a7.31,7.31,0,1,0,0-14.619h-7.8a7.31,7.31,0,0,0,0,14.619Z" fill="#5443cf"/>
          <path id="Path_748" data-name="Path 748" d="M317.538,75.755h7.8a7.31,7.31,0,1,0,0-14.619h-7.8a7.31,7.31,0,0,0,0,14.619Z" fill="#5443cf"/>
          <path id="Path_749" data-name="Path 749" d="M188.89,75.755h7.8a7.31,7.31,0,1,0,0-14.619h-7.8a7.31,7.31,0,0,0,0,14.619Z" fill="#5443cf"/>
          <path id="Path_750" data-name="Path 750" d="M253.214,75.755h7.8a7.31,7.31,0,1,0,0-14.619h-7.8a7.31,7.31,0,0,0,0,14.619Z" fill="#5443cf"/>
          <path id="Path_751" data-name="Path 751" d="M221.052,75.755h7.8a7.31,7.31,0,1,0,0-14.619h-7.8a7.31,7.31,0,0,0,0,14.619Z" fill="#5443cf"/>
          <path id="Path_752" data-name="Path 752" d="M285.376,75.755h7.8a7.31,7.31,0,1,0,0-14.619h-7.8a7.31,7.31,0,0,0,0,14.619Z" fill="#5443cf"/>
          <path id="Path_753" data-name="Path 753" d="M156.728,75.755h7.8a7.31,7.31,0,1,0,0-14.619h-7.8a7.31,7.31,0,0,0,0,14.619Z" fill="#5443cf"/>
          <path id="Path_754" data-name="Path 754" d="M430.554,136.893a7.309,7.309,0,0,0-7.31,7.31V152a7.31,7.31,0,0,0,14.619,0v-7.8A7.31,7.31,0,0,0,430.554,136.893Z" fill="#5443cf"/>
          <path id="Path_755" data-name="Path 755" d="M430.554,233.379a7.309,7.309,0,0,0-7.31,7.31v7.8a7.31,7.31,0,0,0,14.619,0v-7.8a7.31,7.31,0,0,0-7.31-7.31Z" fill="#5443cf"/>
          <path id="Path_756" data-name="Path 756" d="M430.554,169.055a7.309,7.309,0,0,0-7.31,7.31v7.8a7.31,7.31,0,0,0,14.619,0v-7.8A7.31,7.31,0,0,0,430.554,169.055Z" fill="#5443cf"/>
          <path id="Path_757" data-name="Path 757" d="M430.554,201.217a7.309,7.309,0,0,0-7.31,7.31v7.8a7.31,7.31,0,0,0,14.619,0v-7.8A7.31,7.31,0,0,0,430.554,201.217Z" fill="#5443cf"/>
          <path id="Path_758" data-name="Path 758" d="M430.554,297.7a7.309,7.309,0,0,0-7.31,7.31v7.8a7.31,7.31,0,0,0,14.619,0v-7.8A7.31,7.31,0,0,0,430.554,297.7Z" fill="#5443cf"/>
          <path id="Path_759" data-name="Path 759" d="M430.554,329.865a7.309,7.309,0,0,0-7.31,7.31v7.8a7.31,7.31,0,0,0,14.619,0v-7.8A7.31,7.31,0,0,0,430.554,329.865Z" fill="#5443cf"/>
          <path id="Path_760" data-name="Path 760" d="M430.554,265.541a7.309,7.309,0,0,0-7.31,7.31v7.8a7.31,7.31,0,0,0,14.619,0v-7.8A7.31,7.31,0,0,0,430.554,265.541Z" fill="#5443cf"/>
          <path id="Path_761" data-name="Path 761" d="M165.1,423.245h-7.8a7.31,7.31,0,0,0,0,14.619h7.8a7.31,7.31,0,0,0,0-14.619Z" fill="#5443cf"/>
          <path id="Path_762" data-name="Path 762" d="M229.421,423.245h-7.8a7.31,7.31,0,0,0,0,14.619h7.8a7.31,7.31,0,0,0,0-14.619Z" fill="#5443cf"/>
          <path id="Path_763" data-name="Path 763" d="M197.259,423.245h-7.8a7.31,7.31,0,0,0,0,14.619h7.8a7.31,7.31,0,0,0,0-14.619Z" fill="#5443cf"/>
          <path id="Path_764" data-name="Path 764" d="M325.907,423.245h-7.8a7.31,7.31,0,0,0,0,14.619h7.8a7.31,7.31,0,0,0,0-14.619Z" fill="#5443cf"/>
          <path id="Path_765" data-name="Path 765" d="M358.07,423.245h-7.8a7.31,7.31,0,0,0,0,14.619h7.8a7.31,7.31,0,0,0,0-14.619Z" fill="#5443cf"/>
          <path id="Path_766" data-name="Path 766" d="M261.583,423.245h-7.8a7.31,7.31,0,1,0,0,14.619h7.8a7.31,7.31,0,0,0,0-14.619Z" fill="#5443cf"/>
          <path id="Path_767" data-name="Path 767" d="M293.745,423.245h-7.8a7.31,7.31,0,0,0,0,14.619h7.8a7.31,7.31,0,0,0,0-14.619Z" fill="#5443cf"/>
        </g>
      </g>
      <g id="Group_890" data-name="Group 890">
        <g id="Group_885" data-name="Group 885">
          <g id="Group_884" data-name="Group 884">
            <circle id="Ellipse_118" data-name="Ellipse 118" cx="61.137" cy="61.137" r="61.137" transform="translate(369.416 7.31)" fill="#4ccef8"/>
          </g>
        </g>
        <g id="Group_886" data-name="Group 886">
          <path id="Path_768" data-name="Path 768" d="M402.514,68.447A61.15,61.15,0,0,1,447.1,9.6a61.137,61.137,0,1,0,0,117.7,61.151,61.151,0,0,1-44.588-58.852Z" fill="#47c7f0"/>
        </g>
        <g id="Group_888" data-name="Group 888">
          <g id="Group_887" data-name="Group 887">
            <path id="Path_769" data-name="Path 769" d="M430.554,136.893A68.446,68.446,0,1,1,499,68.446,68.523,68.523,0,0,1,430.554,136.893Zm0-122.274a53.827,53.827,0,1,0,53.827,53.827,53.888,53.888,0,0,0-53.827-53.827Z" fill="#77dafa"/>
          </g>
        </g>
        <g id="Group_889" data-name="Group 889">
          <path id="Path_770" data-name="Path 770" d="M446.426,99.27H414.683a7.309,7.309,0,0,1-5.316-12.325l26.295-27.874a4.05,4.05,0,0,0-2.945-6.829H418.209a7.31,7.31,0,0,1,0-14.619h14.507A18.668,18.668,0,0,1,446.294,69.1L431.626,84.651h14.8a7.31,7.31,0,0,1,0,14.619Z" fill="#fff"/>
        </g>
      </g>
      <g id="Group_897" data-name="Group 897">
        <g id="Group_896" data-name="Group 896">
          <g id="Group_895" data-name="Group 895">
            <g id="Group_891" data-name="Group 891">
              <circle id="Ellipse_119" data-name="Ellipse 119" cx="61.137" cy="61.137" r="61.137" transform="translate(7.31 7.31)" fill="#deaefc"/>
            </g>
            <g id="Group_892" data-name="Group 892">
              <path id="Path_771" data-name="Path 771" d="M39.959,68.447A61.15,61.15,0,0,1,84.772,9.532a61.137,61.137,0,1,0,0,117.83A61.151,61.151,0,0,1,39.959,68.447Z" fill="#daa7fa"/>
            </g>
            <g id="Group_893" data-name="Group 893">
              <path id="Path_772" data-name="Path 772" d="M68.446,136.893a68.446,68.446,0,1,1,68.446-68.447A68.524,68.524,0,0,1,68.446,136.893Zm0-122.274a53.827,53.827,0,1,0,53.827,53.827A53.888,53.888,0,0,0,68.446,14.619Z" fill="#e8c4ff"/>
            </g>
            <g id="Group_894" data-name="Group 894">
              <path id="Path_773" data-name="Path 773" d="M71.974,99.27a7.31,7.31,0,0,1-7.31-7.31V52.242h-6.8a7.31,7.31,0,1,1,0-14.619H71.974a7.31,7.31,0,0,1,7.31,7.31V91.96A7.309,7.309,0,0,1,71.974,99.27Z" fill="#fff"/>
            </g>
          </g>
        </g>
        <g id="Group_926" data-name="Group 926" transform="translate(362 362)">
          <g id="Group_895-2" data-name="Group 895">
            <g id="Group_891-2" data-name="Group 891">
              <circle id="Ellipse_119-2" data-name="Ellipse 119" cx="61.137" cy="61.137" r="61.137" transform="translate(7.31 7.31)" fill="#deaefc"/>
            </g>
            <g id="Group_892-2" data-name="Group 892">
              <path id="Path_771-2" data-name="Path 771" d="M39.959,68.447A61.15,61.15,0,0,1,84.772,9.532a61.137,61.137,0,1,0,0,117.83A61.151,61.151,0,0,1,39.959,68.447Z" fill="#daa7fa"/>
            </g>
            <g id="Group_893-2" data-name="Group 893">
              <path id="Path_772-2" data-name="Path 772" d="M68.446,136.893a68.446,68.446,0,1,1,68.446-68.447A68.524,68.524,0,0,1,68.446,136.893Zm0-122.274a53.827,53.827,0,1,0,53.827,53.827A53.888,53.888,0,0,0,68.446,14.619Z" fill="#e8c4ff"/>
            </g>
            <path id="Path_793" data-name="Path 793" d="M452.56,418.8a19.088,19.088,0,0,0-19.066-19.066H415.858a7.31,7.31,0,0,0,0,14.619h17.636a4.447,4.447,0,1,1,0,8.894h-8.23a7.31,7.31,0,0,0,0,14.619h8.23a4.447,4.447,0,0,1,0,8.894H415.858a7.31,7.31,0,0,0,0,14.619h17.636a19.037,19.037,0,0,0,14.979-30.823A18.956,18.956,0,0,0,452.56,418.8Z" transform="translate(-362 -362)" fill="#fff"/>
          </g>
        </g>
      </g>
      <g id="Group_911" data-name="Group 911">
        <g id="Group_910" data-name="Group 910">
          <g id="Group_904" data-name="Group 904">
            <circle id="Ellipse_121" data-name="Ellipse 121" cx="61.137" cy="61.137" r="61.137" transform="translate(7.31 369.416)" fill="#4ccef8"/>
          </g>
          <g id="Group_905" data-name="Group 905">
            <path id="Path_777" data-name="Path 777" d="M39.959,430.553a61.15,61.15,0,0,1,44.813-58.915,61.137,61.137,0,1,0,0,117.83,61.149,61.149,0,0,1-44.813-58.915Z" fill="#47c7f0"/>
          </g>
          <g id="Group_906" data-name="Group 906">
            <path id="Path_778" data-name="Path 778" d="M68.446,499a68.446,68.446,0,1,1,68.446-68.446A68.524,68.524,0,0,1,68.446,499Zm0-122.273a53.827,53.827,0,1,0,53.827,53.828,53.888,53.888,0,0,0-53.827-53.828Z" fill="#77dafa"/>
          </g>
          <g id="Group_907" data-name="Group 907">
            <circle id="Ellipse_122" data-name="Ellipse 122" cx="26.139" cy="26.139" r="26.139" transform="translate(42.307 404.415)" fill="#fff"/>
          </g>
          <g id="Group_908" data-name="Group 908">
            <path id="Path_779" data-name="Path 779" d="M64.324,430.554a26.168,26.168,0,0,1,15.131-23.7,26.139,26.139,0,1,0,0,47.4,26.17,26.17,0,0,1-15.131-23.7Z" fill="#f2fbff"/>
          </g>
          <g id="Group_909" data-name="Group 909">
            <path id="Path_780" data-name="Path 780" d="M68.446,464a33.449,33.449,0,1,1,33.449-33.449A33.487,33.487,0,0,1,68.446,464Zm0-52.277a18.829,18.829,0,1,0,18.829,18.829A18.851,18.851,0,0,0,68.446,411.725Z" fill="#77dafa"/>
          </g>
        </g>
      </g>
      <g id="Group_925" data-name="Group 925">
        <g id="Group_912" data-name="Group 912">
          <path id="Path_781" data-name="Path 781" d="M338.021,364.459H160.979a2.924,2.924,0,0,1-2.924-2.924V137.465a2.924,2.924,0,0,1,2.924-2.924H338.022a2.924,2.924,0,0,1,2.924,2.924V361.536A2.925,2.925,0,0,1,338.021,364.459Z" fill="#f4f0fe"/>
        </g>
        <g id="Group_913" data-name="Group 913">
          <path id="Path_782" data-name="Path 782" d="M191.023,361.535V137.465a2.924,2.924,0,0,1,2.924-2.924H160.979a2.924,2.924,0,0,0-2.924,2.924V361.536a2.924,2.924,0,0,0,2.924,2.924h32.968A2.925,2.925,0,0,1,191.023,361.535Z" fill="#ece5fc"/>
        </g>
        <g id="Group_914" data-name="Group 914">
          <path id="Path_783" data-name="Path 783" d="M281.5,175.824h-64a7.31,7.31,0,0,1,0-14.619h64a7.31,7.31,0,0,1,0,14.619Z" fill="#aa9fff"/>
        </g>
        <g id="Group_924" data-name="Group 924">
          <g id="Group_915" data-name="Group 915">
            <path id="Path_784" data-name="Path 784" d="M301.552,206.638H277.764a7.31,7.31,0,0,1,0-14.619h23.788a7.31,7.31,0,0,1,0,14.619Z" fill="#aa9fff"/>
          </g>
          <g id="Group_916" data-name="Group 916">
            <path id="Path_785" data-name="Path 785" d="M255.348,206.638h-57.9a7.31,7.31,0,0,1,0-14.619h57.9a7.31,7.31,0,0,1,0,14.619Z" fill="#aa9fff"/>
          </g>
          <g id="Group_917" data-name="Group 917">
            <path id="Path_786" data-name="Path 786" d="M301.552,232.287h-104.1a7.31,7.31,0,0,1,0-14.619h104.1a7.31,7.31,0,0,1,0,14.619Z" fill="#aa9fff"/>
          </g>
          <g id="Group_918" data-name="Group 918">
            <path id="Path_787" data-name="Path 787" d="M301.552,257.937H259.246a7.31,7.31,0,1,1,0-14.619h42.306a7.31,7.31,0,1,1,0,14.619Z" fill="#aa9fff"/>
          </g>
          <g id="Group_919" data-name="Group 919">
            <path id="Path_788" data-name="Path 788" d="M237.8,257.937H197.448a7.31,7.31,0,1,1,0-14.619H237.8a7.31,7.31,0,1,1,0,14.619Z" fill="#aa9fff"/>
          </g>
          <g id="Group_920" data-name="Group 920">
            <path id="Path_789" data-name="Path 789" d="M301.552,283.587h-104.1a7.31,7.31,0,0,1,0-14.619h104.1a7.31,7.31,0,0,1,0,14.619Z" fill="#aa9fff"/>
          </g>
          <g id="Group_921" data-name="Group 921">
            <path id="Path_790" data-name="Path 790" d="M301.552,309.236H267.043a7.31,7.31,0,0,1,0-14.619h34.509a7.31,7.31,0,0,1,0,14.619Z" fill="#aa9fff"/>
          </g>
          <g id="Group_922" data-name="Group 922">
            <path id="Path_791" data-name="Path 791" d="M246.576,309.236H197.448a7.31,7.31,0,0,1,0-14.619h49.128a7.31,7.31,0,0,1,0,14.619Z" fill="#aa9fff"/>
          </g>
          <g id="Group_923" data-name="Group 923">
            <path id="Path_792" data-name="Path 792" d="M301.552,334.885h-104.1a7.31,7.31,0,0,1,0-14.619h104.1a7.31,7.31,0,0,1,0,14.619Z" fill="#aa9fff"/>
          </g>
        </g>
      </g>
    </g>
  </g>
</svg>
