<svg id="vehicle-under-repair-icon" xmlns="http://www.w3.org/2000/svg" viewBox="0 0 58.675 58.578">
  <path id="Path_798" data-name="Path 798" d="M55.68,40.713a10.331,10.331,0,0,0-11-2.287l-1.651-1.647a3.584,3.584,0,0,0,.376-.326l4.119-4.11a3.58,3.58,0,0,0,0-5.06h0a3.58,3.58,0,0,0-2.73-1.04,4.046,4.046,0,0,0,.038-.547,3.96,3.96,0,0,0-3.784-3.958,3.958,3.958,0,0,0-4.222-5.189,4.066,4.066,0,0,0,.027-.456,3.933,3.933,0,0,0-1.16-2.8,3.981,3.981,0,0,0-5.615,0l-2.633,2.627-.2-.2a2.537,2.537,0,0,0-3.578,0l-.874.872-2.546-2.543A10.231,10.231,0,0,0,8.778.263C8.3.353,6.841.628,6.541,1.744,6.249,2.835,7.289,3.73,7.79,4.16,7.84,4.2,11.9,8.247,11.9,8.247a2.879,2.879,0,0,1,.171,3.88,2.9,2.9,0,0,1-3.894-.171s-4.052-4.051-4.1-4.1c-.431-.5-1.328-1.537-2.42-1.244C.546,6.91.271,8.364.181,8.842A10.229,10.229,0,0,0,2.995,18a10.332,10.332,0,0,0,11,2.287l2.948,2.941a7.11,7.11,0,0,0-.466,2.98c.14,2.306-1.083,4.568-4.088,7.563L9.257,36.9a2.826,2.826,0,0,0-3.281.511L1.592,41.78a2.816,2.816,0,0,0,0,3.98L13.7,57.839a2.824,2.824,0,0,0,3.983,0l4.384-4.374a2.82,2.82,0,0,0,.514-3.276L27.9,44.876c1.578-1.575,1.835-1.532,3.507-1.253.281.047.6.1.959.151a7.432,7.432,0,0,0,4.115-1.045l1.943,1.939a10.341,10.341,0,0,0-.691,4.176.859.859,0,0,0,.858.823h.037a.859.859,0,0,0,.823-.895,8.582,8.582,0,0,1,.772-3.942.86.86,0,0,0-.173-.969L26.3,30.136a7.534,7.534,0,0,0,.911-3.276,9.424,9.424,0,0,0,3.565,1.886,6.252,6.252,0,0,0,2.894.145c0,.01,0,.019,0,.029a3.961,3.961,0,0,0,3.781,3.954,3.6,3.6,0,0,0-.155,1.049,3.571,3.571,0,0,0,3.58,3.575,3.6,3.6,0,0,0,.418-.025l2.584,2.578a.859.859,0,0,0,.965.173,8.6,8.6,0,0,1,9.624,1.706A8.511,8.511,0,0,1,56.8,49.552a2.946,2.946,0,0,1-.253.83,3.7,3.7,0,0,1-.658-.646c-.074-.086-4.183-4.2-4.183-4.2a4.623,4.623,0,0,0-6.281-.212.883.883,0,0,0-.082.082,4.6,4.6,0,0,0,.213,6.273l4.849,4.826a2.976,2.976,0,0,1-.832.252,8.513,8.513,0,0,1-9.2-4.473.859.859,0,1,0-1.53.784,10.218,10.218,0,0,0,9.121,5.559A10.4,10.4,0,0,0,49.9,58.45c.479-.09,1.938-.365,2.237-1.481.293-1.091-.748-1.986-1.248-2.416-.051-.044-4.111-4.087-4.111-4.087A2.638,2.638,0,1,1,50.5,46.758s4.052,4.051,4.1,4.1c.431.5,1.329,1.538,2.42,1.244,1.115-.3,1.391-1.754,1.481-2.232a10.228,10.228,0,0,0-2.813-9.158ZM38.881,18.9a2.254,2.254,0,0,1,.031,3.144L36.149,24.8c-.474-.687-3.084-3.276-3.084-3.276L35.7,18.9A2.259,2.259,0,0,1,38.881,18.9Zm-7.586-4.39a2.259,2.259,0,0,1,3.186,0,2.25,2.25,0,0,1,0,3.174l-2.633,2.627-3.184-3.176ZM14.8,18.662a.859.859,0,0,0-.965-.173,8.6,8.6,0,0,1-9.624-1.706A8.511,8.511,0,0,1,1.87,9.162a2.946,2.946,0,0,1,.253-.83,3.7,3.7,0,0,1,.658.646c.074.086,4.183,4.2,4.183,4.2a4.623,4.623,0,0,0,6.281.212.882.882,0,0,0,.082-.082,4.6,4.6,0,0,0-.213-6.273S8.347,2.328,8.265,2.2A2.976,2.976,0,0,1,9.1,1.952a8.514,8.514,0,0,1,9.352,11.932.859.859,0,0,0,.173.968L21.576,17.8l-3.2,3.2a6.03,6.03,0,0,0-.57.663Zm20.033,7.45a3.985,3.985,0,0,0-.576.728c-1.831,1.134-4.726-.115-6.166-1.5l-.179-.178c-1.317-1.312-2.017-2.011-2.082-2.077l0,0-.009-.01-.014-.012a.859.859,0,0,0-1.218,1.211l.017.018a3.258,3.258,0,0,1,.9,2.371,6.648,6.648,0,0,1-2.077,4.5.86.86,0,0,0,1.214,1.217,9.777,9.777,0,0,0,.7-.775L35.2,41.451a5.186,5.186,0,0,1-2.591.622c-.34-.048-.648-.1-.92-.145-1.992-.332-2.884-.383-5,1.732l-5.232,5.22-4.323-4.313a.859.859,0,1,0-1.214,1.217L20.85,50.7h0a1.1,1.1,0,0,1,0,1.546l-4.384,4.374a1.1,1.1,0,0,1-1.555,0L2.806,44.543a1.1,1.1,0,0,1,0-1.546L7.19,38.622a1.1,1.1,0,0,1,1.555,0l4.335,4.325a.859.859,0,0,0,1.214-1.217l-3.725-3.717L13.6,34.989c3.39-3.379,4.762-6.036,4.59-8.884a5.184,5.184,0,0,1,1.4-3.891l5.293-5.281a.825.825,0,0,1,1.149,0l.809.808,5.6,5.589.451.447a14.156,14.156,0,0,1,2.017,2.261Zm2.807,5.047a2.244,2.244,0,0,1-1.593-3.83l3.227-3.22a2.259,2.259,0,0,1,3.186,0h0a2.245,2.245,0,0,1,0,3.172h0L39.23,30.5a2.234,2.234,0,0,1-1.592.656Zm1.918,4.077a1.861,1.861,0,0,1,0-2.626l4.116-4.11a1.872,1.872,0,0,1,2.64,0h0a1.861,1.861,0,0,1,0,2.626l-4.119,4.11a1.87,1.87,0,0,1-2.637,0Z" transform="translate(0 -0.083)" fill="currentColor"/>
</svg>
