<svg id="vehicle-ready-icon" xmlns="http://www.w3.org/2000/svg" viewBox="0 0 58.578 58.578">
  <g id="Group_938" data-name="Group 938" transform="translate(49.522 11.922)">
    <g id="Group_937" data-name="Group 937">
      <path id="Path_799" data-name="Path 799" d="M92.736,24.02a2.812,2.812,0,0,1-2.809-2.809.86.86,0,1,0-1.72,0A2.812,2.812,0,0,1,85.4,24.02a.86.86,0,0,0,0,1.72,2.812,2.812,0,0,1,2.809,2.809.86.86,0,1,0,1.72,0,2.812,2.812,0,0,1,2.809-2.809.86.86,0,1,0,0-1.72ZM89.068,25.9a4.574,4.574,0,0,0-1.016-1.016,4.572,4.572,0,0,0,1.016-1.016,4.574,4.574,0,0,0,1.016,1.016A4.574,4.574,0,0,0,89.068,25.9Z" transform="translate(-84.54 -20.352)" fill="currentColor"/>
    </g>
  </g>
  <g id="Group_940" data-name="Group 940" transform="translate(0 11.922)">
    <g id="Group_939" data-name="Group 939">
      <path id="Path_800" data-name="Path 800" d="M8.2,24.02a2.812,2.812,0,0,1-2.809-2.809.86.86,0,1,0-1.72,0A2.812,2.812,0,0,1,.86,24.02a.86.86,0,1,0,0,1.72,2.812,2.812,0,0,1,2.809,2.809.86.86,0,0,0,1.72,0A2.812,2.812,0,0,1,8.2,25.74a.86.86,0,1,0,0-1.72ZM4.528,25.9A4.571,4.571,0,0,0,3.512,24.88a4.569,4.569,0,0,0,1.016-1.016A4.571,4.571,0,0,0,5.544,24.88,4.576,4.576,0,0,0,4.528,25.9Z" transform="translate(0 -20.352)" fill="currentColor"/>
    </g>
  </g>
  <g id="Group_942" data-name="Group 942" transform="translate(23.844)">
    <g id="Group_941" data-name="Group 941">
      <path id="Path_801" data-name="Path 801" d="M50.735,4.585A3.73,3.73,0,0,1,47.009.86a.86.86,0,1,0-1.719,0,3.73,3.73,0,0,1-3.726,3.726.86.86,0,0,0,0,1.72,3.73,3.73,0,0,1,3.726,3.726.86.86,0,0,0,1.72,0,3.73,3.73,0,0,1,3.726-3.726.86.86,0,1,0,0-1.72ZM46.149,7.1A5.493,5.493,0,0,0,44.5,5.445a5.493,5.493,0,0,0,1.652-1.651A5.494,5.494,0,0,0,47.8,5.445,5.494,5.494,0,0,0,46.149,7.1Z" transform="translate(-40.704)" fill="currentColor"/>
    </g>
  </g>
  <g id="Group_944" data-name="Group 944" transform="translate(11.112 18.341)">
    <g id="Group_943" data-name="Group 943">
      <path id="Path_802" data-name="Path 802" d="M55.046,41.972,51.7,32.5a1.78,1.78,0,0,0-1.676-1.186H24.037A1.779,1.779,0,0,0,22.361,32.5l-3.344,9.476a.868.868,0,0,0,.811,1.146H54.236a.86.86,0,0,0,.811-1.146Zm-34-.574,2.94-8.33a.059.059,0,0,1,.054-.038h25.99a.059.059,0,0,1,.054.038l2.94,8.33Z" transform="translate(-18.969 -31.311)" fill="currentColor"/>
    </g>
  </g>
  <g id="Group_946" data-name="Group 946" transform="translate(40.236 40.351)">
    <g id="Group_945" data-name="Group 945">
      <path id="Path_803" data-name="Path 803" d="M74.134,68.884c-3.053,0-5.445,1.586-5.445,3.611s2.392,3.611,5.445,3.611,5.445-1.586,5.445-3.611S77.187,68.884,74.134,68.884Zm0,5.5c-2.132,0-3.726-1-3.726-1.891S72,70.6,74.134,70.6s3.726,1,3.726,1.891S76.266,74.387,74.134,74.387Z" transform="translate(-68.689 -68.884)" fill="currentColor"/>
    </g>
  </g>
  <g id="Group_948" data-name="Group 948" transform="translate(7.222 40.351)">
    <g id="Group_947" data-name="Group 947">
      <path id="Path_804" data-name="Path 804" d="M17.774,68.884c-3.053,0-5.445,1.586-5.445,3.611s2.392,3.611,5.445,3.611,5.445-1.586,5.445-3.611S20.827,68.884,17.774,68.884Zm0,5.5c-2.132,0-3.726-1-3.726-1.891S15.641,70.6,17.774,70.6,21.5,71.6,21.5,72.5,19.906,74.387,17.774,74.387Z" transform="translate(-12.329 -68.884)" fill="currentColor"/>
    </g>
  </g>
  <g id="Group_950" data-name="Group 950" transform="translate(0.802 15.59)">
    <g id="Group_949" data-name="Group 949">
      <path id="Path_805" data-name="Path 805" d="M57.254,38.536H52.669a.86.86,0,0,0-.834.651l-.6,2.416L47.006,29.635a4.535,4.535,0,0,0-4.27-3.021H16.747a4.535,4.535,0,0,0-4.27,3.021L8.253,41.6l-.6-2.416a.86.86,0,0,0-.834-.651H2.23a.86.86,0,0,0-.86.86v3.668a.86.86,0,0,0,.86.86H6.978l-2.931,4.1A4.5,4.5,0,0,0,3.2,50.66V61.406A4.524,4.524,0,0,0,5.04,65.044c0,.01,0,.02,0,.03v2.751A1.779,1.779,0,0,0,6.815,69.6h5.5a1.779,1.779,0,0,0,1.777-1.777V65.934h31.3v1.891A1.779,1.779,0,0,0,47.166,69.6h5.5a1.779,1.779,0,0,0,1.777-1.777V65.074c0-.01,0-.02,0-.03a4.524,4.524,0,0,0,1.836-3.638V50.66a4.5,4.5,0,0,0-.843-2.632l-2.931-4.1h4.749a.86.86,0,0,0,.86-.86V39.4A.859.859,0,0,0,57.254,38.536ZM3.089,42.2V40.256H6.144L6.631,42.2Zm9.285,25.621a.057.057,0,0,1-.057.057h-5.5a.057.057,0,0,1-.057-.057V65.934h5.617v1.891Zm40.351,0a.057.057,0,0,1-.057.057h-5.5a.057.057,0,0,1-.057-.057V65.934h5.617Zm-.974-3.611H7.732a2.813,2.813,0,0,1-2.673-1.949H54.425A2.813,2.813,0,0,1,51.751,64.214ZM37.136,54.929v1.949H22.348V54.929Zm-14.653-1.72a2.813,2.813,0,0,1,2.673-1.949h9.171A2.813,2.813,0,0,1,37,53.209ZM37.136,58.6v1.949H22.348V58.6Zm16.9-9.57a2.793,2.793,0,0,1,.523,1.632v9.887h-15.7V54.069a4.533,4.533,0,0,0-4.528-4.528H25.156a4.533,4.533,0,0,0-4.528,4.528v6.477H4.923V50.66a2.793,2.793,0,0,1,.523-1.632l3.645-5.1H40.746a.86.86,0,1,0,0-1.72H9.864l4.234-12a2.813,2.813,0,0,1,2.648-1.874h25.99a2.813,2.813,0,0,1,2.648,1.874l4.234,12h-5.2a.86.86,0,0,0,0,1.72h5.977ZM56.394,42.2H52.853l.487-1.949h3.054Z" transform="translate(-1.37 -26.614)" fill="currentColor"/>
    </g>
  </g>
  <g id="Group_952" data-name="Group 952" transform="translate(9.056 37.6)">
    <g id="Group_951" data-name="Group 951">
      <path id="Path_806" data-name="Path 806" d="M21.822,64.188h-5.5a.86.86,0,1,0,0,1.72h5.5a.86.86,0,1,0,0-1.72Z" transform="translate(-15.46 -64.188)" fill="currentColor"/>
    </g>
  </g>
  <g id="Group_954" data-name="Group 954" transform="translate(42.071 37.6)">
    <g id="Group_953" data-name="Group 953">
      <path id="Path_807" data-name="Path 807" d="M78.182,64.188h-5.5a.86.86,0,1,0,0,1.72h5.5a.86.86,0,1,0,0-1.72Z" transform="translate(-71.82 -64.188)" fill="currentColor"/>
    </g>
  </g>
</svg>
